G04*
G04 #@! TF.GenerationSoftware,Altium Limited,Altium Designer,21.2.1 (34)*
G04*
G04 Layer_Color=65535*
%FSLAX25Y25*%
%MOIN*%
G70*
G04*
G04 #@! TF.SameCoordinates,937FA343-5D84-449D-BBD7-2FC7B833E5F3*
G04*
G04*
G04 #@! TF.FilePolarity,Positive*
G04*
G01*
G75*
%ADD10C,0.01000*%
%ADD11C,0.00787*%
%ADD12C,0.01180*%
%ADD13C,0.00790*%
%ADD14C,0.00984*%
%ADD15C,0.01181*%
%ADD16C,0.00500*%
%ADD17C,0.00100*%
%ADD18C,0.00600*%
%ADD19C,0.01200*%
%ADD20R,0.03937X0.00787*%
%ADD21R,0.00787X0.03937*%
G36*
X23181Y110000D02*
X21213Y111181D01*
Y108819D01*
X23181Y110000D01*
D02*
G37*
G36*
X104032Y94055D02*
X107968D01*
X106000Y90512D01*
X104032Y94055D01*
D02*
G37*
G36*
X316355Y47157D02*
Y43220D01*
X312812Y45188D01*
X316355Y47157D01*
D02*
G37*
G36*
X347866Y21681D02*
X346685Y19713D01*
X349047D01*
X347866Y21681D01*
D02*
G37*
G36*
X240198Y110300D02*
X238776D01*
Y110989D01*
X238753D01*
X238742Y110977D01*
X238731Y110955D01*
X238698Y110911D01*
X238653Y110866D01*
X238598Y110800D01*
X238531Y110733D01*
X238453Y110666D01*
X238365Y110589D01*
X238264Y110511D01*
X238153Y110444D01*
X238020Y110378D01*
X237887Y110311D01*
X237742Y110266D01*
X237576Y110222D01*
X237409Y110200D01*
X237220Y110189D01*
X237131D01*
X237065Y110200D01*
X236987Y110211D01*
X236898Y110222D01*
X236676Y110266D01*
X236442Y110344D01*
X236309Y110400D01*
X236187Y110466D01*
X236065Y110544D01*
X235943Y110633D01*
X235831Y110733D01*
X235720Y110844D01*
X235709Y110855D01*
X235698Y110878D01*
X235676Y110911D01*
X235631Y110966D01*
X235598Y111033D01*
X235554Y111111D01*
X235498Y111211D01*
X235454Y111311D01*
X235398Y111433D01*
X235354Y111566D01*
X235298Y111711D01*
X235265Y111877D01*
X235231Y112044D01*
X235198Y112233D01*
X235187Y112422D01*
X235176Y112633D01*
Y112644D01*
Y112688D01*
Y112755D01*
X235187Y112833D01*
X235198Y112933D01*
X235209Y113055D01*
X235231Y113188D01*
X235254Y113333D01*
X235320Y113644D01*
X235432Y113966D01*
X235509Y114122D01*
X235587Y114288D01*
X235676Y114433D01*
X235787Y114577D01*
X235798Y114588D01*
X235820Y114610D01*
X235854Y114644D01*
X235898Y114699D01*
X235965Y114755D01*
X236031Y114810D01*
X236120Y114877D01*
X236220Y114955D01*
X236331Y115022D01*
X236454Y115088D01*
X236731Y115210D01*
X236887Y115255D01*
X237053Y115288D01*
X237231Y115310D01*
X237409Y115322D01*
X237498D01*
X237565Y115310D01*
X237642Y115299D01*
X237731Y115288D01*
X237931Y115233D01*
X238153Y115155D01*
X238264Y115099D01*
X238376Y115033D01*
X238487Y114955D01*
X238587Y114855D01*
X238676Y114755D01*
X238753Y114633D01*
X238776D01*
Y117555D01*
X240198D01*
Y110300D01*
D02*
G37*
G36*
X253952Y115310D02*
X254052Y115288D01*
X254174Y115255D01*
X254318Y115210D01*
X254463Y115155D01*
X254619Y115066D01*
X254763Y114966D01*
X254918Y114833D01*
X255052Y114666D01*
X255174Y114466D01*
X255274Y114233D01*
X255363Y113966D01*
X255385Y113822D01*
X255407Y113655D01*
X255430Y113488D01*
Y113300D01*
Y110300D01*
X254007D01*
Y113033D01*
Y113044D01*
Y113088D01*
Y113144D01*
X253996Y113222D01*
X253985Y113311D01*
X253963Y113411D01*
X253896Y113633D01*
X253852Y113744D01*
X253796Y113844D01*
X253730Y113944D01*
X253652Y114033D01*
X253552Y114111D01*
X253430Y114166D01*
X253308Y114210D01*
X253152Y114222D01*
X253085D01*
X253008Y114210D01*
X252907Y114177D01*
X252807Y114144D01*
X252685Y114088D01*
X252574Y114011D01*
X252463Y113899D01*
X252452Y113888D01*
X252419Y113844D01*
X252374Y113777D01*
X252330Y113688D01*
X252285Y113566D01*
X252241Y113433D01*
X252208Y113277D01*
X252197Y113100D01*
Y110300D01*
X250763D01*
Y115199D01*
X252197D01*
Y114422D01*
X252219D01*
X252230Y114433D01*
X252241Y114466D01*
X252274Y114511D01*
X252319Y114566D01*
X252374Y114633D01*
X252441Y114710D01*
X252519Y114788D01*
X252619Y114877D01*
X252719Y114955D01*
X252841Y115033D01*
X252963Y115110D01*
X253108Y115177D01*
X253263Y115244D01*
X253430Y115288D01*
X253608Y115310D01*
X253796Y115322D01*
X253863D01*
X253952Y115310D01*
D02*
G37*
G36*
X232765Y115310D02*
X232865Y115288D01*
X232987Y115255D01*
X233132Y115210D01*
X233276Y115155D01*
X233432Y115066D01*
X233576Y114966D01*
X233732Y114833D01*
X233865Y114666D01*
X233987Y114466D01*
X234087Y114233D01*
X234176Y113966D01*
X234198Y113822D01*
X234221Y113655D01*
X234243Y113488D01*
Y113300D01*
Y110300D01*
X232821D01*
Y113033D01*
Y113044D01*
Y113088D01*
Y113144D01*
X232809Y113222D01*
X232798Y113311D01*
X232776Y113411D01*
X232710Y113633D01*
X232665Y113744D01*
X232610Y113844D01*
X232543Y113944D01*
X232465Y114033D01*
X232365Y114111D01*
X232243Y114166D01*
X232121Y114210D01*
X231965Y114222D01*
X231898D01*
X231821Y114210D01*
X231721Y114177D01*
X231621Y114144D01*
X231499Y114088D01*
X231387Y114011D01*
X231276Y113899D01*
X231265Y113888D01*
X231232Y113844D01*
X231188Y113777D01*
X231143Y113688D01*
X231099Y113566D01*
X231054Y113433D01*
X231021Y113277D01*
X231010Y113100D01*
Y110300D01*
X229576D01*
Y115199D01*
X231010D01*
Y114422D01*
X231032D01*
X231043Y114433D01*
X231054Y114466D01*
X231087Y114511D01*
X231132Y114566D01*
X231188Y114633D01*
X231254Y114710D01*
X231332Y114788D01*
X231432Y114877D01*
X231532Y114955D01*
X231654Y115033D01*
X231776Y115110D01*
X231921Y115177D01*
X232076Y115244D01*
X232243Y115288D01*
X232421Y115310D01*
X232610Y115322D01*
X232676D01*
X232765Y115310D01*
D02*
G37*
G36*
X222855Y110300D02*
X221389D01*
Y113133D01*
X218466D01*
Y110300D01*
X217000D01*
Y117166D01*
X218466D01*
Y114399D01*
X221389D01*
Y117166D01*
X222855D01*
Y110300D01*
D02*
G37*
G36*
X264828Y115277D02*
X264962Y115266D01*
X265017Y115255D01*
X265073Y115233D01*
Y113899D01*
X265062Y113910D01*
X265029Y113922D01*
X264973Y113944D01*
X264895Y113977D01*
X264806Y114011D01*
X264695Y114033D01*
X264573Y114044D01*
X264440Y114055D01*
X264362D01*
X264273Y114033D01*
X264162Y114011D01*
X264040Y113966D01*
X263906Y113899D01*
X263784Y113799D01*
X263662Y113677D01*
X263651Y113655D01*
X263618Y113611D01*
X263573Y113522D01*
X263518Y113411D01*
X263462Y113266D01*
X263418Y113088D01*
X263384Y112888D01*
X263373Y112655D01*
Y110300D01*
X261940D01*
Y115199D01*
X263373D01*
Y114277D01*
X263395D01*
Y114288D01*
X263418Y114322D01*
X263440Y114366D01*
X263462Y114433D01*
X263507Y114511D01*
X263562Y114599D01*
X263695Y114788D01*
X263773Y114877D01*
X263862Y114966D01*
X263973Y115055D01*
X264084Y115133D01*
X264217Y115199D01*
X264362Y115244D01*
X264517Y115277D01*
X264684Y115288D01*
X264773D01*
X264828Y115277D01*
D02*
G37*
G36*
X244164Y112422D02*
X241542D01*
Y113433D01*
X244164D01*
Y112422D01*
D02*
G37*
G36*
X274405Y109866D02*
X274394Y109844D01*
X274372Y109789D01*
X274328Y109700D01*
X274272Y109578D01*
X274205Y109433D01*
X274105Y109278D01*
X274005Y109111D01*
X273883Y108933D01*
X273739Y108756D01*
X273583Y108589D01*
X273406Y108433D01*
X273217Y108289D01*
X273017Y108178D01*
X272794Y108078D01*
X272550Y108022D01*
X272294Y108000D01*
X272206D01*
X272106Y108011D01*
X271983D01*
X271839Y108033D01*
X271694Y108056D01*
X271550Y108078D01*
X271428Y108122D01*
Y109267D01*
X271439Y109255D01*
X271483Y109244D01*
X271539Y109211D01*
X271617Y109189D01*
X271717Y109155D01*
X271817Y109122D01*
X271939Y109111D01*
X272072Y109100D01*
X272094D01*
X272172Y109111D01*
X272272Y109133D01*
X272394Y109167D01*
X272528Y109233D01*
X272661Y109344D01*
X272728Y109400D01*
X272794Y109478D01*
X272850Y109566D01*
X272894Y109667D01*
X273161Y110300D01*
X271195Y115199D01*
X272772D01*
X273728Y112122D01*
Y112111D01*
X273739Y112077D01*
X273761Y112011D01*
X273783Y111944D01*
X273794Y111844D01*
X273816Y111744D01*
X273839Y111622D01*
X273861Y111500D01*
X273883D01*
Y111511D01*
X273894Y111544D01*
X273905Y111600D01*
X273917Y111666D01*
X273939Y111755D01*
X273961Y111866D01*
X273994Y111988D01*
X274028Y112122D01*
X275005Y115199D01*
X276427D01*
X274405Y109866D01*
D02*
G37*
G36*
X226477Y115310D02*
X226610Y115288D01*
X226766Y115255D01*
X226943Y115210D01*
X227121Y115144D01*
X227321Y115066D01*
X227510Y114955D01*
X227688Y114822D01*
X227866Y114655D01*
X228021Y114455D01*
X228154Y114210D01*
X228254Y113933D01*
X228288Y113788D01*
X228321Y113622D01*
X228343Y113444D01*
Y113255D01*
Y110300D01*
X226977D01*
Y111011D01*
X226966D01*
Y111000D01*
X226943Y110977D01*
X226910Y110933D01*
X226877Y110878D01*
X226821Y110822D01*
X226755Y110755D01*
X226677Y110678D01*
X226599Y110600D01*
X226499Y110522D01*
X226388Y110444D01*
X226266Y110378D01*
X226132Y110322D01*
X225999Y110266D01*
X225844Y110222D01*
X225677Y110200D01*
X225499Y110189D01*
X225432D01*
X225388Y110200D01*
X225255Y110211D01*
X225099Y110233D01*
X224921Y110289D01*
X224733Y110355D01*
X224544Y110444D01*
X224377Y110577D01*
X224355Y110600D01*
X224310Y110644D01*
X224244Y110733D01*
X224166Y110855D01*
X224088Y111011D01*
X224022Y111200D01*
X223977Y111411D01*
X223955Y111655D01*
Y111666D01*
Y111722D01*
X223966Y111788D01*
X223977Y111877D01*
X224010Y111988D01*
X224044Y112111D01*
X224099Y112244D01*
X224166Y112388D01*
X224255Y112533D01*
X224366Y112677D01*
X224499Y112811D01*
X224666Y112944D01*
X224866Y113066D01*
X225088Y113166D01*
X225344Y113244D01*
X225644Y113300D01*
X226988Y113477D01*
Y113488D01*
Y113511D01*
Y113555D01*
X226977Y113610D01*
X226943Y113744D01*
X226877Y113910D01*
X226832Y113988D01*
X226777Y114066D01*
X226699Y114133D01*
X226610Y114199D01*
X226510Y114255D01*
X226388Y114299D01*
X226255Y114322D01*
X226099Y114333D01*
X226010D01*
X225955Y114322D01*
X225877D01*
X225777Y114311D01*
X225677Y114288D01*
X225566Y114266D01*
X225310Y114199D01*
X225032Y114111D01*
X224744Y113977D01*
X224588Y113888D01*
X224444Y113799D01*
Y114899D01*
X224455Y114910D01*
X224510Y114933D01*
X224577Y114966D01*
X224677Y115010D01*
X224810Y115055D01*
X224955Y115110D01*
X225132Y115155D01*
X225332Y115199D01*
X225344D01*
X225355Y115210D01*
X225421Y115222D01*
X225533Y115244D01*
X225666Y115266D01*
X225810Y115288D01*
X225966Y115299D01*
X226132Y115322D01*
X226377D01*
X226477Y115310D01*
D02*
G37*
G36*
X258974Y115310D02*
X259051Y115299D01*
X259162Y115288D01*
X259274Y115266D01*
X259396Y115244D01*
X259651Y115166D01*
X259785Y115121D01*
X259918Y115055D01*
X260051Y114977D01*
X260185Y114899D01*
X260307Y114799D01*
X260418Y114688D01*
X260429Y114677D01*
X260440Y114655D01*
X260473Y114622D01*
X260507Y114577D01*
X260551Y114511D01*
X260607Y114433D01*
X260662Y114344D01*
X260718Y114233D01*
X260762Y114122D01*
X260818Y113988D01*
X260873Y113844D01*
X260918Y113688D01*
X260951Y113522D01*
X260984Y113344D01*
X260996Y113155D01*
X261007Y112955D01*
Y112344D01*
X257785D01*
Y112333D01*
X257796Y112300D01*
Y112244D01*
X257818Y112166D01*
X257840Y112077D01*
X257874Y111977D01*
X257918Y111877D01*
X257985Y111777D01*
X258051Y111666D01*
X258151Y111566D01*
X258262Y111466D01*
X258385Y111377D01*
X258540Y111311D01*
X258718Y111244D01*
X258918Y111211D01*
X259151Y111200D01*
X259229D01*
X259285Y111211D01*
X259362D01*
X259440Y111222D01*
X259640Y111255D01*
X259862Y111300D01*
X260107Y111366D01*
X260351Y111466D01*
X260596Y111600D01*
Y110555D01*
X260584D01*
X260562Y110544D01*
X260529Y110522D01*
X260473Y110500D01*
X260407Y110466D01*
X260329Y110444D01*
X260229Y110411D01*
X260118Y110378D01*
X259996Y110333D01*
X259862Y110300D01*
X259718Y110278D01*
X259562Y110244D01*
X259396Y110222D01*
X259218Y110200D01*
X258829Y110189D01*
X258718D01*
X258640Y110200D01*
X258540Y110211D01*
X258429Y110222D01*
X258296Y110244D01*
X258163Y110266D01*
X257874Y110344D01*
X257718Y110400D01*
X257574Y110466D01*
X257418Y110544D01*
X257274Y110633D01*
X257140Y110733D01*
X257007Y110844D01*
X256996Y110855D01*
X256985Y110878D01*
X256952Y110911D01*
X256907Y110966D01*
X256863Y111033D01*
X256807Y111111D01*
X256740Y111211D01*
X256685Y111322D01*
X256629Y111444D01*
X256563Y111577D01*
X256507Y111733D01*
X256463Y111900D01*
X256418Y112066D01*
X256396Y112266D01*
X256374Y112466D01*
X256363Y112677D01*
Y112688D01*
Y112733D01*
Y112788D01*
X256374Y112877D01*
X256385Y112977D01*
X256396Y113088D01*
X256418Y113222D01*
X256452Y113355D01*
X256529Y113666D01*
X256585Y113822D01*
X256652Y113977D01*
X256729Y114144D01*
X256829Y114299D01*
X256929Y114444D01*
X257051Y114588D01*
X257063Y114599D01*
X257085Y114622D01*
X257118Y114655D01*
X257174Y114699D01*
X257240Y114755D01*
X257329Y114822D01*
X257418Y114888D01*
X257529Y114955D01*
X257651Y115022D01*
X257785Y115088D01*
X257929Y115155D01*
X258074Y115210D01*
X258240Y115255D01*
X258418Y115288D01*
X258607Y115310D01*
X258796Y115322D01*
X258896D01*
X258974Y115310D01*
D02*
G37*
G36*
X247797D02*
X247875Y115299D01*
X247986Y115288D01*
X248097Y115266D01*
X248219Y115244D01*
X248475Y115166D01*
X248608Y115121D01*
X248741Y115055D01*
X248875Y114977D01*
X249008Y114899D01*
X249130Y114799D01*
X249241Y114688D01*
X249252Y114677D01*
X249263Y114655D01*
X249297Y114622D01*
X249330Y114577D01*
X249375Y114511D01*
X249430Y114433D01*
X249486Y114344D01*
X249541Y114233D01*
X249586Y114122D01*
X249641Y113988D01*
X249697Y113844D01*
X249741Y113688D01*
X249775Y113522D01*
X249808Y113344D01*
X249819Y113155D01*
X249830Y112955D01*
Y112344D01*
X246608D01*
Y112333D01*
X246619Y112300D01*
Y112244D01*
X246641Y112166D01*
X246664Y112077D01*
X246697Y111977D01*
X246742Y111877D01*
X246808Y111777D01*
X246875Y111666D01*
X246975Y111566D01*
X247086Y111466D01*
X247208Y111377D01*
X247364Y111311D01*
X247541Y111244D01*
X247741Y111211D01*
X247975Y111200D01*
X248052D01*
X248108Y111211D01*
X248186D01*
X248264Y111222D01*
X248464Y111255D01*
X248686Y111300D01*
X248930Y111366D01*
X249175Y111466D01*
X249419Y111600D01*
Y110555D01*
X249408D01*
X249386Y110544D01*
X249352Y110522D01*
X249297Y110500D01*
X249230Y110466D01*
X249152Y110444D01*
X249052Y110411D01*
X248941Y110378D01*
X248819Y110333D01*
X248686Y110300D01*
X248541Y110278D01*
X248386Y110244D01*
X248219Y110222D01*
X248041Y110200D01*
X247653Y110189D01*
X247541D01*
X247464Y110200D01*
X247364Y110211D01*
X247252Y110222D01*
X247119Y110244D01*
X246986Y110266D01*
X246697Y110344D01*
X246542Y110400D01*
X246397Y110466D01*
X246241Y110544D01*
X246097Y110633D01*
X245964Y110733D01*
X245830Y110844D01*
X245819Y110855D01*
X245808Y110878D01*
X245775Y110911D01*
X245730Y110966D01*
X245686Y111033D01*
X245631Y111111D01*
X245564Y111211D01*
X245508Y111322D01*
X245453Y111444D01*
X245386Y111577D01*
X245331Y111733D01*
X245286Y111900D01*
X245242Y112066D01*
X245219Y112266D01*
X245197Y112466D01*
X245186Y112677D01*
Y112688D01*
Y112733D01*
Y112788D01*
X245197Y112877D01*
X245208Y112977D01*
X245219Y113088D01*
X245242Y113222D01*
X245275Y113355D01*
X245353Y113666D01*
X245408Y113822D01*
X245475Y113977D01*
X245553Y114144D01*
X245653Y114299D01*
X245753Y114444D01*
X245875Y114588D01*
X245886Y114599D01*
X245908Y114622D01*
X245942Y114655D01*
X245997Y114699D01*
X246064Y114755D01*
X246153Y114822D01*
X246241Y114888D01*
X246353Y114955D01*
X246475Y115022D01*
X246608Y115088D01*
X246753Y115155D01*
X246897Y115210D01*
X247064Y115255D01*
X247241Y115288D01*
X247430Y115310D01*
X247619Y115322D01*
X247719D01*
X247797Y115310D01*
D02*
G37*
G36*
X267873D02*
X267951Y115299D01*
X268039Y115288D01*
X268239Y115233D01*
X268461Y115155D01*
X268573Y115099D01*
X268695Y115022D01*
X268795Y114944D01*
X268906Y114855D01*
X269006Y114744D01*
X269095Y114622D01*
X269117D01*
Y115199D01*
X270539D01*
Y110833D01*
Y110822D01*
Y110777D01*
Y110700D01*
X270528Y110611D01*
X270517Y110500D01*
X270495Y110366D01*
X270472Y110222D01*
X270439Y110066D01*
X270406Y109900D01*
X270350Y109733D01*
X270284Y109555D01*
X270217Y109378D01*
X270117Y109211D01*
X270017Y109044D01*
X269895Y108889D01*
X269761Y108744D01*
X269750Y108733D01*
X269728Y108711D01*
X269684Y108678D01*
X269617Y108633D01*
X269539Y108567D01*
X269439Y108511D01*
X269328Y108444D01*
X269195Y108378D01*
X269039Y108300D01*
X268873Y108233D01*
X268684Y108178D01*
X268484Y108122D01*
X268273Y108067D01*
X268039Y108033D01*
X267784Y108011D01*
X267517Y108000D01*
X267351D01*
X267273Y108011D01*
X267173D01*
X266951Y108033D01*
X266695Y108067D01*
X266440Y108122D01*
X266173Y108189D01*
X265940Y108289D01*
Y109511D01*
X265951D01*
X265973Y109489D01*
X266017Y109467D01*
X266073Y109444D01*
X266140Y109411D01*
X266228Y109367D01*
X266317Y109333D01*
X266417Y109289D01*
X266651Y109211D01*
X266917Y109133D01*
X267195Y109089D01*
X267484Y109067D01*
X267562D01*
X267606Y109078D01*
X267673D01*
X267751Y109089D01*
X267917Y109122D01*
X268117Y109167D01*
X268317Y109244D01*
X268506Y109344D01*
X268684Y109478D01*
X268706Y109500D01*
X268750Y109555D01*
X268817Y109644D01*
X268906Y109778D01*
X268984Y109933D01*
X269050Y110122D01*
X269095Y110344D01*
X269117Y110600D01*
Y111011D01*
X269095D01*
X269084Y111000D01*
X269073Y110977D01*
X269039Y110933D01*
X268995Y110878D01*
X268939Y110822D01*
X268873Y110755D01*
X268795Y110678D01*
X268706Y110600D01*
X268606Y110522D01*
X268484Y110444D01*
X268361Y110378D01*
X268228Y110322D01*
X268073Y110266D01*
X267906Y110222D01*
X267739Y110200D01*
X267550Y110189D01*
X267462D01*
X267395Y110200D01*
X267317Y110211D01*
X267228Y110222D01*
X267017Y110266D01*
X266773Y110344D01*
X266651Y110400D01*
X266528Y110466D01*
X266406Y110544D01*
X266284Y110633D01*
X266173Y110733D01*
X266062Y110844D01*
X266051Y110855D01*
X266039Y110878D01*
X266006Y110911D01*
X265973Y110966D01*
X265928Y111033D01*
X265884Y111111D01*
X265840Y111200D01*
X265784Y111311D01*
X265728Y111433D01*
X265684Y111566D01*
X265640Y111711D01*
X265595Y111866D01*
X265562Y112033D01*
X265528Y112211D01*
X265517Y112411D01*
X265506Y112611D01*
Y112622D01*
Y112666D01*
Y112733D01*
X265517Y112811D01*
X265528Y112922D01*
X265540Y113044D01*
X265562Y113177D01*
X265584Y113322D01*
X265651Y113633D01*
X265762Y113966D01*
X265840Y114122D01*
X265917Y114277D01*
X266006Y114433D01*
X266117Y114577D01*
X266128Y114588D01*
X266151Y114611D01*
X266184Y114644D01*
X266228Y114699D01*
X266295Y114755D01*
X266362Y114810D01*
X266451Y114877D01*
X266551Y114955D01*
X266662Y115022D01*
X266784Y115088D01*
X267051Y115210D01*
X267206Y115255D01*
X267373Y115288D01*
X267550Y115310D01*
X267728Y115322D01*
X267817D01*
X267873Y115310D01*
D02*
G37*
G36*
X99500Y16056D02*
X98362Y15440D01*
X98357D01*
X98351Y15435D01*
X98334Y15429D01*
X98312Y15418D01*
X98279Y15407D01*
X98240Y15396D01*
X98196Y15384D01*
X98140Y15373D01*
Y15362D01*
X98146D01*
X98157Y15357D01*
X98173D01*
X98196Y15346D01*
X98229Y15335D01*
X98268Y15324D01*
X98312Y15307D01*
X98368Y15285D01*
X99500Y14663D01*
Y13830D01*
Y12992D01*
X98612Y12454D01*
X98606D01*
X98601Y12449D01*
X98568Y12426D01*
X98518Y12393D01*
X98462Y12360D01*
X98401Y12315D01*
X98346Y12265D01*
X98296Y12221D01*
X98257Y12177D01*
X98251Y12171D01*
X98246Y12160D01*
X98229Y12138D01*
X98212Y12110D01*
X98185Y12038D01*
X98179Y11999D01*
X98173Y11955D01*
Y11733D01*
X99500D01*
Y11000D01*
X96070D01*
Y12260D01*
X96076Y12315D01*
X96087Y12399D01*
X96098Y12487D01*
X96120Y12593D01*
X96148Y12704D01*
X96187Y12820D01*
X96237Y12931D01*
X96298Y13042D01*
X96375Y13148D01*
X96464Y13242D01*
X96570Y13320D01*
X96697Y13381D01*
X96764Y13403D01*
X96836Y13420D01*
X96919Y13425D01*
X97003Y13431D01*
X97008D01*
X97019D01*
X97036D01*
X97063Y13425D01*
X97091D01*
X97125Y13420D01*
X97208Y13403D01*
X97302Y13381D01*
X97402Y13342D01*
X97502Y13292D01*
X97602Y13226D01*
X97613Y13215D01*
X97641Y13187D01*
X97685Y13142D01*
X97741Y13076D01*
X97796Y12998D01*
X97857Y12898D01*
X97907Y12787D01*
X97952Y12660D01*
X97963D01*
Y12665D01*
X97968Y12671D01*
X97979Y12704D01*
X98013Y12748D01*
X98057Y12815D01*
X98090Y12854D01*
X98124Y12893D01*
X98168Y12937D01*
X98218Y12981D01*
X98273Y13031D01*
X98334Y13081D01*
X98407Y13131D01*
X98484Y13187D01*
X99470Y13811D01*
X97785Y14891D01*
X96070Y13886D01*
Y14774D01*
X97119Y15290D01*
X97125Y15296D01*
X97141Y15301D01*
X97169Y15312D01*
X97202Y15329D01*
X97247Y15346D01*
X97291Y15362D01*
X97402Y15396D01*
Y15401D01*
X97396D01*
X97380Y15412D01*
X97352Y15423D01*
X97313Y15435D01*
X97269Y15451D01*
X97219Y15473D01*
X97108Y15518D01*
X96070Y16084D01*
Y16900D01*
X97774Y15862D01*
X99500Y16927D01*
Y16056D01*
D02*
G37*
G36*
X89500Y16050D02*
X88362Y15434D01*
X88357D01*
X88351Y15429D01*
X88335Y15423D01*
X88312Y15412D01*
X88279Y15401D01*
X88240Y15390D01*
X88196Y15379D01*
X88140Y15368D01*
Y15357D01*
X88146D01*
X88157Y15351D01*
X88174D01*
X88196Y15340D01*
X88229Y15329D01*
X88268Y15318D01*
X88312Y15301D01*
X88368Y15279D01*
X89500Y14657D01*
Y13786D01*
X87785Y14885D01*
X86070Y13880D01*
Y14768D01*
X87119Y15285D01*
X87125Y15290D01*
X87141Y15296D01*
X87169Y15307D01*
X87202Y15323D01*
X87247Y15340D01*
X87291Y15357D01*
X87402Y15390D01*
Y15396D01*
X87397D01*
X87380Y15407D01*
X87352Y15418D01*
X87313Y15429D01*
X87269Y15446D01*
X87219Y15468D01*
X87108Y15512D01*
X86070Y16078D01*
Y16894D01*
X87774Y15856D01*
X89500Y16922D01*
Y16050D01*
D02*
G37*
G36*
X86669Y12709D02*
X89500D01*
Y11977D01*
X86669D01*
Y11000D01*
X86070D01*
Y13692D01*
X86669D01*
Y12709D01*
D02*
G37*
G36*
X38957Y18541D02*
X39007D01*
X39062Y18535D01*
X39123Y18530D01*
X39256Y18513D01*
X39401Y18491D01*
X39539Y18458D01*
X39673Y18413D01*
Y17725D01*
X39667Y17731D01*
X39656Y17736D01*
X39639Y17747D01*
X39612Y17764D01*
X39578Y17781D01*
X39539Y17803D01*
X39495Y17825D01*
X39445Y17847D01*
X39323Y17886D01*
X39184Y17925D01*
X39029Y17953D01*
X38951Y17964D01*
X38818D01*
X38768Y17958D01*
X38707Y17953D01*
X38640Y17942D01*
X38568Y17919D01*
X38496Y17897D01*
X38429Y17864D01*
X38424Y17858D01*
X38407Y17847D01*
X38379Y17825D01*
X38352Y17792D01*
X38318Y17753D01*
X38296Y17708D01*
X38274Y17658D01*
X38269Y17597D01*
Y17592D01*
Y17575D01*
X38274Y17548D01*
X38285Y17520D01*
X38296Y17481D01*
X38313Y17436D01*
X38341Y17398D01*
X38379Y17353D01*
X38385Y17348D01*
X38402Y17331D01*
X38440Y17309D01*
X38490Y17276D01*
X38524Y17253D01*
X38563Y17231D01*
X38607Y17203D01*
X38657Y17176D01*
X38718Y17148D01*
X38779Y17115D01*
X38851Y17081D01*
X38929Y17048D01*
X38934D01*
X38951Y17037D01*
X38979Y17026D01*
X39012Y17009D01*
X39051Y16992D01*
X39101Y16965D01*
X39206Y16909D01*
X39323Y16843D01*
X39439Y16765D01*
X39545Y16676D01*
X39589Y16632D01*
X39628Y16587D01*
X39639Y16576D01*
X39661Y16543D01*
X39689Y16493D01*
X39728Y16421D01*
X39761Y16338D01*
X39795Y16238D01*
X39817Y16127D01*
X39822Y16005D01*
Y15999D01*
Y15982D01*
Y15960D01*
X39817Y15921D01*
X39811Y15882D01*
X39806Y15833D01*
X39778Y15727D01*
X39739Y15605D01*
X39711Y15544D01*
X39673Y15483D01*
X39634Y15422D01*
X39589Y15361D01*
X39534Y15305D01*
X39473Y15255D01*
X39467D01*
X39456Y15244D01*
X39434Y15233D01*
X39406Y15216D01*
X39373Y15194D01*
X39329Y15172D01*
X39279Y15150D01*
X39217Y15128D01*
X39151Y15105D01*
X39079Y15083D01*
X38996Y15061D01*
X38907Y15039D01*
X38812Y15022D01*
X38707Y15011D01*
X38596Y15006D01*
X38479Y15000D01*
X38424D01*
X38379Y15006D01*
X38329D01*
X38274Y15011D01*
X38207Y15017D01*
X38141Y15022D01*
X37985Y15044D01*
X37824Y15078D01*
X37663Y15122D01*
X37514Y15183D01*
Y15916D01*
X37519Y15910D01*
X37530Y15899D01*
X37552Y15882D01*
X37586Y15860D01*
X37625Y15838D01*
X37669Y15805D01*
X37725Y15777D01*
X37786Y15744D01*
X37852Y15710D01*
X37924Y15683D01*
X38085Y15627D01*
X38168Y15605D01*
X38257Y15588D01*
X38352Y15577D01*
X38452Y15572D01*
X38502D01*
X38557Y15577D01*
X38618Y15583D01*
X38696Y15599D01*
X38768Y15616D01*
X38840Y15644D01*
X38901Y15677D01*
X38907Y15683D01*
X38923Y15694D01*
X38951Y15721D01*
X38979Y15749D01*
X39007Y15788D01*
X39034Y15833D01*
X39051Y15888D01*
X39057Y15944D01*
Y15949D01*
Y15966D01*
X39051Y15993D01*
X39040Y16027D01*
X39029Y16066D01*
X39007Y16110D01*
X38973Y16160D01*
X38934Y16204D01*
X38929Y16210D01*
X38907Y16227D01*
X38868Y16254D01*
X38846Y16276D01*
X38812Y16293D01*
X38774Y16315D01*
X38729Y16343D01*
X38679Y16371D01*
X38618Y16399D01*
X38552Y16432D01*
X38479Y16471D01*
X38396Y16504D01*
X38302Y16543D01*
X38291Y16548D01*
X38269Y16559D01*
X38230Y16576D01*
X38174Y16604D01*
X38113Y16643D01*
X38046Y16687D01*
X37974Y16737D01*
X37902Y16793D01*
X37824Y16859D01*
X37752Y16937D01*
X37686Y17015D01*
X37625Y17104D01*
X37569Y17203D01*
X37530Y17303D01*
X37508Y17420D01*
X37497Y17536D01*
Y17542D01*
Y17559D01*
Y17581D01*
X37503Y17614D01*
X37508Y17653D01*
X37519Y17703D01*
X37541Y17808D01*
X37586Y17930D01*
X37613Y17991D01*
X37652Y18053D01*
X37691Y18114D01*
X37741Y18169D01*
X37797Y18230D01*
X37863Y18280D01*
X37869Y18286D01*
X37880Y18291D01*
X37902Y18302D01*
X37930Y18324D01*
X37969Y18341D01*
X38013Y18363D01*
X38063Y18391D01*
X38124Y18413D01*
X38185Y18441D01*
X38263Y18463D01*
X38341Y18485D01*
X38424Y18508D01*
X38518Y18524D01*
X38618Y18535D01*
X38718Y18541D01*
X38829Y18546D01*
X38912D01*
X38957Y18541D01*
D02*
G37*
G36*
X42770Y17886D02*
X41787D01*
Y15055D01*
X41055D01*
Y17886D01*
X40078D01*
Y18485D01*
X42770D01*
Y17886D01*
D02*
G37*
G36*
X35815Y18480D02*
X35899Y18469D01*
X35987Y18458D01*
X36093Y18436D01*
X36204Y18408D01*
X36320Y18369D01*
X36431Y18319D01*
X36542Y18258D01*
X36648Y18180D01*
X36742Y18091D01*
X36820Y17986D01*
X36881Y17858D01*
X36903Y17792D01*
X36920Y17719D01*
X36925Y17636D01*
X36931Y17553D01*
Y17548D01*
Y17536D01*
Y17520D01*
X36925Y17492D01*
Y17464D01*
X36920Y17431D01*
X36903Y17348D01*
X36881Y17253D01*
X36842Y17153D01*
X36792Y17053D01*
X36726Y16954D01*
X36714Y16942D01*
X36687Y16915D01*
X36642Y16870D01*
X36576Y16815D01*
X36498Y16759D01*
X36398Y16698D01*
X36287Y16648D01*
X36159Y16604D01*
Y16593D01*
X36165D01*
X36171Y16587D01*
X36204Y16576D01*
X36248Y16543D01*
X36315Y16499D01*
X36354Y16465D01*
X36393Y16432D01*
X36437Y16387D01*
X36481Y16338D01*
X36531Y16282D01*
X36581Y16221D01*
X36631Y16149D01*
X36687Y16071D01*
X37330Y15055D01*
X36492D01*
X35954Y15944D01*
Y15949D01*
X35949Y15955D01*
X35926Y15988D01*
X35893Y16038D01*
X35860Y16093D01*
X35815Y16154D01*
X35765Y16210D01*
X35721Y16260D01*
X35677Y16299D01*
X35671Y16304D01*
X35660Y16310D01*
X35638Y16326D01*
X35610Y16343D01*
X35538Y16371D01*
X35499Y16376D01*
X35455Y16382D01*
X35233D01*
Y15055D01*
X34500D01*
Y18485D01*
X35760D01*
X35815Y18480D01*
D02*
G37*
G36*
X32985Y48267D02*
X30987D01*
X30976D01*
X30948D01*
X30910Y48262D01*
X30854Y48256D01*
X30788Y48245D01*
X30715Y48234D01*
X30638Y48212D01*
X30560Y48184D01*
X30477Y48145D01*
X30399Y48101D01*
X30327Y48045D01*
X30260Y47979D01*
X30205Y47907D01*
X30166Y47812D01*
X30138Y47707D01*
X30127Y47590D01*
Y47563D01*
X30133Y47529D01*
X30138Y47485D01*
X30155Y47435D01*
X30171Y47379D01*
X30199Y47324D01*
X30233Y47257D01*
X30277Y47196D01*
X30327Y47141D01*
X30393Y47085D01*
X30477Y47035D01*
X30571Y46991D01*
X30682Y46958D01*
X30810Y46935D01*
X30954Y46930D01*
X32985D01*
Y46197D01*
X31032D01*
X31026D01*
X31015D01*
X30993D01*
X30965D01*
X30932Y46203D01*
X30893Y46208D01*
X30843Y46214D01*
X30793Y46219D01*
X30677Y46242D01*
X30549Y46275D01*
X30410Y46314D01*
X30266Y46375D01*
X30122Y46453D01*
X29983Y46547D01*
X29916Y46602D01*
X29855Y46658D01*
X29794Y46725D01*
X29739Y46797D01*
X29689Y46880D01*
X29644Y46963D01*
X29600Y47052D01*
X29567Y47152D01*
X29539Y47257D01*
X29517Y47374D01*
X29506Y47496D01*
X29500Y47624D01*
Y47657D01*
X29506Y47685D01*
Y47712D01*
X29511Y47751D01*
X29522Y47840D01*
X29544Y47940D01*
X29578Y48057D01*
X29622Y48184D01*
X29689Y48312D01*
X29766Y48439D01*
X29861Y48561D01*
X29922Y48623D01*
X29983Y48678D01*
X30055Y48734D01*
X30127Y48783D01*
X30210Y48834D01*
X30299Y48872D01*
X30393Y48911D01*
X30499Y48939D01*
X30610Y48967D01*
X30727Y48983D01*
X30854Y48994D01*
X30987Y49000D01*
X32985D01*
Y48267D01*
D02*
G37*
G36*
X32114Y45609D02*
X32153Y45603D01*
X32203Y45592D01*
X32308Y45570D01*
X32430Y45526D01*
X32491Y45498D01*
X32552Y45459D01*
X32614Y45420D01*
X32669Y45370D01*
X32730Y45315D01*
X32780Y45248D01*
X32786Y45243D01*
X32791Y45232D01*
X32802Y45209D01*
X32824Y45182D01*
X32841Y45143D01*
X32863Y45098D01*
X32891Y45048D01*
X32913Y44987D01*
X32941Y44926D01*
X32963Y44849D01*
X32985Y44771D01*
X33008Y44688D01*
X33024Y44593D01*
X33035Y44493D01*
X33041Y44394D01*
X33046Y44282D01*
Y44199D01*
X33041Y44155D01*
Y44105D01*
X33035Y44049D01*
X33030Y43988D01*
X33013Y43855D01*
X32991Y43711D01*
X32958Y43572D01*
X32913Y43439D01*
X32225D01*
X32231Y43444D01*
X32236Y43455D01*
X32247Y43472D01*
X32264Y43500D01*
X32280Y43533D01*
X32303Y43572D01*
X32325Y43617D01*
X32347Y43666D01*
X32386Y43788D01*
X32425Y43927D01*
X32453Y44083D01*
X32464Y44160D01*
Y44294D01*
X32458Y44344D01*
X32453Y44405D01*
X32441Y44471D01*
X32419Y44543D01*
X32397Y44616D01*
X32364Y44682D01*
X32358Y44688D01*
X32347Y44704D01*
X32325Y44732D01*
X32292Y44760D01*
X32253Y44793D01*
X32208Y44815D01*
X32158Y44837D01*
X32097Y44843D01*
X32092D01*
X32075D01*
X32047Y44837D01*
X32020Y44826D01*
X31981Y44815D01*
X31936Y44799D01*
X31898Y44771D01*
X31853Y44732D01*
X31848Y44726D01*
X31831Y44710D01*
X31809Y44671D01*
X31776Y44621D01*
X31753Y44588D01*
X31731Y44549D01*
X31703Y44504D01*
X31676Y44455D01*
X31648Y44394D01*
X31615Y44332D01*
X31581Y44260D01*
X31548Y44183D01*
Y44177D01*
X31537Y44160D01*
X31526Y44133D01*
X31509Y44099D01*
X31492Y44061D01*
X31465Y44010D01*
X31409Y43905D01*
X31343Y43788D01*
X31265Y43672D01*
X31176Y43567D01*
X31132Y43522D01*
X31087Y43483D01*
X31076Y43472D01*
X31043Y43450D01*
X30993Y43422D01*
X30921Y43383D01*
X30838Y43350D01*
X30738Y43317D01*
X30627Y43295D01*
X30505Y43289D01*
X30499D01*
X30482D01*
X30460D01*
X30421Y43295D01*
X30382Y43300D01*
X30332Y43306D01*
X30227Y43333D01*
X30105Y43372D01*
X30044Y43400D01*
X29983Y43439D01*
X29922Y43478D01*
X29861Y43522D01*
X29805Y43578D01*
X29755Y43639D01*
Y43644D01*
X29744Y43655D01*
X29733Y43677D01*
X29716Y43705D01*
X29694Y43739D01*
X29672Y43783D01*
X29650Y43833D01*
X29628Y43894D01*
X29605Y43961D01*
X29583Y44033D01*
X29561Y44116D01*
X29539Y44205D01*
X29522Y44299D01*
X29511Y44405D01*
X29506Y44516D01*
X29500Y44632D01*
Y44688D01*
X29506Y44732D01*
Y44782D01*
X29511Y44837D01*
X29517Y44904D01*
X29522Y44971D01*
X29544Y45126D01*
X29578Y45287D01*
X29622Y45448D01*
X29683Y45598D01*
X30416D01*
X30410Y45592D01*
X30399Y45581D01*
X30382Y45559D01*
X30360Y45526D01*
X30338Y45487D01*
X30305Y45442D01*
X30277Y45387D01*
X30244Y45326D01*
X30210Y45259D01*
X30183Y45187D01*
X30127Y45026D01*
X30105Y44943D01*
X30088Y44854D01*
X30077Y44760D01*
X30072Y44660D01*
Y44610D01*
X30077Y44554D01*
X30083Y44493D01*
X30099Y44416D01*
X30116Y44344D01*
X30144Y44271D01*
X30177Y44210D01*
X30183Y44205D01*
X30194Y44188D01*
X30222Y44160D01*
X30249Y44133D01*
X30288Y44105D01*
X30332Y44077D01*
X30388Y44061D01*
X30444Y44055D01*
X30449D01*
X30466D01*
X30493Y44061D01*
X30527Y44072D01*
X30566Y44083D01*
X30610Y44105D01*
X30660Y44138D01*
X30704Y44177D01*
X30710Y44183D01*
X30727Y44205D01*
X30754Y44244D01*
X30777Y44266D01*
X30793Y44299D01*
X30815Y44338D01*
X30843Y44382D01*
X30871Y44432D01*
X30899Y44493D01*
X30932Y44560D01*
X30971Y44632D01*
X31004Y44715D01*
X31043Y44810D01*
X31048Y44821D01*
X31060Y44843D01*
X31076Y44882D01*
X31104Y44937D01*
X31143Y44998D01*
X31187Y45065D01*
X31237Y45137D01*
X31293Y45209D01*
X31359Y45287D01*
X31437Y45359D01*
X31515Y45426D01*
X31603Y45487D01*
X31703Y45542D01*
X31803Y45581D01*
X31920Y45603D01*
X32036Y45614D01*
X32042D01*
X32059D01*
X32081D01*
X32114Y45609D01*
D02*
G37*
G36*
X32985Y41435D02*
X32980Y41396D01*
Y41352D01*
X32974Y41297D01*
X32969Y41236D01*
X32958Y41175D01*
X32935Y41036D01*
X32897Y40891D01*
X32847Y40753D01*
X32813Y40692D01*
X32774Y40631D01*
Y40625D01*
X32763Y40620D01*
X32736Y40581D01*
X32686Y40536D01*
X32625Y40475D01*
X32536Y40420D01*
X32436Y40375D01*
X32319Y40336D01*
X32253Y40331D01*
X32186Y40325D01*
X32181D01*
X32175D01*
X32158D01*
X32136D01*
X32086Y40336D01*
X32020Y40347D01*
X31942Y40370D01*
X31859Y40403D01*
X31776Y40453D01*
X31692Y40514D01*
X31681Y40525D01*
X31659Y40547D01*
X31620Y40586D01*
X31576Y40642D01*
X31531Y40714D01*
X31481Y40791D01*
X31437Y40886D01*
X31404Y40986D01*
X31392D01*
Y40969D01*
X31387Y40953D01*
X31381Y40925D01*
X31365Y40864D01*
X31343Y40780D01*
X31309Y40686D01*
X31259Y40592D01*
X31204Y40497D01*
X31126Y40409D01*
X31115Y40398D01*
X31087Y40375D01*
X31037Y40336D01*
X30976Y40298D01*
X30893Y40259D01*
X30799Y40220D01*
X30693Y40198D01*
X30571Y40187D01*
X30566D01*
X30549D01*
X30527D01*
X30493Y40192D01*
X30455Y40198D01*
X30410Y40203D01*
X30305Y40225D01*
X30183Y40270D01*
X30122Y40292D01*
X30060Y40325D01*
X30000Y40364D01*
X29938Y40409D01*
X29883Y40459D01*
X29827Y40520D01*
X29822Y40525D01*
X29816Y40536D01*
X29805Y40553D01*
X29783Y40581D01*
X29766Y40614D01*
X29744Y40653D01*
X29716Y40703D01*
X29694Y40758D01*
X29667Y40819D01*
X29644Y40886D01*
X29616Y40964D01*
X29600Y41041D01*
X29583Y41130D01*
X29567Y41224D01*
X29561Y41324D01*
X29555Y41430D01*
Y42712D01*
X32985D01*
Y41435D01*
D02*
G37*
G36*
X289215Y83630D02*
X289253Y83624D01*
X289298Y83619D01*
X289403Y83596D01*
X289520Y83558D01*
X289581Y83530D01*
X289642Y83496D01*
X289703Y83458D01*
X289764Y83419D01*
X289820Y83363D01*
X289869Y83308D01*
X289875Y83302D01*
X289880Y83291D01*
X289892Y83275D01*
X289914Y83247D01*
X289931Y83214D01*
X289953Y83175D01*
X289981Y83130D01*
X290003Y83075D01*
X290030Y83014D01*
X290053Y82947D01*
X290075Y82875D01*
X290097Y82797D01*
X290114Y82708D01*
X290125Y82620D01*
X290130Y82520D01*
X290136Y82420D01*
Y82414D01*
Y82392D01*
Y82359D01*
X290130Y82320D01*
X290125Y82264D01*
X290119Y82203D01*
X290108Y82137D01*
X290097Y82065D01*
X290058Y81909D01*
X290003Y81748D01*
X289969Y81665D01*
X289931Y81587D01*
X289880Y81510D01*
X289825Y81437D01*
X289820Y81432D01*
X289808Y81421D01*
X289792Y81404D01*
X289770Y81382D01*
X289742Y81354D01*
X289703Y81321D01*
X289659Y81288D01*
X289609Y81254D01*
X289559Y81221D01*
X289498Y81188D01*
X289359Y81127D01*
X289281Y81104D01*
X289204Y81088D01*
X289115Y81077D01*
X289026Y81071D01*
X288981D01*
X288954Y81077D01*
X288915Y81082D01*
X288870Y81088D01*
X288771Y81116D01*
X288660Y81154D01*
X288604Y81188D01*
X288548Y81221D01*
X288493Y81260D01*
X288438Y81304D01*
X288388Y81360D01*
X288343Y81421D01*
X288332D01*
Y80000D01*
X287616D01*
Y83574D01*
X288332D01*
Y83202D01*
X288343D01*
X288349Y83208D01*
X288354Y83219D01*
X288371Y83241D01*
X288393Y83269D01*
X288426Y83302D01*
X288460Y83341D01*
X288499Y83380D01*
X288548Y83419D01*
X288604Y83458D01*
X288660Y83496D01*
X288726Y83535D01*
X288798Y83569D01*
X288876Y83596D01*
X288954Y83619D01*
X289042Y83630D01*
X289137Y83635D01*
X289181D01*
X289215Y83630D01*
D02*
G37*
G36*
X286279D02*
X286334Y83619D01*
X286390Y83608D01*
X286462Y83585D01*
X286534Y83552D01*
X286606Y83513D01*
X286678Y83458D01*
X286750Y83397D01*
X286823Y83313D01*
X286884Y83219D01*
X286933Y83108D01*
X286972Y82975D01*
X286995Y82819D01*
X287006Y82736D01*
Y82647D01*
Y81127D01*
X286295D01*
Y82525D01*
Y82531D01*
Y82547D01*
Y82575D01*
X286290Y82614D01*
X286284Y82653D01*
X286273Y82703D01*
X286245Y82808D01*
X286223Y82858D01*
X286195Y82908D01*
X286162Y82958D01*
X286123Y82997D01*
X286073Y83036D01*
X286018Y83064D01*
X285957Y83080D01*
X285884Y83086D01*
X285851D01*
X285818Y83075D01*
X285773Y83064D01*
X285718Y83041D01*
X285668Y83014D01*
X285613Y82969D01*
X285563Y82914D01*
X285557Y82908D01*
X285546Y82886D01*
X285524Y82847D01*
X285502Y82797D01*
X285479Y82736D01*
X285457Y82664D01*
X285446Y82586D01*
X285440Y82498D01*
Y81127D01*
X284725D01*
Y82542D01*
Y82547D01*
Y82564D01*
Y82592D01*
X284719Y82625D01*
X284714Y82670D01*
X284702Y82714D01*
X284675Y82814D01*
X284652Y82864D01*
X284625Y82914D01*
X284591Y82958D01*
X284553Y83003D01*
X284508Y83036D01*
X284453Y83064D01*
X284392Y83080D01*
X284319Y83086D01*
X284286D01*
X284247Y83075D01*
X284203Y83064D01*
X284153Y83047D01*
X284097Y83014D01*
X284048Y82975D01*
X283998Y82919D01*
X283992Y82914D01*
X283981Y82891D01*
X283959Y82853D01*
X283937Y82808D01*
X283914Y82742D01*
X283892Y82670D01*
X283881Y82586D01*
X283875Y82492D01*
Y81127D01*
X283159D01*
Y83574D01*
X283875D01*
Y83191D01*
X283887D01*
X283892Y83202D01*
X283909Y83224D01*
X283937Y83263D01*
X283975Y83313D01*
X284025Y83363D01*
X284081Y83419D01*
X284153Y83469D01*
X284225Y83519D01*
X284236Y83524D01*
X284264Y83535D01*
X284308Y83558D01*
X284364Y83580D01*
X284431Y83596D01*
X284508Y83619D01*
X284586Y83630D01*
X284675Y83635D01*
X284697D01*
X284725Y83630D01*
X284758D01*
X284802Y83619D01*
X284847Y83613D01*
X284958Y83580D01*
X285013Y83552D01*
X285074Y83524D01*
X285135Y83485D01*
X285191Y83441D01*
X285246Y83391D01*
X285296Y83324D01*
X285341Y83258D01*
X285380Y83175D01*
X285385Y83180D01*
X285391Y83197D01*
X285407Y83219D01*
X285435Y83247D01*
X285463Y83280D01*
X285502Y83319D01*
X285541Y83363D01*
X285590Y83408D01*
X285646Y83447D01*
X285707Y83491D01*
X285773Y83530D01*
X285851Y83563D01*
X285929Y83591D01*
X286018Y83613D01*
X286107Y83630D01*
X286206Y83635D01*
X286240D01*
X286279Y83630D01*
D02*
G37*
G36*
X280118Y83957D02*
X279136D01*
Y81127D01*
X278403D01*
Y83957D01*
X277426D01*
Y84557D01*
X280118D01*
Y83957D01*
D02*
G37*
G36*
X281678Y83630D02*
X281716Y83624D01*
X281772Y83619D01*
X281827Y83608D01*
X281889Y83596D01*
X282016Y83558D01*
X282083Y83535D01*
X282149Y83502D01*
X282216Y83463D01*
X282283Y83424D01*
X282344Y83374D01*
X282399Y83319D01*
X282405Y83313D01*
X282410Y83302D01*
X282427Y83286D01*
X282444Y83263D01*
X282466Y83230D01*
X282493Y83191D01*
X282521Y83147D01*
X282549Y83091D01*
X282571Y83036D01*
X282599Y82969D01*
X282627Y82897D01*
X282649Y82819D01*
X282665Y82736D01*
X282682Y82647D01*
X282688Y82553D01*
X282693Y82453D01*
Y82148D01*
X281084D01*
Y82142D01*
X281089Y82126D01*
Y82098D01*
X281101Y82059D01*
X281112Y82015D01*
X281128Y81965D01*
X281150Y81915D01*
X281184Y81865D01*
X281217Y81809D01*
X281267Y81759D01*
X281322Y81709D01*
X281383Y81665D01*
X281461Y81632D01*
X281550Y81598D01*
X281650Y81582D01*
X281766Y81576D01*
X281805D01*
X281833Y81582D01*
X281872D01*
X281911Y81587D01*
X282011Y81604D01*
X282122Y81626D01*
X282244Y81660D01*
X282366Y81709D01*
X282488Y81776D01*
Y81254D01*
X282482D01*
X282471Y81249D01*
X282455Y81238D01*
X282427Y81226D01*
X282394Y81210D01*
X282355Y81199D01*
X282305Y81182D01*
X282249Y81165D01*
X282188Y81143D01*
X282122Y81127D01*
X282049Y81116D01*
X281972Y81099D01*
X281889Y81088D01*
X281800Y81077D01*
X281606Y81071D01*
X281550D01*
X281511Y81077D01*
X281461Y81082D01*
X281406Y81088D01*
X281339Y81099D01*
X281273Y81110D01*
X281128Y81149D01*
X281050Y81177D01*
X280978Y81210D01*
X280901Y81249D01*
X280828Y81293D01*
X280762Y81343D01*
X280695Y81399D01*
X280690Y81404D01*
X280684Y81415D01*
X280667Y81432D01*
X280645Y81460D01*
X280623Y81493D01*
X280595Y81532D01*
X280562Y81582D01*
X280534Y81637D01*
X280507Y81698D01*
X280473Y81765D01*
X280446Y81843D01*
X280423Y81926D01*
X280401Y82009D01*
X280390Y82109D01*
X280379Y82209D01*
X280373Y82314D01*
Y82320D01*
Y82342D01*
Y82370D01*
X280379Y82414D01*
X280384Y82464D01*
X280390Y82520D01*
X280401Y82586D01*
X280418Y82653D01*
X280457Y82808D01*
X280484Y82886D01*
X280518Y82964D01*
X280557Y83047D01*
X280607Y83125D01*
X280656Y83197D01*
X280717Y83269D01*
X280723Y83275D01*
X280734Y83286D01*
X280751Y83302D01*
X280779Y83324D01*
X280812Y83352D01*
X280856Y83385D01*
X280901Y83419D01*
X280956Y83452D01*
X281017Y83485D01*
X281084Y83519D01*
X281156Y83552D01*
X281228Y83580D01*
X281311Y83602D01*
X281400Y83619D01*
X281494Y83630D01*
X281589Y83635D01*
X281639D01*
X281678Y83630D01*
D02*
G37*
G36*
X159209Y113493D02*
X157783D01*
Y112904D01*
X158476D01*
Y112199D01*
X158404Y112172D01*
X158326Y112149D01*
X158249Y112133D01*
X158177Y112122D01*
X158110Y112116D01*
X158060Y112110D01*
X158010D01*
X157921Y112116D01*
X157838Y112122D01*
X157688Y112155D01*
X157555Y112205D01*
X157500Y112233D01*
X157450Y112260D01*
X157405Y112288D01*
X157361Y112316D01*
X157327Y112344D01*
X157300Y112366D01*
X157278Y112382D01*
X157261Y112399D01*
X157255Y112405D01*
X157250Y112410D01*
X157200Y112471D01*
X157161Y112532D01*
X157122Y112599D01*
X157089Y112665D01*
X157039Y112810D01*
X157006Y112943D01*
X156994Y113004D01*
X156989Y113059D01*
X156983Y113115D01*
X156978Y113159D01*
X156972Y113198D01*
Y113226D01*
Y113243D01*
Y113248D01*
X156978Y113348D01*
X156983Y113437D01*
X157000Y113526D01*
X157022Y113609D01*
X157044Y113681D01*
X157067Y113753D01*
X157094Y113820D01*
X157128Y113875D01*
X157155Y113925D01*
X157183Y113975D01*
X157205Y114014D01*
X157228Y114042D01*
X157250Y114070D01*
X157266Y114086D01*
X157272Y114097D01*
X157278Y114103D01*
X157339Y114158D01*
X157400Y114214D01*
X157466Y114253D01*
X157533Y114292D01*
X157599Y114325D01*
X157672Y114353D01*
X157799Y114392D01*
X157855Y114403D01*
X157910Y114414D01*
X157960Y114419D01*
X157999Y114425D01*
X158032Y114430D01*
X158082D01*
X158288Y114419D01*
X158476Y114392D01*
X158565Y114375D01*
X158643Y114358D01*
X158721Y114336D01*
X158787Y114314D01*
X158848Y114292D01*
X158904Y114269D01*
X158948Y114253D01*
X158987Y114236D01*
X159020Y114219D01*
X159043Y114208D01*
X159054Y114203D01*
X159059Y114197D01*
Y114891D01*
X158898Y114941D01*
X158737Y114980D01*
X158576Y115008D01*
X158426Y115030D01*
X158354Y115035D01*
X158293Y115041D01*
X158238D01*
X158193Y115047D01*
X159209D01*
Y113493D01*
D02*
G37*
G36*
Y111500D02*
X157971D01*
X158105Y111505D01*
X158238Y111511D01*
X158360Y111528D01*
X158476Y111544D01*
X158582Y111567D01*
X158687Y111589D01*
X158782Y111617D01*
X158865Y111644D01*
X158943Y111667D01*
X159009Y111694D01*
X159070Y111716D01*
X159120Y111739D01*
X159159Y111755D01*
X159187Y111772D01*
X159203Y111777D01*
X159209Y111783D01*
Y111500D01*
D02*
G37*
G36*
X157944Y115041D02*
X157794Y115024D01*
X157655Y115002D01*
X157522Y114969D01*
X157400Y114930D01*
X157289Y114885D01*
X157183Y114841D01*
X157089Y114791D01*
X157006Y114741D01*
X156933Y114697D01*
X156872Y114652D01*
X156817Y114614D01*
X156778Y114586D01*
X156745Y114558D01*
X156728Y114541D01*
X156723Y114536D01*
X156628Y114436D01*
X156551Y114330D01*
X156478Y114225D01*
X156423Y114114D01*
X156373Y114003D01*
X156328Y113892D01*
X156295Y113787D01*
X156267Y113687D01*
X156245Y113587D01*
X156229Y113498D01*
X156218Y113420D01*
X156212Y113348D01*
X156206Y113293D01*
X156201Y113248D01*
Y113293D01*
Y111500D01*
Y113215D01*
X156206Y113071D01*
X156223Y112932D01*
X156245Y112804D01*
X156273Y112682D01*
X156312Y112571D01*
X156351Y112466D01*
X156395Y112371D01*
X156439Y112288D01*
X156478Y112210D01*
X156523Y112144D01*
X156562Y112088D01*
X156600Y112038D01*
X156628Y112005D01*
X156650Y111977D01*
X156667Y111961D01*
X156673Y111955D01*
X156767Y111877D01*
X156867Y111805D01*
X156972Y111744D01*
X157078Y111694D01*
X157183Y111650D01*
X157294Y111611D01*
X157400Y111583D01*
X157500Y111556D01*
X157599Y111539D01*
X157688Y111522D01*
X157766Y111517D01*
X157838Y111505D01*
X157894D01*
X157938Y111500D01*
X159209D01*
Y115047D01*
X163954D01*
Y111500D01*
X151500D01*
Y115047D01*
X156201D01*
D01*
X158099D01*
X157944Y115041D01*
D02*
G37*
G36*
X358568Y1544D02*
X357108D01*
Y573D01*
X358412D01*
Y-32D01*
X357108D01*
Y-1137D01*
X358712D01*
Y-1736D01*
X354366D01*
Y-1137D01*
X355015D01*
Y1061D01*
X355670D01*
Y-1137D01*
X356436D01*
Y1544D01*
X354544D01*
Y2149D01*
X358568D01*
Y1544D01*
D02*
G37*
G36*
X356542Y112896D02*
X356531Y112873D01*
X356508Y112840D01*
X356475Y112796D01*
X356442Y112746D01*
X356403Y112690D01*
X356314Y112574D01*
X357846D01*
Y112085D01*
X357296Y111597D01*
X358318D01*
Y109638D01*
X357707D01*
Y111064D01*
X355498D01*
Y109616D01*
X354893D01*
Y111120D01*
X354838Y111070D01*
Y111075D01*
X354827Y111081D01*
X354805Y111109D01*
X354760Y111158D01*
X354710Y111220D01*
X354638Y111297D01*
X354560Y111380D01*
X354472Y111475D01*
X354377Y111569D01*
X354388Y111575D01*
X354416Y111597D01*
X354461Y111630D01*
X354516Y111675D01*
X354588Y111730D01*
X354671Y111797D01*
X354766Y111874D01*
X354871Y111963D01*
X354977Y112057D01*
X355093Y112163D01*
X355210Y112268D01*
X355332Y112385D01*
X355454Y112507D01*
X355576Y112635D01*
X355809Y112901D01*
X356547D01*
X356542Y112896D01*
D02*
G37*
G36*
X356930Y110870D02*
Y110853D01*
Y110820D01*
Y110781D01*
Y110737D01*
X356925Y110681D01*
Y110620D01*
X356919Y110554D01*
X356903Y110404D01*
X356880Y110243D01*
X356853Y110082D01*
X356808Y109926D01*
X356814D01*
X356819Y109921D01*
X356836Y109915D01*
X356858Y109910D01*
X356886Y109899D01*
X356919Y109882D01*
X357002Y109854D01*
X357102Y109815D01*
X357219Y109771D01*
X357352Y109715D01*
X357496Y109660D01*
X357646Y109599D01*
X357802Y109538D01*
X358135Y109405D01*
X358462Y109260D01*
X358623Y109194D01*
X358778Y109122D01*
X358406Y108511D01*
X358395Y108517D01*
X358368Y108533D01*
X358318Y108561D01*
X358251Y108594D01*
X358173Y108644D01*
X358079Y108694D01*
X357968Y108755D01*
X357846Y108816D01*
X357713Y108888D01*
X357569Y108961D01*
X357419Y109038D01*
X357258Y109122D01*
X357091Y109199D01*
X356919Y109283D01*
X356564Y109449D01*
X356558Y109443D01*
X356542Y109421D01*
X356508Y109388D01*
X356464Y109338D01*
X356403Y109288D01*
X356331Y109221D01*
X356248Y109155D01*
X356148Y109083D01*
X356031Y109005D01*
X355898Y108927D01*
X355754Y108844D01*
X355593Y108766D01*
X355421Y108694D01*
X355226Y108622D01*
X355021Y108555D01*
X354794Y108500D01*
Y108505D01*
X354788Y108517D01*
X354777Y108528D01*
X354760Y108555D01*
X354727Y108611D01*
X354671Y108694D01*
X354610Y108789D01*
X354538Y108888D01*
X354455Y109005D01*
X354366Y109122D01*
X354377D01*
X354399Y109127D01*
X354438Y109133D01*
X354494Y109144D01*
X354555Y109155D01*
X354627Y109172D01*
X354710Y109188D01*
X354799Y109205D01*
X354993Y109249D01*
X355193Y109305D01*
X355387Y109371D01*
X355476Y109405D01*
X355565Y109443D01*
X355571D01*
X355587Y109455D01*
X355609Y109466D01*
X355637Y109482D01*
X355676Y109504D01*
X355715Y109527D01*
X355809Y109588D01*
X355909Y109666D01*
X356009Y109754D01*
X356098Y109854D01*
X356131Y109910D01*
X356164Y109965D01*
Y109971D01*
X356170Y109982D01*
X356181Y109999D01*
X356187Y110026D01*
X356198Y110059D01*
X356214Y110098D01*
X356225Y110143D01*
X356237Y110198D01*
X356253Y110259D01*
X356264Y110326D01*
X356275Y110404D01*
X356286Y110481D01*
X356297Y110570D01*
X356303Y110664D01*
X356309Y110770D01*
Y110875D01*
X356930D01*
Y110870D01*
D02*
G37*
G36*
X158037Y-2959D02*
X158092D01*
X158153Y-2965D01*
X158226Y-2970D01*
X158375Y-2992D01*
X158536Y-3020D01*
X158697Y-3059D01*
X158858Y-3109D01*
Y-3803D01*
X158853Y-3797D01*
X158842Y-3792D01*
X158819Y-3780D01*
X158786Y-3764D01*
X158747Y-3747D01*
X158703Y-3731D01*
X158647Y-3708D01*
X158586Y-3686D01*
X158520Y-3664D01*
X158442Y-3642D01*
X158364Y-3625D01*
X158275Y-3608D01*
X158087Y-3581D01*
X157881Y-3570D01*
X157832D01*
X157798Y-3575D01*
X157759Y-3581D01*
X157709Y-3586D01*
X157654Y-3597D01*
X157598Y-3608D01*
X157471Y-3647D01*
X157399Y-3675D01*
X157332Y-3708D01*
X157265Y-3747D01*
X157199Y-3786D01*
X157138Y-3842D01*
X157077Y-3897D01*
X157071Y-3903D01*
X157066Y-3914D01*
X157049Y-3930D01*
X157027Y-3958D01*
X157004Y-3986D01*
X156982Y-4025D01*
X156955Y-4075D01*
X156927Y-4125D01*
X156894Y-4180D01*
X156866Y-4247D01*
X156844Y-4319D01*
X156821Y-4391D01*
X156799Y-4474D01*
X156782Y-4563D01*
X156777Y-4652D01*
X156772Y-4752D01*
Y-4757D01*
Y-4774D01*
Y-4802D01*
X156777Y-4841D01*
X156782Y-4885D01*
X156788Y-4940D01*
X156794Y-4996D01*
X156805Y-5057D01*
X156838Y-5190D01*
X156888Y-5334D01*
X156921Y-5401D01*
X156960Y-5468D01*
X156999Y-5529D01*
X157049Y-5590D01*
X157054Y-5595D01*
X157060Y-5601D01*
X157077Y-5618D01*
X157099Y-5634D01*
X157127Y-5656D01*
X157160Y-5684D01*
X157204Y-5712D01*
X157249Y-5740D01*
X157299Y-5767D01*
X157354Y-5795D01*
X157487Y-5845D01*
X157637Y-5878D01*
X157720Y-5884D01*
X157809Y-5889D01*
X157859D01*
X157909Y-5884D01*
X157976Y-5878D01*
X158048Y-5867D01*
X158126Y-5851D01*
X158203Y-5829D01*
X158275Y-5801D01*
Y-5096D01*
X157582D01*
Y-4507D01*
X159008D01*
Y-6217D01*
X159002Y-6222D01*
X158986Y-6228D01*
X158958Y-6245D01*
X158919Y-6261D01*
X158869Y-6284D01*
X158808Y-6306D01*
X158742Y-6334D01*
X158664Y-6356D01*
X158581Y-6383D01*
X158486Y-6411D01*
X158381Y-6433D01*
X158275Y-6456D01*
X158159Y-6472D01*
X158037Y-6489D01*
X157904Y-6494D01*
X157771Y-6500D01*
X157737D01*
X157693Y-6494D01*
X157637D01*
X157565Y-6483D01*
X157487Y-6478D01*
X157399Y-6461D01*
X157299Y-6444D01*
X157199Y-6417D01*
X157093Y-6389D01*
X156982Y-6350D01*
X156877Y-6306D01*
X156772Y-6256D01*
X156666Y-6195D01*
X156566Y-6123D01*
X156472Y-6045D01*
X156466Y-6039D01*
X156449Y-6023D01*
X156427Y-5995D01*
X156400Y-5962D01*
X156361Y-5912D01*
X156322Y-5856D01*
X156278Y-5790D01*
X156239Y-5712D01*
X156194Y-5629D01*
X156150Y-5534D01*
X156111Y-5429D01*
X156072Y-5318D01*
X156044Y-5196D01*
X156022Y-5068D01*
X156006Y-4929D01*
X156000Y-4785D01*
Y-4774D01*
Y-4752D01*
X156006Y-4707D01*
X156011Y-4652D01*
X156017Y-4580D01*
X156028Y-4502D01*
X156044Y-4413D01*
X156067Y-4313D01*
X156094Y-4213D01*
X156128Y-4108D01*
X156172Y-3997D01*
X156222Y-3886D01*
X156278Y-3775D01*
X156350Y-3669D01*
X156427Y-3564D01*
X156522Y-3464D01*
X156527Y-3459D01*
X156544Y-3442D01*
X156577Y-3414D01*
X156616Y-3386D01*
X156672Y-3348D01*
X156733Y-3303D01*
X156805Y-3259D01*
X156888Y-3209D01*
X156982Y-3159D01*
X157088Y-3115D01*
X157199Y-3070D01*
X157321Y-3031D01*
X157454Y-2998D01*
X157593Y-2976D01*
X157743Y-2959D01*
X157898Y-2953D01*
X157992D01*
X158037Y-2959D01*
D02*
G37*
G36*
X162743Y-6444D02*
X161994D01*
X160540Y-4225D01*
X160534Y-4219D01*
X160523Y-4197D01*
X160501Y-4163D01*
X160479Y-4125D01*
X160423Y-4036D01*
X160396Y-3991D01*
X160373Y-3947D01*
X160362D01*
Y-3953D01*
X160368Y-3980D01*
Y-4025D01*
X160373Y-4080D01*
X160379Y-4158D01*
Y-4252D01*
X160385Y-4363D01*
Y-4496D01*
Y-6444D01*
X159691D01*
Y-3015D01*
X160490D01*
X161889Y-5174D01*
X161894Y-5185D01*
X161911Y-5207D01*
X161933Y-5246D01*
X161961Y-5290D01*
X161994Y-5334D01*
X162022Y-5379D01*
X162044Y-5418D01*
X162061Y-5446D01*
X162072D01*
Y-5440D01*
X162066Y-5423D01*
Y-5390D01*
X162061Y-5340D01*
X162055Y-5273D01*
Y-5190D01*
X162049Y-5090D01*
Y-4968D01*
Y-3015D01*
X162743D01*
Y-6444D01*
D02*
G37*
G36*
X164808Y-3020D02*
X164852D01*
X164897Y-3026D01*
X164952Y-3031D01*
X165013Y-3042D01*
X165152Y-3064D01*
X165307Y-3103D01*
X165474Y-3153D01*
X165646Y-3226D01*
X165812Y-3314D01*
X165896Y-3364D01*
X165979Y-3420D01*
X166057Y-3486D01*
X166134Y-3559D01*
X166206Y-3636D01*
X166273Y-3719D01*
X166334Y-3808D01*
X166390Y-3908D01*
X166434Y-4019D01*
X166478Y-4136D01*
X166512Y-4258D01*
X166534Y-4391D01*
X166551Y-4535D01*
X166556Y-4685D01*
Y-4696D01*
Y-4718D01*
X166551Y-4763D01*
Y-4818D01*
X166540Y-4885D01*
X166528Y-4963D01*
X166512Y-5051D01*
X166495Y-5146D01*
X166467Y-5246D01*
X166434Y-5351D01*
X166390Y-5457D01*
X166340Y-5562D01*
X166284Y-5667D01*
X166212Y-5773D01*
X166134Y-5873D01*
X166045Y-5967D01*
X166040Y-5973D01*
X166023Y-5989D01*
X165996Y-6012D01*
X165951Y-6039D01*
X165901Y-6078D01*
X165840Y-6117D01*
X165768Y-6161D01*
X165690Y-6206D01*
X165596Y-6250D01*
X165496Y-6295D01*
X165391Y-6334D01*
X165274Y-6372D01*
X165146Y-6400D01*
X165013Y-6422D01*
X164874Y-6439D01*
X164725Y-6444D01*
X163542D01*
Y-3015D01*
X164775D01*
X164808Y-3020D01*
D02*
G37*
G36*
X127903Y-6100D02*
X127077D01*
X125900Y-2670D01*
X126688D01*
X127432Y-5096D01*
Y-5101D01*
X127443Y-5129D01*
X127448Y-5162D01*
X127460Y-5206D01*
X127471Y-5256D01*
X127482Y-5317D01*
X127498Y-5434D01*
X127515D01*
Y-5429D01*
X127521Y-5406D01*
X127526Y-5373D01*
X127532Y-5328D01*
X127543Y-5279D01*
X127554Y-5223D01*
X127587Y-5090D01*
X128331Y-2670D01*
X129097D01*
X127903Y-6100D01*
D02*
G37*
G36*
X134375Y-2676D02*
X134419D01*
X134464Y-2681D01*
X134519Y-2687D01*
X134580Y-2698D01*
X134719Y-2720D01*
X134874Y-2759D01*
X135041Y-2809D01*
X135213Y-2881D01*
X135379Y-2970D01*
X135463Y-3020D01*
X135546Y-3075D01*
X135624Y-3142D01*
X135701Y-3214D01*
X135774Y-3292D01*
X135840Y-3375D01*
X135901Y-3464D01*
X135957Y-3564D01*
X136001Y-3675D01*
X136045Y-3791D01*
X136079Y-3913D01*
X136101Y-4047D01*
X136118Y-4191D01*
X136123Y-4341D01*
Y-4352D01*
Y-4374D01*
X136118Y-4418D01*
Y-4474D01*
X136106Y-4540D01*
X136095Y-4618D01*
X136079Y-4707D01*
X136062Y-4801D01*
X136034Y-4901D01*
X136001Y-5007D01*
X135957Y-5112D01*
X135907Y-5218D01*
X135851Y-5323D01*
X135779Y-5429D01*
X135701Y-5528D01*
X135612Y-5623D01*
X135607Y-5628D01*
X135590Y-5645D01*
X135563Y-5667D01*
X135518Y-5695D01*
X135468Y-5734D01*
X135407Y-5773D01*
X135335Y-5817D01*
X135257Y-5861D01*
X135163Y-5906D01*
X135063Y-5950D01*
X134958Y-5989D01*
X134841Y-6028D01*
X134713Y-6056D01*
X134580Y-6078D01*
X134441Y-6094D01*
X134292Y-6100D01*
X133109D01*
Y-2670D01*
X134342D01*
X134375Y-2676D01*
D02*
G37*
G36*
X130784D02*
X130828D01*
X130873Y-2681D01*
X130928Y-2687D01*
X130989Y-2698D01*
X131128Y-2720D01*
X131283Y-2759D01*
X131450Y-2809D01*
X131622Y-2881D01*
X131789Y-2970D01*
X131872Y-3020D01*
X131955Y-3075D01*
X132033Y-3142D01*
X132110Y-3214D01*
X132183Y-3292D01*
X132249Y-3375D01*
X132310Y-3464D01*
X132366Y-3564D01*
X132410Y-3675D01*
X132455Y-3791D01*
X132488Y-3913D01*
X132510Y-4047D01*
X132527Y-4191D01*
X132532Y-4341D01*
Y-4352D01*
Y-4374D01*
X132527Y-4418D01*
Y-4474D01*
X132516Y-4540D01*
X132504Y-4618D01*
X132488Y-4707D01*
X132471Y-4801D01*
X132443Y-4901D01*
X132410Y-5007D01*
X132366Y-5112D01*
X132316Y-5218D01*
X132260Y-5323D01*
X132188Y-5429D01*
X132110Y-5528D01*
X132022Y-5623D01*
X132016Y-5628D01*
X132000Y-5645D01*
X131972Y-5667D01*
X131927Y-5695D01*
X131877Y-5734D01*
X131816Y-5773D01*
X131744Y-5817D01*
X131667Y-5861D01*
X131572Y-5906D01*
X131472Y-5950D01*
X131367Y-5989D01*
X131250Y-6028D01*
X131123Y-6056D01*
X130989Y-6078D01*
X130851Y-6094D01*
X130701Y-6100D01*
X129519D01*
Y-2670D01*
X130751D01*
X130784Y-2676D01*
D02*
G37*
G36*
X139460Y14841D02*
X139510D01*
X139565Y14835D01*
X139626Y14830D01*
X139759Y14813D01*
X139904Y14791D01*
X140042Y14758D01*
X140176Y14713D01*
Y14025D01*
X140170Y14031D01*
X140159Y14036D01*
X140142Y14047D01*
X140115Y14064D01*
X140081Y14081D01*
X140042Y14103D01*
X139998Y14125D01*
X139948Y14147D01*
X139826Y14186D01*
X139687Y14225D01*
X139532Y14253D01*
X139454Y14264D01*
X139321D01*
X139271Y14258D01*
X139210Y14253D01*
X139143Y14242D01*
X139071Y14219D01*
X138999Y14197D01*
X138932Y14164D01*
X138927Y14158D01*
X138910Y14147D01*
X138882Y14125D01*
X138855Y14092D01*
X138821Y14053D01*
X138799Y14008D01*
X138777Y13958D01*
X138771Y13897D01*
Y13892D01*
Y13875D01*
X138777Y13848D01*
X138788Y13820D01*
X138799Y13781D01*
X138816Y13736D01*
X138844Y13698D01*
X138882Y13653D01*
X138888Y13648D01*
X138905Y13631D01*
X138944Y13609D01*
X138994Y13576D01*
X139027Y13553D01*
X139066Y13531D01*
X139110Y13503D01*
X139160Y13476D01*
X139221Y13448D01*
X139282Y13415D01*
X139354Y13381D01*
X139432Y13348D01*
X139437D01*
X139454Y13337D01*
X139482Y13326D01*
X139515Y13309D01*
X139554Y13292D01*
X139604Y13265D01*
X139709Y13209D01*
X139826Y13143D01*
X139943Y13065D01*
X140048Y12976D01*
X140092Y12932D01*
X140131Y12887D01*
X140142Y12876D01*
X140164Y12843D01*
X140192Y12793D01*
X140231Y12721D01*
X140264Y12638D01*
X140298Y12538D01*
X140320Y12427D01*
X140325Y12305D01*
Y12299D01*
Y12282D01*
Y12260D01*
X140320Y12221D01*
X140314Y12183D01*
X140309Y12133D01*
X140281Y12027D01*
X140242Y11905D01*
X140215Y11844D01*
X140176Y11783D01*
X140137Y11722D01*
X140092Y11661D01*
X140037Y11605D01*
X139976Y11555D01*
X139970D01*
X139959Y11544D01*
X139937Y11533D01*
X139909Y11517D01*
X139876Y11494D01*
X139831Y11472D01*
X139781Y11450D01*
X139720Y11428D01*
X139654Y11406D01*
X139582Y11383D01*
X139498Y11361D01*
X139410Y11339D01*
X139315Y11322D01*
X139210Y11311D01*
X139099Y11305D01*
X138982Y11300D01*
X138927D01*
X138882Y11305D01*
X138832D01*
X138777Y11311D01*
X138710Y11317D01*
X138644Y11322D01*
X138488Y11344D01*
X138327Y11378D01*
X138166Y11422D01*
X138017Y11483D01*
Y12216D01*
X138022Y12210D01*
X138033Y12199D01*
X138056Y12183D01*
X138089Y12160D01*
X138128Y12138D01*
X138172Y12105D01*
X138227Y12077D01*
X138289Y12044D01*
X138355Y12010D01*
X138427Y11983D01*
X138588Y11927D01*
X138672Y11905D01*
X138760Y11888D01*
X138855Y11877D01*
X138955Y11872D01*
X139005D01*
X139060Y11877D01*
X139121Y11883D01*
X139199Y11899D01*
X139271Y11916D01*
X139343Y11944D01*
X139404Y11977D01*
X139410Y11983D01*
X139426Y11994D01*
X139454Y12021D01*
X139482Y12049D01*
X139510Y12088D01*
X139537Y12133D01*
X139554Y12188D01*
X139559Y12244D01*
Y12249D01*
Y12266D01*
X139554Y12293D01*
X139543Y12327D01*
X139532Y12366D01*
X139510Y12410D01*
X139476Y12460D01*
X139437Y12504D01*
X139432Y12510D01*
X139410Y12527D01*
X139371Y12554D01*
X139349Y12576D01*
X139315Y12593D01*
X139277Y12615D01*
X139232Y12643D01*
X139182Y12671D01*
X139121Y12699D01*
X139055Y12732D01*
X138982Y12771D01*
X138899Y12804D01*
X138805Y12843D01*
X138794Y12848D01*
X138771Y12859D01*
X138733Y12876D01*
X138677Y12904D01*
X138616Y12943D01*
X138549Y12987D01*
X138477Y13037D01*
X138405Y13093D01*
X138327Y13159D01*
X138255Y13237D01*
X138189Y13315D01*
X138128Y13404D01*
X138072Y13503D01*
X138033Y13603D01*
X138011Y13720D01*
X138000Y13836D01*
Y13842D01*
Y13859D01*
Y13881D01*
X138005Y13914D01*
X138011Y13953D01*
X138022Y14003D01*
X138044Y14108D01*
X138089Y14230D01*
X138117Y14291D01*
X138155Y14353D01*
X138194Y14414D01*
X138244Y14469D01*
X138300Y14530D01*
X138366Y14580D01*
X138372Y14586D01*
X138383Y14591D01*
X138405Y14602D01*
X138433Y14624D01*
X138472Y14641D01*
X138516Y14663D01*
X138566Y14691D01*
X138627Y14713D01*
X138688Y14741D01*
X138766Y14763D01*
X138844Y14785D01*
X138927Y14808D01*
X139021Y14824D01*
X139121Y14835D01*
X139221Y14841D01*
X139332Y14846D01*
X139415D01*
X139460Y14841D01*
D02*
G37*
G36*
X144432Y11355D02*
X143617D01*
X143034Y13592D01*
Y13603D01*
X143028Y13625D01*
X143017Y13659D01*
X143006Y13709D01*
X143000Y13764D01*
X142990Y13831D01*
X142978Y13970D01*
X142967D01*
Y13958D01*
X142962Y13931D01*
X142956Y13892D01*
X142951Y13836D01*
X142945Y13775D01*
X142934Y13714D01*
X142923Y13653D01*
X142906Y13592D01*
X142307Y11355D01*
X141463D01*
X140548Y14785D01*
X141352D01*
X141863Y12460D01*
Y12454D01*
X141868Y12432D01*
X141874Y12399D01*
X141879Y12354D01*
X141891Y12299D01*
X141896Y12232D01*
X141902Y12155D01*
X141907Y12071D01*
X141924D01*
Y12083D01*
X141929Y12105D01*
Y12144D01*
X141935Y12188D01*
X141946Y12249D01*
X141957Y12316D01*
X141974Y12393D01*
X141990Y12471D01*
X142629Y14785D01*
X143406D01*
X143988Y12443D01*
Y12438D01*
X143994Y12416D01*
X144000Y12388D01*
X144011Y12343D01*
X144016Y12288D01*
X144027Y12227D01*
X144033Y12155D01*
X144044Y12077D01*
X144055D01*
Y12088D01*
Y12110D01*
X144061Y12149D01*
X144066Y12199D01*
X144072Y12255D01*
X144083Y12316D01*
X144105Y12454D01*
X144605Y14785D01*
X145348D01*
X144432Y11355D01*
D02*
G37*
G36*
X147052Y14780D02*
X147097D01*
X147141Y14774D01*
X147196Y14769D01*
X147257Y14758D01*
X147396Y14736D01*
X147552Y14697D01*
X147718Y14647D01*
X147890Y14574D01*
X148057Y14486D01*
X148140Y14436D01*
X148223Y14380D01*
X148301Y14314D01*
X148379Y14242D01*
X148451Y14164D01*
X148517Y14081D01*
X148578Y13992D01*
X148634Y13892D01*
X148678Y13781D01*
X148723Y13664D01*
X148756Y13542D01*
X148778Y13409D01*
X148795Y13265D01*
X148800Y13115D01*
Y13104D01*
Y13081D01*
X148795Y13037D01*
Y12982D01*
X148784Y12915D01*
X148773Y12837D01*
X148756Y12749D01*
X148739Y12654D01*
X148712Y12554D01*
X148678Y12449D01*
X148634Y12343D01*
X148584Y12238D01*
X148528Y12133D01*
X148456Y12027D01*
X148379Y11927D01*
X148290Y11833D01*
X148284Y11827D01*
X148267Y11811D01*
X148240Y11788D01*
X148195Y11761D01*
X148145Y11722D01*
X148084Y11683D01*
X148012Y11638D01*
X147934Y11594D01*
X147840Y11550D01*
X147740Y11505D01*
X147635Y11467D01*
X147518Y11428D01*
X147391Y11400D01*
X147257Y11378D01*
X147119Y11361D01*
X146969Y11355D01*
X145787D01*
Y14785D01*
X147019D01*
X147052Y14780D01*
D02*
G37*
G36*
X27033Y84987D02*
X25287D01*
Y85661D01*
X27033D01*
Y84987D01*
D02*
G37*
G36*
X6246D02*
X4500D01*
Y85661D01*
X6246D01*
Y84987D01*
D02*
G37*
G36*
X13121Y83574D02*
X12018D01*
X10450Y88147D01*
X11500D01*
X12492Y84913D01*
Y84906D01*
X12507Y84869D01*
X12514Y84825D01*
X12529Y84765D01*
X12544Y84699D01*
X12559Y84617D01*
X12581Y84462D01*
X12603D01*
Y84469D01*
X12610Y84499D01*
X12618Y84543D01*
X12625Y84603D01*
X12640Y84669D01*
X12655Y84743D01*
X12699Y84921D01*
X13691Y88147D01*
X14712D01*
X13121Y83574D01*
D02*
G37*
G36*
X18412Y88221D02*
X18464D01*
X18530Y88214D01*
X18678Y88192D01*
X18849Y88155D01*
X19019Y88103D01*
X19196Y88029D01*
X19359Y87925D01*
X19367D01*
X19374Y87910D01*
X19426Y87873D01*
X19485Y87807D01*
X19566Y87711D01*
X19640Y87592D01*
X19700Y87452D01*
X19751Y87289D01*
X19759Y87193D01*
X19766Y87096D01*
Y87089D01*
Y87059D01*
X19759Y87015D01*
X19751Y86948D01*
X19737Y86882D01*
X19722Y86800D01*
X19692Y86712D01*
X19655Y86615D01*
X19603Y86519D01*
X19544Y86423D01*
X19470Y86327D01*
X19381Y86238D01*
X19278Y86157D01*
X19159Y86083D01*
X19019Y86016D01*
X18856Y85964D01*
Y85949D01*
X18878D01*
X18900Y85942D01*
X18937Y85935D01*
X19019Y85920D01*
X19130Y85890D01*
X19248Y85838D01*
X19374Y85779D01*
X19500Y85705D01*
X19618Y85602D01*
X19633Y85587D01*
X19663Y85550D01*
X19707Y85483D01*
X19766Y85402D01*
X19818Y85298D01*
X19862Y85172D01*
X19892Y85032D01*
X19907Y84876D01*
Y84869D01*
Y84847D01*
Y84817D01*
X19899Y84773D01*
X19892Y84714D01*
X19885Y84654D01*
X19848Y84506D01*
X19788Y84344D01*
X19751Y84262D01*
X19707Y84173D01*
X19648Y84092D01*
X19581Y84011D01*
X19507Y83937D01*
X19426Y83863D01*
X19418Y83855D01*
X19404Y83848D01*
X19374Y83833D01*
X19337Y83803D01*
X19293Y83781D01*
X19233Y83752D01*
X19167Y83715D01*
X19093Y83685D01*
X19004Y83648D01*
X18908Y83618D01*
X18804Y83581D01*
X18686Y83559D01*
X18567Y83537D01*
X18434Y83515D01*
X18301Y83507D01*
X18153Y83500D01*
X18086D01*
X18035Y83507D01*
X17975D01*
X17909Y83515D01*
X17835Y83522D01*
X17746Y83530D01*
X17568Y83552D01*
X17376Y83596D01*
X17191Y83648D01*
X17021Y83722D01*
Y84566D01*
X17028D01*
X17043Y84551D01*
X17065Y84536D01*
X17102Y84514D01*
X17147Y84484D01*
X17198Y84455D01*
X17258Y84425D01*
X17324Y84395D01*
X17480Y84336D01*
X17665Y84277D01*
X17864Y84240D01*
X17975Y84233D01*
X18086Y84225D01*
X18153D01*
X18220Y84233D01*
X18308Y84247D01*
X18412Y84270D01*
X18508Y84299D01*
X18612Y84336D01*
X18701Y84395D01*
X18708Y84403D01*
X18738Y84425D01*
X18775Y84469D01*
X18819Y84521D01*
X18856Y84588D01*
X18893Y84677D01*
X18923Y84773D01*
X18930Y84884D01*
Y84891D01*
Y84899D01*
X18923Y84936D01*
X18915Y84995D01*
X18893Y85069D01*
X18863Y85150D01*
X18812Y85232D01*
X18745Y85313D01*
X18656Y85380D01*
X18641Y85387D01*
X18604Y85409D01*
X18545Y85431D01*
X18464Y85468D01*
X18353Y85498D01*
X18227Y85520D01*
X18072Y85542D01*
X17901Y85550D01*
X17494D01*
Y86290D01*
X17909D01*
X17953Y86297D01*
X18012D01*
X18086Y86312D01*
X18160Y86319D01*
X18331Y86364D01*
X18419Y86401D01*
X18501Y86438D01*
X18575Y86490D01*
X18649Y86549D01*
X18708Y86623D01*
X18752Y86704D01*
X18782Y86793D01*
X18789Y86904D01*
Y86911D01*
Y86926D01*
X18782Y86956D01*
Y87000D01*
X18752Y87089D01*
X18730Y87148D01*
X18701Y87200D01*
X18664Y87252D01*
X18619Y87311D01*
X18560Y87355D01*
X18493Y87407D01*
X18412Y87444D01*
X18316Y87474D01*
X18212Y87489D01*
X18086Y87496D01*
X18042D01*
X18005Y87489D01*
X17968D01*
X17916Y87481D01*
X17798Y87459D01*
X17665Y87422D01*
X17509Y87370D01*
X17354Y87296D01*
X17191Y87193D01*
Y87977D01*
X17198D01*
X17213Y87984D01*
X17243Y87999D01*
X17272Y88014D01*
X17317Y88036D01*
X17376Y88058D01*
X17435Y88081D01*
X17509Y88103D01*
X17583Y88125D01*
X17672Y88147D01*
X17857Y88192D01*
X18072Y88221D01*
X18301Y88229D01*
X18368D01*
X18412Y88221D01*
D02*
G37*
G36*
X8666D02*
X8725Y88214D01*
X8799Y88199D01*
X8873Y88184D01*
X8962Y88155D01*
X9058Y88125D01*
X9147Y88088D01*
X9243Y88044D01*
X9340Y87992D01*
X9436Y87925D01*
X9532Y87844D01*
X9621Y87762D01*
X9702Y87659D01*
X9710Y87651D01*
X9717Y87629D01*
X9739Y87600D01*
X9769Y87555D01*
X9798Y87496D01*
X9835Y87429D01*
X9872Y87348D01*
X9917Y87252D01*
X9954Y87148D01*
X9991Y87030D01*
X10028Y86897D01*
X10057Y86756D01*
X10087Y86608D01*
X10109Y86445D01*
X10117Y86268D01*
X10124Y86083D01*
Y86068D01*
Y86031D01*
Y85964D01*
X10117Y85883D01*
X10109Y85787D01*
X10094Y85668D01*
X10080Y85535D01*
X10057Y85394D01*
X10035Y85246D01*
X9998Y85091D01*
X9961Y84936D01*
X9909Y84780D01*
X9850Y84625D01*
X9784Y84469D01*
X9702Y84321D01*
X9613Y84188D01*
X9606Y84181D01*
X9591Y84159D01*
X9562Y84122D01*
X9517Y84085D01*
X9465Y84025D01*
X9406Y83974D01*
X9325Y83907D01*
X9243Y83848D01*
X9147Y83781D01*
X9036Y83715D01*
X8918Y83663D01*
X8785Y83611D01*
X8644Y83567D01*
X8489Y83530D01*
X8326Y83507D01*
X8148Y83500D01*
X8059D01*
X8008Y83507D01*
X7956D01*
X7830Y83522D01*
X7682Y83537D01*
X7519Y83567D01*
X7356Y83611D01*
X7201Y83663D01*
Y84462D01*
X7208D01*
X7216Y84455D01*
X7238Y84440D01*
X7268Y84425D01*
X7342Y84388D01*
X7445Y84344D01*
X7578Y84299D01*
X7719Y84262D01*
X7889Y84233D01*
X8067Y84225D01*
X8111D01*
X8170Y84233D01*
X8237Y84247D01*
X8326Y84270D01*
X8415Y84299D01*
X8518Y84344D01*
X8622Y84403D01*
X8725Y84484D01*
X8829Y84580D01*
X8925Y84691D01*
X9007Y84832D01*
X9081Y85002D01*
X9118Y85091D01*
X9140Y85195D01*
X9162Y85298D01*
X9184Y85417D01*
X9192Y85535D01*
X9199Y85668D01*
X9177D01*
Y85661D01*
X9162Y85646D01*
X9147Y85624D01*
X9118Y85594D01*
X9051Y85520D01*
X8947Y85439D01*
X8888Y85394D01*
X8814Y85357D01*
X8740Y85313D01*
X8659Y85283D01*
X8563Y85254D01*
X8466Y85232D01*
X8355Y85217D01*
X8244Y85209D01*
X8193D01*
X8148Y85217D01*
X8104Y85224D01*
X8045Y85232D01*
X7911Y85261D01*
X7763Y85306D01*
X7608Y85380D01*
X7527Y85424D01*
X7453Y85476D01*
X7379Y85542D01*
X7305Y85609D01*
X7297Y85616D01*
X7290Y85631D01*
X7275Y85653D01*
X7245Y85683D01*
X7223Y85720D01*
X7194Y85764D01*
X7157Y85824D01*
X7127Y85883D01*
X7060Y86031D01*
X7001Y86201D01*
X6957Y86401D01*
X6949Y86504D01*
X6942Y86615D01*
Y86623D01*
Y86645D01*
Y86682D01*
X6949Y86734D01*
X6957Y86793D01*
X6964Y86867D01*
X6979Y86948D01*
X7001Y87030D01*
X7053Y87215D01*
X7090Y87311D01*
X7127Y87407D01*
X7179Y87503D01*
X7238Y87600D01*
X7305Y87688D01*
X7386Y87777D01*
X7393Y87785D01*
X7408Y87799D01*
X7430Y87822D01*
X7467Y87851D01*
X7512Y87881D01*
X7564Y87918D01*
X7623Y87962D01*
X7697Y88007D01*
X7778Y88044D01*
X7860Y88088D01*
X7956Y88125D01*
X8059Y88162D01*
X8170Y88184D01*
X8289Y88206D01*
X8407Y88221D01*
X8540Y88229D01*
X8614D01*
X8666Y88221D01*
D02*
G37*
G36*
X24783Y83574D02*
X23718D01*
X23377Y84617D01*
X21712D01*
X21372Y83574D01*
X20314D01*
X21994Y88147D01*
X23141D01*
X24783Y83574D01*
D02*
G37*
G36*
X22625Y97752D02*
X22708D01*
X22800Y97743D01*
X22902Y97734D01*
X23115Y97706D01*
X23355Y97669D01*
X23586Y97614D01*
X23809Y97540D01*
Y96365D01*
X23799D01*
X23781Y96384D01*
X23753Y96393D01*
X23707Y96421D01*
X23651Y96439D01*
X23586Y96467D01*
X23513Y96504D01*
X23429Y96531D01*
X23235Y96596D01*
X23013Y96643D01*
X22763Y96680D01*
X22495Y96698D01*
X22412D01*
X22356Y96689D01*
X22282Y96680D01*
X22199Y96670D01*
X22106Y96652D01*
X22014Y96633D01*
X21801Y96569D01*
X21690Y96522D01*
X21570Y96476D01*
X21459Y96411D01*
X21357Y96337D01*
X21256Y96254D01*
X21154Y96162D01*
X21145Y96152D01*
X21135Y96134D01*
X21107Y96106D01*
X21080Y96069D01*
X21043Y96013D01*
X20997Y95949D01*
X20950Y95875D01*
X20904Y95792D01*
X20858Y95690D01*
X20811Y95588D01*
X20775Y95477D01*
X20728Y95347D01*
X20673Y95079D01*
X20663Y94922D01*
X20654Y94765D01*
Y94756D01*
Y94728D01*
Y94682D01*
X20663Y94626D01*
X20673Y94552D01*
X20682Y94469D01*
X20691Y94376D01*
X20710Y94284D01*
X20765Y94062D01*
X20858Y93840D01*
X20904Y93720D01*
X20969Y93608D01*
X21043Y93507D01*
X21126Y93405D01*
X21135Y93396D01*
X21145Y93387D01*
X21172Y93359D01*
X21218Y93322D01*
X21265Y93285D01*
X21320Y93248D01*
X21394Y93202D01*
X21468Y93155D01*
X21561Y93100D01*
X21653Y93054D01*
X21875Y92980D01*
X22134Y92915D01*
X22273Y92905D01*
X22421Y92896D01*
X22495D01*
X22550Y92905D01*
X22615D01*
X22698Y92915D01*
X22782Y92924D01*
X22884Y92943D01*
X23096Y92989D01*
X23327Y93054D01*
X23568Y93146D01*
X23809Y93266D01*
Y92147D01*
X23799D01*
X23781Y92138D01*
X23744Y92119D01*
X23697Y92101D01*
X23633Y92082D01*
X23559Y92054D01*
X23475Y92027D01*
X23374Y91999D01*
X23263Y91971D01*
X23143Y91944D01*
X23004Y91916D01*
X22865Y91897D01*
X22708Y91879D01*
X22541Y91860D01*
X22366Y91851D01*
X22125D01*
X22060Y91860D01*
X21968D01*
X21857Y91879D01*
X21727Y91888D01*
X21588Y91916D01*
X21441Y91944D01*
X21274Y91990D01*
X21107Y92036D01*
X20941Y92101D01*
X20765Y92175D01*
X20599Y92267D01*
X20432Y92369D01*
X20275Y92480D01*
X20127Y92619D01*
X20118Y92628D01*
X20099Y92656D01*
X20053Y92702D01*
X20007Y92757D01*
X19951Y92841D01*
X19886Y92933D01*
X19822Y93035D01*
X19748Y93164D01*
X19674Y93303D01*
X19609Y93461D01*
X19544Y93627D01*
X19489Y93812D01*
X19443Y94006D01*
X19406Y94219D01*
X19378Y94441D01*
X19368Y94672D01*
Y94691D01*
Y94737D01*
X19378Y94802D01*
Y94894D01*
X19396Y95015D01*
X19415Y95144D01*
X19443Y95301D01*
X19479Y95459D01*
X19516Y95634D01*
X19572Y95810D01*
X19646Y95995D01*
X19729Y96180D01*
X19822Y96365D01*
X19942Y96550D01*
X20072Y96726D01*
X20220Y96892D01*
X20229Y96902D01*
X20256Y96929D01*
X20303Y96975D01*
X20377Y97031D01*
X20460Y97096D01*
X20562Y97170D01*
X20682Y97244D01*
X20811Y97327D01*
X20959Y97410D01*
X21126Y97484D01*
X21311Y97558D01*
X21505Y97623D01*
X21709Y97679D01*
X21931Y97725D01*
X22162Y97752D01*
X22412Y97762D01*
X22550D01*
X22625Y97752D01*
D02*
G37*
G36*
X26491D02*
X26556D01*
X26639Y97743D01*
X26824Y97716D01*
X27037Y97669D01*
X27250Y97605D01*
X27472Y97512D01*
X27675Y97382D01*
X27684D01*
X27694Y97364D01*
X27758Y97318D01*
X27832Y97234D01*
X27934Y97114D01*
X28027Y96966D01*
X28100Y96790D01*
X28165Y96587D01*
X28174Y96467D01*
X28184Y96346D01*
Y96337D01*
Y96300D01*
X28174Y96245D01*
X28165Y96162D01*
X28147Y96078D01*
X28128Y95977D01*
X28091Y95865D01*
X28045Y95745D01*
X27980Y95625D01*
X27906Y95505D01*
X27814Y95385D01*
X27703Y95274D01*
X27573Y95172D01*
X27425Y95079D01*
X27250Y94996D01*
X27046Y94931D01*
Y94913D01*
X27074D01*
X27101Y94903D01*
X27148Y94894D01*
X27250Y94876D01*
X27388Y94839D01*
X27536Y94774D01*
X27694Y94700D01*
X27851Y94608D01*
X27999Y94478D01*
X28017Y94459D01*
X28054Y94413D01*
X28110Y94330D01*
X28184Y94228D01*
X28249Y94099D01*
X28304Y93941D01*
X28341Y93766D01*
X28359Y93572D01*
Y93562D01*
Y93534D01*
Y93498D01*
X28350Y93442D01*
X28341Y93368D01*
X28332Y93294D01*
X28286Y93109D01*
X28212Y92905D01*
X28165Y92804D01*
X28110Y92693D01*
X28036Y92591D01*
X27953Y92489D01*
X27860Y92397D01*
X27758Y92304D01*
X27749Y92295D01*
X27731Y92286D01*
X27694Y92267D01*
X27647Y92230D01*
X27592Y92203D01*
X27518Y92165D01*
X27435Y92119D01*
X27342Y92082D01*
X27231Y92036D01*
X27111Y91999D01*
X26981Y91953D01*
X26833Y91925D01*
X26685Y91897D01*
X26519Y91869D01*
X26352Y91860D01*
X26167Y91851D01*
X26084D01*
X26019Y91860D01*
X25945D01*
X25862Y91869D01*
X25769Y91879D01*
X25659Y91888D01*
X25436Y91916D01*
X25196Y91971D01*
X24965Y92036D01*
X24752Y92128D01*
Y93183D01*
X24761D01*
X24780Y93164D01*
X24807Y93146D01*
X24854Y93118D01*
X24909Y93081D01*
X24974Y93044D01*
X25048Y93007D01*
X25131Y92970D01*
X25326Y92896D01*
X25557Y92822D01*
X25806Y92776D01*
X25945Y92767D01*
X26084Y92757D01*
X26167D01*
X26250Y92767D01*
X26362Y92785D01*
X26491Y92813D01*
X26611Y92850D01*
X26741Y92896D01*
X26852Y92970D01*
X26861Y92980D01*
X26898Y93007D01*
X26944Y93063D01*
X27000Y93128D01*
X27046Y93211D01*
X27092Y93322D01*
X27129Y93442D01*
X27139Y93581D01*
Y93590D01*
Y93599D01*
X27129Y93646D01*
X27120Y93720D01*
X27092Y93812D01*
X27055Y93914D01*
X26991Y94016D01*
X26907Y94117D01*
X26796Y94200D01*
X26778Y94210D01*
X26732Y94238D01*
X26658Y94265D01*
X26556Y94311D01*
X26417Y94349D01*
X26260Y94376D01*
X26065Y94404D01*
X25853Y94413D01*
X25344D01*
Y95338D01*
X25862D01*
X25918Y95347D01*
X25991D01*
X26084Y95366D01*
X26177Y95375D01*
X26389Y95431D01*
X26500Y95477D01*
X26602Y95523D01*
X26695Y95588D01*
X26787Y95662D01*
X26861Y95754D01*
X26917Y95856D01*
X26954Y95967D01*
X26963Y96106D01*
Y96115D01*
Y96134D01*
X26954Y96171D01*
Y96226D01*
X26917Y96337D01*
X26889Y96411D01*
X26852Y96476D01*
X26805Y96541D01*
X26750Y96615D01*
X26676Y96670D01*
X26593Y96735D01*
X26491Y96781D01*
X26371Y96818D01*
X26241Y96837D01*
X26084Y96846D01*
X26028D01*
X25982Y96837D01*
X25936D01*
X25871Y96828D01*
X25723Y96800D01*
X25557Y96754D01*
X25363Y96689D01*
X25168Y96596D01*
X24965Y96467D01*
Y97447D01*
X24974D01*
X24993Y97457D01*
X25030Y97475D01*
X25067Y97493D01*
X25122Y97521D01*
X25196Y97549D01*
X25270Y97577D01*
X25363Y97605D01*
X25455Y97632D01*
X25566Y97660D01*
X25797Y97716D01*
X26065Y97752D01*
X26352Y97762D01*
X26436D01*
X26491Y97752D01*
D02*
G37*
G36*
X6086Y97651D02*
X6160D01*
X6233Y97641D01*
X6326Y97632D01*
X6428Y97614D01*
X6659Y97577D01*
X6918Y97512D01*
X7196Y97429D01*
X7482Y97308D01*
X7760Y97161D01*
X7898Y97077D01*
X8037Y96985D01*
X8167Y96874D01*
X8296Y96754D01*
X8416Y96624D01*
X8528Y96485D01*
X8629Y96337D01*
X8722Y96171D01*
X8796Y95986D01*
X8870Y95792D01*
X8925Y95588D01*
X8962Y95366D01*
X8990Y95126D01*
X8999Y94876D01*
Y94857D01*
Y94820D01*
X8990Y94746D01*
Y94654D01*
X8971Y94543D01*
X8953Y94413D01*
X8925Y94265D01*
X8897Y94108D01*
X8851Y93941D01*
X8796Y93766D01*
X8722Y93590D01*
X8638Y93414D01*
X8546Y93239D01*
X8426Y93063D01*
X8296Y92896D01*
X8148Y92739D01*
X8139Y92730D01*
X8111Y92702D01*
X8065Y92665D01*
X7991Y92619D01*
X7908Y92554D01*
X7806Y92489D01*
X7686Y92415D01*
X7556Y92341D01*
X7399Y92267D01*
X7232Y92193D01*
X7057Y92128D01*
X6863Y92064D01*
X6650Y92018D01*
X6428Y91980D01*
X6196Y91953D01*
X5947Y91944D01*
X3977D01*
Y97660D01*
X6030D01*
X6086Y97651D01*
D02*
G37*
G36*
X1109D02*
X1165D01*
X1303Y97632D01*
X1470Y97605D01*
X1646Y97567D01*
X1840Y97512D01*
X2043Y97438D01*
X2238Y97336D01*
X2432Y97216D01*
X2607Y97068D01*
X2774Y96892D01*
X2913Y96689D01*
X2968Y96569D01*
X3015Y96448D01*
X3052Y96310D01*
X3079Y96171D01*
X3098Y96013D01*
X3107Y95847D01*
Y95838D01*
Y95810D01*
Y95764D01*
X3098Y95699D01*
X3088Y95625D01*
X3070Y95542D01*
X3052Y95449D01*
X3024Y95338D01*
X2996Y95236D01*
X2950Y95116D01*
X2894Y95005D01*
X2839Y94885D01*
X2756Y94765D01*
X2672Y94654D01*
X2571Y94543D01*
X2459Y94441D01*
X2450Y94432D01*
X2432Y94423D01*
X2395Y94395D01*
X2339Y94358D01*
X2284Y94321D01*
X2200Y94274D01*
X2117Y94228D01*
X2015Y94182D01*
X1905Y94136D01*
X1784Y94090D01*
X1646Y94043D01*
X1507Y94006D01*
X1359Y93969D01*
X1192Y93951D01*
X1026Y93932D01*
X221D01*
Y91944D01*
X-1000D01*
Y97660D01*
X1063D01*
X1109Y97651D01*
D02*
G37*
G36*
X33493Y97752D02*
X33595Y97743D01*
X33715Y97716D01*
X33863Y97669D01*
X34030Y97605D01*
X34215Y97521D01*
X34400Y97401D01*
X34492Y97327D01*
X34576Y97244D01*
X34668Y97151D01*
X34760Y97049D01*
X34844Y96939D01*
X34927Y96809D01*
X35001Y96680D01*
X35075Y96531D01*
X35140Y96365D01*
X35195Y96198D01*
X35251Y96004D01*
X35297Y95801D01*
X35334Y95588D01*
X35362Y95357D01*
X35371Y95107D01*
X35380Y94839D01*
Y94820D01*
Y94774D01*
Y94700D01*
X35371Y94608D01*
X35362Y94487D01*
X35353Y94349D01*
X35334Y94191D01*
X35315Y94025D01*
X35251Y93673D01*
X35204Y93488D01*
X35158Y93303D01*
X35094Y93118D01*
X35019Y92943D01*
X34936Y92785D01*
X34844Y92628D01*
X34835Y92619D01*
X34816Y92591D01*
X34788Y92554D01*
X34742Y92508D01*
X34686Y92452D01*
X34622Y92378D01*
X34538Y92313D01*
X34446Y92239D01*
X34344Y92165D01*
X34233Y92101D01*
X34104Y92036D01*
X33965Y91971D01*
X33817Y91925D01*
X33660Y91888D01*
X33484Y91860D01*
X33299Y91851D01*
X33253D01*
X33216Y91860D01*
X33114Y91869D01*
X32985Y91897D01*
X32827Y91934D01*
X32661Y91999D01*
X32476Y92092D01*
X32291Y92212D01*
X32198Y92277D01*
X32106Y92360D01*
X32013Y92452D01*
X31921Y92545D01*
X31837Y92656D01*
X31754Y92776D01*
X31671Y92915D01*
X31597Y93054D01*
X31532Y93211D01*
X31468Y93387D01*
X31412Y93572D01*
X31366Y93766D01*
X31329Y93979D01*
X31301Y94210D01*
X31292Y94450D01*
X31282Y94709D01*
Y94728D01*
Y94774D01*
Y94848D01*
X31292Y94950D01*
X31301Y95079D01*
X31310Y95218D01*
X31329Y95375D01*
X31347Y95551D01*
X31412Y95912D01*
X31458Y96106D01*
X31514Y96291D01*
X31578Y96476D01*
X31653Y96652D01*
X31736Y96818D01*
X31828Y96975D01*
X31837Y96985D01*
X31856Y97013D01*
X31884Y97049D01*
X31930Y97096D01*
X31986Y97161D01*
X32059Y97225D01*
X32133Y97299D01*
X32235Y97373D01*
X32337Y97438D01*
X32457Y97512D01*
X32587Y97577D01*
X32726Y97641D01*
X32883Y97688D01*
X33049Y97725D01*
X33225Y97752D01*
X33410Y97762D01*
X33456D01*
X33493Y97752D01*
D02*
G37*
G36*
X30015Y93100D02*
X30080Y93090D01*
X30163Y93063D01*
X30237Y93035D01*
X30321Y92989D01*
X30404Y92924D01*
X30413Y92915D01*
X30432Y92896D01*
X30468Y92850D01*
X30505Y92804D01*
X30542Y92739D01*
X30580Y92656D01*
X30598Y92572D01*
X30607Y92471D01*
Y92462D01*
Y92424D01*
X30598Y92378D01*
X30580Y92313D01*
X30561Y92239D01*
X30524Y92165D01*
X30468Y92092D01*
X30404Y92018D01*
X30395Y92008D01*
X30367Y91990D01*
X30321Y91962D01*
X30265Y91934D01*
X30191Y91906D01*
X30108Y91879D01*
X30006Y91860D01*
X29895Y91851D01*
X29849D01*
X29793Y91860D01*
X29728Y91869D01*
X29645Y91897D01*
X29562Y91925D01*
X29479Y91971D01*
X29395Y92027D01*
X29386Y92036D01*
X29368Y92054D01*
X29331Y92101D01*
X29294Y92147D01*
X29257Y92212D01*
X29220Y92286D01*
X29201Y92378D01*
X29192Y92471D01*
Y92480D01*
Y92517D01*
X29201Y92572D01*
X29220Y92628D01*
X29247Y92702D01*
X29285Y92776D01*
X29331Y92850D01*
X29405Y92924D01*
X29414Y92933D01*
X29442Y92952D01*
X29488Y92980D01*
X29553Y93016D01*
X29627Y93054D01*
X29710Y93081D01*
X29803Y93100D01*
X29913Y93109D01*
X29960D01*
X30015Y93100D01*
D02*
G37*
G36*
X16159Y97752D02*
X16242D01*
X16344Y97734D01*
X16464Y97716D01*
X16603Y97697D01*
X16751Y97660D01*
X16899Y97614D01*
X17065Y97558D01*
X17232Y97493D01*
X17389Y97410D01*
X17556Y97318D01*
X17722Y97207D01*
X17870Y97087D01*
X18018Y96939D01*
X18027Y96929D01*
X18055Y96902D01*
X18092Y96855D01*
X18138Y96790D01*
X18194Y96707D01*
X18259Y96615D01*
X18323Y96504D01*
X18397Y96374D01*
X18462Y96226D01*
X18527Y96069D01*
X18591Y95893D01*
X18647Y95708D01*
X18702Y95514D01*
X18740Y95301D01*
X18758Y95070D01*
X18767Y94839D01*
Y94820D01*
Y94783D01*
X18758Y94709D01*
Y94617D01*
X18740Y94506D01*
X18730Y94376D01*
X18702Y94228D01*
X18665Y94071D01*
X18629Y93905D01*
X18573Y93729D01*
X18508Y93544D01*
X18434Y93368D01*
X18342Y93183D01*
X18240Y93007D01*
X18120Y92831D01*
X17981Y92674D01*
X17972Y92665D01*
X17953Y92637D01*
X17888Y92572D01*
X19341Y91176D01*
X17537D01*
X16779Y91944D01*
X16760D01*
X16714Y91925D01*
X16631Y91916D01*
X16529Y91897D01*
X16409Y91879D01*
X16261Y91869D01*
X16113Y91851D01*
X15890D01*
X15826Y91860D01*
X15743D01*
X15641Y91879D01*
X15520Y91897D01*
X15382Y91916D01*
X15234Y91953D01*
X15077Y91990D01*
X14919Y92045D01*
X14753Y92110D01*
X14586Y92184D01*
X14420Y92277D01*
X14253Y92387D01*
X14096Y92508D01*
X13948Y92646D01*
X13939Y92656D01*
X13911Y92684D01*
X13874Y92730D01*
X13828Y92795D01*
X13772Y92869D01*
X13708Y92970D01*
X13634Y93081D01*
X13569Y93211D01*
X13495Y93349D01*
X13421Y93507D01*
X13356Y93682D01*
X13300Y93867D01*
X13254Y94062D01*
X13217Y94274D01*
X13190Y94497D01*
X13180Y94728D01*
Y94746D01*
Y94783D01*
X13190Y94857D01*
Y94950D01*
X13208Y95061D01*
X13227Y95200D01*
X13245Y95347D01*
X13282Y95505D01*
X13319Y95671D01*
X13374Y95847D01*
X13439Y96032D01*
X13513Y96217D01*
X13606Y96393D01*
X13708Y96578D01*
X13828Y96744D01*
X13966Y96911D01*
X13976Y96920D01*
X14004Y96948D01*
X14050Y96994D01*
X14105Y97040D01*
X14188Y97105D01*
X14281Y97179D01*
X14392Y97253D01*
X14522Y97336D01*
X14660Y97420D01*
X14818Y97493D01*
X14984Y97567D01*
X15169Y97632D01*
X15372Y97688D01*
X15576Y97725D01*
X15807Y97752D01*
X16038Y97762D01*
X16094D01*
X16159Y97752D01*
D02*
G37*
G36*
X10183Y91000D02*
X9129D01*
X11885Y97660D01*
X12968D01*
X10183Y91000D01*
D02*
G37*
%LPC*%
G36*
X237754Y114222D02*
X237731D01*
X237665Y114210D01*
X237565Y114199D01*
X237454Y114166D01*
X237320Y114122D01*
X237176Y114044D01*
X237042Y113944D01*
X236920Y113799D01*
X236909Y113777D01*
X236876Y113722D01*
X236820Y113633D01*
X236776Y113511D01*
X236720Y113344D01*
X236665Y113155D01*
X236631Y112933D01*
X236620Y112677D01*
Y112666D01*
Y112644D01*
Y112611D01*
Y112566D01*
X236631Y112444D01*
X236654Y112300D01*
X236687Y112133D01*
X236742Y111955D01*
X236809Y111800D01*
X236909Y111644D01*
X236920Y111633D01*
X236965Y111589D01*
X237031Y111533D01*
X237120Y111466D01*
X237231Y111389D01*
X237365Y111333D01*
X237531Y111289D01*
X237709Y111277D01*
X237731D01*
X237787Y111289D01*
X237876Y111300D01*
X237987Y111322D01*
X238109Y111366D01*
X238242Y111433D01*
X238365Y111533D01*
X238487Y111655D01*
X238498Y111677D01*
X238531Y111722D01*
X238587Y111811D01*
X238642Y111933D01*
X238698Y112077D01*
X238753Y112244D01*
X238787Y112444D01*
X238798Y112666D01*
Y113077D01*
Y113088D01*
Y113100D01*
Y113155D01*
X238787Y113244D01*
X238765Y113366D01*
X238720Y113488D01*
X238676Y113622D01*
X238598Y113766D01*
X238498Y113888D01*
X238487Y113899D01*
X238442Y113944D01*
X238376Y113999D01*
X238298Y114055D01*
X238187Y114122D01*
X238053Y114166D01*
X237909Y114210D01*
X237754Y114222D01*
D02*
G37*
G36*
X226988Y112633D02*
X226066Y112522D01*
X226055D01*
X226032Y112511D01*
X225999D01*
X225944Y112499D01*
X225821Y112455D01*
X225677Y112388D01*
X225533Y112300D01*
X225410Y112177D01*
X225355Y112111D01*
X225321Y112022D01*
X225299Y111922D01*
X225288Y111822D01*
Y111811D01*
Y111777D01*
X225299Y111722D01*
X225310Y111666D01*
X225332Y111589D01*
X225366Y111511D01*
X225410Y111433D01*
X225477Y111366D01*
X225488Y111355D01*
X225510Y111344D01*
X225555Y111311D01*
X225610Y111289D01*
X225688Y111255D01*
X225777Y111222D01*
X225877Y111211D01*
X225988Y111200D01*
X226066D01*
X226144Y111222D01*
X226243Y111244D01*
X226355Y111277D01*
X226466Y111333D01*
X226588Y111411D01*
X226699Y111511D01*
X226710Y111522D01*
X226744Y111566D01*
X226788Y111633D01*
X226844Y111722D01*
X226899Y111833D01*
X226943Y111966D01*
X226977Y112122D01*
X226988Y112288D01*
Y112633D01*
D02*
G37*
G36*
X258785Y114344D02*
X258718D01*
X258651Y114333D01*
X258562Y114311D01*
X258463Y114266D01*
X258351Y114210D01*
X258240Y114133D01*
X258129Y114033D01*
X258118Y114022D01*
X258085Y113977D01*
X258040Y113910D01*
X257985Y113822D01*
X257918Y113710D01*
X257863Y113577D01*
X257807Y113422D01*
X257774Y113244D01*
X259674D01*
Y113255D01*
Y113288D01*
Y113344D01*
X259662Y113422D01*
X259651Y113499D01*
X259629Y113588D01*
X259562Y113799D01*
X259518Y113899D01*
X259462Y113999D01*
X259385Y114088D01*
X259296Y114177D01*
X259196Y114244D01*
X259074Y114299D01*
X258940Y114333D01*
X258785Y114344D01*
D02*
G37*
G36*
X247608D02*
X247541D01*
X247475Y114333D01*
X247386Y114311D01*
X247286Y114266D01*
X247175Y114210D01*
X247064Y114133D01*
X246953Y114033D01*
X246941Y114022D01*
X246908Y113977D01*
X246864Y113910D01*
X246808Y113822D01*
X246742Y113710D01*
X246686Y113577D01*
X246630Y113422D01*
X246597Y113244D01*
X248497D01*
Y113255D01*
Y113288D01*
Y113344D01*
X248486Y113422D01*
X248475Y113499D01*
X248452Y113588D01*
X248386Y113799D01*
X248341Y113899D01*
X248286Y113999D01*
X248208Y114088D01*
X248119Y114177D01*
X248019Y114244D01*
X247897Y114299D01*
X247764Y114333D01*
X247608Y114344D01*
D02*
G37*
G36*
X268084Y114222D02*
X268062D01*
X267995Y114210D01*
X267906Y114199D01*
X267784Y114166D01*
X267651Y114122D01*
X267517Y114044D01*
X267373Y113944D01*
X267250Y113811D01*
X267239Y113788D01*
X267206Y113733D01*
X267150Y113644D01*
X267106Y113511D01*
X267051Y113344D01*
X266995Y113155D01*
X266962Y112922D01*
X266951Y112655D01*
Y112644D01*
Y112622D01*
Y112588D01*
Y112544D01*
X266962Y112433D01*
X266984Y112288D01*
X267017Y112122D01*
X267073Y111955D01*
X267139Y111788D01*
X267239Y111644D01*
X267250Y111633D01*
X267295Y111589D01*
X267362Y111533D01*
X267450Y111466D01*
X267562Y111389D01*
X267695Y111333D01*
X267850Y111289D01*
X268028Y111277D01*
X268051D01*
X268106Y111289D01*
X268195Y111300D01*
X268306Y111322D01*
X268439Y111366D01*
X268573Y111433D01*
X268695Y111533D01*
X268817Y111655D01*
X268828Y111677D01*
X268862Y111722D01*
X268917Y111811D01*
X268973Y111922D01*
X269028Y112055D01*
X269084Y112233D01*
X269117Y112422D01*
X269128Y112633D01*
Y113066D01*
Y113077D01*
Y113088D01*
Y113144D01*
X269117Y113244D01*
X269095Y113355D01*
X269050Y113477D01*
X269006Y113622D01*
X268928Y113755D01*
X268828Y113888D01*
X268817Y113899D01*
X268773Y113944D01*
X268717Y113999D01*
X268628Y114055D01*
X268517Y114122D01*
X268395Y114166D01*
X268250Y114210D01*
X268084Y114222D01*
D02*
G37*
G36*
X97091Y12660D02*
X97086D01*
X97069D01*
X97047Y12654D01*
X97019Y12648D01*
X96941Y12632D01*
X96903Y12615D01*
X96858Y12593D01*
X96814Y12560D01*
X96775Y12526D01*
X96731Y12482D01*
X96697Y12426D01*
X96670Y12360D01*
X96647Y12288D01*
X96631Y12204D01*
X96625Y12105D01*
Y11733D01*
X97613D01*
Y12138D01*
X97607Y12182D01*
X97596Y12243D01*
X97574Y12304D01*
X97552Y12376D01*
X97513Y12443D01*
X97463Y12504D01*
X97458Y12510D01*
X97435Y12526D01*
X97402Y12554D01*
X97358Y12582D01*
X97308Y12609D01*
X97241Y12637D01*
X97169Y12654D01*
X97091Y12660D01*
D02*
G37*
G36*
X35605Y17930D02*
X35233D01*
Y16942D01*
X35638D01*
X35682Y16948D01*
X35743Y16959D01*
X35804Y16981D01*
X35876Y17004D01*
X35943Y17042D01*
X36004Y17092D01*
X36010Y17098D01*
X36026Y17120D01*
X36054Y17153D01*
X36082Y17198D01*
X36110Y17248D01*
X36137Y17314D01*
X36154Y17387D01*
X36159Y17464D01*
Y17470D01*
Y17486D01*
X36154Y17509D01*
X36148Y17536D01*
X36132Y17614D01*
X36115Y17653D01*
X36093Y17697D01*
X36060Y17742D01*
X36026Y17781D01*
X35982Y17825D01*
X35926Y17858D01*
X35860Y17886D01*
X35788Y17908D01*
X35704Y17925D01*
X35605Y17930D01*
D02*
G37*
G36*
X32441Y41979D02*
X31592D01*
Y41591D01*
X31598Y41541D01*
X31609Y41485D01*
X31620Y41424D01*
X31642Y41358D01*
X31670Y41291D01*
X31709Y41236D01*
X31714Y41230D01*
X31731Y41213D01*
X31759Y41191D01*
X31798Y41163D01*
X31848Y41136D01*
X31903Y41113D01*
X31970Y41097D01*
X32047Y41091D01*
X32053D01*
X32064D01*
X32086Y41097D01*
X32109Y41102D01*
X32169Y41119D01*
X32208Y41141D01*
X32247Y41163D01*
X32280Y41191D01*
X32319Y41230D01*
X32353Y41280D01*
X32380Y41335D01*
X32403Y41402D01*
X32425Y41480D01*
X32436Y41568D01*
X32441Y41668D01*
Y41979D01*
D02*
G37*
G36*
X31043D02*
X30099D01*
Y41502D01*
X30105Y41452D01*
X30116Y41385D01*
X30133Y41319D01*
X30155Y41247D01*
X30183Y41175D01*
X30227Y41113D01*
X30233Y41108D01*
X30249Y41091D01*
X30277Y41063D01*
X30321Y41036D01*
X30371Y41008D01*
X30432Y40980D01*
X30505Y40964D01*
X30582Y40958D01*
X30593D01*
X30615D01*
X30660Y40964D01*
X30704Y40975D01*
X30760Y40997D01*
X30815Y41025D01*
X30871Y41063D01*
X30921Y41113D01*
X30926Y41119D01*
X30937Y41141D01*
X30960Y41180D01*
X30982Y41224D01*
X31004Y41291D01*
X31026Y41363D01*
X31037Y41452D01*
X31043Y41552D01*
Y41979D01*
D02*
G37*
G36*
X288876Y83086D02*
X288837D01*
X288793Y83075D01*
X288737Y83064D01*
X288671Y83041D01*
X288604Y83008D01*
X288537Y82958D01*
X288476Y82897D01*
X288471Y82891D01*
X288454Y82864D01*
X288426Y82825D01*
X288399Y82769D01*
X288371Y82703D01*
X288343Y82620D01*
X288327Y82525D01*
X288321Y82420D01*
Y82209D01*
Y82203D01*
Y82198D01*
Y82165D01*
X288327Y82120D01*
X288338Y82059D01*
X288354Y81992D01*
X288382Y81920D01*
X288415Y81848D01*
X288460Y81782D01*
X288465Y81776D01*
X288488Y81754D01*
X288515Y81732D01*
X288560Y81698D01*
X288615Y81671D01*
X288676Y81643D01*
X288748Y81621D01*
X288832Y81615D01*
X288843D01*
X288876Y81621D01*
X288926Y81626D01*
X288981Y81643D01*
X289048Y81665D01*
X289120Y81704D01*
X289187Y81754D01*
X289248Y81820D01*
X289253Y81832D01*
X289270Y81859D01*
X289298Y81909D01*
X289326Y81976D01*
X289348Y82059D01*
X289375Y82159D01*
X289392Y82281D01*
X289398Y82414D01*
Y82420D01*
Y82442D01*
X289392Y82475D01*
Y82520D01*
X289381Y82570D01*
X289370Y82625D01*
X289353Y82686D01*
X289331Y82753D01*
X289303Y82814D01*
X289270Y82875D01*
X289226Y82930D01*
X289176Y82980D01*
X289120Y83025D01*
X289048Y83058D01*
X288970Y83080D01*
X288876Y83086D01*
D02*
G37*
G36*
X281583Y83147D02*
X281550D01*
X281517Y83141D01*
X281472Y83130D01*
X281422Y83108D01*
X281367Y83080D01*
X281311Y83041D01*
X281256Y82991D01*
X281250Y82986D01*
X281234Y82964D01*
X281211Y82930D01*
X281184Y82886D01*
X281150Y82831D01*
X281123Y82764D01*
X281095Y82686D01*
X281078Y82597D01*
X282027D01*
Y82603D01*
Y82620D01*
Y82647D01*
X282022Y82686D01*
X282016Y82725D01*
X282005Y82769D01*
X281972Y82875D01*
X281950Y82925D01*
X281922Y82975D01*
X281883Y83019D01*
X281839Y83064D01*
X281789Y83097D01*
X281728Y83125D01*
X281661Y83141D01*
X281583Y83147D01*
D02*
G37*
G36*
X161168Y114985D02*
X159892D01*
Y111556D01*
X161174D01*
X161279Y111561D01*
X161379Y111567D01*
X161473Y111583D01*
X161562Y111600D01*
X161640Y111617D01*
X161718Y111644D01*
X161784Y111667D01*
X161845Y111694D01*
X161901Y111716D01*
X161951Y111744D01*
X161989Y111766D01*
X162023Y111783D01*
X162050Y111805D01*
X162067Y111816D01*
X162078Y111822D01*
X162084Y111827D01*
X162145Y111883D01*
X162195Y111938D01*
X162239Y111999D01*
X162278Y112060D01*
X162311Y112122D01*
X162334Y112183D01*
X162378Y112305D01*
X162400Y112410D01*
X162406Y112455D01*
X162411Y112494D01*
X162417Y112527D01*
Y111805D01*
Y112571D01*
X162406Y112693D01*
X162383Y112799D01*
X162345Y112893D01*
X162306Y112976D01*
X162267Y113037D01*
X162228Y113087D01*
X162206Y113115D01*
X162195Y113126D01*
X162106Y113204D01*
X162012Y113259D01*
X161917Y113309D01*
X161823Y113343D01*
X161740Y113365D01*
X161679Y113381D01*
X161651Y113387D01*
X161634Y113393D01*
X161618D01*
Y113404D01*
X161718Y113437D01*
X161812Y113481D01*
X161890Y113531D01*
X161962Y113576D01*
X162017Y113620D01*
X162056Y113659D01*
X162078Y113681D01*
X162089Y113692D01*
X162151Y113776D01*
X162200Y113859D01*
X162234Y113942D01*
X162256Y114020D01*
X162267Y114086D01*
X162278Y114136D01*
Y114158D01*
Y114175D01*
Y114181D01*
Y114186D01*
X162273Y114253D01*
X162267Y114319D01*
X162228Y114436D01*
X162184Y114536D01*
X162128Y114625D01*
X162067Y114686D01*
X162023Y114736D01*
X161984Y114763D01*
X161978Y114775D01*
X161973D01*
X161912Y114813D01*
X161851Y114847D01*
X161712Y114897D01*
X161568Y114935D01*
X161429Y114958D01*
X161368Y114969D01*
X161307Y114974D01*
X161251Y114980D01*
X161207D01*
X161168Y114985D01*
D02*
G37*
G36*
X156079D02*
X153248D01*
Y111556D01*
X156079D01*
X155435Y112571D01*
X155379Y112649D01*
X155330Y112721D01*
X155280Y112782D01*
X155230Y112838D01*
X155185Y112888D01*
X155141Y112932D01*
X155102Y112965D01*
X155063Y112998D01*
X154997Y113043D01*
X154952Y113076D01*
X154919Y113087D01*
X154913Y113093D01*
X154908D01*
Y113104D01*
X155035Y113148D01*
X155146Y113198D01*
X155246Y113259D01*
X155324Y113315D01*
X155391Y113370D01*
X155435Y113415D01*
X155463Y113443D01*
X155474Y113454D01*
X155540Y113554D01*
X155590Y113653D01*
X155629Y113753D01*
X155651Y113848D01*
X155668Y113931D01*
X155674Y113964D01*
Y113992D01*
X155679Y114020D01*
Y114036D01*
Y114048D01*
Y114053D01*
X155674Y114136D01*
X155668Y114219D01*
X155651Y114292D01*
X155629Y114358D01*
X155568Y114486D01*
X155491Y114591D01*
X155396Y114680D01*
X155291Y114758D01*
X155180Y114819D01*
X155069Y114869D01*
X154952Y114908D01*
X154841Y114935D01*
X154736Y114958D01*
X154647Y114969D01*
X154564Y114980D01*
X154508Y114985D01*
X156079D01*
D02*
G37*
%LPD*%
G36*
X161035Y114436D02*
X161124Y114425D01*
X161201Y114403D01*
X161268Y114380D01*
X161323Y114353D01*
X161373Y114319D01*
X161412Y114280D01*
X161440Y114247D01*
X161462Y114208D01*
X161484Y114170D01*
X161501Y114109D01*
X161507Y114086D01*
X161512Y114064D01*
Y114053D01*
Y114048D01*
X161507Y113970D01*
X161490Y113903D01*
X161468Y113848D01*
X161440Y113798D01*
X161412Y113759D01*
X161390Y113731D01*
X161373Y113715D01*
X161368Y113709D01*
X161312Y113670D01*
X161246Y113642D01*
X161179Y113620D01*
X161118Y113609D01*
X161063Y113598D01*
X161013Y113592D01*
X160624D01*
Y114442D01*
X160935D01*
X161035Y114436D01*
D02*
G37*
G36*
X161151Y113037D02*
X161240Y113026D01*
X161312Y113004D01*
X161379Y112982D01*
X161423Y112960D01*
X161462Y112937D01*
X161484Y112926D01*
X161490Y112921D01*
X161540Y112871D01*
X161579Y112815D01*
X161607Y112760D01*
X161629Y112704D01*
X161640Y112660D01*
X161645Y112616D01*
Y112593D01*
Y112582D01*
X161640Y112504D01*
X161623Y112432D01*
X161595Y112371D01*
X161568Y112321D01*
X161540Y112277D01*
X161512Y112249D01*
X161496Y112233D01*
X161490Y112227D01*
X161429Y112183D01*
X161357Y112155D01*
X161285Y112133D01*
X161218Y112116D01*
X161151Y112105D01*
X161101Y112099D01*
X160624D01*
Y113043D01*
X161051D01*
X161151Y113037D01*
D02*
G37*
G36*
X154453Y114425D02*
X154536Y114408D01*
X154608Y114386D01*
X154675Y114358D01*
X154730Y114325D01*
X154774Y114280D01*
X154808Y114242D01*
X154841Y114197D01*
X154863Y114153D01*
X154880Y114114D01*
X154897Y114036D01*
X154902Y114009D01*
X154908Y113986D01*
Y113970D01*
Y113964D01*
X154902Y113886D01*
X154885Y113814D01*
X154858Y113748D01*
X154830Y113698D01*
X154802Y113653D01*
X154774Y113620D01*
X154758Y113598D01*
X154752Y113592D01*
X154691Y113542D01*
X154625Y113504D01*
X154552Y113481D01*
X154491Y113459D01*
X154430Y113448D01*
X154386Y113443D01*
X153981D01*
Y114430D01*
X154353D01*
X154453Y114425D01*
D02*
G37*
G36*
X154247Y112876D02*
X154286Y112871D01*
X154358Y112843D01*
X154386Y112826D01*
X154408Y112810D01*
X154419Y112804D01*
X154425Y112799D01*
X154469Y112760D01*
X154514Y112710D01*
X154564Y112654D01*
X154608Y112593D01*
X154641Y112538D01*
X154675Y112488D01*
X154697Y112455D01*
X154702Y112449D01*
Y112443D01*
X155241Y111556D01*
X153981D01*
Y112882D01*
X154203D01*
X154247Y112876D01*
D02*
G37*
%LPC*%
G36*
X356997Y112063D02*
X355887D01*
X355876Y112052D01*
X355848Y112024D01*
X355809Y111974D01*
X355754Y111913D01*
X355681Y111847D01*
X355604Y111763D01*
X355521Y111680D01*
X355432Y111597D01*
X356486D01*
X356997Y112063D01*
D02*
G37*
G36*
X164669Y-3614D02*
X164275D01*
Y-5851D01*
X164725D01*
X164763Y-5845D01*
X164802Y-5839D01*
X164858Y-5834D01*
X164913Y-5823D01*
X164974Y-5812D01*
X165102Y-5773D01*
X165241Y-5717D01*
X165307Y-5684D01*
X165368Y-5640D01*
X165435Y-5595D01*
X165490Y-5540D01*
X165496Y-5534D01*
X165502Y-5523D01*
X165518Y-5507D01*
X165535Y-5484D01*
X165563Y-5451D01*
X165585Y-5412D01*
X165613Y-5368D01*
X165640Y-5318D01*
X165668Y-5262D01*
X165696Y-5196D01*
X165724Y-5129D01*
X165746Y-5051D01*
X165762Y-4974D01*
X165779Y-4885D01*
X165785Y-4791D01*
X165790Y-4696D01*
Y-4691D01*
Y-4674D01*
Y-4646D01*
X165785Y-4613D01*
X165779Y-4569D01*
X165774Y-4519D01*
X165751Y-4408D01*
X165712Y-4280D01*
X165657Y-4147D01*
X165624Y-4080D01*
X165585Y-4019D01*
X165535Y-3958D01*
X165479Y-3903D01*
X165474Y-3897D01*
X165463Y-3892D01*
X165446Y-3875D01*
X165424Y-3858D01*
X165391Y-3836D01*
X165357Y-3814D01*
X165313Y-3786D01*
X165263Y-3758D01*
X165207Y-3731D01*
X165146Y-3703D01*
X165008Y-3658D01*
X164847Y-3625D01*
X164763Y-3620D01*
X164669Y-3614D01*
D02*
G37*
G36*
X134236Y-3269D02*
X133842D01*
Y-5506D01*
X134292D01*
X134330Y-5501D01*
X134369Y-5495D01*
X134425Y-5489D01*
X134480Y-5478D01*
X134541Y-5467D01*
X134669Y-5429D01*
X134808Y-5373D01*
X134874Y-5340D01*
X134935Y-5295D01*
X135002Y-5251D01*
X135057Y-5195D01*
X135063Y-5190D01*
X135069Y-5179D01*
X135085Y-5162D01*
X135102Y-5140D01*
X135130Y-5107D01*
X135152Y-5068D01*
X135180Y-5023D01*
X135207Y-4973D01*
X135235Y-4918D01*
X135263Y-4851D01*
X135291Y-4785D01*
X135313Y-4707D01*
X135329Y-4629D01*
X135346Y-4540D01*
X135352Y-4446D01*
X135357Y-4352D01*
Y-4346D01*
Y-4329D01*
Y-4302D01*
X135352Y-4268D01*
X135346Y-4224D01*
X135341Y-4174D01*
X135318Y-4063D01*
X135280Y-3935D01*
X135224Y-3802D01*
X135191Y-3736D01*
X135152Y-3675D01*
X135102Y-3614D01*
X135046Y-3558D01*
X135041Y-3553D01*
X135030Y-3547D01*
X135013Y-3530D01*
X134991Y-3514D01*
X134958Y-3492D01*
X134924Y-3469D01*
X134880Y-3442D01*
X134830Y-3414D01*
X134774Y-3386D01*
X134713Y-3358D01*
X134575Y-3314D01*
X134414Y-3281D01*
X134330Y-3275D01*
X134236Y-3269D01*
D02*
G37*
G36*
X130645D02*
X130251D01*
Y-5506D01*
X130701D01*
X130740Y-5501D01*
X130778Y-5495D01*
X130834Y-5489D01*
X130889Y-5478D01*
X130950Y-5467D01*
X131078Y-5429D01*
X131217Y-5373D01*
X131283Y-5340D01*
X131345Y-5295D01*
X131411Y-5251D01*
X131467Y-5195D01*
X131472Y-5190D01*
X131478Y-5179D01*
X131494Y-5162D01*
X131511Y-5140D01*
X131539Y-5107D01*
X131561Y-5068D01*
X131589Y-5023D01*
X131616Y-4973D01*
X131644Y-4918D01*
X131672Y-4851D01*
X131700Y-4785D01*
X131722Y-4707D01*
X131739Y-4629D01*
X131755Y-4540D01*
X131761Y-4446D01*
X131766Y-4352D01*
Y-4346D01*
Y-4329D01*
Y-4302D01*
X131761Y-4268D01*
X131755Y-4224D01*
X131750Y-4174D01*
X131728Y-4063D01*
X131689Y-3935D01*
X131633Y-3802D01*
X131600Y-3736D01*
X131561Y-3675D01*
X131511Y-3614D01*
X131456Y-3558D01*
X131450Y-3553D01*
X131439Y-3547D01*
X131422Y-3530D01*
X131400Y-3514D01*
X131367Y-3492D01*
X131333Y-3469D01*
X131289Y-3442D01*
X131239Y-3414D01*
X131184Y-3386D01*
X131123Y-3358D01*
X130984Y-3314D01*
X130823Y-3281D01*
X130740Y-3275D01*
X130645Y-3269D01*
D02*
G37*
G36*
X146913Y14186D02*
X146519D01*
Y11949D01*
X146969D01*
X147008Y11955D01*
X147046Y11960D01*
X147102Y11966D01*
X147158Y11977D01*
X147219Y11988D01*
X147346Y12027D01*
X147485Y12083D01*
X147552Y12116D01*
X147613Y12160D01*
X147679Y12205D01*
X147735Y12260D01*
X147740Y12266D01*
X147746Y12277D01*
X147762Y12293D01*
X147779Y12316D01*
X147807Y12349D01*
X147829Y12388D01*
X147857Y12432D01*
X147885Y12482D01*
X147912Y12538D01*
X147940Y12604D01*
X147968Y12671D01*
X147990Y12749D01*
X148007Y12826D01*
X148023Y12915D01*
X148029Y13009D01*
X148034Y13104D01*
Y13109D01*
Y13126D01*
Y13154D01*
X148029Y13187D01*
X148023Y13231D01*
X148018Y13281D01*
X147996Y13392D01*
X147957Y13520D01*
X147901Y13653D01*
X147868Y13720D01*
X147829Y13781D01*
X147779Y13842D01*
X147724Y13897D01*
X147718Y13903D01*
X147707Y13908D01*
X147690Y13925D01*
X147668Y13942D01*
X147635Y13964D01*
X147601Y13986D01*
X147557Y14014D01*
X147507Y14042D01*
X147452Y14070D01*
X147391Y14097D01*
X147252Y14142D01*
X147091Y14175D01*
X147008Y14180D01*
X146913Y14186D01*
D02*
G37*
G36*
X8511Y87496D02*
X8466D01*
X8407Y87481D01*
X8348Y87466D01*
X8274Y87437D01*
X8193Y87400D01*
X8119Y87341D01*
X8045Y87267D01*
X8037Y87259D01*
X8015Y87222D01*
X7993Y87178D01*
X7963Y87111D01*
X7926Y87030D01*
X7904Y86934D01*
X7882Y86823D01*
X7874Y86704D01*
Y86697D01*
Y86689D01*
Y86645D01*
X7882Y86578D01*
X7897Y86497D01*
X7919Y86408D01*
X7948Y86312D01*
X7993Y86216D01*
X8052Y86134D01*
X8059Y86127D01*
X8082Y86105D01*
X8126Y86068D01*
X8178Y86031D01*
X8244Y85994D01*
X8333Y85957D01*
X8422Y85935D01*
X8533Y85927D01*
X8577D01*
X8629Y85935D01*
X8688Y85949D01*
X8762Y85972D01*
X8836Y86009D01*
X8910Y86053D01*
X8977Y86120D01*
X8984Y86127D01*
X9007Y86157D01*
X9036Y86201D01*
X9066Y86260D01*
X9095Y86327D01*
X9125Y86416D01*
X9147Y86512D01*
X9155Y86615D01*
Y86623D01*
Y86630D01*
Y86675D01*
X9147Y86741D01*
X9132Y86823D01*
X9110Y86919D01*
X9081Y87022D01*
X9036Y87126D01*
X8977Y87230D01*
X8970Y87244D01*
X8947Y87274D01*
X8910Y87311D01*
X8859Y87363D01*
X8792Y87415D01*
X8711Y87452D01*
X8614Y87481D01*
X8511Y87496D01*
D02*
G37*
G36*
X22556Y87363D02*
X22526D01*
Y87355D01*
Y87326D01*
X22519Y87289D01*
X22512Y87237D01*
X22497Y87178D01*
X22489Y87111D01*
X22445Y86971D01*
X21927Y85372D01*
X23148D01*
X22623Y86963D01*
Y86971D01*
X22615Y86993D01*
X22608Y87022D01*
X22593Y87067D01*
X22586Y87126D01*
X22571Y87193D01*
X22563Y87274D01*
X22556Y87363D01*
D02*
G37*
G36*
X5854Y96661D02*
X5198D01*
Y92933D01*
X5947D01*
X6011Y92943D01*
X6076Y92952D01*
X6169Y92961D01*
X6261Y92980D01*
X6363Y92998D01*
X6576Y93063D01*
X6807Y93155D01*
X6918Y93211D01*
X7020Y93285D01*
X7131Y93359D01*
X7223Y93451D01*
X7232Y93461D01*
X7242Y93479D01*
X7270Y93507D01*
X7297Y93544D01*
X7344Y93599D01*
X7380Y93664D01*
X7427Y93738D01*
X7473Y93821D01*
X7519Y93914D01*
X7565Y94025D01*
X7612Y94136D01*
X7649Y94265D01*
X7677Y94395D01*
X7704Y94543D01*
X7713Y94700D01*
X7723Y94857D01*
Y94867D01*
Y94894D01*
Y94941D01*
X7713Y94996D01*
X7704Y95070D01*
X7695Y95153D01*
X7658Y95338D01*
X7593Y95551D01*
X7501Y95773D01*
X7445Y95884D01*
X7380Y95986D01*
X7297Y96087D01*
X7205Y96180D01*
X7196Y96189D01*
X7177Y96198D01*
X7149Y96226D01*
X7112Y96254D01*
X7057Y96291D01*
X7001Y96328D01*
X6927Y96374D01*
X6844Y96421D01*
X6752Y96467D01*
X6650Y96513D01*
X6419Y96587D01*
X6150Y96643D01*
X6011Y96652D01*
X5854Y96661D01*
D02*
G37*
G36*
X758Y96716D02*
X221D01*
Y94867D01*
X795D01*
X850Y94876D01*
X915Y94885D01*
X998Y94894D01*
X1091Y94913D01*
X1183Y94941D01*
X1285Y94987D01*
X1386Y95033D01*
X1479Y95098D01*
X1571Y95172D01*
X1655Y95264D01*
X1719Y95366D01*
X1775Y95495D01*
X1812Y95634D01*
X1821Y95801D01*
Y95810D01*
Y95838D01*
X1812Y95884D01*
X1803Y95949D01*
X1794Y96013D01*
X1766Y96087D01*
X1729Y96171D01*
X1692Y96263D01*
X1636Y96346D01*
X1562Y96430D01*
X1479Y96504D01*
X1377Y96578D01*
X1248Y96633D01*
X1109Y96680D01*
X943Y96707D01*
X758Y96716D01*
D02*
G37*
G36*
X33354Y96846D02*
X33318D01*
X33271Y96837D01*
X33216Y96809D01*
X33151Y96781D01*
X33077Y96735D01*
X33003Y96670D01*
X32920Y96587D01*
X32836Y96467D01*
X32763Y96328D01*
X32689Y96162D01*
X32651Y96060D01*
X32624Y95958D01*
X32596Y95838D01*
X32568Y95718D01*
X32541Y95579D01*
X32522Y95431D01*
X32504Y95274D01*
X32494Y95107D01*
X32485Y94931D01*
Y94737D01*
Y94728D01*
Y94718D01*
Y94691D01*
Y94654D01*
X32494Y94552D01*
Y94432D01*
X32513Y94274D01*
X32531Y94108D01*
X32559Y93932D01*
X32596Y93747D01*
X32633Y93562D01*
X32689Y93387D01*
X32763Y93220D01*
X32846Y93063D01*
X32938Y92943D01*
X33059Y92841D01*
X33123Y92804D01*
X33188Y92776D01*
X33262Y92767D01*
X33336Y92757D01*
X33373D01*
X33410Y92767D01*
X33465Y92785D01*
X33530Y92822D01*
X33604Y92869D01*
X33678Y92924D01*
X33752Y93016D01*
X33826Y93118D01*
X33909Y93257D01*
X33974Y93423D01*
X34039Y93618D01*
X34067Y93729D01*
X34095Y93849D01*
X34113Y93979D01*
X34132Y94117D01*
X34150Y94274D01*
X34159Y94432D01*
X34168Y94608D01*
Y94792D01*
Y94802D01*
Y94820D01*
Y94848D01*
Y94885D01*
X34159Y94987D01*
Y95116D01*
X34141Y95274D01*
X34122Y95440D01*
X34104Y95625D01*
X34067Y95819D01*
X34021Y96013D01*
X33974Y96198D01*
X33900Y96374D01*
X33826Y96522D01*
X33734Y96661D01*
X33623Y96754D01*
X33567Y96800D01*
X33503Y96828D01*
X33428Y96837D01*
X33354Y96846D01*
D02*
G37*
G36*
X16002Y96698D02*
X15937D01*
X15881Y96689D01*
X15826Y96680D01*
X15752Y96670D01*
X15595Y96633D01*
X15409Y96569D01*
X15317Y96522D01*
X15225Y96476D01*
X15132Y96411D01*
X15040Y96337D01*
X14956Y96254D01*
X14873Y96162D01*
Y96152D01*
X14854Y96134D01*
X14836Y96106D01*
X14808Y96069D01*
X14781Y96013D01*
X14743Y95949D01*
X14706Y95875D01*
X14670Y95792D01*
X14633Y95699D01*
X14595Y95597D01*
X14531Y95366D01*
X14484Y95098D01*
X14475Y94950D01*
X14466Y94792D01*
Y94783D01*
Y94756D01*
Y94709D01*
X14475Y94654D01*
Y94580D01*
X14484Y94497D01*
X14503Y94413D01*
X14512Y94311D01*
X14568Y94090D01*
X14633Y93867D01*
X14734Y93636D01*
X14790Y93525D01*
X14864Y93423D01*
X14873Y93414D01*
X14882Y93405D01*
X14910Y93377D01*
X14938Y93340D01*
X15030Y93257D01*
X15160Y93164D01*
X15317Y93063D01*
X15502Y92980D01*
X15613Y92943D01*
X15724Y92915D01*
X15844Y92905D01*
X15974Y92896D01*
X16038D01*
X16094Y92905D01*
X16150Y92915D01*
X16224Y92924D01*
X16381Y92961D01*
X16556Y93016D01*
X16741Y93109D01*
X16834Y93174D01*
X16927Y93239D01*
X17010Y93313D01*
X17084Y93405D01*
X17093Y93414D01*
X17102Y93433D01*
X17121Y93461D01*
X17149Y93498D01*
X17176Y93553D01*
X17213Y93608D01*
X17250Y93682D01*
X17287Y93766D01*
X17324Y93858D01*
X17361Y93960D01*
X17398Y94071D01*
X17426Y94191D01*
X17472Y94459D01*
X17491Y94608D01*
Y94765D01*
Y94774D01*
Y94802D01*
Y94848D01*
X17481Y94913D01*
Y94987D01*
X17472Y95079D01*
X17463Y95172D01*
X17445Y95283D01*
X17398Y95505D01*
X17324Y95745D01*
X17232Y95967D01*
X17102Y96180D01*
Y96189D01*
X17084Y96198D01*
X17028Y96263D01*
X16945Y96346D01*
X16815Y96439D01*
X16668Y96531D01*
X16473Y96615D01*
X16251Y96680D01*
X16131Y96689D01*
X16002Y96698D01*
D02*
G37*
%LPD*%
D10*
X353910Y15052D02*
G03*
X359766Y15000I2959J3492D01*
G01*
X359822Y26148D02*
G03*
X353966Y26200I-2959J-3492D01*
G01*
X235486Y9013D02*
G03*
X280117Y9014I22315J7198D01*
G01*
X228563Y15817D02*
G03*
X286437Y16211I28937J197D01*
G01*
X318954Y6866D02*
G03*
X323132Y10970I-377J4562D01*
G01*
X315288Y18892D02*
G03*
X311111Y14788I377J-4562D01*
G01*
X311777Y72956D02*
G03*
X311725Y67100I3492J-2959D01*
G01*
X322873Y67044D02*
G03*
X322925Y72900I-3492J2959D01*
G01*
X104952Y19456D02*
G03*
X104900Y13600I3492J-2959D01*
G01*
X116048Y13544D02*
G03*
X116100Y19400I-3492J2959D01*
G01*
X56282Y57890D02*
G03*
X56280Y53626I14J-2132D01*
G01*
X58016Y66658D02*
G03*
X58016Y66658I-674J0D01*
G01*
X97048Y83044D02*
G03*
X97100Y88900I-3492J2959D01*
G01*
X85952Y88956D02*
G03*
X85900Y83100I3492J-2959D01*
G01*
X60044Y50452D02*
G03*
X65900Y50400I2959J3492D01*
G01*
X65956Y61548D02*
G03*
X60100Y61600I-2959J-3492D01*
G01*
X58456Y108048D02*
G03*
X52600Y108100I-2959J-3492D01*
G01*
X52544Y96952D02*
G03*
X58400Y96900I2959J3492D01*
G01*
X111952Y6956D02*
G03*
X111900Y1100I3492J-2959D01*
G01*
X123048Y1044D02*
G03*
X123100Y6900I-3492J2959D01*
G01*
X79052Y77956D02*
G03*
X79000Y72100I3492J-2959D01*
G01*
X90148Y72044D02*
G03*
X90200Y77900I-3492J2959D01*
G01*
X104952Y26956D02*
G03*
X104900Y21100I3492J-2959D01*
G01*
X116048Y21044D02*
G03*
X116100Y26900I-3492J2959D01*
G01*
X208648Y81044D02*
G03*
X208700Y86900I-3492J2959D01*
G01*
X197552Y86956D02*
G03*
X197500Y81100I3492J-2959D01*
G01*
X117852Y114956D02*
G03*
X117800Y109100I3492J-2959D01*
G01*
X128948Y109044D02*
G03*
X129000Y114900I-3492J2959D01*
G01*
X323448Y50232D02*
G03*
X323500Y56088I-3492J2959D01*
G01*
X312352Y56144D02*
G03*
X312300Y50288I3492J-2959D01*
G01*
X60952Y14956D02*
G03*
X60900Y9100I3492J-2959D01*
G01*
X72048Y9044D02*
G03*
X72100Y14900I-3492J2959D01*
G01*
X163500Y95560D02*
G03*
X163500Y95560I-5910J0D01*
G01*
X167430Y106980D02*
G03*
X167430Y106980I-390J0D01*
G01*
X193326Y76465D02*
G03*
X175434Y76172I-8881J-4095D01*
G01*
X359866Y22300D02*
Y26000D01*
X353866Y22300D02*
Y26100D01*
X353866Y18800D02*
X353866Y15100D01*
X359866D02*
X359866Y18800D01*
X112140Y80040D02*
Y95780D01*
X129860Y80040D02*
Y95780D01*
X283997Y16217D02*
X286437Y16211D01*
X234270Y17390D02*
Y33140D01*
X264190Y-14890D02*
Y-12140D01*
X251200Y-14890D02*
X264190D01*
X251200D02*
Y-12330D01*
X228560Y16020D02*
X231000Y16013D01*
X280730Y17000D02*
Y33140D01*
X272150D02*
X280730D01*
X262150D02*
X262850D01*
X252150D02*
X252850D01*
X234270D02*
X242850D01*
X311111Y14646D02*
X313727Y12030D01*
X315353Y18889D02*
X317970Y16273D01*
X320445Y13798D02*
X323132Y11111D01*
X316202Y9555D02*
X318818Y6939D01*
X315828Y23048D02*
X321952Y29172D01*
X330861Y8015D02*
X336985Y14139D01*
X326128Y12747D02*
X330861Y8015D01*
X315828Y23048D02*
X320560Y18315D01*
X332253Y18872D02*
X336985Y14139D01*
X321952Y29172D02*
X326685Y24440D01*
X319125Y73000D02*
X322825Y73000D01*
X319125Y67000D02*
X322825Y67000D01*
X311825D02*
X315625Y67000D01*
X311925Y73000D02*
X315625Y73000D01*
X112300Y19500D02*
X116000D01*
X112300Y13500D02*
X116000D01*
X105000D02*
X108800D01*
X105100Y19500D02*
X108800D01*
X-6402Y72835D02*
X-982D01*
X-6402Y37175D02*
Y72835D01*
X8648D02*
X14768D01*
X-6402Y37175D02*
X-1002D01*
X8668D02*
X14738D01*
X36595Y63548D02*
X36595Y47800D01*
X56280Y57893D02*
Y63101D01*
Y48246D02*
Y53626D01*
X86000Y83000D02*
X89700D01*
X86000Y89000D02*
X89700D01*
X93200D02*
X97000D01*
X93200Y83000D02*
X96900D01*
X60000Y57800D02*
Y61500D01*
X66000Y57800D02*
Y61500D01*
Y50500D02*
Y54300D01*
X60000Y50600D02*
Y54300D01*
X58500Y97000D02*
Y100700D01*
X52500Y97000D02*
Y100700D01*
Y104200D02*
Y108000D01*
X58500Y104200D02*
Y107900D01*
X119300Y7000D02*
X123000D01*
X119300Y1000D02*
X123000D01*
X112000D02*
X115800D01*
X112100Y7000D02*
X115800D01*
X86400Y78000D02*
X90100D01*
X86400Y72000D02*
X90100D01*
X79100D02*
X82900D01*
X79200Y78000D02*
X82900D01*
X112300Y27000D02*
X116000D01*
X112300Y21000D02*
X116000D01*
X105000D02*
X108800D01*
X105100Y27000D02*
X108800D01*
X197600Y81000D02*
X201300Y81000D01*
X197600Y87000D02*
X201300Y87000D01*
X204800Y87000D02*
X208600D01*
X204800Y81000D02*
X208500D01*
X125200Y115000D02*
X128900D01*
X125200Y109000D02*
X128900D01*
X117900D02*
X121700D01*
X118000Y115000D02*
X121700D01*
X312400Y50188D02*
X316100Y50188D01*
X312400Y56188D02*
X316100Y56188D01*
X319600Y56188D02*
X323400D01*
X319600Y50188D02*
X323300D01*
X68300Y15000D02*
X72000D01*
X68300Y9000D02*
X72000D01*
X61000D02*
X64800D01*
X61100Y15000D02*
X64800D01*
X166370Y85720D02*
X167430D01*
X154560D02*
X160620D01*
X147750D02*
X148810D01*
X147750D02*
Y105400D01*
X148810D01*
X154560Y105400D02*
X160620Y105400D01*
X166370D02*
X167430D01*
Y85720D02*
Y105400D01*
X147750Y89650D02*
X150500D01*
X147750D02*
Y92410D01*
X150500Y89650D01*
X50659Y-2380D02*
Y500D01*
X25856Y-2380D02*
Y500D01*
X50659Y9300D02*
Y12581D01*
X25856Y9300D02*
Y12581D01*
Y-2380D02*
X50659D01*
X25856Y12581D02*
X50659D01*
X45500Y7200D02*
Y10100D01*
X31500D02*
X45500D01*
X31500Y7200D02*
Y10100D01*
X35500Y1100D02*
X41400D01*
X38500Y3100D02*
Y5700D01*
Y7500D02*
Y10100D01*
X298106Y81319D02*
X298894Y81319D01*
X298106Y83681D02*
X298894Y83681D01*
X200075Y89736D02*
Y99185D01*
X196925Y89736D02*
X200075D01*
X196925D02*
Y99185D01*
X200075D01*
X126169Y-563D02*
Y8437D01*
Y-563D02*
X166102D01*
Y8437D01*
X126169D02*
X166102D01*
X117701Y107543D02*
X130299D01*
X117701Y100457D02*
X130299D01*
X122819D02*
Y107543D01*
X176526Y65926D02*
X192274D01*
D11*
X352928Y0D02*
G03*
X352928Y0I-6471J0D01*
G01*
Y110236D02*
G03*
X352928Y110236I-6471J0D01*
G01*
X345307Y14785D02*
Y17836D01*
Y14785D02*
X350425D01*
Y17935D01*
X345307Y23065D02*
Y26215D01*
X350425D01*
Y23065D02*
Y26215D01*
X337307Y31815D02*
X342425D01*
X337307Y21185D02*
X342425D01*
X337307Y24925D02*
X337307Y21185D01*
X337307Y28075D02*
X337307Y31815D01*
X342425Y21185D02*
X342425Y24925D01*
X342425Y31815D02*
X342425Y28075D01*
X33685Y78559D02*
X37425Y78559D01*
X40575D02*
X44315Y78559D01*
X33685Y73441D02*
X37425Y73441D01*
X40575D02*
X44315Y73441D01*
Y78559D01*
X33685Y73441D02*
Y78559D01*
Y85559D02*
X37425Y85559D01*
X40575D02*
X44315Y85559D01*
X33685Y80441D02*
X37425Y80441D01*
X40575D02*
X44315Y80441D01*
Y85559D01*
X33685Y80441D02*
Y85559D01*
X74441Y100425D02*
X74441Y96685D01*
X74441Y103575D02*
X74441Y107315D01*
X79559Y96685D02*
X79559Y100425D01*
X79559Y107315D02*
X79559Y103575D01*
X74441Y107315D02*
X79559D01*
X74441Y96685D02*
X79559D01*
X286937Y78185D02*
X290677D01*
X293827D02*
X297567Y78185D01*
X286937Y73067D02*
X290677Y73067D01*
X293827D02*
X297567Y73067D01*
Y78185D01*
X286937Y73067D02*
Y78185D01*
X89500Y91658D02*
X93468D01*
X89500Y103862D02*
X93468D01*
Y91658D02*
Y103862D01*
X89500Y91658D02*
Y103862D01*
X55575Y16441D02*
X59315Y16441D01*
X48685D02*
X52425Y16441D01*
X55575Y21559D02*
X59315Y21559D01*
X48685D02*
X52425Y21559D01*
X48685Y21559D02*
X48685Y16441D01*
X59315D02*
X59315Y21559D01*
X60441Y16685D02*
Y20425D01*
Y23575D02*
X60441Y27315D01*
X65559Y16685D02*
Y20425D01*
Y27315D02*
X65559Y23575D01*
X60441Y27315D02*
X65559Y27315D01*
X60441Y16685D02*
X65559D01*
X48685Y27559D02*
X52425Y27559D01*
X55575D02*
X59315Y27559D01*
X48685Y22441D02*
X52425Y22441D01*
X55575D02*
X59315Y22441D01*
Y27559D01*
X48685Y22441D02*
Y27559D01*
X125385Y15659D02*
X129125Y15659D01*
X132275D02*
X136015Y15659D01*
X125385Y10541D02*
X129125Y10541D01*
X132275D02*
X136015Y10541D01*
Y15659D01*
X125385Y10541D02*
Y15659D01*
X209441Y95425D02*
X209441Y91685D01*
X209441Y98575D02*
X209441Y102315D01*
X214559Y91685D02*
X214559Y95425D01*
X214559Y102315D02*
X214559Y98575D01*
X209441Y102315D02*
X214559D01*
X209441Y91685D02*
X214559D01*
X201185Y103441D02*
Y108559D01*
X211815Y103441D02*
Y108559D01*
X208075Y103441D02*
X211815Y103441D01*
X201185D02*
X204925Y103441D01*
X208075Y108559D02*
X211815Y108559D01*
X201185D02*
X204925Y108559D01*
X319000Y74441D02*
X322740D01*
X312110D02*
X315850D01*
X319000Y79559D02*
X322740D01*
X312110D02*
X315850D01*
X312110Y74441D02*
Y79559D01*
X322740Y74441D02*
Y79559D01*
X332875Y42629D02*
X336615Y42629D01*
X325985D02*
X329725Y42629D01*
X332875Y47747D02*
X336615D01*
X325985D02*
X329725D01*
X325985Y42629D02*
Y47747D01*
X336615Y42629D02*
Y47747D01*
X93185Y77459D02*
X96925Y77459D01*
X100075D02*
X103815Y77459D01*
X93185Y72341D02*
X96925Y72341D01*
X100075D02*
X103815Y72341D01*
Y77459D01*
X93185Y72341D02*
Y77459D01*
X62559Y7559D02*
X66299Y7559D01*
X69449D02*
X73189Y7559D01*
X62559Y2441D02*
X66299D01*
X69449D02*
X73189D01*
Y7559D01*
X62559Y2441D02*
Y7559D01*
X83000Y-1000D02*
Y9000D01*
X103000D01*
Y-1000D02*
Y9000D01*
X83000Y-1000D02*
X103000D01*
X65559Y74815D02*
X65559Y71075D01*
X65559Y64185D02*
X65559Y67925D01*
X60441Y71075D02*
X60441Y74815D01*
X60441Y67925D02*
X60441Y64185D01*
X65559D01*
X60441Y74815D02*
X65559D01*
X36575Y107441D02*
X40315Y107441D01*
X29685D02*
X33425Y107441D01*
X36575Y112559D02*
X40315Y112559D01*
X29685D02*
X33425Y112559D01*
X29685Y107441D02*
Y112559D01*
X40315Y107441D02*
Y112559D01*
X38185Y38559D02*
X41925Y38559D01*
X45075D02*
X48815Y38559D01*
X38185Y33441D02*
X41925Y33441D01*
X45075D02*
X48815Y33441D01*
Y38559D01*
X38185Y33441D02*
Y38559D01*
X97575Y106441D02*
X101315Y106441D01*
X90685D02*
X94425Y106441D01*
X97575Y111559D02*
X101315Y111559D01*
X90685D02*
X94425Y111559D01*
X90685Y106441D02*
Y111559D01*
X101315Y106441D02*
Y111559D01*
X24565Y107441D02*
X27715D01*
Y112559D01*
X24565D02*
X27715D01*
X16285Y107441D02*
X19435D01*
X16285D02*
Y112559D01*
X19336D01*
X103185Y111559D02*
X106925Y111559D01*
X110075D02*
X113815Y111559D01*
X103185Y106441D02*
X106925Y106441D01*
X110075D02*
X113815Y106441D01*
Y111559D01*
X103185Y106441D02*
Y111559D01*
X178811Y93319D02*
X182551Y93319D01*
X185701D02*
X189441Y93319D01*
X178811Y88201D02*
X182551Y88201D01*
X185701D02*
X189441Y88201D01*
Y93319D01*
X178811Y88201D02*
Y93319D01*
D12*
X92130Y59760D02*
G03*
X92130Y59760I-590J0D01*
G01*
D13*
X82140Y61050D02*
G03*
X82140Y61050I-390J0D01*
G01*
D14*
X98492Y91264D02*
G03*
X98492Y91264I-492J0D01*
G01*
D15*
X69999Y111199D02*
G03*
X67699Y113600I-2350J50D01*
G01*
X62400Y113600D02*
G03*
X60000Y111300I-50J-2350D01*
G01*
X67599Y91100D02*
G03*
X69999Y93400I50J2350D01*
G01*
X60000Y93499D02*
G03*
X62300Y91100I2350J-50D01*
G01*
X298693Y87047D02*
X301276D01*
X298693D02*
Y112953D01*
X301276D01*
D16*
X355397Y20053D02*
X358349D01*
X355397Y21037D02*
X358349D01*
X316382Y11521D02*
X318470Y13609D01*
X315686Y12217D02*
X317774Y14305D01*
X316888Y68530D02*
Y71483D01*
X317872Y68530D02*
Y71483D01*
X110063Y15030D02*
Y17983D01*
X111047Y15030D02*
Y17983D01*
X91937Y84517D02*
Y87470D01*
X90953Y84517D02*
Y87470D01*
X61517Y55563D02*
X64470D01*
X61517Y56547D02*
X64470D01*
X54030Y102937D02*
X56983D01*
X54030Y101953D02*
X56983D01*
X117063Y2530D02*
Y5483D01*
X118047Y2530D02*
Y5483D01*
X84163Y73530D02*
Y76483D01*
X85147Y73530D02*
Y76483D01*
X110063Y22530D02*
Y25483D01*
X111047Y22530D02*
Y25483D01*
X203537Y82517D02*
Y85470D01*
X202553Y82517D02*
Y85470D01*
X122963Y110530D02*
Y113483D01*
X123947Y110530D02*
Y113483D01*
X318337Y51705D02*
Y54658D01*
X317353Y51705D02*
Y54658D01*
X66063Y10530D02*
Y13483D01*
X67047Y10530D02*
Y13483D01*
D17*
X246350Y90600D02*
X246450D01*
X246250Y90500D02*
X246550D01*
X246150Y90400D02*
X246550D01*
X246150Y90300D02*
X246550D01*
X246050Y90200D02*
X246550D01*
X246050Y90100D02*
X246550D01*
X246050Y90000D02*
X246550D01*
X258550D02*
X258850D01*
X245950Y89900D02*
X246550D01*
X258550D02*
X258950D01*
X245950Y89800D02*
X246550D01*
X258550D02*
X259050D01*
X245950Y89700D02*
X246550D01*
X258650D02*
X259050D01*
X245850Y89600D02*
X246550D01*
X258650D02*
X259150D01*
X245850Y89500D02*
X246450D01*
X258750D02*
X259250D01*
X245750Y89400D02*
X246450D01*
X258750D02*
X259350D01*
X245650Y89300D02*
X246450D01*
X258850D02*
X259450D01*
X245650Y89200D02*
X246450D01*
X258850D02*
X259450D01*
X245550Y89100D02*
X246350D01*
X258850D02*
X259550D01*
X245450Y89000D02*
X246350D01*
X258850D02*
X259650D01*
X245450Y88900D02*
X246350D01*
X258850D02*
X259650D01*
X245450Y88800D02*
X246350D01*
X258850D02*
X259750D01*
X245450Y88700D02*
X246250D01*
X259050D02*
X259750D01*
X245350Y88600D02*
X246250D01*
X259050D02*
X259850D01*
X245250Y88500D02*
X246250D01*
X259050D02*
X259950D01*
X245250Y88400D02*
X246250D01*
X259050D02*
X259950D01*
X245150Y88300D02*
X246250D01*
X259050D02*
X259950D01*
X245150Y88200D02*
X246250D01*
X259050D02*
X260050D01*
X245050Y88100D02*
X246250D01*
X259050D02*
X260150D01*
X244950Y88000D02*
X246250D01*
X259150D02*
X260150D01*
X244950Y87900D02*
X246250D01*
X259150D02*
X260150D01*
X244950Y87800D02*
X246250D01*
X259150D02*
X260150D01*
X244950Y87700D02*
X246250D01*
X259150D02*
X260150D01*
X244950Y87600D02*
X246250D01*
X259150D02*
X260250D01*
X244950Y87500D02*
X246250D01*
X259150D02*
X260350D01*
X244850Y87400D02*
X246250D01*
X259150D02*
X260350D01*
X244850Y87300D02*
X246250D01*
X259150D02*
X260250D01*
X244850Y87200D02*
X246250D01*
X259150D02*
X260250D01*
X244850Y87100D02*
X246250D01*
X259150D02*
X260250D01*
X244750Y87000D02*
X246250D01*
X259150D02*
X260250D01*
X244750Y86900D02*
X246250D01*
X259150D02*
X260350D01*
X244750Y86800D02*
X246250D01*
X259050D02*
X260350D01*
X244750Y86700D02*
X246250D01*
X259050D02*
X260350D01*
X244750Y86600D02*
X246250D01*
X259050D02*
X260350D01*
X244750Y86500D02*
X246250D01*
X259050D02*
X260350D01*
X244750Y86400D02*
X246250D01*
X259050D02*
X260350D01*
X244750Y86300D02*
X246250D01*
X259150D02*
X260350D01*
X244750Y86200D02*
X246250D01*
X259150D02*
X260350D01*
X244750Y86100D02*
X246250D01*
X259050D02*
X260350D01*
X244650Y86000D02*
X246250D01*
X259050D02*
X260350D01*
X244650Y85900D02*
X246250D01*
X259050D02*
X260350D01*
X244650Y85800D02*
X246250D01*
X259050D02*
X260350D01*
X244650Y85700D02*
X246250D01*
X259050D02*
X260350D01*
X244650Y85600D02*
X246250D01*
X259050D02*
X260350D01*
X244650Y85500D02*
X246250D01*
X259050D02*
X260350D01*
X244650Y85400D02*
X246150D01*
X259050D02*
X260350D01*
X244650Y85300D02*
X246250D01*
X259050D02*
X260350D01*
X244750Y85200D02*
X246250D01*
X258950D02*
X260350D01*
X244750Y85100D02*
X246250D01*
X258950D02*
X260350D01*
X244750Y85000D02*
X246250D01*
X258950D02*
X260350D01*
X244750Y84900D02*
X246250D01*
X258950D02*
X260350D01*
X260750D02*
X260850D01*
X244750Y84800D02*
X246150D01*
X258950D02*
X260350D01*
X260750D02*
X260850D01*
X244750Y84700D02*
X246150D01*
X258950D02*
X260350D01*
X260750D02*
X260850D01*
X244750Y84600D02*
X246150D01*
X258950D02*
X260350D01*
X260750D02*
X260850D01*
X244750Y84500D02*
X246250D01*
X258950D02*
X260350D01*
X244750Y84400D02*
X246250D01*
X258850D02*
X260350D01*
X244750Y84300D02*
X246250D01*
X258850D02*
X260350D01*
X244750Y84200D02*
X246250D01*
X258850D02*
X260350D01*
X244750Y84100D02*
X246250D01*
X258850D02*
X260350D01*
X244750Y84000D02*
X246250D01*
X258850D02*
X260350D01*
X244750Y83900D02*
X246250D01*
X258850D02*
X260350D01*
X244750Y83800D02*
X246350D01*
X258850D02*
X260350D01*
X244750Y83700D02*
X246350D01*
X258750D02*
X260350D01*
X244750Y83600D02*
X246450D01*
X258750D02*
X260350D01*
X244750Y83500D02*
X246450D01*
X258750D02*
X260350D01*
X244750Y83400D02*
X246450D01*
X258650D02*
X260350D01*
X244750Y83300D02*
X246550D01*
X258650D02*
X260350D01*
X244750Y83200D02*
X246650D01*
X258650D02*
X260450D01*
X244750Y83100D02*
X246650D01*
X258550D02*
X260450D01*
X244750Y83000D02*
X246750D01*
X258550D02*
X260450D01*
X244750Y82900D02*
X246750D01*
X258550D02*
X260450D01*
X244750Y82800D02*
X246750D01*
X258550D02*
X260350D01*
X244850Y82700D02*
X246850D01*
X258550D02*
X260350D01*
X244850Y82600D02*
X247050D01*
X258550D02*
X260250D01*
X244850Y82500D02*
X247050D01*
X258450D02*
X260350D01*
X244850Y82400D02*
X247050D01*
X258350D02*
X260350D01*
X244850Y82300D02*
X247050D01*
X256450D02*
X256750D01*
X258350D02*
X260250D01*
X244850Y82200D02*
X247050D01*
X256450D02*
X256750D01*
X258250D02*
X260250D01*
X244850Y82100D02*
X247050D01*
X247250D02*
X247750D01*
X256550D02*
X256750D01*
X258250D02*
X260350D01*
X244850Y82000D02*
X247850D01*
X256050D02*
X256350D01*
X258250D02*
X260350D01*
X244850Y81900D02*
X248050D01*
X255850D02*
X256450D01*
X258150D02*
X260250D01*
X244850Y81800D02*
X248050D01*
X255950D02*
X257050D01*
X258150D02*
X260250D01*
X244950Y81700D02*
X248350D01*
X255450D02*
X255650D01*
X255950D02*
X257050D01*
X258250D02*
X260250D01*
X244950Y81600D02*
X248650D01*
X255450D02*
X255850D01*
X256150D02*
X256950D01*
X257050D02*
X257150D01*
X258250D02*
X260250D01*
X244950Y81500D02*
X248650D01*
X255450D02*
X257250D01*
X258250D02*
X260250D01*
X244950Y81400D02*
X248550D01*
X255450D02*
X257250D01*
X258150D02*
X260250D01*
X244950Y81300D02*
X248450D01*
X255450D02*
X257250D01*
X258150D02*
X260250D01*
X244950Y81200D02*
X248450D01*
X255450D02*
X257250D01*
X258150D02*
X260150D01*
X244950Y81100D02*
X247650D01*
X255650D02*
X257250D01*
X258250D02*
X260050D01*
X244950Y81000D02*
X247550D01*
X255550D02*
X257350D01*
X258250D02*
X260050D01*
X244950Y80900D02*
X247350D01*
X255550D02*
X257350D01*
X258150D02*
X260050D01*
X244950Y80800D02*
X247150D01*
X255650D02*
X257450D01*
X258150D02*
X260050D01*
X244950Y80700D02*
X246050D01*
X246350D02*
X247050D01*
X255550D02*
X257450D01*
X258150D02*
X259950D01*
X244950Y80600D02*
X245750D01*
X255550D02*
X257550D01*
X258150D02*
X259850D01*
X244950Y80500D02*
X245750D01*
X255750D02*
X257550D01*
X258250D02*
X259850D01*
X245050Y80400D02*
X245750D01*
X255750D02*
X257550D01*
X258250D02*
X259850D01*
X245150Y80300D02*
X245750D01*
X255550D02*
X257550D01*
X258350D02*
X259850D01*
X245150Y80200D02*
X245750D01*
X255550D02*
X257650D01*
X258350D02*
X259850D01*
X245250Y80100D02*
X245850D01*
X255450D02*
X257650D01*
X258350D02*
X259750D01*
X245250Y80000D02*
X245850D01*
X255350D02*
X257750D01*
X258250D02*
X259750D01*
X245250Y79900D02*
X245850D01*
X255250D02*
X257850D01*
X258250D02*
X259650D01*
X245250Y79800D02*
X245850D01*
X255050D02*
X257850D01*
X258050D02*
X259650D01*
X245250Y79700D02*
X245950D01*
X254950D02*
X257950D01*
X258050D02*
X259550D01*
X245250Y79600D02*
X245950D01*
X252650D02*
X253950D01*
X254950D02*
X259550D01*
X245250Y79500D02*
X245950D01*
X252550D02*
X254350D01*
X254750D02*
X259550D01*
X245250Y79400D02*
X246050D01*
X252450D02*
X259550D01*
X245250Y79300D02*
X246050D01*
X252250D02*
X259550D01*
X245350Y79200D02*
X246150D01*
X252050D02*
X259450D01*
X245350Y79100D02*
X246250D01*
X251750D02*
X259450D01*
X245350Y79000D02*
X246350D01*
X251650D02*
X259350D01*
X245450Y78900D02*
X246350D01*
X251450D02*
X259350D01*
X245450Y78800D02*
X246350D01*
X246550D02*
X246750D01*
X251450D02*
X259350D01*
X245450Y78700D02*
X246350D01*
X246450D02*
X246750D01*
X251150D02*
X259250D01*
X245450Y78600D02*
X246350D01*
X246450D02*
X246750D01*
X251050D02*
X259250D01*
X245450Y78500D02*
X246850D01*
X250750D02*
X259250D01*
X245450Y78400D02*
X246750D01*
X250650D02*
X259150D01*
X245550Y78300D02*
X246750D01*
X250550D02*
X259150D01*
X245550Y78200D02*
X246650D01*
X250450D02*
X259150D01*
X245650Y78100D02*
X246650D01*
X250450D02*
X259050D01*
X245650Y78000D02*
X246650D01*
X250450D02*
X259050D01*
X245650Y77900D02*
X246650D01*
X250350D02*
X258950D01*
X245750Y77800D02*
X246550D01*
X250350D02*
X258950D01*
X245750Y77700D02*
X246650D01*
X250250D02*
X258850D01*
X245750Y77600D02*
X246650D01*
X250150D02*
X258850D01*
X245750Y77500D02*
X246650D01*
X250150D02*
X258850D01*
X245850Y77400D02*
X246650D01*
X250150D02*
X258750D01*
X245850Y77300D02*
X246650D01*
X250150D02*
X258650D01*
X245850Y77200D02*
X246650D01*
X250250D02*
X258650D01*
X245950Y77100D02*
X246650D01*
X250350D02*
X258750D01*
X245950Y77000D02*
X246650D01*
X250350D02*
X258850D01*
X245950Y76900D02*
X246650D01*
X250350D02*
X258850D01*
X245950Y76800D02*
X246650D01*
X250350D02*
X258650D01*
X244650Y76700D02*
X245550D01*
X245950D02*
X246650D01*
X250350D02*
X259150D01*
X244550Y76600D02*
X245850D01*
X245950D02*
X246650D01*
X250250D02*
X259250D01*
X244550Y76500D02*
X246750D01*
X250250D02*
X259250D01*
X244550Y76400D02*
X246750D01*
X250250D02*
X259250D01*
X244550Y76300D02*
X246750D01*
X250250D02*
X259250D01*
X244550Y76200D02*
X246850D01*
X250150D02*
X259250D01*
X244550Y76100D02*
X246850D01*
X250150D02*
X259250D01*
X244550Y76000D02*
X246950D01*
X250150D02*
X259350D01*
X244450Y75900D02*
X247150D01*
X250150D02*
X259350D01*
X244150Y75800D02*
X244350D01*
X244450D02*
X247250D01*
X250050D02*
X259450D01*
X244150Y75700D02*
X244350D01*
X244550D02*
X247450D01*
X249950D02*
X259450D01*
X244150Y75600D02*
X244450D01*
X244550D02*
X247650D01*
X249850D02*
X259550D01*
X244150Y75500D02*
X247850D01*
X249750D02*
X259550D01*
X244450Y75400D02*
X245350D01*
X245750D02*
X248150D01*
X249750D02*
X259650D01*
X244450Y75300D02*
X245250D01*
X245950D02*
X248450D01*
X249750D02*
X259750D01*
X244550Y75200D02*
X245250D01*
X246450D02*
X248650D01*
X249650D02*
X259750D01*
X243950Y75100D02*
X244150D01*
X244550D02*
X245250D01*
X246650D02*
X248750D01*
X249050D02*
X249150D01*
X249550D02*
X259750D01*
X244050Y75000D02*
X244150D01*
X244350D02*
X245250D01*
X246950D02*
X249250D01*
X249450D02*
X259750D01*
X244250Y74900D02*
X245350D01*
X247250D02*
X259650D01*
X244150Y74800D02*
X244350D01*
X244550D02*
X245350D01*
X247450D02*
X257550D01*
X258250D02*
X259650D01*
X244150Y74700D02*
X244450D01*
X244750D02*
X245350D01*
X247750D02*
X257050D01*
X258450D02*
X259850D01*
X244250Y74600D02*
X244450D01*
X244750D02*
X245350D01*
X247850D02*
X256550D01*
X258450D02*
X260050D01*
X244450Y74500D02*
X244650D01*
X244750D02*
X245450D01*
X248050D02*
X256150D01*
X258450D02*
X260150D01*
X244450Y74400D02*
X245550D01*
X248250D02*
X255750D01*
X258450D02*
X260150D01*
X244450Y74300D02*
X245550D01*
X248450D02*
X255550D01*
X258350D02*
X260050D01*
X244450Y74200D02*
X245550D01*
X248650D02*
X255250D01*
X258250D02*
X259950D01*
X244750Y74100D02*
X245650D01*
X248750D02*
X254950D01*
X258250D02*
X259950D01*
X244850Y74000D02*
X245650D01*
X248950D02*
X254750D01*
X258150D02*
X259750D01*
X260550D02*
X260750D01*
X244850Y73900D02*
X245750D01*
X249150D02*
X254450D01*
X258050D02*
X259650D01*
X260550D02*
X260750D01*
X244950Y73800D02*
X245850D01*
X249250D02*
X254250D01*
X258050D02*
X259550D01*
X260450D02*
X260850D01*
X245050Y73700D02*
X245850D01*
X249350D02*
X254050D01*
X258050D02*
X259450D01*
X260250D02*
X260850D01*
X245150Y73600D02*
X245950D01*
X249450D02*
X253850D01*
X257950D02*
X259350D01*
X260250D02*
X260850D01*
X245250Y73500D02*
X246050D01*
X249450D02*
X253750D01*
X257850D02*
X259150D01*
X260250D02*
X260950D01*
X245350Y73400D02*
X246050D01*
X249550D02*
X253650D01*
X257850D02*
X259050D01*
X260150D02*
X261050D01*
X245550Y73300D02*
X246150D01*
X249450D02*
X253750D01*
X257750D02*
X258850D01*
X260150D02*
X261150D01*
X261450D02*
X261550D01*
X245650Y73200D02*
X246250D01*
X249250D02*
X253850D01*
X257650D02*
X258650D01*
X260150D02*
X261150D01*
X261450D02*
X261550D01*
X245750Y73100D02*
X246250D01*
X248950D02*
X254050D01*
X257450D02*
X258550D01*
X260050D02*
X261250D01*
X261450D02*
X261550D01*
X245950Y73000D02*
X246450D01*
X248450D02*
X254250D01*
X257350D02*
X258250D01*
X259950D02*
X261250D01*
X261450D02*
X261550D01*
X243550Y72900D02*
X243750D01*
X246150D02*
X246550D01*
X248150D02*
X254450D01*
X257250D02*
X258050D01*
X259850D02*
X261250D01*
X261450D02*
X261550D01*
X246850Y72800D02*
X254650D01*
X257050D02*
X257850D01*
X259750D02*
X261250D01*
X246750Y72700D02*
X254950D01*
X257050D02*
X257650D01*
X259750D02*
X261350D01*
X247650Y72600D02*
X255950D01*
X256850D02*
X257550D01*
X259650D02*
X261650D01*
X249050Y72500D02*
X257350D01*
X259650D02*
X261650D01*
X249450Y72400D02*
X257150D01*
X259650D02*
X261550D01*
X249850Y72300D02*
X256750D01*
X259650D02*
X261550D01*
X249850Y72200D02*
X256450D01*
X259650D02*
X261550D01*
X249950Y72100D02*
X254250D01*
X259650D02*
X261550D01*
X250050Y72000D02*
X253450D01*
X259750D02*
X261550D01*
X250150Y71900D02*
X253350D01*
X259750D02*
X261450D01*
X250150Y71800D02*
X253150D01*
X259750D02*
X261450D01*
X250150Y71700D02*
X253050D01*
X259750D02*
X261350D01*
X250250Y71600D02*
X253050D01*
X259750D02*
X261350D01*
X250250Y71500D02*
X252950D01*
X259750D02*
X261350D01*
X250350Y71400D02*
X252950D01*
X259750D02*
X261350D01*
X250350Y71300D02*
X252950D01*
X259850D02*
X261250D01*
X250350Y71200D02*
X252950D01*
X259850D02*
X261250D01*
X250350Y71100D02*
X252950D01*
X259850D02*
X261250D01*
X250350Y71000D02*
X252850D01*
X259850D02*
X261250D01*
X250350Y70900D02*
X252850D01*
X259950D02*
X261150D01*
X250450Y70800D02*
X252750D01*
X259950D02*
X261150D01*
X250550Y70700D02*
X252750D01*
X259950D02*
X261050D01*
X250550Y70600D02*
X252650D01*
X259950D02*
X261050D01*
X250650Y70500D02*
X252550D01*
X259950D02*
X261050D01*
X250650Y70400D02*
X252450D01*
X259950D02*
X260950D01*
X250850Y70300D02*
X252350D01*
X259950D02*
X260950D01*
X251150Y70200D02*
X251950D01*
X259950D02*
X260850D01*
X251250Y70100D02*
X251850D01*
X259950D02*
X260850D01*
X251350Y70000D02*
X251750D01*
X260050D02*
X260850D01*
X260050Y69900D02*
X260850D01*
X260050Y69800D02*
X260750D01*
X259950Y69700D02*
X260750D01*
X259950Y69600D02*
X260650D01*
X259950Y69500D02*
X260650D01*
X259950Y69400D02*
X260550D01*
X259950Y69300D02*
X260550D01*
X259950Y69200D02*
X260550D01*
X259950Y69100D02*
X260450D01*
X259850Y69000D02*
X260350D01*
X259850Y68900D02*
X260350D01*
X259750Y68800D02*
X260250D01*
X259750Y68700D02*
X260250D01*
X259750Y68600D02*
X260150D01*
X259750Y68500D02*
X260150D01*
X259650Y68400D02*
X260050D01*
X259550Y68300D02*
X260050D01*
X259550Y68200D02*
X259950D01*
X259550Y68100D02*
X259950D01*
X259450Y68000D02*
X259850D01*
X259350Y67900D02*
X259750D01*
X259350Y67800D02*
X259650D01*
X259250Y67700D02*
X259650D01*
X259250Y67600D02*
X259550D01*
X259150Y67500D02*
X259450D01*
X259050Y67400D02*
X259350D01*
X251350Y67300D02*
X251550D01*
X259050D02*
X259250D01*
X251350Y67200D02*
X251650D01*
X259050D02*
X259250D01*
X251350Y67100D02*
X251550D01*
X258850D02*
X259150D01*
X258750Y67000D02*
X259150D01*
X245350Y66900D02*
X245550D01*
X258750D02*
X259050D01*
X245350Y66800D02*
X245650D01*
X258550D02*
X259050D01*
X245350Y66700D02*
X245750D01*
X258550D02*
X258950D01*
X245450Y66600D02*
X245850D01*
X258350D02*
X258950D01*
X245550Y66500D02*
X246050D01*
X258250D02*
X258850D01*
X245650Y66400D02*
X246150D01*
X258250D02*
X258750D01*
X245650Y66300D02*
X246450D01*
X258050D02*
X258750D01*
X245850Y66200D02*
X246650D01*
X258050D02*
X258650D01*
X245950Y66100D02*
X246750D01*
X257950D02*
X258550D01*
X246050Y66000D02*
X247750D01*
X257850D02*
X258450D01*
X246150Y65900D02*
X247950D01*
X257750D02*
X258350D01*
X246150Y65800D02*
X248850D01*
X256850D02*
X258250D01*
X244250Y65700D02*
X244350D01*
X246050D02*
X249150D01*
X256350D02*
X257950D01*
X243950Y65600D02*
X245550D01*
X246050D02*
X249050D01*
X249450D02*
X257950D01*
X243750Y65500D02*
X245650D01*
X246250D02*
X248750D01*
X249050D02*
X257250D01*
X258050D02*
X258150D01*
X259150D02*
X259550D01*
X243750Y65400D02*
X245650D01*
X246250D02*
X257750D01*
X258050D02*
X258150D01*
X259050D02*
X259550D01*
X243750Y65300D02*
X245650D01*
X246250D02*
X257850D01*
X259050D02*
X259550D01*
X243650Y65200D02*
X246050D01*
X246250D02*
X252450D01*
X252550D02*
X257850D01*
X258950D02*
X259650D01*
X243550Y65100D02*
X252150D01*
X253550D02*
X257950D01*
X258850D02*
X259750D01*
X243350Y65000D02*
X251950D01*
X253850D02*
X257850D01*
X258750D02*
X259750D01*
X243150Y64900D02*
X251850D01*
X253950D02*
X257850D01*
X258650D02*
X259850D01*
X242950Y64800D02*
X251650D01*
X254150D02*
X257950D01*
X258250D02*
X260250D01*
X242950Y64700D02*
X251650D01*
X254250D02*
X260250D01*
X242850Y64600D02*
X251650D01*
X254250D02*
X260350D01*
X242850Y64500D02*
X251550D01*
X254250D02*
X260450D01*
X242750Y64400D02*
X251550D01*
X254450D02*
X260550D01*
X242450Y64300D02*
X251450D01*
X253450D02*
X253650D01*
X254550D02*
X260850D01*
X260950D02*
X261050D01*
X242250Y64200D02*
X251550D01*
X252750D02*
X253850D01*
X254550D02*
X261250D01*
X242050Y64100D02*
X251550D01*
X252450D02*
X254050D01*
X254550D02*
X261250D01*
X241950Y64000D02*
X251550D01*
X252450D02*
X254150D01*
X254450D02*
X261350D01*
X241850Y63900D02*
X251650D01*
X251850D02*
X261350D01*
X241850Y63800D02*
X251650D01*
X251750D02*
X252550D01*
X253250D02*
X261250D01*
X261350D02*
X261550D01*
X241850Y63700D02*
X252250D01*
X253650D02*
X261550D01*
X241750Y63600D02*
X252050D01*
X253950D02*
X261650D01*
X241750Y63500D02*
X251950D01*
X254050D02*
X261650D01*
X241550Y63400D02*
X251850D01*
X254150D02*
X261850D01*
X241450Y63300D02*
X251850D01*
X254150D02*
X261950D01*
X241250Y63200D02*
X251850D01*
X254150D02*
X261950D01*
X241050Y63100D02*
X251950D01*
X254050D02*
X262050D01*
X240950Y63000D02*
X251950D01*
X253950D02*
X261950D01*
X240850Y62900D02*
X252050D01*
X253850D02*
X261850D01*
X240850Y62800D02*
X252250D01*
X253750D02*
X262050D01*
X240850Y62700D02*
X252350D01*
X253650D02*
X262250D01*
X240850Y62600D02*
X252650D01*
X253350D02*
X262350D01*
X240850Y62500D02*
X262550D01*
X240650Y62400D02*
X240750D01*
X241050D02*
X263050D01*
X240550Y62300D02*
X263250D01*
X240250Y62200D02*
X263350D01*
X240150Y62100D02*
X263350D01*
X240150Y62000D02*
X263250D01*
X240150Y61900D02*
X247950D01*
X249050D02*
X263050D01*
X240150Y61800D02*
X247450D01*
X249150D02*
X263050D01*
X240050Y61700D02*
X247250D01*
X249150D02*
X263050D01*
X239950Y61600D02*
X246050D01*
X246450D02*
X247150D01*
X249250D02*
X257850D01*
X258050D02*
X258550D01*
X258650D02*
X263050D01*
X239950Y61500D02*
X245650D01*
X246550D02*
X247150D01*
X249250D02*
X257850D01*
X258950D02*
X263050D01*
X239950Y61400D02*
X245450D01*
X246550D02*
X247050D01*
X249250D02*
X258050D01*
X259050D02*
X263050D01*
X239950Y61300D02*
X245250D01*
X246550D02*
X247050D01*
X249150D02*
X258150D01*
X259150D02*
X262250D01*
X262550D02*
X263050D01*
X239950Y61200D02*
X241250D01*
X242450D02*
X245250D01*
X246550D02*
X247050D01*
X248950D02*
X258150D01*
X259250D02*
X262350D01*
X262650D02*
X262750D01*
X239950Y61100D02*
X240850D01*
X242450D02*
X245150D01*
X246550D02*
X247050D01*
X248250D02*
X258250D01*
X259250D02*
X262350D01*
X240050Y61000D02*
X240850D01*
X242550D02*
X245050D01*
X246550D02*
X247050D01*
X247750D02*
X258350D01*
X259250D02*
X262550D01*
X240050Y60900D02*
X240750D01*
X242450D02*
X245050D01*
X246550D02*
X247050D01*
X247650D02*
X258350D01*
X259250D02*
X262550D01*
X240050Y60800D02*
X240650D01*
X242050D02*
X245050D01*
X246550D02*
X246950D01*
X247050D02*
X258450D01*
X259150D02*
X262550D01*
X240050Y60700D02*
X240650D01*
X241950D02*
X245050D01*
X246550D02*
X246950D01*
X247050D02*
X258450D01*
X259150D02*
X262550D01*
X240050Y60600D02*
X240650D01*
X241950D02*
X245050D01*
X246550D02*
X258450D01*
X259150D02*
X262550D01*
X240050Y60500D02*
X240550D01*
X241850D02*
X245150D01*
X246550D02*
X246950D01*
X247150D02*
X247550D01*
X248850D02*
X258450D01*
X259150D02*
X262650D01*
X240050Y60400D02*
X240550D01*
X241750D02*
X245150D01*
X246650D02*
X246950D01*
X249050D02*
X258450D01*
X259150D02*
X262750D01*
X240150Y60300D02*
X240550D01*
X241550D02*
X245150D01*
X246650D02*
X246850D01*
X249250D02*
X256750D01*
X256950D02*
X257350D01*
X257750D02*
X258450D01*
X259150D02*
X262750D01*
X263450D02*
X263550D01*
X240150Y60200D02*
X240550D01*
X241250D02*
X245250D01*
X249350D02*
X256650D01*
X258050D02*
X258350D01*
X259150D02*
X262750D01*
X263150D02*
X263650D01*
X240150Y60100D02*
X240550D01*
X241050D02*
X245250D01*
X249450D02*
X256550D01*
X259050D02*
X262950D01*
X263050D02*
X263650D01*
X240350Y60000D02*
X240450D01*
X241050D02*
X245350D01*
X249550D02*
X256250D01*
X256350D02*
X256750D01*
X257050D02*
X257150D01*
X259050D02*
X263650D01*
X241150Y59900D02*
X245450D01*
X249550D02*
X256750D01*
X257050D02*
X257250D01*
X258950D02*
X263650D01*
X241150Y59800D02*
X245450D01*
X249650D02*
X256750D01*
X258950D02*
X263650D01*
X241150Y59700D02*
X245450D01*
X249650D02*
X250650D01*
X250850D02*
X256650D01*
X258950D02*
X263650D01*
X241150Y59600D02*
X245550D01*
X249750D02*
X251050D01*
X251150D02*
X256550D01*
X258850D02*
X263650D01*
X241150Y59500D02*
X245650D01*
X249850D02*
X250950D01*
X251350D02*
X256050D01*
X256550D02*
X256850D01*
X258850D02*
X263750D01*
X241150Y59400D02*
X245650D01*
X250150D02*
X250450D01*
X250550D02*
X250950D01*
X251450D02*
X256050D01*
X258750D02*
X263750D01*
X240750Y59300D02*
X241050D01*
X241150D02*
X245850D01*
X251050D02*
X251150D01*
X251550D02*
X256050D01*
X256250D02*
X256450D01*
X258650D02*
X263750D01*
X240650Y59200D02*
X241050D01*
X241150D02*
X245950D01*
X250850D02*
X251250D01*
X251550D02*
X255050D01*
X255150D02*
X255950D01*
X256150D02*
X256550D01*
X258650D02*
X263750D01*
X240650Y59100D02*
X245950D01*
X250650D02*
X255750D01*
X256150D02*
X256550D01*
X258650D02*
X263750D01*
X240550Y59000D02*
X246050D01*
X250550D02*
X255750D01*
X256150D02*
X256550D01*
X258550D02*
X263750D01*
X240450Y58900D02*
X246150D01*
X250350D02*
X255850D01*
X256250D02*
X256350D01*
X258550D02*
X263750D01*
X240350Y58800D02*
X245550D01*
X245850D02*
X246350D01*
X250150D02*
X256250D01*
X258450D02*
X263850D01*
X240350Y58700D02*
X245550D01*
X245950D02*
X246350D01*
X249950D02*
X251950D01*
X252050D02*
X256450D01*
X258450D02*
X263950D01*
X240350Y58600D02*
X245550D01*
X249450D02*
X251950D01*
X252050D02*
X253350D01*
X253450D02*
X253750D01*
X253850D02*
X256550D01*
X258450D02*
X263850D01*
X240250Y58500D02*
X245550D01*
X249050D02*
X251850D01*
X252050D02*
X252350D01*
X252450D02*
X253850D01*
X253950D02*
X256950D01*
X258350D02*
X263850D01*
X240250Y58400D02*
X245550D01*
X248450D02*
X251350D01*
X252050D02*
X252250D01*
X252450D02*
X257250D01*
X258350D02*
X263950D01*
X240150Y58300D02*
X245650D01*
X246950D02*
X247550D01*
X247650D02*
X250750D01*
X252050D02*
X252350D01*
X252450D02*
X257450D01*
X258450D02*
X263950D01*
X240150Y58200D02*
X245650D01*
X247250D02*
X250750D01*
X251650D02*
X251850D01*
X252050D02*
X252250D01*
X252450D02*
X254850D01*
X254950D02*
X257550D01*
X257750D02*
X257950D01*
X258250D02*
X258350D01*
X258450D02*
X263950D01*
X240150Y58100D02*
X245750D01*
X247250D02*
X249550D01*
X249850D02*
X250850D01*
X251550D02*
X251850D01*
X252250D02*
X252350D01*
X252450D02*
X254350D01*
X254750D02*
X258350D01*
X258450D02*
X263950D01*
X240150Y58000D02*
X241150D01*
X241250D02*
X245750D01*
X247350D02*
X249150D01*
X250150D02*
X250950D01*
X251550D02*
X251850D01*
X251950D02*
X252350D01*
X252450D02*
X257850D01*
X258050D02*
X263950D01*
X240150Y57900D02*
X241150D01*
X241250D02*
X245750D01*
X250350D02*
X251050D01*
X251550D02*
X251850D01*
X251950D02*
X252350D01*
X252450D02*
X256850D01*
X258050D02*
X263850D01*
X240050Y57800D02*
X241050D01*
X241250D02*
X245850D01*
X246550D02*
X246750D01*
X250350D02*
X251050D01*
X251650D02*
X255750D01*
X255850D02*
X256350D01*
X258050D02*
X263950D01*
X240050Y57700D02*
X241050D01*
X241250D02*
X245950D01*
X246550D02*
X246750D01*
X250450D02*
X251150D01*
X251650D02*
X255750D01*
X255850D02*
X256250D01*
X258050D02*
X263950D01*
X240150Y57600D02*
X241050D01*
X241250D02*
X245950D01*
X246650D02*
X246750D01*
X250450D02*
X251250D01*
X252450D02*
X252850D01*
X252950D02*
X255650D01*
X255750D02*
X256250D01*
X257850D02*
X263950D01*
X240150Y57500D02*
X241050D01*
X241250D02*
X245950D01*
X250550D02*
X251350D01*
X252450D02*
X252850D01*
X252950D02*
X255650D01*
X255750D02*
X256150D01*
X257950D02*
X263950D01*
X240150Y57400D02*
X241050D01*
X241250D02*
X245850D01*
X250650D02*
X251450D01*
X252450D02*
X252850D01*
X252950D02*
X255650D01*
X255750D02*
X255950D01*
X258150D02*
X263950D01*
X240050Y57300D02*
X241050D01*
X241250D02*
X245850D01*
X250650D02*
X251550D01*
X251850D02*
X252050D01*
X252350D02*
X255050D01*
X255150D02*
X256250D01*
X258150D02*
X263950D01*
X240050Y57200D02*
X241050D01*
X241150D02*
X245850D01*
X250750D02*
X251550D01*
X251850D02*
X252150D01*
X252250D02*
X255050D01*
X255150D02*
X255550D01*
X255750D02*
X256150D01*
X258150D02*
X264050D01*
X240050Y57100D02*
X245850D01*
X250850D02*
X251550D01*
X251850D02*
X252150D01*
X252250D02*
X255650D01*
X255750D02*
X256150D01*
X258150D02*
X264050D01*
X239950Y57000D02*
X245150D01*
X245350D02*
X245650D01*
X250850D02*
X251650D01*
X251750D02*
X252150D01*
X252250D02*
X256150D01*
X258050D02*
X264150D01*
X239950Y56900D02*
X245050D01*
X250850D02*
X251650D01*
X251750D02*
X252050D01*
X252250D02*
X256250D01*
X257950D02*
X264250D01*
X239850Y56800D02*
X244950D01*
X250950D02*
X251650D01*
X251750D02*
X252150D01*
X252250D02*
X256150D01*
X257950D02*
X258250D01*
X258850D02*
X264250D01*
X239750Y56700D02*
X244950D01*
X250950D02*
X251650D01*
X251750D02*
X256050D01*
X258050D02*
X258250D01*
X258950D02*
X264250D01*
X239850Y56600D02*
X244950D01*
X250950D02*
X256450D01*
X258050D02*
X258350D01*
X258950D02*
X264050D01*
X239850Y56500D02*
X244950D01*
X246250D02*
X246350D01*
X250950D02*
X256750D01*
X258050D02*
X258450D01*
X259050D02*
X264150D01*
X239150Y56400D02*
X239550D01*
X239850D02*
X244850D01*
X246050D02*
X246550D01*
X250950D02*
X256650D01*
X258050D02*
X258550D01*
X259050D02*
X264050D01*
X239150Y56300D02*
X239550D01*
X239850D02*
X244850D01*
X246150D02*
X246550D01*
X250950D02*
X256650D01*
X257950D02*
X258550D01*
X259050D02*
X264050D01*
X239850Y56200D02*
X244850D01*
X250950D02*
X256550D01*
X257850D02*
X258350D01*
X259050D02*
X264150D01*
X239850Y56100D02*
X244850D01*
X250950D02*
X256450D01*
X257850D02*
X258250D01*
X259150D02*
X264050D01*
X239150Y56000D02*
X239350D01*
X239850D02*
X244850D01*
X250750D02*
X255950D01*
X259150D02*
X264050D01*
X239150Y55900D02*
X239350D01*
X239850D02*
X244750D01*
X250750D02*
X255950D01*
X259150D02*
X263950D01*
X239150Y55800D02*
X239250D01*
X239850D02*
X240650D01*
X240750D02*
X244750D01*
X251150D02*
X254150D01*
X259150D02*
X263950D01*
X239150Y55700D02*
X239250D01*
X239750D02*
X240650D01*
X240750D02*
X244750D01*
X251350D02*
X253950D01*
X259150D02*
X263950D01*
X239150Y55600D02*
X239250D01*
X239750D02*
X244750D01*
X251750D02*
X253950D01*
X259050D02*
X264050D01*
X239750Y55500D02*
X244850D01*
X249450D02*
X249650D01*
X252150D02*
X252350D01*
X259050D02*
X264050D01*
X239750Y55400D02*
X244850D01*
X249450D02*
X249650D01*
X258950D02*
X261050D01*
X261350D02*
X264050D01*
X239750Y55300D02*
X244850D01*
X258950D02*
X260950D01*
X261550D02*
X264050D01*
X239750Y55200D02*
X244850D01*
X258450D02*
X258750D01*
X258950D02*
X260850D01*
X261650D02*
X264150D01*
X239650Y55100D02*
X244850D01*
X246150D02*
X246250D01*
X258350D02*
X258750D01*
X258950D02*
X260750D01*
X261650D02*
X264150D01*
X239550Y55000D02*
X244850D01*
X246050D02*
X246450D01*
X258350D02*
X258550D01*
X258950D02*
X260650D01*
X261650D02*
X264050D01*
X239150Y54900D02*
X239250D01*
X239550D02*
X242750D01*
X242850D02*
X244850D01*
X245950D02*
X246550D01*
X258350D02*
X258550D01*
X258950D02*
X260650D01*
X261750D02*
X263850D01*
X239050Y54800D02*
X239350D01*
X239550D02*
X242650D01*
X242850D02*
X244850D01*
X246050D02*
X246550D01*
X251650D02*
X252050D01*
X253350D02*
X253750D01*
X258950D02*
X260650D01*
X261750D02*
X263850D01*
X238950Y54700D02*
X239350D01*
X239550D02*
X242550D01*
X242850D02*
X244850D01*
X246250D02*
X246450D01*
X248050D02*
X248150D01*
X251550D02*
X252150D01*
X253250D02*
X253750D01*
X256850D02*
X257350D01*
X258950D02*
X260550D01*
X261850D02*
X263850D01*
X239050Y54600D02*
X239350D01*
X239650D02*
X242550D01*
X242850D02*
X244850D01*
X246350D02*
X246450D01*
X247850D02*
X248450D01*
X251550D02*
X252150D01*
X253250D02*
X253750D01*
X256450D02*
X257350D01*
X258950D02*
X260550D01*
X261850D02*
X263850D01*
X239150Y54500D02*
X239250D01*
X239550D02*
X242550D01*
X242850D02*
X244850D01*
X247850D02*
X248950D01*
X251550D02*
X252150D01*
X253250D02*
X253750D01*
X256250D02*
X257250D01*
X258950D02*
X260650D01*
X261950D02*
X263750D01*
X239650Y54400D02*
X242550D01*
X242850D02*
X244950D01*
X247850D02*
X248950D01*
X251550D02*
X252150D01*
X253250D02*
X253750D01*
X256250D02*
X257250D01*
X258950D02*
X260650D01*
X261950D02*
X263750D01*
X236950Y54300D02*
X237350D01*
X239650D02*
X242550D01*
X242850D02*
X244950D01*
X247950D02*
X248850D01*
X251550D02*
X252150D01*
X253250D02*
X253750D01*
X256250D02*
X256850D01*
X258750D02*
X260650D01*
X262050D02*
X263750D01*
X236750Y54200D02*
X237750D01*
X240050D02*
X242450D01*
X242750D02*
X244950D01*
X248150D02*
X248550D01*
X251550D02*
X252150D01*
X253250D02*
X253750D01*
X256250D02*
X256750D01*
X258550D02*
X260650D01*
X262150D02*
X263650D01*
X236750Y54100D02*
X237950D01*
X240150D02*
X242350D01*
X242750D02*
X244950D01*
X248250D02*
X248450D01*
X251550D02*
X252150D01*
X253250D02*
X253750D01*
X256350D02*
X256650D01*
X258550D02*
X260750D01*
X262250D02*
X263650D01*
X236550Y54000D02*
X238150D01*
X240150D02*
X242350D01*
X242650D02*
X245350D01*
X251550D02*
X252150D01*
X253250D02*
X253750D01*
X256450D02*
X256650D01*
X258450D02*
X260750D01*
X262750D02*
X263550D01*
X236550Y53900D02*
X238250D01*
X240350D02*
X242250D01*
X242650D02*
X245350D01*
X251550D02*
X252150D01*
X253250D02*
X253750D01*
X258450D02*
X260750D01*
X236550Y53800D02*
X238350D01*
X240350D02*
X242050D01*
X242650D02*
X245150D01*
X251550D02*
X252150D01*
X253250D02*
X253750D01*
X258450D02*
X260850D01*
X236450Y53700D02*
X238550D01*
X240450D02*
X241950D01*
X242550D02*
X245150D01*
X251550D02*
X252150D01*
X253250D02*
X253750D01*
X258450D02*
X260850D01*
X236450Y53600D02*
X238650D01*
X240550D02*
X241550D01*
X242450D02*
X245050D01*
X251550D02*
X252150D01*
X253250D02*
X253750D01*
X258450D02*
X260950D01*
X236450Y53500D02*
X238850D01*
X240550D02*
X241250D01*
X242450D02*
X244950D01*
X251550D02*
X252150D01*
X253250D02*
X253750D01*
X258450D02*
X261050D01*
X265750D02*
X266750D01*
X236350Y53400D02*
X239050D01*
X242250D02*
X244950D01*
X251650D02*
X252050D01*
X253250D02*
X253750D01*
X258550D02*
X261250D01*
X265650D02*
X266950D01*
X236350Y53300D02*
X239150D01*
X242150D02*
X244950D01*
X258150D02*
X258350D01*
X258650D02*
X261450D01*
X262750D02*
X263050D01*
X265350D02*
X267050D01*
X236350Y53200D02*
X239250D01*
X242050D02*
X244850D01*
X257350D02*
X257650D01*
X258050D02*
X258350D01*
X258650D02*
X261550D01*
X262650D02*
X263150D01*
X265150D02*
X267150D01*
X233250Y53100D02*
X233950D01*
X236250D02*
X239350D01*
X241850D02*
X244850D01*
X249750D02*
X250550D01*
X254250D02*
X255450D01*
X257150D02*
X257750D01*
X258050D02*
X258350D01*
X258650D02*
X261850D01*
X262550D02*
X263050D01*
X264950D02*
X267150D01*
X232950Y53000D02*
X234650D01*
X236250D02*
X239450D01*
X241650D02*
X244750D01*
X249650D02*
X251050D01*
X254050D02*
X255650D01*
X256550D02*
X257850D01*
X258650D02*
X262950D01*
X264650D02*
X267250D01*
X232850Y52900D02*
X234850D01*
X236350D02*
X239650D01*
X241250D02*
X244650D01*
X249550D02*
X251150D01*
X254050D02*
X255750D01*
X256350D02*
X257950D01*
X258750D02*
X262950D01*
X264550D02*
X267350D01*
X269750D02*
X270250D01*
X232750Y52800D02*
X235350D01*
X236550D02*
X239750D01*
X240950D02*
X244550D01*
X248550D02*
X251350D01*
X251450D02*
X251850D01*
X252050D02*
X257950D01*
X258850D02*
X262350D01*
X264350D02*
X267350D01*
X269350D02*
X270450D01*
X232750Y52700D02*
X235550D01*
X236950D02*
X239750D01*
X240950D02*
X244450D01*
X248450D02*
X257950D01*
X258950D02*
X262250D01*
X264250D02*
X267450D01*
X269250D02*
X270450D01*
X232650Y52600D02*
X235950D01*
X237150D02*
X239750D01*
X240950D02*
X244450D01*
X248150D02*
X257950D01*
X258950D02*
X261950D01*
X264050D02*
X267450D01*
X268850D02*
X270550D01*
X232650Y52500D02*
X236250D01*
X238250D02*
X238350D01*
X238650D02*
X238850D01*
X240950D02*
X244350D01*
X248150D02*
X258050D01*
X259150D02*
X261850D01*
X263750D02*
X267450D01*
X268550D02*
X270650D01*
X232650Y52400D02*
X236550D01*
X240950D02*
X244250D01*
X247750D02*
X258250D01*
X259150D02*
X261850D01*
X263550D02*
X267450D01*
X268250D02*
X270750D01*
X230350Y52300D02*
X231050D01*
X232650D02*
X236650D01*
X240950D02*
X244050D01*
X247750D02*
X258250D01*
X259150D02*
X261850D01*
X263250D02*
X267350D01*
X267750D02*
X270750D01*
X230250Y52200D02*
X231350D01*
X232650D02*
X236950D01*
X240950D02*
X244050D01*
X247750D02*
X258250D01*
X259250D02*
X261850D01*
X263150D02*
X270850D01*
X230050Y52100D02*
X232150D01*
X232750D02*
X237250D01*
X240950D02*
X244050D01*
X247650D02*
X258250D01*
X259250D02*
X261850D01*
X262950D02*
X270950D01*
X230050Y52000D02*
X237350D01*
X240850D02*
X243950D01*
X247550D02*
X258250D01*
X259350D02*
X261850D01*
X262850D02*
X271050D01*
X230050Y51900D02*
X237550D01*
X240850D02*
X243850D01*
X247350D02*
X258250D01*
X259450D02*
X261950D01*
X262450D02*
X262650D01*
X262750D02*
X265450D01*
X265850D02*
X271150D01*
X230050Y51800D02*
X234250D01*
X235050D02*
X237550D01*
X240850D02*
X243750D01*
X247350D02*
X258350D01*
X259450D02*
X261950D01*
X262450D02*
X262650D01*
X262750D02*
X265150D01*
X265950D02*
X271250D01*
X230050Y51700D02*
X234850D01*
X236550D02*
X237550D01*
X240850D02*
X243750D01*
X247250D02*
X258450D01*
X259550D02*
X261950D01*
X262450D02*
X262650D01*
X263350D02*
X264250D01*
X265450D02*
X271350D01*
X229950Y51600D02*
X234850D01*
X240850D02*
X243750D01*
X247150D02*
X258450D01*
X259650D02*
X261950D01*
X265350D02*
X271450D01*
X229950Y51500D02*
X235450D01*
X240750D02*
X243650D01*
X247150D02*
X258450D01*
X259650D02*
X261950D01*
X265050D02*
X271550D01*
X229950Y51400D02*
X236150D01*
X240750D02*
X243650D01*
X247150D02*
X258550D01*
X259650D02*
X261950D01*
X264750D02*
X271650D01*
X229850Y51300D02*
X236450D01*
X240750D02*
X243550D01*
X247050D02*
X258550D01*
X259750D02*
X261950D01*
X264550D02*
X271650D01*
X229750Y51200D02*
X236950D01*
X240750D02*
X243550D01*
X247050D02*
X258550D01*
X259750D02*
X261950D01*
X264250D02*
X271650D01*
X229750Y51100D02*
X237350D01*
X240750D02*
X243450D01*
X247050D02*
X258550D01*
X259750D02*
X262050D01*
X264050D02*
X271550D01*
X229650Y51000D02*
X237850D01*
X240650D02*
X243450D01*
X247050D02*
X258650D01*
X259850D02*
X262050D01*
X263950D02*
X271450D01*
X229550Y50900D02*
X237950D01*
X240550D02*
X243450D01*
X247050D02*
X258750D01*
X259850D02*
X262050D01*
X263750D02*
X271150D01*
X229550Y50800D02*
X237950D01*
X240450D02*
X243350D01*
X247050D02*
X258750D01*
X259850D02*
X262150D01*
X263850D02*
X270850D01*
X229550Y50700D02*
X237750D01*
X240350D02*
X243350D01*
X246950D02*
X258750D01*
X259850D02*
X262350D01*
X263950D02*
X270150D01*
X229550Y50600D02*
X237450D01*
X240250D02*
X243450D01*
X246950D02*
X258750D01*
X259850D02*
X262450D01*
X264150D02*
X269850D01*
X229550Y50500D02*
X237650D01*
X237750D02*
X237850D01*
X239850D02*
X243450D01*
X246950D02*
X258850D01*
X259850D02*
X262750D01*
X263750D02*
X269650D01*
X229550Y50400D02*
X238750D01*
X238950D02*
X243750D01*
X246850D02*
X258950D01*
X259850D02*
X268950D01*
X229550Y50300D02*
X243050D01*
X243150D02*
X244050D01*
X246850D02*
X259150D01*
X259750D02*
X268750D01*
X230150Y50200D02*
X242950D01*
X243150D02*
X244550D01*
X246750D02*
X259250D01*
X259750D02*
X268750D01*
X230650Y50100D02*
X242850D01*
X243350D02*
X244750D01*
X246750D02*
X268850D01*
X231450Y50000D02*
X242750D01*
X243450D02*
X244950D01*
X246750D02*
X268950D01*
X232350Y49900D02*
X242750D01*
X243850D02*
X245250D01*
X246750D02*
X260250D01*
X260450D02*
X269050D01*
X233050Y49800D02*
X242650D01*
X244350D02*
X245250D01*
X246050D02*
X260150D01*
X260550D02*
X268950D01*
X233950Y49700D02*
X242550D01*
X245050D02*
X245150D01*
X245650D02*
X260150D01*
X260650D02*
X268850D01*
X234650Y49600D02*
X242550D01*
X245750D02*
X259850D01*
X260650D02*
X268450D01*
X235650Y49500D02*
X242550D01*
X246150D02*
X259850D01*
X260650D02*
X267750D01*
X236450Y49400D02*
X242550D01*
X246350D02*
X259750D01*
X260650D02*
X267250D01*
X237250Y49300D02*
X242450D01*
X242850D02*
X242950D01*
X246250D02*
X259750D01*
X260650D02*
X266550D01*
X238250Y49200D02*
X242450D01*
X242750D02*
X242950D01*
X245850D02*
X259750D01*
X260750D02*
X265750D01*
X238850Y49100D02*
X242350D01*
X242750D02*
X242950D01*
X243150D02*
X243450D01*
X245750D02*
X259850D01*
X260850D02*
X265050D01*
X240150Y49000D02*
X242250D01*
X243150D02*
X243650D01*
X245650D02*
X260050D01*
X260850D02*
X264250D01*
X243150Y48900D02*
X243750D01*
X245650D02*
X260350D01*
X260850D02*
X263550D01*
X243650Y48800D02*
X243950D01*
X245550D02*
X260450D01*
X260850D02*
X262950D01*
X243750Y48700D02*
X244150D01*
X245450D02*
X260450D01*
X260950D02*
X262050D01*
X243750Y48600D02*
X244350D01*
X245350D02*
X260450D01*
X243950Y48500D02*
X244450D01*
X245150D02*
X260350D01*
X243950Y48400D02*
X244450D01*
X245150D02*
X260350D01*
X243950Y48300D02*
X244450D01*
X245150D02*
X260450D01*
X243850Y48200D02*
X244450D01*
X245050D02*
X260550D01*
X243850Y48100D02*
X244450D01*
X245050D02*
X260650D01*
X243750Y48000D02*
X244450D01*
X245050D02*
X260750D01*
X242850Y47900D02*
X244550D01*
X244650D02*
X260950D01*
X242750Y47800D02*
X260950D01*
X242750Y47700D02*
X260950D01*
X243350Y47600D02*
X260850D01*
X243350Y47500D02*
X252350D01*
X253450D02*
X260850D01*
X243750Y47400D02*
X251250D01*
X254050D02*
X260650D01*
X244150Y47300D02*
X250250D01*
X254750D02*
X260250D01*
X244550Y47200D02*
X249250D01*
X255250D02*
X260050D01*
X247050Y47100D02*
X247750D01*
X256450D02*
X258750D01*
D18*
X89570Y36750D02*
Y61730D01*
Y36750D02*
X114550Y36750D01*
Y61730D01*
X89570Y61730D02*
X114550Y61730D01*
X87980Y35160D02*
Y36240D01*
Y35160D02*
X89060D01*
X87980Y62240D02*
Y63320D01*
X89060D01*
X116140Y35160D02*
Y36240D01*
X115060Y35160D02*
X116140D01*
Y62240D02*
Y63320D01*
X115060D02*
X116140D01*
D19*
X69999Y106099D02*
Y111399D01*
X62300Y113600D02*
X68099D01*
X60000Y106099D02*
Y111500D01*
X69999Y93199D02*
Y98599D01*
X61900Y91100D02*
X67699D01*
X60000Y93300D02*
Y98599D01*
D20*
X106000Y90118D02*
D03*
D21*
X312418Y45186D02*
D03*
M02*
