G04*
G04 #@! TF.GenerationSoftware,Altium Limited,Altium Designer,21.2.1 (34)*
G04*
G04 Layer_Color=255*
%FSLAX25Y25*%
%MOIN*%
G70*
G04*
G04 #@! TF.SameCoordinates,937FA343-5D84-449D-BBD7-2FC7B833E5F3*
G04*
G04*
G04 #@! TF.FilePolarity,Positive*
G04*
G01*
G75*
%ADD22R,0.03500X0.03800*%
%ADD23R,0.03347X0.03150*%
%ADD24R,0.03150X0.03347*%
%ADD25R,0.15750X0.05910*%
%ADD26R,0.07480X0.07874*%
%ADD27R,0.06300X0.06300*%
G04:AMPARAMS|DCode=28|XSize=38mil|YSize=35mil|CornerRadius=0mil|HoleSize=0mil|Usage=FLASHONLY|Rotation=315.000|XOffset=0mil|YOffset=0mil|HoleType=Round|Shape=Rectangle|*
%AMROTATEDRECTD28*
4,1,4,-0.02581,0.00106,-0.00106,0.02581,0.02581,-0.00106,0.00106,-0.02581,-0.02581,0.00106,0.0*
%
%ADD28ROTATEDRECTD28*%

G04:AMPARAMS|DCode=29|XSize=60mil|YSize=66.93mil|CornerRadius=0mil|HoleSize=0mil|Usage=FLASHONLY|Rotation=135.000|XOffset=0mil|YOffset=0mil|HoleType=Round|Shape=Rectangle|*
%AMROTATEDRECTD29*
4,1,4,0.04488,0.00245,-0.00245,-0.04488,-0.04488,-0.00245,0.00245,0.04488,0.04488,0.00245,0.0*
%
%ADD29ROTATEDRECTD29*%

%ADD30R,0.03800X0.03500*%
%ADD31R,0.04530X0.01180*%
%ADD32R,0.04530X0.02360*%
%ADD33R,0.02953X0.03937*%
%ADD34R,0.03937X0.02953*%
%ADD35R,0.00790X0.05750*%
%ADD36R,0.05750X0.00790*%
%ADD37R,0.03937X0.01772*%
%ADD38R,0.02362X0.05906*%
%ADD39R,0.11024X0.09449*%
%ADD40R,0.06000X0.06000*%
%ADD41R,0.03940X0.07090*%
%ADD42R,0.07874X0.05906*%
%ADD43R,0.03937X0.03347*%
%ADD44R,0.03937X0.02165*%
%ADD45R,0.05512X0.05118*%
%ADD46R,0.09055X0.03937*%
%ADD47R,0.23622X0.23622*%
%ADD89C,0.04724*%
%ADD90O,0.04724X0.07087*%
%ADD91O,0.07870X0.04720*%
%ADD92O,0.09060X0.04720*%
%ADD93R,0.05906X0.05906*%
%ADD94C,0.05906*%
%ADD95C,0.06299*%
%ADD96R,0.06299X0.06299*%
%ADD97C,0.10236*%
%ADD98C,0.09449*%
D22*
X356866Y17100D02*
D03*
Y24000D02*
D03*
X63000Y52600D02*
D03*
Y59500D02*
D03*
X55500Y105900D02*
D03*
Y99000D02*
D03*
D23*
X347866Y17226D02*
D03*
Y23774D02*
D03*
X339866Y23626D02*
D03*
Y29374D02*
D03*
X77000Y99126D02*
D03*
Y104874D02*
D03*
X63000Y19126D02*
D03*
Y24874D02*
D03*
X212000Y94126D02*
D03*
Y99874D02*
D03*
X63000Y72374D02*
D03*
Y66626D02*
D03*
D24*
X36126Y76000D02*
D03*
X41874D02*
D03*
X36126Y83000D02*
D03*
X41874D02*
D03*
X289378Y75626D02*
D03*
X295126D02*
D03*
X56874Y19000D02*
D03*
X51126D02*
D03*
Y25000D02*
D03*
X56874D02*
D03*
X127826Y13100D02*
D03*
X133574D02*
D03*
X209374Y106000D02*
D03*
X203626D02*
D03*
X320299Y77000D02*
D03*
X314551D02*
D03*
X334174Y45188D02*
D03*
X328426D02*
D03*
X95626Y74900D02*
D03*
X101374D02*
D03*
X65000Y5000D02*
D03*
X70748D02*
D03*
X37874Y110000D02*
D03*
X32126D02*
D03*
X40626Y36000D02*
D03*
X46374D02*
D03*
X98874Y109000D02*
D03*
X93126D02*
D03*
X25274Y110000D02*
D03*
X18726D02*
D03*
X105626Y109000D02*
D03*
X111374D02*
D03*
X181252Y90760D02*
D03*
X187000D02*
D03*
D25*
X121000Y80820D02*
D03*
Y95000D02*
D03*
D26*
X267500Y32747D02*
D03*
X257500D02*
D03*
X247500D02*
D03*
D27*
X235453Y13060D02*
D03*
X279547D02*
D03*
D28*
X319526Y10475D02*
D03*
X314646Y15354D02*
D03*
D29*
X321813Y23187D02*
D03*
X331000Y14000D02*
D03*
D30*
X313925Y70000D02*
D03*
X320825D02*
D03*
X107100Y16500D02*
D03*
X114000D02*
D03*
X94900Y86000D02*
D03*
X88000D02*
D03*
X114100Y4000D02*
D03*
X121000D02*
D03*
X81200Y75000D02*
D03*
X88100D02*
D03*
X107100Y24000D02*
D03*
X114000D02*
D03*
X206500Y84000D02*
D03*
X199600D02*
D03*
X120000Y112000D02*
D03*
X126900D02*
D03*
X321300Y53188D02*
D03*
X314400D02*
D03*
X63100Y12000D02*
D03*
X70000D02*
D03*
D31*
X24318Y62005D02*
D03*
X24328Y60035D02*
D03*
X24318Y58065D02*
D03*
Y56095D02*
D03*
Y54135D02*
D03*
Y52165D02*
D03*
Y50195D02*
D03*
Y48225D02*
D03*
D32*
X24308Y67715D02*
D03*
Y64565D02*
D03*
X24318Y45665D02*
D03*
Y42515D02*
D03*
D33*
X106000Y99173D02*
D03*
Y85000D02*
D03*
D34*
X321473Y45188D02*
D03*
X307300D02*
D03*
D35*
X90250Y65500D02*
D03*
X91820D02*
D03*
X93400D02*
D03*
X94970D02*
D03*
X96550D02*
D03*
X98120D02*
D03*
X99700D02*
D03*
X101270D02*
D03*
X102850D02*
D03*
X104420D02*
D03*
X106000D02*
D03*
X107570D02*
D03*
X109150D02*
D03*
X110720D02*
D03*
X112300D02*
D03*
X113870D02*
D03*
Y32980D02*
D03*
X112300Y32980D02*
D03*
X110720D02*
D03*
X109150Y32980D02*
D03*
X107570D02*
D03*
X106000D02*
D03*
X104420Y32980D02*
D03*
X102850D02*
D03*
X101270Y32980D02*
D03*
X99700D02*
D03*
X98120D02*
D03*
X96550D02*
D03*
X94970Y32980D02*
D03*
X93400D02*
D03*
X91820Y32980D02*
D03*
X90250D02*
D03*
D36*
X118320Y61050D02*
D03*
Y59480D02*
D03*
Y57900D02*
D03*
Y56330D02*
D03*
Y54750D02*
D03*
Y53180D02*
D03*
Y51600D02*
D03*
Y50030D02*
D03*
Y48450D02*
D03*
Y46880D02*
D03*
Y45300D02*
D03*
Y43730D02*
D03*
Y42150D02*
D03*
Y40580D02*
D03*
Y39000D02*
D03*
Y37430D02*
D03*
X85800D02*
D03*
X85800Y39000D02*
D03*
Y40580D02*
D03*
Y42150D02*
D03*
X85800Y43730D02*
D03*
Y45300D02*
D03*
X85800Y46880D02*
D03*
X85800Y48450D02*
D03*
X85800Y50030D02*
D03*
Y51600D02*
D03*
X85800Y53180D02*
D03*
Y54750D02*
D03*
X85800Y56330D02*
D03*
Y57900D02*
D03*
Y59480D02*
D03*
X85800Y61050D02*
D03*
D37*
X97000Y94020D02*
D03*
Y97760D02*
D03*
Y101500D02*
D03*
X86000D02*
D03*
Y97760D02*
D03*
Y94020D02*
D03*
D38*
X54311Y66500D02*
D03*
X50374D02*
D03*
X46437D02*
D03*
X42500D02*
D03*
X38563D02*
D03*
X38563Y44847D02*
D03*
X42500D02*
D03*
X46437D02*
D03*
X50374D02*
D03*
X54311D02*
D03*
D39*
X46437Y55674D02*
D03*
D40*
X65000Y96000D02*
D03*
X65000Y108599D02*
D03*
D41*
X151690Y85720D02*
D03*
X163500D02*
D03*
Y105400D02*
D03*
X151690D02*
D03*
D42*
X54000Y5100D02*
D03*
X22769Y5022D02*
D03*
D43*
X301874Y82500D02*
D03*
X295126D02*
D03*
D44*
X193382Y90760D02*
D03*
Y98240D02*
D03*
X203618D02*
D03*
Y94500D02*
D03*
Y90760D02*
D03*
D45*
X118488Y104000D02*
D03*
X129512D02*
D03*
D46*
X288260Y109055D02*
D03*
Y90945D02*
D03*
D47*
X317000Y100000D02*
D03*
D89*
X247500Y17000D02*
D03*
X267500D02*
D03*
D90*
X184700Y53938D02*
D03*
X194700Y58662D02*
D03*
X174700D02*
D03*
X174400Y71438D02*
D03*
X194400D02*
D03*
X184400Y76162D02*
D03*
D91*
X3838Y72125D02*
D03*
Y38105D02*
D03*
D92*
X20168D02*
D03*
Y72125D02*
D03*
D93*
X98000Y4000D02*
D03*
D94*
X88000D02*
D03*
D95*
X150669Y3937D02*
D03*
X140669D02*
D03*
X160669D02*
D03*
D96*
X130669D02*
D03*
D97*
X346457Y110236D02*
D03*
Y0D02*
D03*
D98*
X0D02*
D03*
Y110236D02*
D03*
M02*
