G04*
G04 #@! TF.GenerationSoftware,Altium Limited,Altium Designer,21.2.1 (34)*
G04*
G04 Layer_Color=2752767*
%FSLAX25Y25*%
%MOIN*%
G70*
G04*
G04 #@! TF.SameCoordinates,937FA343-5D84-449D-BBD7-2FC7B833E5F3*
G04*
G04*
G04 #@! TF.FilePolarity,Positive*
G04*
G01*
G75*
%ADD103C,0.00200*%
%ADD104C,0.00267*%
D103*
X246700Y16200D02*
Y17800D01*
X248300D01*
Y16200D01*
X246700D01*
X266700D02*
Y17800D01*
X268300D01*
Y16200D01*
X266700D01*
X3838Y71325D02*
X3038Y72925D01*
X4638D01*
X3838Y71325D01*
Y37305D02*
X3038Y38905D01*
X4638D01*
X3838Y37305D01*
X20168D02*
X20568Y37705D01*
X20968D01*
X20568Y38105D01*
X20968Y38505D01*
X20568D01*
X20168Y38905D01*
X19768Y38505D01*
X19368D01*
X19768Y38105D01*
X19368Y37705D01*
X19768D01*
X20168Y37305D01*
Y71325D02*
X20568Y71725D01*
X20968D01*
X20568Y72125D01*
X20968Y72525D01*
X20568D01*
X20168Y72925D01*
X19768Y72525D01*
X19368D01*
X19768Y72125D01*
X19368Y71725D01*
X19768D01*
X20168Y71325D01*
X17280Y65692D02*
X17680Y66492D01*
X17280Y67292D01*
X18080Y66892D01*
X18880Y67292D01*
X18480Y66492D01*
X18880Y65692D01*
X18080Y66092D01*
X17280Y65692D01*
Y42936D02*
X17680Y43736D01*
X17280Y44536D01*
X18080Y44136D01*
X18880Y44536D01*
X18480Y43736D01*
X18880Y42936D01*
X18080Y43336D01*
X17280Y42936D01*
X97600Y3600D02*
Y3200D01*
X98400D01*
Y3600D01*
X98800D01*
Y4400D01*
X98400D01*
Y4800D01*
X97600D01*
Y4400D01*
X97200D01*
Y3600D01*
X97600D01*
X87600D02*
Y3200D01*
X88400D01*
Y3600D01*
X88800D01*
Y4400D01*
X88400D01*
Y4800D01*
X87600D01*
Y4400D01*
X87200D01*
Y3600D01*
X87600D01*
X150269Y3537D02*
Y3137D01*
X151069D01*
Y3537D01*
X151469D01*
Y4337D01*
X151069D01*
Y4737D01*
X150269D01*
Y4337D01*
X149869D01*
Y3537D01*
X150269D01*
X140269D02*
Y3137D01*
X141069D01*
Y3537D01*
X141469D01*
Y4337D01*
X141069D01*
Y4737D01*
X140269D01*
Y4337D01*
X139869D01*
Y3537D01*
X140269D01*
X130269D02*
Y3137D01*
X131069D01*
Y3537D01*
X131469D01*
Y4337D01*
X131069D01*
Y4737D01*
X130269D01*
Y4337D01*
X129869D01*
Y3537D01*
X130269D01*
X160269D02*
Y3137D01*
X161069D01*
Y3537D01*
X161469D01*
Y4337D01*
X161069D01*
Y4737D01*
X160269D01*
Y4337D01*
X159869D01*
Y3537D01*
X160269D01*
X345657Y109436D02*
X346057D01*
X346457Y109836D01*
X346857Y109436D01*
X347257D01*
Y109836D01*
X346857Y110236D01*
X347257Y110636D01*
Y111036D01*
X346857D01*
X346457Y110636D01*
X346057Y111036D01*
X345657D01*
Y110636D01*
X346057Y110236D01*
X345657Y109836D01*
Y109436D01*
Y-800D02*
X346057D01*
X346457Y-400D01*
X346857Y-800D01*
X347257D01*
Y-400D01*
X346857Y0D01*
X347257Y400D01*
Y800D01*
X346857D01*
X346457Y400D01*
X346057Y800D01*
X345657D01*
Y400D01*
X346057Y0D01*
X345657Y-400D01*
Y-800D01*
X-800D02*
X-400D01*
X0Y-400D01*
X400Y-800D01*
X800D01*
Y-400D01*
X400Y0D01*
X800Y400D01*
Y800D01*
X400D01*
X0Y400D01*
X-400Y800D01*
X-800D01*
Y400D01*
X-400Y0D01*
X-800Y-400D01*
Y-800D01*
Y109436D02*
X-400D01*
X0Y109836D01*
X400Y109436D01*
X800D01*
Y109836D01*
X400Y110236D01*
X800Y110636D01*
Y111036D01*
X400D01*
X0Y110636D01*
X-400Y111036D01*
X-800D01*
Y110636D01*
X-400Y110236D01*
X-800Y109836D01*
Y109436D01*
X295700Y95500D02*
X296500Y96300D01*
X297300Y95500D01*
X296500Y94700D01*
X295700Y95500D01*
Y104500D02*
X296500Y105300D01*
X297300Y104500D01*
X296500Y103700D01*
X295700Y104500D01*
X291700Y99500D02*
X292500Y100300D01*
X293300Y99500D01*
X292500Y98700D01*
X291700Y99500D01*
X162400Y13100D02*
X163200Y13900D01*
X164000Y13100D01*
X163200Y12300D01*
X162400Y13100D01*
X218070Y68770D02*
X218870Y69570D01*
X219670Y68770D01*
X218870Y67970D01*
X218070Y68770D01*
X276700Y95000D02*
X277500Y95800D01*
X278300Y95000D01*
X277500Y94200D01*
X276700Y95000D01*
X279200Y102500D02*
X280000Y103300D01*
X280800Y102500D01*
X280000Y101700D01*
X279200Y102500D01*
X272200D02*
X273000Y103300D01*
X273800Y102500D01*
X273000Y101700D01*
X272200Y102500D01*
X304200Y70500D02*
X305000Y71300D01*
X305800Y70500D01*
X305000Y69700D01*
X304200Y70500D01*
X307200Y75500D02*
X308000Y76300D01*
X308800Y75500D01*
X308000Y74700D01*
X307200Y75500D01*
X301200D02*
X302000Y76300D01*
X302800Y75500D01*
X302000Y74700D01*
X301200Y75500D01*
X36200Y102000D02*
X37000Y102800D01*
X37800Y102000D01*
X37000Y101200D01*
X36200Y102000D01*
X27700D02*
X28500Y102800D01*
X29300Y102000D01*
X28500Y101200D01*
X27700Y102000D01*
X133700Y30000D02*
X134500Y30800D01*
X135300Y30000D01*
X134500Y29200D01*
X133700Y30000D01*
X121700D02*
X122500Y30800D01*
X123300Y30000D01*
X122500Y29200D01*
X121700Y30000D01*
X148200Y69500D02*
X149000Y70300D01*
X149800Y69500D01*
X149000Y68700D01*
X148200Y69500D01*
X140200Y61500D02*
X141000Y62300D01*
X141800Y61500D01*
X141000Y60700D01*
X140200Y61500D01*
X233200Y78500D02*
X234000Y79300D01*
X234800Y78500D01*
X234000Y77700D01*
X233200Y78500D01*
X226200Y82500D02*
X227000Y83300D01*
X227800Y82500D01*
X227000Y81700D01*
X226200Y82500D01*
X212700Y74000D02*
X213500Y74800D01*
X214300Y74000D01*
X213500Y73200D01*
X212700Y74000D01*
X202700D02*
X203500Y74800D01*
X204300Y74000D01*
X203500Y73200D01*
X202700Y74000D01*
X295200Y0D02*
X296000Y800D01*
X296800Y0D01*
X296000Y-800D01*
X295200Y0D01*
X305700D02*
X306500Y800D01*
X307300Y0D01*
X306500Y-800D01*
X305700Y0D01*
Y11000D02*
X306500Y11800D01*
X307300Y11000D01*
X306500Y10200D01*
X305700Y11000D01*
X295200D02*
X296000Y11800D01*
X296800Y11000D01*
X296000Y10200D01*
X295200Y11000D01*
X291700Y30000D02*
X292500Y30800D01*
X293300Y30000D01*
X292500Y29200D01*
X291700Y30000D01*
X276700Y41000D02*
X277500Y41800D01*
X278300Y41000D01*
X277500Y40200D01*
X276700Y41000D01*
X346700Y69000D02*
X347500Y69800D01*
X348300Y69000D01*
X347500Y68200D01*
X346700Y69000D01*
Y77000D02*
X347500Y77800D01*
X348300Y77000D01*
X347500Y76200D01*
X346700Y77000D01*
X327500Y52388D02*
Y53988D01*
X329100D01*
Y52388D01*
X327500D01*
X327900Y52788D02*
Y53588D01*
X328700D01*
Y52788D01*
X327900D01*
X326200Y77000D02*
X327000Y77800D01*
X327800Y77000D01*
X327000Y76200D01*
X326200Y77000D01*
X330044Y73932D02*
Y75532D01*
X331644D01*
Y73932D01*
X330044D01*
X330444Y74332D02*
Y75132D01*
X331244D01*
Y74332D01*
X330444D01*
X345000Y58288D02*
Y59888D01*
X346600D01*
Y58288D01*
X345000D01*
X345400Y58688D02*
Y59488D01*
X346200D01*
Y58688D01*
X345400D01*
X326397Y58197D02*
X327197Y58997D01*
X327997Y58197D01*
X327197Y57397D01*
X326397Y58197D01*
X327000Y61388D02*
Y62988D01*
X328600D01*
Y61388D01*
X327000D01*
X327400Y61788D02*
Y62588D01*
X328200D01*
Y61788D01*
X327400D01*
X348000Y55688D02*
Y57288D01*
X349600D01*
Y55688D01*
X348000D01*
X348400Y56088D02*
Y56888D01*
X349200D01*
Y56088D01*
X348400D01*
X314200Y27000D02*
X315000Y27800D01*
X315800Y27000D01*
X315000Y26200D01*
X314200Y27000D01*
X318200Y30500D02*
X319000Y31300D01*
X319800Y30500D01*
X319000Y29700D01*
X318200Y30500D01*
X328200Y28000D02*
X329000Y28800D01*
X329800Y28000D01*
X329000Y27200D01*
X328200Y28000D01*
X324700Y31500D02*
X325500Y32300D01*
X326300Y31500D01*
X325500Y30700D01*
X324700Y31500D01*
X55200Y112000D02*
X56000Y112800D01*
X56800Y112000D01*
X56000Y111200D01*
X55200Y112000D01*
X73200Y110000D02*
X74000Y110800D01*
X74800Y110000D01*
X74000Y109200D01*
X73200Y110000D01*
X154200Y19000D02*
X155000Y19800D01*
X155800Y19000D01*
X155000Y18200D01*
X154200Y19000D01*
X109200Y57000D02*
X110000Y57800D01*
X110800Y57000D01*
X110000Y56200D01*
X109200Y57000D01*
X99200D02*
X100000Y57800D01*
X100800Y57000D01*
X100000Y56200D01*
X99200Y57000D01*
X37200Y60200D02*
Y61800D01*
X38800D01*
Y60200D01*
X37200D01*
X37600Y60600D02*
Y61400D01*
X38400D01*
Y60600D01*
X37600D01*
X59200Y45000D02*
X60000Y45800D01*
X60800Y45000D01*
X60000Y44200D01*
X59200Y45000D01*
X46200Y30000D02*
X47000Y30800D01*
X47800Y30000D01*
X47000Y29200D01*
X46200Y30000D01*
X45637Y74011D02*
X46437Y74811D01*
X47237Y74011D01*
X46437Y73211D01*
X45637Y74011D01*
X56200Y92000D02*
X57000Y92800D01*
X57800Y92000D01*
X57000Y91200D01*
X56200Y92000D01*
X84200Y108000D02*
X85000Y108800D01*
X85800Y108000D01*
X85000Y107200D01*
X84200Y108000D01*
X108200Y75000D02*
X109000Y75800D01*
X109800Y75000D01*
X109000Y74200D01*
X108200Y75000D01*
X104309Y46691D02*
X105109Y47491D01*
X105909Y46691D01*
X105109Y45891D01*
X104309Y46691D01*
X124096Y23937D02*
X124896Y24737D01*
X125696Y23937D01*
X124896Y23137D01*
X124096Y23937D01*
X75200Y34700D02*
Y36300D01*
X76800D01*
Y34700D01*
X75200D01*
X75600Y35100D02*
Y35900D01*
X76400D01*
Y35100D01*
X75600D01*
X188200Y111200D02*
Y112800D01*
X189800D01*
Y111200D01*
X188200D01*
X188600Y111600D02*
Y112400D01*
X189400D01*
Y111600D01*
X188600D01*
X176700Y111200D02*
Y112800D01*
X178300D01*
Y111200D01*
X176700D01*
X177100Y111600D02*
Y112400D01*
X177900D01*
Y111600D01*
X177100D01*
X139700Y103200D02*
Y104800D01*
X141300D01*
Y103200D01*
X139700D01*
X140100Y103600D02*
Y104400D01*
X140900D01*
Y103600D01*
X140100D01*
X139700Y111700D02*
Y113300D01*
X141300D01*
Y111700D01*
X139700D01*
X140100Y112100D02*
Y112900D01*
X140900D01*
Y112100D01*
X140100D01*
X55200Y77200D02*
Y78800D01*
X56800D01*
Y77200D01*
X55200D01*
X55600Y77600D02*
Y78400D01*
X56400D01*
Y77600D01*
X55600D01*
X72200Y59700D02*
Y61300D01*
X73800D01*
Y59700D01*
X72200D01*
X72600Y60100D02*
Y60900D01*
X73400D01*
Y60100D01*
X72600D01*
X72200Y67200D02*
Y68800D01*
X73800D01*
Y67200D01*
X72200D01*
X72600Y67600D02*
Y68400D01*
X73400D01*
Y67600D01*
X72600D01*
X72200Y74200D02*
Y75800D01*
X73800D01*
Y74200D01*
X72200D01*
X72600Y74600D02*
Y75400D01*
X73400D01*
Y74600D01*
X72600D01*
X80200Y67200D02*
Y68800D01*
X81800D01*
Y67200D01*
X80200D01*
X80600Y67600D02*
Y68400D01*
X81400D01*
Y67600D01*
X80600D01*
X92700Y46700D02*
Y48300D01*
X94300D01*
Y46700D01*
X92700D01*
X93100Y47100D02*
Y47900D01*
X93900D01*
Y47100D01*
X93100D01*
X105200Y39200D02*
Y40800D01*
X106800D01*
Y39200D01*
X105200D01*
X105600Y39600D02*
Y40400D01*
X106400D01*
Y39600D01*
X105600D01*
X97700Y39200D02*
Y40800D01*
X99300D01*
Y39200D01*
X97700D01*
X98100Y39600D02*
Y40400D01*
X98900D01*
Y39600D01*
X98100D01*
X105954Y9065D02*
Y10665D01*
X107554D01*
Y9065D01*
X105954D01*
X106354Y9465D02*
Y10265D01*
X107154D01*
Y9465D01*
X106354D01*
X120700Y17700D02*
Y19300D01*
X122300D01*
Y17700D01*
X120700D01*
X121100Y18100D02*
Y18900D01*
X121900D01*
Y18100D01*
X121100D01*
X207700Y89200D02*
Y90800D01*
X209300D01*
Y89200D01*
X207700D01*
X208100Y89600D02*
Y90400D01*
X208900D01*
Y89600D01*
X208100D01*
X212700Y81700D02*
Y83300D01*
X214300D01*
Y81700D01*
X212700D01*
X213100Y82100D02*
Y82900D01*
X213900D01*
Y82100D01*
X213100D01*
X224200Y51200D02*
Y52800D01*
X225800D01*
Y51200D01*
X224200D01*
X224600Y51600D02*
Y52400D01*
X225400D01*
Y51600D01*
X224600D01*
X215200Y51200D02*
Y52800D01*
X216800D01*
Y51200D01*
X215200D01*
X215600Y51600D02*
Y52400D01*
X216400D01*
Y51600D01*
X215600D01*
X213200Y4200D02*
Y5800D01*
X214800D01*
Y4200D01*
X213200D01*
X213600Y4600D02*
Y5400D01*
X214400D01*
Y4600D01*
X213600D01*
X201200Y4200D02*
Y5800D01*
X202800D01*
Y4200D01*
X201200D01*
X201600Y4600D02*
Y5400D01*
X202400D01*
Y4600D01*
X201600D01*
X78200Y11200D02*
Y12800D01*
X79800D01*
Y11200D01*
X78200D01*
X78600Y11600D02*
Y12400D01*
X79400D01*
Y11600D01*
X78600D01*
X78200Y24200D02*
Y25800D01*
X79800D01*
Y24200D01*
X78200D01*
X78600Y24600D02*
Y25400D01*
X79400D01*
Y24600D01*
X78600D01*
X71200Y29200D02*
Y30800D01*
X72800D01*
Y29200D01*
X71200D01*
X71600Y29600D02*
Y30400D01*
X72400D01*
Y29600D01*
X71600D01*
X71200Y39200D02*
Y40800D01*
X72800D01*
Y39200D01*
X71200D01*
X71600Y39600D02*
Y40400D01*
X72400D01*
Y39600D01*
X71600D01*
X16200Y17200D02*
Y18800D01*
X17800D01*
Y17200D01*
X16200D01*
X16600Y17600D02*
Y18400D01*
X17400D01*
Y17600D01*
X16600D01*
X25200Y17200D02*
Y18800D01*
X26800D01*
Y17200D01*
X25200D01*
X25600Y17600D02*
Y18400D01*
X26400D01*
Y17600D01*
X25600D01*
X25200Y25200D02*
Y26800D01*
X26800D01*
Y25200D01*
X25200D01*
X25600Y25600D02*
Y26400D01*
X26400D01*
Y25600D01*
X25600D01*
X16200Y25200D02*
Y26800D01*
X17800D01*
Y25200D01*
X16200D01*
X16600Y25600D02*
Y26400D01*
X17400D01*
Y25600D01*
X16600D01*
X132200Y68200D02*
Y69800D01*
X133800D01*
Y68200D01*
X132200D01*
X132600Y68600D02*
Y69400D01*
X133400D01*
Y68600D01*
X132600D01*
X155200Y76200D02*
Y77800D01*
X156800D01*
Y76200D01*
X155200D01*
X155600Y76600D02*
Y77400D01*
X156400D01*
Y76600D01*
X155600D01*
X143200Y76200D02*
Y77800D01*
X144800D01*
Y76200D01*
X143200D01*
X143600Y76600D02*
Y77400D01*
X144400D01*
Y76600D01*
X143600D01*
X45700Y54700D02*
Y56300D01*
X47300D01*
Y54700D01*
X45700D01*
X46100Y55100D02*
Y55900D01*
X46900D01*
Y55100D01*
X46100D01*
X200197Y39000D02*
Y40600D01*
X201797D01*
Y39000D01*
X200197D01*
X200597Y39400D02*
Y40200D01*
X201397D01*
Y39400D01*
X200597D01*
X158909Y39790D02*
Y41390D01*
X160510D01*
Y39790D01*
X158909D01*
X159309Y40191D02*
Y40990D01*
X160109D01*
Y40191D01*
X159309D01*
X161500Y44000D02*
Y45600D01*
X163100D01*
Y44000D01*
X161500D01*
X161900Y44400D02*
Y45200D01*
X162700D01*
Y44400D01*
X161900D01*
X78500Y57400D02*
Y59000D01*
X80100D01*
Y57400D01*
X78500D01*
X78900Y57800D02*
Y58600D01*
X79700D01*
Y57800D01*
X78900D01*
X125800Y57100D02*
Y58700D01*
X127400D01*
Y57100D01*
X125800D01*
X126200Y57500D02*
Y58300D01*
X127000D01*
Y57500D01*
X126200D01*
X131000Y58400D02*
Y60000D01*
X132600D01*
Y58400D01*
X131000D01*
X131400Y58800D02*
Y59600D01*
X132200D01*
Y58800D01*
X131400D01*
X92200Y23200D02*
Y24800D01*
X93800D01*
Y23200D01*
X92200D01*
X92600Y23600D02*
Y24400D01*
X93400D01*
Y23600D01*
X92600D01*
X69200Y18326D02*
Y19926D01*
X70800D01*
Y18326D01*
X69200D01*
X69600Y18726D02*
Y19526D01*
X70400D01*
Y18726D01*
X69600D01*
X71200Y90200D02*
Y91800D01*
X72800D01*
Y90200D01*
X71200D01*
X71600Y90600D02*
Y91400D01*
X72400D01*
Y90600D01*
X71600D01*
X76200Y92200D02*
Y93800D01*
X77800D01*
Y92200D01*
X76200D01*
X76600Y92600D02*
Y93400D01*
X77400D01*
Y92600D01*
X76600D01*
X17690Y60331D02*
Y61931D01*
X19290D01*
Y60331D01*
X17690D01*
X18090Y60731D02*
Y61531D01*
X18890D01*
Y60731D01*
X18090D01*
X17700Y48700D02*
Y50300D01*
X19300D01*
Y48700D01*
X17700D01*
X18100Y49100D02*
Y49900D01*
X18900D01*
Y49100D01*
X18100D01*
X33500Y62058D02*
Y63658D01*
X35100D01*
Y62058D01*
X33500D01*
X33900Y62458D02*
Y63258D01*
X34700D01*
Y62458D01*
X33900D01*
X32700Y55700D02*
Y57300D01*
X34300D01*
Y55700D01*
X32700D01*
X33100Y56100D02*
Y56900D01*
X33900D01*
Y56100D01*
X33100D01*
X30200Y52200D02*
Y53800D01*
X31800D01*
Y52200D01*
X30200D01*
X30600Y52600D02*
Y53400D01*
X31400D01*
Y52600D01*
X30600D01*
D104*
X185500Y53938D02*
G03*
X185500Y53938I-800J0D01*
G01*
X195500Y58662D02*
G03*
X195500Y58662I-800J0D01*
G01*
X175500D02*
G03*
X175500Y58662I-800J0D01*
G01*
X175200Y71438D02*
G03*
X175200Y71438I-800J0D01*
G01*
X195200D02*
G03*
X195200Y71438I-800J0D01*
G01*
X185200Y76162D02*
G03*
X185200Y76162I-800J0D01*
G01*
M02*
