G04*
G04 #@! TF.GenerationSoftware,Altium Limited,Altium Designer,21.2.1 (34)*
G04*
G04 Layer_Physical_Order=2*
G04 Layer_Color=16711680*
%FSLAX25Y25*%
%MOIN*%
G70*
G04*
G04 #@! TF.SameCoordinates,937FA343-5D84-449D-BBD7-2FC7B833E5F3*
G04*
G04*
G04 #@! TF.FilePolarity,Positive*
G04*
G01*
G75*
%ADD19C,0.01200*%
%ADD30R,0.03800X0.03500*%
%ADD86C,0.00800*%
%ADD88C,0.01600*%
%ADD89C,0.04724*%
%ADD90O,0.04724X0.07087*%
%ADD91O,0.07870X0.04720*%
%ADD92O,0.09060X0.04720*%
%ADD93R,0.05906X0.05906*%
%ADD94C,0.05906*%
%ADD95C,0.06299*%
%ADD96R,0.06299X0.06299*%
%ADD97C,0.10236*%
%ADD98C,0.09449*%
%ADD99C,0.02000*%
%ADD100C,0.02400*%
%ADD101O,0.07874X0.01575*%
G36*
X363523Y116863D02*
X364790Y116479D01*
X365958Y115854D01*
X366982Y115014D01*
X367823Y113990D01*
X368447Y112822D01*
X368831Y111554D01*
X368957Y110283D01*
X368908Y109783D01*
X362205D01*
X361775Y109698D01*
X361412Y109455D01*
X361169Y109091D01*
X361083Y108661D01*
Y1575D01*
X361169Y1146D01*
X361412Y782D01*
X361775Y539D01*
X362205Y453D01*
X368908D01*
X368957Y-47D01*
X368831Y-1318D01*
X368447Y-2586D01*
X367823Y-3754D01*
X366982Y-4778D01*
X365958Y-5618D01*
X364790Y-6242D01*
X363523Y-6627D01*
X362218Y-6755D01*
X362205Y-6752D01*
X355000D01*
X355000Y8000D01*
X338000Y8000D01*
X338000Y-6752D01*
X-0D01*
X-14Y-6755D01*
X-1318Y-6627D01*
X-2586Y-6242D01*
X-3754Y-5618D01*
X-4778Y-4778D01*
X-5618Y-3754D01*
X-6242Y-2586D01*
X-6627Y-1318D01*
X-6755Y-14D01*
X-6752Y0D01*
Y110236D01*
X-6755Y110250D01*
X-6627Y111554D01*
X-6242Y112822D01*
X-5618Y113990D01*
X-4778Y115014D01*
X-3754Y115854D01*
X-2586Y116479D01*
X-1318Y116863D01*
X-14Y116991D01*
X-0Y116989D01*
X337866D01*
X337866Y102236D01*
X354866Y102236D01*
X354866Y116989D01*
X362205D01*
X362218Y116991D01*
X363523Y116863D01*
D02*
G37*
%LPC*%
G36*
X141000Y114674D02*
Y113000D01*
X142674D01*
X142365Y113746D01*
X141746Y114365D01*
X141000Y114674D01*
D02*
G37*
G36*
X140000D02*
X139254Y114365D01*
X138635Y113746D01*
X138326Y113000D01*
X140000D01*
Y114674D01*
D02*
G37*
G36*
X189500Y114174D02*
Y112500D01*
X191174D01*
X190865Y113246D01*
X190246Y113865D01*
X189500Y114174D01*
D02*
G37*
G36*
X188500D02*
X187754Y113865D01*
X187135Y113246D01*
X186826Y112500D01*
X188500D01*
Y114174D01*
D02*
G37*
G36*
X178000D02*
Y112500D01*
X179674D01*
X179365Y113246D01*
X178746Y113865D01*
X178000Y114174D01*
D02*
G37*
G36*
X177000D02*
X176254Y113865D01*
X175635Y113246D01*
X175326Y112500D01*
X177000D01*
Y114174D01*
D02*
G37*
G36*
X56500Y113958D02*
Y112500D01*
X57958D01*
X57696Y113133D01*
X57133Y113696D01*
X56500Y113958D01*
D02*
G37*
G36*
X55500D02*
X54867Y113696D01*
X54304Y113133D01*
X54042Y112500D01*
X55500D01*
Y113958D01*
D02*
G37*
G36*
X74500Y111958D02*
Y110500D01*
X75958D01*
X75696Y111133D01*
X75133Y111696D01*
X74500Y111958D01*
D02*
G37*
G36*
X73500D02*
X72867Y111696D01*
X72304Y111133D01*
X72042Y110500D01*
X73500D01*
Y111958D01*
D02*
G37*
G36*
X142674Y112000D02*
X141000D01*
Y110326D01*
X141746Y110635D01*
X142365Y111254D01*
X142674Y112000D01*
D02*
G37*
G36*
X140000D02*
X138326D01*
X138635Y111254D01*
X139254Y110635D01*
X140000Y110326D01*
Y112000D01*
D02*
G37*
G36*
X57958Y111500D02*
X56500D01*
Y110042D01*
X57133Y110304D01*
X57696Y110867D01*
X57958Y111500D01*
D02*
G37*
G36*
X55500D02*
X54042D01*
X54304Y110867D01*
X54867Y110304D01*
X55500Y110042D01*
Y111500D01*
D02*
G37*
G36*
X191174D02*
X189500D01*
Y109826D01*
X190246Y110135D01*
X190865Y110754D01*
X191174Y111500D01*
D02*
G37*
G36*
X188500D02*
X186826D01*
X187135Y110754D01*
X187754Y110135D01*
X188500Y109826D01*
Y111500D01*
D02*
G37*
G36*
X179674D02*
X178000D01*
Y109826D01*
X178746Y110135D01*
X179365Y110754D01*
X179674Y111500D01*
D02*
G37*
G36*
X177000D02*
X175326D01*
X175635Y110754D01*
X176254Y110135D01*
X177000Y109826D01*
Y111500D01*
D02*
G37*
G36*
X85500Y109958D02*
Y108500D01*
X86958D01*
X86695Y109133D01*
X86133Y109695D01*
X85500Y109958D01*
D02*
G37*
G36*
X84500D02*
X83867Y109695D01*
X83305Y109133D01*
X83042Y108500D01*
X84500D01*
Y109958D01*
D02*
G37*
G36*
X75958Y109500D02*
X74500D01*
Y108042D01*
X75133Y108305D01*
X75696Y108867D01*
X75958Y109500D01*
D02*
G37*
G36*
X73500D02*
X72042D01*
X72304Y108867D01*
X72867Y108305D01*
X73500Y108042D01*
Y109500D01*
D02*
G37*
G36*
X86958Y107500D02*
X85500D01*
Y106042D01*
X86133Y106305D01*
X86695Y106867D01*
X86958Y107500D01*
D02*
G37*
G36*
X84500D02*
X83042D01*
X83305Y106867D01*
X83867Y106305D01*
X84500Y106042D01*
Y107500D01*
D02*
G37*
G36*
X297000Y106458D02*
Y105000D01*
X298458D01*
X298196Y105633D01*
X297633Y106195D01*
X297000Y106458D01*
D02*
G37*
G36*
X296000D02*
X295367Y106195D01*
X294805Y105633D01*
X294542Y105000D01*
X296000D01*
Y106458D01*
D02*
G37*
G36*
X701Y115561D02*
X-701D01*
X-2055Y115198D01*
X-3269Y114497D01*
X-4261Y113505D01*
X-4962Y112291D01*
X-5324Y110937D01*
Y109535D01*
X-4962Y108181D01*
X-4261Y106967D01*
X-3269Y105976D01*
X-2055Y105275D01*
X-701Y104912D01*
X701D01*
X2055Y105275D01*
X3269Y105976D01*
X4261Y106967D01*
X4962Y108181D01*
X5324Y109535D01*
Y110937D01*
X4962Y112291D01*
X4261Y113505D01*
X3269Y114497D01*
X2055Y115198D01*
X701Y115561D01*
D02*
G37*
G36*
X141000Y106174D02*
Y104500D01*
X142674D01*
X142365Y105246D01*
X141746Y105865D01*
X141000Y106174D01*
D02*
G37*
G36*
X140000D02*
X139254Y105865D01*
X138635Y105246D01*
X138326Y104500D01*
X140000D01*
Y106174D01*
D02*
G37*
G36*
X142742Y103500D02*
X138258D01*
X138024Y103149D01*
X82241D01*
X82000Y103249D01*
X46600D01*
X46141Y103059D01*
X23541Y80459D01*
X19114Y76032D01*
X19064Y75913D01*
X18973Y75821D01*
Y75692D01*
X18923Y75573D01*
X18884Y75514D01*
X17998D01*
X17120Y75399D01*
X16303Y75060D01*
X15601Y74522D01*
X15063Y73820D01*
X14724Y73002D01*
X14674Y72625D01*
X20168D01*
Y71625D01*
X14674D01*
X14698Y71446D01*
X14691Y71443D01*
X14505Y71406D01*
X14468Y71350D01*
X14406Y71325D01*
X9541Y66459D01*
X9351Y66000D01*
Y57868D01*
X9438Y57658D01*
X9311Y57468D01*
X9311D01*
Y52768D01*
X9311D01*
X9438Y52579D01*
X9351Y52368D01*
Y46000D01*
X9541Y45541D01*
X11541Y43541D01*
X12000Y43351D01*
X15640D01*
X15750Y43317D01*
X16173Y43082D01*
X16353Y42649D01*
X16444Y42557D01*
X16494Y42438D01*
X16910Y42021D01*
X17029Y41972D01*
X17121Y41881D01*
X17121Y41518D01*
X17073Y41359D01*
X16303Y41040D01*
X15601Y40502D01*
X15063Y39800D01*
X14724Y38982D01*
X14674Y38605D01*
X19668D01*
Y41494D01*
X19569D01*
X19386Y41972D01*
X19505Y42021D01*
X19921Y42438D01*
X19971Y42557D01*
X20062Y42649D01*
X20242Y43082D01*
X20726Y43351D01*
X24000D01*
X24459Y43541D01*
X26459Y45541D01*
X26649Y46000D01*
Y56731D01*
X32093Y62175D01*
X32683Y62058D01*
X32774Y61838D01*
X32946Y61666D01*
X32990Y61553D01*
X33058Y61481D01*
X33103Y61427D01*
X33140Y61375D01*
X33171Y61324D01*
X33195Y61274D01*
X33215Y61224D01*
X33230Y61174D01*
X33241Y61121D01*
X33248Y61066D01*
X33251Y60981D01*
X33280Y60917D01*
Y60348D01*
X32779Y59847D01*
X32558Y59516D01*
X32480Y59126D01*
Y58441D01*
X32451Y58377D01*
X32448Y58292D01*
X32441Y58237D01*
X32430Y58184D01*
X32415Y58134D01*
X32395Y58084D01*
X32371Y58034D01*
X32340Y57983D01*
X32303Y57931D01*
X32258Y57877D01*
X32190Y57805D01*
X32146Y57692D01*
X31974Y57520D01*
X31700Y56858D01*
Y56142D01*
X31974Y55480D01*
X32480Y54974D01*
X33142Y54700D01*
X33858D01*
X34520Y54974D01*
X35026Y55480D01*
X35300Y56142D01*
Y56858D01*
X35026Y57520D01*
X34854Y57692D01*
X34810Y57805D01*
X34742Y57877D01*
X34697Y57931D01*
X34660Y57983D01*
X34629Y58034D01*
X34604Y58084D01*
X34585Y58134D01*
X34570Y58184D01*
X34559Y58237D01*
X34552Y58292D01*
X34549Y58377D01*
X34520Y58441D01*
Y58704D01*
X35021Y59205D01*
X35242Y59536D01*
X35320Y59926D01*
Y60917D01*
X35349Y60981D01*
X35352Y61066D01*
X35359Y61121D01*
X35370Y61174D01*
X35385Y61224D01*
X35405Y61274D01*
X35429Y61324D01*
X35460Y61375D01*
X35497Y61427D01*
X35542Y61481D01*
X35610Y61553D01*
X35654Y61666D01*
X35826Y61838D01*
X36100Y62500D01*
Y63216D01*
X35826Y63878D01*
X35320Y64384D01*
X35100Y64475D01*
X34983Y65065D01*
X44375Y74457D01*
X44493Y74424D01*
X44837Y74212D01*
Y73693D01*
X45081Y73105D01*
X45221Y72965D01*
X45263Y72853D01*
X45300Y72813D01*
X45316Y72794D01*
X45329Y72773D01*
X45342Y72749D01*
X45353Y72721D01*
X45364Y72689D01*
X45373Y72651D01*
X45380Y72606D01*
X45386Y72554D01*
X45388Y72475D01*
X45417Y72409D01*
Y64563D01*
X45495Y64173D01*
X45716Y63842D01*
X50480Y59078D01*
Y40000D01*
X50558Y39610D01*
X50779Y39279D01*
X55279Y34779D01*
X55610Y34558D01*
X56000Y34480D01*
X74059D01*
X74123Y34451D01*
X74208Y34448D01*
X74263Y34441D01*
X74316Y34430D01*
X74366Y34415D01*
X74416Y34396D01*
X74466Y34371D01*
X74517Y34340D01*
X74569Y34303D01*
X74623Y34258D01*
X74695Y34190D01*
X74808Y34146D01*
X74980Y33974D01*
X75642Y33700D01*
X76358D01*
X77020Y33974D01*
X77526Y34480D01*
X77800Y35142D01*
Y35858D01*
X77526Y36520D01*
X77020Y37026D01*
X76358Y37300D01*
X75642D01*
X74980Y37026D01*
X74808Y36854D01*
X74695Y36810D01*
X74623Y36742D01*
X74569Y36697D01*
X74517Y36660D01*
X74466Y36629D01*
X74416Y36604D01*
X74366Y36585D01*
X74316Y36570D01*
X74263Y36559D01*
X74208Y36552D01*
X74123Y36549D01*
X74059Y36520D01*
X56422D01*
X52520Y40422D01*
Y59500D01*
X52442Y59890D01*
X52221Y60221D01*
X47457Y64985D01*
Y72409D01*
X47486Y72475D01*
X47488Y72554D01*
X47493Y72606D01*
X47501Y72651D01*
X47510Y72689D01*
X47521Y72721D01*
X47532Y72749D01*
X47545Y72773D01*
X47559Y72794D01*
X47574Y72813D01*
X47611Y72853D01*
X47653Y72965D01*
X47793Y73105D01*
X48037Y73693D01*
Y74329D01*
X47793Y74918D01*
X47343Y75368D01*
X46755Y75611D01*
X46237D01*
X46024Y75955D01*
X45992Y76073D01*
X57269Y87351D01*
X206682D01*
X206801Y87400D01*
X206930D01*
X207021Y87491D01*
X207141Y87541D01*
X207190Y87660D01*
X207282Y87752D01*
X207375Y87976D01*
X207917Y88262D01*
X207989Y88263D01*
X208142Y88200D01*
X208858D01*
X209011Y88263D01*
X209083Y88262D01*
X209625Y87976D01*
X209718Y87752D01*
X209810Y87660D01*
X209859Y87541D01*
X209979Y87491D01*
X210070Y87400D01*
X210199D01*
X210318Y87351D01*
X245231D01*
X319041Y13541D01*
X319500Y13351D01*
X319959Y13541D01*
X334959Y28541D01*
X334959Y28541D01*
X335149Y29000D01*
X335148Y29003D01*
X334959Y29459D01*
X261459Y102959D01*
X261000Y103149D01*
X142976D01*
X142742Y103500D01*
D02*
G37*
G36*
X280500Y104458D02*
Y103000D01*
X281958D01*
X281696Y103633D01*
X281133Y104195D01*
X280500Y104458D01*
D02*
G37*
G36*
X279500D02*
X278867Y104195D01*
X278305Y103633D01*
X278042Y103000D01*
X279500D01*
Y104458D01*
D02*
G37*
G36*
X273500D02*
Y103000D01*
X274958D01*
X274695Y103633D01*
X274133Y104195D01*
X273500Y104458D01*
D02*
G37*
G36*
X272500D02*
X271867Y104195D01*
X271304Y103633D01*
X271042Y103000D01*
X272500D01*
Y104458D01*
D02*
G37*
G36*
X298458Y104000D02*
X297000D01*
Y102542D01*
X297633Y102805D01*
X298196Y103367D01*
X298458Y104000D01*
D02*
G37*
G36*
X296000D02*
X294542D01*
X294805Y103367D01*
X295367Y102805D01*
X296000Y102542D01*
Y104000D01*
D02*
G37*
G36*
X37500Y103958D02*
Y102500D01*
X38958D01*
X38695Y103133D01*
X38133Y103695D01*
X37500Y103958D01*
D02*
G37*
G36*
X36500D02*
X35867Y103695D01*
X35304Y103133D01*
X35042Y102500D01*
X36500D01*
Y103958D01*
D02*
G37*
G36*
X29000D02*
Y102500D01*
X30458D01*
X30196Y103133D01*
X29633Y103695D01*
X29000Y103958D01*
D02*
G37*
G36*
X28000D02*
X27367Y103695D01*
X26805Y103133D01*
X26542Y102500D01*
X28000D01*
Y103958D01*
D02*
G37*
G36*
X281958Y102000D02*
X280500D01*
Y100542D01*
X281133Y100804D01*
X281696Y101367D01*
X281958Y102000D01*
D02*
G37*
G36*
X279500D02*
X278042D01*
X278305Y101367D01*
X278867Y100804D01*
X279500Y100542D01*
Y102000D01*
D02*
G37*
G36*
X274958D02*
X273500D01*
Y100542D01*
X274133Y100804D01*
X274695Y101367D01*
X274958Y102000D01*
D02*
G37*
G36*
X272500D02*
X271042D01*
X271304Y101367D01*
X271867Y100804D01*
X272500Y100542D01*
Y102000D01*
D02*
G37*
G36*
X38958Y101500D02*
X37500D01*
Y100042D01*
X38133Y100304D01*
X38695Y100867D01*
X38958Y101500D01*
D02*
G37*
G36*
X36500D02*
X35042D01*
X35304Y100867D01*
X35867Y100304D01*
X36500Y100042D01*
Y101500D01*
D02*
G37*
G36*
X30458D02*
X29000D01*
Y100042D01*
X29633Y100304D01*
X30196Y100867D01*
X30458Y101500D01*
D02*
G37*
G36*
X28000D02*
X26542D01*
X26805Y100867D01*
X27367Y100304D01*
X28000Y100042D01*
Y101500D01*
D02*
G37*
G36*
X293000Y101458D02*
Y100000D01*
X294458D01*
X294196Y100633D01*
X293633Y101196D01*
X293000Y101458D01*
D02*
G37*
G36*
X292000D02*
X291367Y101196D01*
X290805Y100633D01*
X290542Y100000D01*
X292000D01*
Y101458D01*
D02*
G37*
G36*
X294458Y99000D02*
X293000D01*
Y97542D01*
X293633Y97804D01*
X294196Y98367D01*
X294458Y99000D01*
D02*
G37*
G36*
X292000D02*
X290542D01*
X290805Y98367D01*
X291367Y97804D01*
X292000Y97542D01*
Y99000D01*
D02*
G37*
G36*
X297000Y97458D02*
Y96000D01*
X298458D01*
X298196Y96633D01*
X297633Y97196D01*
X297000Y97458D01*
D02*
G37*
G36*
X296000D02*
X295367Y97196D01*
X294805Y96633D01*
X294542Y96000D01*
X296000D01*
Y97458D01*
D02*
G37*
G36*
X278000Y96958D02*
Y95500D01*
X279458D01*
X279195Y96133D01*
X278633Y96696D01*
X278000Y96958D01*
D02*
G37*
G36*
X277000D02*
X276367Y96696D01*
X275804Y96133D01*
X275542Y95500D01*
X277000D01*
Y96958D01*
D02*
G37*
G36*
X298458Y95000D02*
X297000D01*
Y93542D01*
X297633Y93805D01*
X298196Y94367D01*
X298458Y95000D01*
D02*
G37*
G36*
X296000D02*
X294542D01*
X294805Y94367D01*
X295367Y93805D01*
X296000Y93542D01*
Y95000D01*
D02*
G37*
G36*
X279458Y94500D02*
X278000D01*
Y93042D01*
X278633Y93305D01*
X279195Y93867D01*
X279458Y94500D01*
D02*
G37*
G36*
X277000D02*
X275542D01*
X275804Y93867D01*
X276367Y93305D01*
X277000Y93042D01*
Y94500D01*
D02*
G37*
G36*
X341150Y84822D02*
X338500D01*
Y83500D01*
X342873D01*
X342833Y83697D01*
X342438Y84289D01*
X341847Y84684D01*
X341150Y84822D01*
D02*
G37*
G36*
X337500D02*
X334850D01*
X334153Y84684D01*
X333562Y84289D01*
X333167Y83697D01*
X333127Y83500D01*
X337500D01*
Y84822D01*
D02*
G37*
G36*
X191000Y83427D02*
X191000Y83427D01*
X126000D01*
X126000Y83427D01*
X125454Y83319D01*
X124991Y83009D01*
X124991Y83009D01*
X104100Y62119D01*
X103790Y61656D01*
X103682Y61109D01*
X103682Y61109D01*
Y47426D01*
X103509Y47009D01*
Y46373D01*
X103753Y45785D01*
X104203Y45334D01*
X104791Y45091D01*
X105428D01*
X106016Y45334D01*
X106466Y45785D01*
X106709Y46373D01*
Y47009D01*
X106537Y47426D01*
Y60518D01*
X126591Y80573D01*
X183149D01*
X183248Y80073D01*
X182906Y79931D01*
X182287Y79456D01*
X181813Y78837D01*
X181514Y78117D01*
X181412Y77343D01*
Y74981D01*
X181514Y74208D01*
X181813Y73487D01*
X182287Y72868D01*
X182906Y72394D01*
X183323Y72221D01*
X183325Y72208D01*
X183338Y72119D01*
X183347Y72002D01*
X183351Y71844D01*
X183380Y71777D01*
Y71622D01*
X179279Y67521D01*
X179058Y67190D01*
X178980Y66800D01*
Y51622D01*
X173178Y45820D01*
X164241D01*
X164177Y45849D01*
X164092Y45852D01*
X164037Y45859D01*
X163984Y45870D01*
X163934Y45885D01*
X163884Y45904D01*
X163834Y45929D01*
X163783Y45960D01*
X163731Y45997D01*
X163677Y46042D01*
X163605Y46110D01*
X163492Y46154D01*
X163320Y46326D01*
X162658Y46600D01*
X161942D01*
X161280Y46326D01*
X160774Y45820D01*
X160500Y45158D01*
Y44442D01*
X160774Y43780D01*
X161280Y43274D01*
X161942Y43000D01*
X162658D01*
X163320Y43274D01*
X163492Y43446D01*
X163605Y43490D01*
X163677Y43558D01*
X163731Y43603D01*
X163783Y43640D01*
X163834Y43671D01*
X163884Y43696D01*
X163934Y43715D01*
X163984Y43730D01*
X164037Y43741D01*
X164092Y43748D01*
X164177Y43751D01*
X164241Y43780D01*
X173600D01*
X173990Y43858D01*
X174321Y44079D01*
X180721Y50479D01*
X180942Y50810D01*
X181020Y51200D01*
Y66378D01*
X185121Y70479D01*
X185342Y70810D01*
X185420Y71200D01*
Y71777D01*
X185449Y71844D01*
X185453Y72002D01*
X185462Y72119D01*
X185475Y72208D01*
X185477Y72221D01*
X185894Y72394D01*
X186513Y72868D01*
X186987Y73487D01*
X187286Y74208D01*
X187388Y74981D01*
Y77343D01*
X187286Y78117D01*
X186987Y78837D01*
X186513Y79456D01*
X185894Y79931D01*
X185552Y80073D01*
X185651Y80573D01*
X190409D01*
X192973Y78009D01*
Y76495D01*
X192951Y76445D01*
X192943Y76062D01*
X192922Y75740D01*
X192887Y75469D01*
X192843Y75252D01*
X192805Y75129D01*
X192398Y74817D01*
X192348Y74796D01*
X192338Y74770D01*
X192287Y74732D01*
X191813Y74113D01*
X191514Y73392D01*
X191412Y72619D01*
Y70257D01*
X191514Y69483D01*
X191813Y68763D01*
X192287Y68144D01*
X192906Y67669D01*
X193480Y67431D01*
X193488Y67376D01*
X193497Y67261D01*
X193501Y67105D01*
X193506Y67093D01*
X193502Y67081D01*
X193530Y67022D01*
Y63014D01*
X193501Y62947D01*
X193497Y62790D01*
X193488Y62671D01*
X193475Y62580D01*
X193466Y62538D01*
X193206Y62431D01*
X192587Y61956D01*
X192113Y61337D01*
X191814Y60617D01*
X191712Y59843D01*
Y57481D01*
X191814Y56708D01*
X192113Y55987D01*
X192587Y55368D01*
X193206Y54894D01*
X193927Y54595D01*
X194700Y54493D01*
X195473Y54595D01*
X196194Y54894D01*
X196813Y55368D01*
X197287Y55987D01*
X197586Y56708D01*
X197688Y57481D01*
Y59843D01*
X197586Y60617D01*
X197287Y61337D01*
X196813Y61956D01*
X196194Y62431D01*
X195620Y62669D01*
X195612Y62724D01*
X195603Y62839D01*
X195599Y62995D01*
X195594Y63007D01*
X195598Y63019D01*
X195570Y63078D01*
Y67086D01*
X195599Y67153D01*
X195603Y67310D01*
X195612Y67429D01*
X195625Y67520D01*
X195634Y67562D01*
X195894Y67669D01*
X196513Y68144D01*
X196987Y68763D01*
X197286Y69483D01*
X197388Y70257D01*
Y72619D01*
X197286Y73392D01*
X196987Y74113D01*
X196513Y74732D01*
X196462Y74770D01*
X196452Y74796D01*
X196402Y74817D01*
X195995Y75129D01*
X195957Y75252D01*
X195915Y75459D01*
X195857Y76071D01*
X195849Y76445D01*
X195827Y76495D01*
Y78600D01*
X195827Y78600D01*
X195719Y79146D01*
X195409Y79609D01*
X195409Y79609D01*
X192009Y83009D01*
X191546Y83319D01*
X191000Y83427D01*
D02*
G37*
G36*
X227500Y84458D02*
Y83000D01*
X228958D01*
X228696Y83633D01*
X228133Y84196D01*
X227500Y84458D01*
D02*
G37*
G36*
X226500D02*
X225867Y84196D01*
X225305Y83633D01*
X225042Y83000D01*
X226500D01*
Y84458D01*
D02*
G37*
G36*
X214000Y84674D02*
Y83000D01*
X215674D01*
X215365Y83746D01*
X214746Y84365D01*
X214000Y84674D01*
D02*
G37*
G36*
X213000D02*
X212254Y84365D01*
X211635Y83746D01*
X211326Y83000D01*
X213000D01*
Y84674D01*
D02*
G37*
G36*
X228958Y82000D02*
X227500D01*
Y80542D01*
X228133Y80805D01*
X228696Y81367D01*
X228958Y82000D01*
D02*
G37*
G36*
X226500D02*
X225042D01*
X225305Y81367D01*
X225867Y80805D01*
X226500Y80542D01*
Y82000D01*
D02*
G37*
G36*
X215674D02*
X214000D01*
Y80326D01*
X214746Y80635D01*
X215365Y81254D01*
X215674Y82000D01*
D02*
G37*
G36*
X213000D02*
X211326D01*
X211635Y81254D01*
X212254Y80635D01*
X213000Y80326D01*
Y82000D01*
D02*
G37*
G36*
X234500Y80458D02*
Y79000D01*
X235958D01*
X235696Y79633D01*
X235133Y80195D01*
X234500Y80458D01*
D02*
G37*
G36*
X233500D02*
X232867Y80195D01*
X232305Y79633D01*
X232042Y79000D01*
X233500D01*
Y80458D01*
D02*
G37*
G36*
X56500Y80174D02*
Y78500D01*
X58174D01*
X57865Y79246D01*
X57246Y79865D01*
X56500Y80174D01*
D02*
G37*
G36*
X55500D02*
X54754Y79865D01*
X54135Y79246D01*
X53826Y78500D01*
X55500D01*
Y80174D01*
D02*
G37*
G36*
X348000Y78958D02*
Y77500D01*
X349458D01*
X349196Y78133D01*
X348633Y78695D01*
X348000Y78958D01*
D02*
G37*
G36*
X347000D02*
X346367Y78695D01*
X345805Y78133D01*
X345542Y77500D01*
X347000D01*
Y78958D01*
D02*
G37*
G36*
X156500Y79174D02*
Y77500D01*
X158174D01*
X157865Y78246D01*
X157246Y78865D01*
X156500Y79174D01*
D02*
G37*
G36*
X155500D02*
X154754Y78865D01*
X154135Y78246D01*
X153826Y77500D01*
X155500D01*
Y79174D01*
D02*
G37*
G36*
X144500D02*
Y77500D01*
X146174D01*
X145865Y78246D01*
X145246Y78865D01*
X144500Y79174D01*
D02*
G37*
G36*
X143500D02*
X142754Y78865D01*
X142135Y78246D01*
X141826Y77500D01*
X143500D01*
Y79174D01*
D02*
G37*
G36*
X235958Y78000D02*
X234500D01*
Y76542D01*
X235133Y76805D01*
X235696Y77367D01*
X235958Y78000D01*
D02*
G37*
G36*
X233500D02*
X232042D01*
X232305Y77367D01*
X232867Y76805D01*
X233500Y76542D01*
Y78000D01*
D02*
G37*
G36*
X308500Y77458D02*
Y76000D01*
X309958D01*
X309696Y76633D01*
X309133Y77196D01*
X308500Y77458D01*
D02*
G37*
G36*
X307500D02*
X306867Y77196D01*
X306305Y76633D01*
X306042Y76000D01*
X307500D01*
Y77458D01*
D02*
G37*
G36*
X302500D02*
Y76000D01*
X303958D01*
X303696Y76633D01*
X303133Y77196D01*
X302500Y77458D01*
D02*
G37*
G36*
X301500D02*
X300867Y77196D01*
X300305Y76633D01*
X300042Y76000D01*
X301500D01*
Y77458D01*
D02*
G37*
G36*
X58174Y77500D02*
X56500D01*
Y75826D01*
X57246Y76135D01*
X57865Y76754D01*
X58174Y77500D01*
D02*
G37*
G36*
X55500D02*
X53826D01*
X54135Y76754D01*
X54754Y76135D01*
X55500Y75826D01*
Y77500D01*
D02*
G37*
G36*
X109500Y76958D02*
Y75500D01*
X110958D01*
X110696Y76133D01*
X110133Y76696D01*
X109500Y76958D01*
D02*
G37*
G36*
X108500D02*
X107867Y76696D01*
X107305Y76133D01*
X107042Y75500D01*
X108500D01*
Y76958D01*
D02*
G37*
G36*
X73500Y77174D02*
Y75500D01*
X75174D01*
X74865Y76246D01*
X74246Y76865D01*
X73500Y77174D01*
D02*
G37*
G36*
X72500D02*
X71754Y76865D01*
X71135Y76246D01*
X70826Y75500D01*
X72500D01*
Y77174D01*
D02*
G37*
G36*
X349458Y76500D02*
X348000D01*
Y75042D01*
X348633Y75305D01*
X349196Y75867D01*
X349458Y76500D01*
D02*
G37*
G36*
X347000D02*
X345542D01*
X345805Y75867D01*
X346367Y75305D01*
X347000Y75042D01*
Y76500D01*
D02*
G37*
G36*
X158174D02*
X156500D01*
Y74826D01*
X157246Y75135D01*
X157865Y75754D01*
X158174Y76500D01*
D02*
G37*
G36*
X155500D02*
X153826D01*
X154135Y75754D01*
X154754Y75135D01*
X155500Y74826D01*
Y76500D01*
D02*
G37*
G36*
X146174D02*
X144500D01*
Y74826D01*
X145246Y75135D01*
X145865Y75754D01*
X146174Y76500D01*
D02*
G37*
G36*
X143500D02*
X141826D01*
X142135Y75754D01*
X142754Y75135D01*
X143500Y74826D01*
Y76500D01*
D02*
G37*
G36*
X214000Y75958D02*
Y74500D01*
X215458D01*
X215195Y75133D01*
X214633Y75696D01*
X214000Y75958D01*
D02*
G37*
G36*
X213000D02*
X212367Y75696D01*
X211805Y75133D01*
X211542Y74500D01*
X213000D01*
Y75958D01*
D02*
G37*
G36*
X204000D02*
Y74500D01*
X205458D01*
X205195Y75133D01*
X204633Y75696D01*
X204000Y75958D01*
D02*
G37*
G36*
X203000D02*
X202367Y75696D01*
X201804Y75133D01*
X201542Y74500D01*
X203000D01*
Y75958D01*
D02*
G37*
G36*
X309958Y75000D02*
X308500D01*
Y73542D01*
X309133Y73804D01*
X309696Y74367D01*
X309958Y75000D01*
D02*
G37*
G36*
X307500D02*
X306042D01*
X306305Y74367D01*
X306867Y73804D01*
X307500Y73542D01*
Y75000D01*
D02*
G37*
G36*
X303958D02*
X302500D01*
Y73542D01*
X303133Y73804D01*
X303696Y74367D01*
X303958Y75000D01*
D02*
G37*
G36*
X301500D02*
X300042D01*
X300305Y74367D01*
X300867Y73804D01*
X301500Y73542D01*
Y75000D01*
D02*
G37*
G36*
X110958Y74500D02*
X109500D01*
Y73042D01*
X110133Y73304D01*
X110696Y73867D01*
X110958Y74500D01*
D02*
G37*
G36*
X108500D02*
X107042D01*
X107305Y73867D01*
X107867Y73304D01*
X108500Y73042D01*
Y74500D01*
D02*
G37*
G36*
X75174D02*
X73500D01*
Y72826D01*
X74246Y73135D01*
X74865Y73754D01*
X75174Y74500D01*
D02*
G37*
G36*
X72500D02*
X70826D01*
X71135Y73754D01*
X71754Y73135D01*
X72500Y72826D01*
Y74500D01*
D02*
G37*
G36*
X5413Y75514D02*
X4338D01*
Y72625D01*
X8736D01*
X8686Y73002D01*
X8348Y73820D01*
X7809Y74522D01*
X7107Y75060D01*
X6290Y75399D01*
X5413Y75514D01*
D02*
G37*
G36*
X3338D02*
X2263D01*
X1386Y75399D01*
X568Y75060D01*
X-134Y74522D01*
X-672Y73820D01*
X-1011Y73002D01*
X-1060Y72625D01*
X3338D01*
Y75514D01*
D02*
G37*
G36*
X342873Y82500D02*
X338000D01*
X333127D01*
X333167Y82303D01*
X333371Y81997D01*
X333371Y81969D01*
X333157Y81511D01*
X333115Y81479D01*
X333087Y81468D01*
X330244D01*
X329776Y81375D01*
X329379Y81109D01*
X327172Y78902D01*
X327111Y78878D01*
X327038Y78806D01*
X326916Y78693D01*
X326826Y78621D01*
X326809Y78609D01*
X326805Y78606D01*
X326793Y78600D01*
X326682D01*
X326094Y78356D01*
X325644Y77906D01*
X325400Y77318D01*
Y76682D01*
X325644Y76094D01*
X326094Y75644D01*
X326682Y75400D01*
X327318D01*
X327906Y75644D01*
X328356Y76094D01*
X328600Y76682D01*
Y76793D01*
X328606Y76805D01*
X328608Y76809D01*
X328614Y76817D01*
X328812Y77044D01*
X328877Y77110D01*
X328902Y77172D01*
X330751Y79021D01*
X332480D01*
X332631Y78521D01*
X332578Y78485D01*
X332578Y78485D01*
X331015Y76922D01*
X330962Y76900D01*
X330870Y76808D01*
X330589Y76541D01*
X330580Y76532D01*
X330486D01*
X329824Y76258D01*
X329318Y75752D01*
X329044Y75090D01*
Y74374D01*
X329318Y73713D01*
X329824Y73206D01*
X330486Y72932D01*
X331202D01*
X331864Y73206D01*
X331910Y73253D01*
X332493Y73284D01*
X332537Y73305D01*
X332987D01*
X333254Y72805D01*
X333167Y72674D01*
X333127Y72476D01*
X338000D01*
X342873D01*
X342833Y72674D01*
X342438Y73265D01*
X342360Y73317D01*
X342301Y73958D01*
X342457Y74191D01*
X342564Y74732D01*
X342457Y75274D01*
X342150Y75732D01*
X342035Y75810D01*
Y76411D01*
X342150Y76488D01*
X342457Y76947D01*
X342564Y77488D01*
X342457Y78030D01*
X342150Y78488D01*
X342035Y78566D01*
Y79167D01*
X342150Y79244D01*
X342457Y79703D01*
X342564Y80244D01*
X342457Y80785D01*
X342301Y81018D01*
X342360Y81659D01*
X342438Y81711D01*
X342833Y82303D01*
X342873Y82500D01*
D02*
G37*
G36*
X215458Y73500D02*
X214000D01*
Y72042D01*
X214633Y72304D01*
X215195Y72867D01*
X215458Y73500D01*
D02*
G37*
G36*
X213000D02*
X211542D01*
X211805Y72867D01*
X212367Y72304D01*
X213000Y72042D01*
Y73500D01*
D02*
G37*
G36*
X205458D02*
X204000D01*
Y72042D01*
X204633Y72304D01*
X205195Y72867D01*
X205458Y73500D01*
D02*
G37*
G36*
X203000D02*
X201542D01*
X201804Y72867D01*
X202367Y72304D01*
X203000Y72042D01*
Y73500D01*
D02*
G37*
G36*
X174900Y75944D02*
Y71938D01*
X177791D01*
Y72619D01*
X177676Y73497D01*
X177337Y74314D01*
X176798Y75017D01*
X176096Y75556D01*
X175278Y75895D01*
X174900Y75944D01*
D02*
G37*
G36*
X173900D02*
X173522Y75895D01*
X172704Y75556D01*
X172002Y75017D01*
X171463Y74314D01*
X171124Y73497D01*
X171009Y72619D01*
Y71938D01*
X173900D01*
Y75944D01*
D02*
G37*
G36*
X305500Y72458D02*
Y71000D01*
X306958D01*
X306696Y71633D01*
X306133Y72196D01*
X305500Y72458D01*
D02*
G37*
G36*
X304500D02*
X303867Y72196D01*
X303305Y71633D01*
X303042Y71000D01*
X304500D01*
Y72458D01*
D02*
G37*
G36*
X149500Y71458D02*
Y70000D01*
X150958D01*
X150696Y70633D01*
X150133Y71196D01*
X149500Y71458D01*
D02*
G37*
G36*
X148500D02*
X147867Y71196D01*
X147304Y70633D01*
X147042Y70000D01*
X148500D01*
Y71458D01*
D02*
G37*
G36*
X342873Y71476D02*
X338000D01*
X333127D01*
X333167Y71279D01*
X333562Y70688D01*
Y70509D01*
X333167Y69918D01*
X333127Y69721D01*
X338000D01*
X342873D01*
X342833Y69918D01*
X342438Y70509D01*
Y70688D01*
X342833Y71279D01*
X342873Y71476D01*
D02*
G37*
G36*
X348000Y70958D02*
Y69500D01*
X349458D01*
X349196Y70133D01*
X348633Y70696D01*
X348000Y70958D01*
D02*
G37*
G36*
X347000D02*
X346367Y70696D01*
X345805Y70133D01*
X345542Y69500D01*
X347000D01*
Y70958D01*
D02*
G37*
G36*
X133500Y71174D02*
Y69500D01*
X135174D01*
X134865Y70246D01*
X134246Y70865D01*
X133500Y71174D01*
D02*
G37*
G36*
X132500D02*
X131754Y70865D01*
X131135Y70246D01*
X130826Y69500D01*
X132500D01*
Y71174D01*
D02*
G37*
G36*
X8736Y71625D02*
X4338D01*
Y68736D01*
X5413D01*
X6290Y68852D01*
X7107Y69190D01*
X7809Y69729D01*
X8348Y70431D01*
X8686Y71248D01*
X8736Y71625D01*
D02*
G37*
G36*
X3338D02*
X-1060D01*
X-1011Y71248D01*
X-672Y70431D01*
X-134Y69729D01*
X568Y69190D01*
X1386Y68852D01*
X2263Y68736D01*
X3338D01*
Y71625D01*
D02*
G37*
G36*
X306958Y70000D02*
X305500D01*
Y68542D01*
X306133Y68805D01*
X306696Y69367D01*
X306958Y70000D01*
D02*
G37*
G36*
X304500D02*
X303042D01*
X303305Y69367D01*
X303867Y68805D01*
X304500Y68542D01*
Y70000D01*
D02*
G37*
G36*
X81500Y70174D02*
Y68500D01*
X83174D01*
X82865Y69246D01*
X82246Y69865D01*
X81500Y70174D01*
D02*
G37*
G36*
X80500D02*
X79754Y69865D01*
X79135Y69246D01*
X78826Y68500D01*
X80500D01*
Y70174D01*
D02*
G37*
G36*
X73500D02*
Y68500D01*
X75174D01*
X74865Y69246D01*
X74246Y69865D01*
X73500Y70174D01*
D02*
G37*
G36*
X72500D02*
X71754Y69865D01*
X71135Y69246D01*
X70826Y68500D01*
X72500D01*
Y70174D01*
D02*
G37*
G36*
X150958Y69000D02*
X149500D01*
Y67542D01*
X150133Y67804D01*
X150696Y68367D01*
X150958Y69000D01*
D02*
G37*
G36*
X148500D02*
X147042D01*
X147304Y68367D01*
X147867Y67804D01*
X148500Y67542D01*
Y69000D01*
D02*
G37*
G36*
X349458Y68500D02*
X348000D01*
Y67042D01*
X348633Y67304D01*
X349196Y67867D01*
X349458Y68500D01*
D02*
G37*
G36*
X347000D02*
X345542D01*
X345805Y67867D01*
X346367Y67304D01*
X347000Y67042D01*
Y68500D01*
D02*
G37*
G36*
X177791Y70938D02*
X174900D01*
Y66931D01*
X175278Y66981D01*
X176096Y67320D01*
X176798Y67859D01*
X177337Y68561D01*
X177676Y69379D01*
X177791Y70257D01*
Y70938D01*
D02*
G37*
G36*
X173900D02*
X171009D01*
Y70257D01*
X171124Y69379D01*
X171463Y68561D01*
X172002Y67859D01*
X172704Y67320D01*
X173522Y66981D01*
X173900Y66931D01*
Y70938D01*
D02*
G37*
G36*
X135174Y68500D02*
X133500D01*
Y66826D01*
X134246Y67135D01*
X134865Y67754D01*
X135174Y68500D01*
D02*
G37*
G36*
X132500D02*
X130826D01*
X131135Y67754D01*
X131754Y67135D01*
X132500Y66826D01*
Y68500D01*
D02*
G37*
G36*
X83174Y67500D02*
X81500D01*
Y65826D01*
X82246Y66135D01*
X82865Y66754D01*
X83174Y67500D01*
D02*
G37*
G36*
X80500D02*
X78826D01*
X79135Y66754D01*
X79754Y66135D01*
X80500Y65826D01*
Y67500D01*
D02*
G37*
G36*
X75174D02*
X73500D01*
Y65826D01*
X74246Y66135D01*
X74865Y66754D01*
X75174Y67500D01*
D02*
G37*
G36*
X72500D02*
X70826D01*
X71135Y66754D01*
X71754Y66135D01*
X72500Y65826D01*
Y67500D01*
D02*
G37*
G36*
X141500Y63458D02*
Y62000D01*
X142958D01*
X142695Y62633D01*
X142133Y63196D01*
X141500Y63458D01*
D02*
G37*
G36*
X140500D02*
X139867Y63196D01*
X139304Y62633D01*
X139042Y62000D01*
X140500D01*
Y63458D01*
D02*
G37*
G36*
X73500Y62674D02*
Y61000D01*
X75174D01*
X74865Y61746D01*
X74246Y62365D01*
X73500Y62674D01*
D02*
G37*
G36*
X72500D02*
X71754Y62365D01*
X71135Y61746D01*
X70826Y61000D01*
X72500D01*
Y62674D01*
D02*
G37*
G36*
X142958Y61000D02*
X141500D01*
Y59542D01*
X142133Y59804D01*
X142695Y60367D01*
X142958Y61000D01*
D02*
G37*
G36*
X140500D02*
X139042D01*
X139304Y60367D01*
X139867Y59804D01*
X140500Y59542D01*
Y61000D01*
D02*
G37*
G36*
X175200Y63169D02*
Y59162D01*
X178091D01*
Y59843D01*
X177976Y60721D01*
X177637Y61539D01*
X177098Y62241D01*
X176396Y62780D01*
X175578Y63119D01*
X175200Y63169D01*
D02*
G37*
G36*
X174200D02*
X173822Y63119D01*
X173004Y62780D01*
X172302Y62241D01*
X171763Y61539D01*
X171424Y60721D01*
X171309Y59843D01*
Y59162D01*
X174200D01*
Y63169D01*
D02*
G37*
G36*
X75174Y60000D02*
X73500D01*
Y58326D01*
X74246Y58635D01*
X74865Y59254D01*
X75174Y60000D01*
D02*
G37*
G36*
X72500D02*
X70826D01*
X71135Y59254D01*
X71754Y58635D01*
X72500Y58326D01*
Y60000D01*
D02*
G37*
G36*
X110500Y58958D02*
Y57500D01*
X111958D01*
X111696Y58133D01*
X111133Y58696D01*
X110500Y58958D01*
D02*
G37*
G36*
X109500D02*
X108867Y58696D01*
X108305Y58133D01*
X108042Y57500D01*
X109500D01*
Y58958D01*
D02*
G37*
G36*
X100500D02*
Y57500D01*
X101958D01*
X101696Y58133D01*
X101133Y58696D01*
X100500Y58958D01*
D02*
G37*
G36*
X99500D02*
X98867Y58696D01*
X98304Y58133D01*
X98042Y57500D01*
X99500D01*
Y58958D01*
D02*
G37*
G36*
X47000Y57674D02*
Y56000D01*
X48674D01*
X48365Y56746D01*
X47746Y57365D01*
X47000Y57674D01*
D02*
G37*
G36*
X46000D02*
X45254Y57365D01*
X44635Y56746D01*
X44326Y56000D01*
X46000D01*
Y57674D01*
D02*
G37*
G36*
X7811Y57868D02*
X5411D01*
Y55618D01*
X7811D01*
Y57868D01*
D02*
G37*
G36*
X4411D02*
X2011D01*
Y55618D01*
X4411D01*
Y57868D01*
D02*
G37*
G36*
X111958Y56500D02*
X110500D01*
Y55042D01*
X111133Y55304D01*
X111696Y55867D01*
X111958Y56500D01*
D02*
G37*
G36*
X109500D02*
X108042D01*
X108305Y55867D01*
X108867Y55304D01*
X109500Y55042D01*
Y56500D01*
D02*
G37*
G36*
X101958D02*
X100500D01*
Y55042D01*
X101133Y55304D01*
X101696Y55867D01*
X101958Y56500D01*
D02*
G37*
G36*
X99500D02*
X98042D01*
X98304Y55867D01*
X98867Y55304D01*
X99500Y55042D01*
Y56500D01*
D02*
G37*
G36*
X342873Y68721D02*
X338000D01*
X333127D01*
X333167Y68523D01*
X333502Y68022D01*
X333496Y67918D01*
X333418Y67671D01*
X333320Y67492D01*
X333302Y67484D01*
X332076D01*
X331686Y67407D01*
X331355Y67185D01*
X328451Y64281D01*
X328385Y64257D01*
X328323Y64200D01*
X328279Y64165D01*
X328235Y64136D01*
X328188Y64111D01*
X328139Y64089D01*
X328086Y64071D01*
X328029Y64057D01*
X327965Y64046D01*
X327895Y64040D01*
X327797Y64037D01*
X327685Y63988D01*
X327442D01*
X326780Y63714D01*
X326274Y63208D01*
X326000Y62546D01*
Y61830D01*
X326274Y61169D01*
X326780Y60662D01*
X327442Y60388D01*
X328158D01*
X328820Y60662D01*
X329326Y61169D01*
X329600Y61830D01*
Y62074D01*
X329649Y62185D01*
X329651Y62284D01*
X329658Y62353D01*
X329669Y62417D01*
X329683Y62475D01*
X329701Y62527D01*
X329722Y62576D01*
X329748Y62623D01*
X329777Y62667D01*
X329811Y62711D01*
X329869Y62774D01*
X329893Y62839D01*
X332499Y65445D01*
X333302D01*
X333369Y65415D01*
X333484Y65412D01*
X333578Y65405D01*
X333667Y65393D01*
X333752Y65377D01*
X333832Y65357D01*
X333979Y64882D01*
X333932Y64764D01*
X333850Y64709D01*
X333543Y64250D01*
X333436Y63709D01*
X333543Y63167D01*
X333850Y62708D01*
X333965Y62631D01*
Y62030D01*
X333850Y61953D01*
X333543Y61494D01*
X333436Y60953D01*
X333543Y60411D01*
X333850Y59952D01*
X333932Y59898D01*
X333979Y59779D01*
X333832Y59304D01*
X333752Y59284D01*
X333676Y59270D01*
X333475Y59249D01*
X333369Y59246D01*
X333302Y59216D01*
X328799D01*
X328733Y59246D01*
X328654Y59248D01*
X328602Y59253D01*
X328557Y59261D01*
X328519Y59270D01*
X328486Y59281D01*
X328459Y59292D01*
X328435Y59305D01*
X328414Y59318D01*
X328395Y59334D01*
X328355Y59371D01*
X328244Y59413D01*
X328103Y59553D01*
X327515Y59797D01*
X326879D01*
X326290Y59553D01*
X325840Y59103D01*
X325597Y58515D01*
Y57879D01*
X325840Y57291D01*
X326290Y56840D01*
X326879Y56597D01*
X327515D01*
X328103Y56840D01*
X328244Y56981D01*
X328355Y57023D01*
X328395Y57060D01*
X328414Y57075D01*
X328435Y57089D01*
X328459Y57102D01*
X328486Y57113D01*
X328519Y57124D01*
X328557Y57133D01*
X328602Y57140D01*
X328654Y57145D01*
X328733Y57148D01*
X328799Y57177D01*
X333302D01*
X333369Y57148D01*
X333484Y57145D01*
X333484Y57145D01*
X333576Y57031D01*
X333681Y56834D01*
X333619Y56690D01*
X333478Y56493D01*
X333475Y56493D01*
X333369Y56490D01*
X333302Y56460D01*
X330553D01*
X330163Y56383D01*
X329832Y56162D01*
X328951Y55281D01*
X328886Y55257D01*
X328823Y55199D01*
X328779Y55165D01*
X328734Y55136D01*
X328688Y55111D01*
X328639Y55089D01*
X328587Y55071D01*
X328529Y55057D01*
X328465Y55046D01*
X328395Y55040D01*
X328297Y55037D01*
X328186Y54988D01*
X327942D01*
X327280Y54714D01*
X326774Y54208D01*
X326500Y53546D01*
Y52830D01*
X326774Y52169D01*
X327280Y51662D01*
X327942Y51388D01*
X328658D01*
X329320Y51662D01*
X329826Y52169D01*
X330100Y52830D01*
Y53074D01*
X330149Y53185D01*
X330152Y53284D01*
X330158Y53353D01*
X330169Y53417D01*
X330183Y53475D01*
X330201Y53527D01*
X330223Y53576D01*
X330247Y53623D01*
X330277Y53667D01*
X330311Y53711D01*
X330369Y53774D01*
X330393Y53839D01*
X330975Y54421D01*
X333302D01*
X333320Y54413D01*
X333415Y54241D01*
X333500Y53961D01*
X333503Y53886D01*
X333167Y53382D01*
X333127Y53185D01*
X338000D01*
Y52685D01*
D01*
Y53185D01*
X342873D01*
X342833Y53382D01*
X342438Y53974D01*
X342360Y54026D01*
X342301Y54667D01*
X342457Y54900D01*
X342564Y55441D01*
X342457Y55982D01*
X342150Y56441D01*
X342035Y56518D01*
Y57120D01*
X342150Y57197D01*
X342457Y57656D01*
X342564Y58197D01*
X342457Y58738D01*
X342150Y59197D01*
X342068Y59252D01*
X342021Y59370D01*
X342168Y59845D01*
X342248Y59865D01*
X342324Y59880D01*
X342525Y59901D01*
X342631Y59904D01*
X342698Y59933D01*
X343513D01*
X343707Y59739D01*
X343731Y59674D01*
X343789Y59611D01*
X343823Y59567D01*
X343852Y59523D01*
X343878Y59476D01*
X343899Y59427D01*
X343917Y59375D01*
X343931Y59317D01*
X343942Y59253D01*
X343949Y59184D01*
X343951Y59085D01*
X344000Y58974D01*
Y58730D01*
X344274Y58069D01*
X344780Y57562D01*
X345442Y57288D01*
X346158D01*
X346742Y57530D01*
X346982Y57380D01*
X347145Y57197D01*
X347000Y56846D01*
Y56130D01*
X347274Y55469D01*
X347780Y54962D01*
X348442Y54688D01*
X349158D01*
X349820Y54962D01*
X350326Y55469D01*
X350600Y56130D01*
Y56846D01*
X350326Y57508D01*
X350154Y57680D01*
X350110Y57794D01*
X350042Y57865D01*
X349997Y57919D01*
X349960Y57971D01*
X349929Y58022D01*
X349904Y58072D01*
X349885Y58122D01*
X349870Y58172D01*
X349859Y58225D01*
X349852Y58280D01*
X349849Y58365D01*
X349820Y58429D01*
Y61888D01*
X349742Y62278D01*
X349521Y62609D01*
X347701Y64430D01*
X347370Y64651D01*
X346979Y64728D01*
X342698D01*
X342631Y64758D01*
X342516Y64761D01*
X342422Y64768D01*
X342333Y64780D01*
X342248Y64796D01*
X342168Y64816D01*
X342021Y65291D01*
X342068Y65410D01*
X342150Y65464D01*
X342457Y65923D01*
X342564Y66465D01*
X342457Y67006D01*
X342301Y67239D01*
X342360Y67880D01*
X342438Y67932D01*
X342833Y68523D01*
X342873Y68721D01*
D02*
G37*
G36*
X178091Y58162D02*
X175200D01*
Y54156D01*
X175578Y54205D01*
X176396Y54544D01*
X177098Y55083D01*
X177637Y55786D01*
X177976Y56603D01*
X178091Y57481D01*
Y58162D01*
D02*
G37*
G36*
X174200D02*
X171309D01*
Y57481D01*
X171424Y56603D01*
X171763Y55786D01*
X172302Y55083D01*
X173004Y54544D01*
X173822Y54205D01*
X174200Y54156D01*
Y58162D01*
D02*
G37*
G36*
X38358Y62800D02*
X37642D01*
X36980Y62526D01*
X36474Y62020D01*
X36200Y61358D01*
Y60642D01*
X36474Y59980D01*
X36646Y59808D01*
X36690Y59695D01*
X36758Y59623D01*
X36803Y59569D01*
X36840Y59517D01*
X36871Y59466D01*
X36895Y59416D01*
X36915Y59366D01*
X36930Y59316D01*
X36941Y59263D01*
X36948Y59208D01*
X36951Y59123D01*
X36980Y59059D01*
Y55422D01*
X35578Y54020D01*
X32941D01*
X32877Y54049D01*
X32792Y54052D01*
X32737Y54059D01*
X32684Y54070D01*
X32634Y54085D01*
X32584Y54105D01*
X32534Y54129D01*
X32483Y54160D01*
X32431Y54197D01*
X32377Y54242D01*
X32305Y54310D01*
X32192Y54354D01*
X32020Y54526D01*
X31358Y54800D01*
X30642D01*
X29980Y54526D01*
X29474Y54020D01*
X29200Y53358D01*
Y52642D01*
X29474Y51980D01*
X29980Y51474D01*
X30642Y51200D01*
X31358D01*
X32020Y51474D01*
X32192Y51646D01*
X32305Y51690D01*
X32377Y51758D01*
X32431Y51803D01*
X32483Y51840D01*
X32534Y51871D01*
X32584Y51896D01*
X32634Y51915D01*
X32684Y51930D01*
X32737Y51941D01*
X32792Y51948D01*
X32877Y51951D01*
X32941Y51980D01*
X36000D01*
X36390Y52058D01*
X36721Y52279D01*
X38721Y54279D01*
X38942Y54610D01*
X39020Y55000D01*
Y59059D01*
X39049Y59123D01*
X39052Y59208D01*
X39059Y59263D01*
X39070Y59316D01*
X39085Y59366D01*
X39105Y59416D01*
X39129Y59466D01*
X39160Y59517D01*
X39197Y59569D01*
X39242Y59623D01*
X39310Y59695D01*
X39354Y59808D01*
X39526Y59980D01*
X39800Y60642D01*
Y61358D01*
X39526Y62020D01*
X39020Y62526D01*
X38358Y62800D01*
D02*
G37*
G36*
X48674Y55000D02*
X47000D01*
Y53326D01*
X47746Y53635D01*
X48365Y54254D01*
X48674Y55000D01*
D02*
G37*
G36*
X46000D02*
X44326D01*
X44635Y54254D01*
X45254Y53635D01*
X46000Y53326D01*
Y55000D01*
D02*
G37*
G36*
X225500Y54174D02*
Y52500D01*
X227174D01*
X226865Y53246D01*
X226246Y53865D01*
X225500Y54174D01*
D02*
G37*
G36*
X224500D02*
X223754Y53865D01*
X223135Y53246D01*
X222826Y52500D01*
X224500D01*
Y54174D01*
D02*
G37*
G36*
X216500D02*
Y52500D01*
X218174D01*
X217865Y53246D01*
X217246Y53865D01*
X216500Y54174D01*
D02*
G37*
G36*
X215500D02*
X214754Y53865D01*
X214135Y53246D01*
X213826Y52500D01*
X215500D01*
Y54174D01*
D02*
G37*
G36*
X7811Y54618D02*
X5411D01*
Y52368D01*
X7811D01*
Y54618D01*
D02*
G37*
G36*
X4411D02*
X2011D01*
Y52368D01*
X4411D01*
Y54618D01*
D02*
G37*
G36*
X342873Y52185D02*
X338500D01*
Y50863D01*
X341150D01*
X341847Y51001D01*
X342438Y51396D01*
X342833Y51988D01*
X342873Y52185D01*
D02*
G37*
G36*
X337500D02*
X333127D01*
X333167Y51988D01*
X333562Y51396D01*
X334153Y51001D01*
X334850Y50863D01*
X337500D01*
Y52185D01*
D02*
G37*
G36*
X227174Y51500D02*
X225500D01*
Y49826D01*
X226246Y50135D01*
X226865Y50754D01*
X227174Y51500D01*
D02*
G37*
G36*
X224500D02*
X222826D01*
X223135Y50754D01*
X223754Y50135D01*
X224500Y49826D01*
Y51500D01*
D02*
G37*
G36*
X218174D02*
X216500D01*
Y49826D01*
X217246Y50135D01*
X217865Y50754D01*
X218174Y51500D01*
D02*
G37*
G36*
X215500D02*
X213826D01*
X214135Y50754D01*
X214754Y50135D01*
X215500Y49826D01*
Y51500D01*
D02*
G37*
G36*
X94000Y49674D02*
Y48000D01*
X95674D01*
X95365Y48746D01*
X94746Y49365D01*
X94000Y49674D01*
D02*
G37*
G36*
X93000D02*
X92254Y49365D01*
X91635Y48746D01*
X91326Y48000D01*
X93000D01*
Y49674D01*
D02*
G37*
G36*
X60500Y46958D02*
Y45500D01*
X61958D01*
X61695Y46133D01*
X61133Y46696D01*
X60500Y46958D01*
D02*
G37*
G36*
X59500D02*
X58867Y46696D01*
X58305Y46133D01*
X58042Y45500D01*
X59500D01*
Y46958D01*
D02*
G37*
G36*
X95674Y47000D02*
X94000D01*
Y45326D01*
X94746Y45635D01*
X95365Y46254D01*
X95674Y47000D01*
D02*
G37*
G36*
X93000D02*
X91326D01*
X91635Y46254D01*
X92254Y45635D01*
X93000Y45326D01*
Y47000D01*
D02*
G37*
G36*
X61958Y44500D02*
X60500D01*
Y43042D01*
X61133Y43304D01*
X61695Y43867D01*
X61958Y44500D01*
D02*
G37*
G36*
X59500D02*
X58042D01*
X58305Y43867D01*
X58867Y43304D01*
X59500Y43042D01*
Y44500D01*
D02*
G37*
G36*
X184700Y58107D02*
X183927Y58005D01*
X183206Y57706D01*
X182587Y57232D01*
X182113Y56613D01*
X181814Y55892D01*
X181712Y55119D01*
Y52757D01*
X181814Y51983D01*
X182113Y51263D01*
X182587Y50644D01*
X183206Y50169D01*
X183623Y49997D01*
X183625Y49984D01*
X183638Y49895D01*
X183647Y49777D01*
X183651Y49620D01*
X183680Y49553D01*
Y45622D01*
X179668Y41610D01*
X161650D01*
X161586Y41640D01*
X161502Y41643D01*
X161446Y41649D01*
X161394Y41660D01*
X161343Y41675D01*
X161293Y41695D01*
X161244Y41720D01*
X161193Y41750D01*
X161140Y41787D01*
X161086Y41832D01*
X161015Y41900D01*
X160901Y41944D01*
X160729Y42116D01*
X160067Y42390D01*
X159351D01*
X158690Y42116D01*
X158184Y41610D01*
X157910Y40949D01*
Y40233D01*
X158184Y39571D01*
X158690Y39065D01*
X159351Y38791D01*
X160067D01*
X160729Y39065D01*
X160901Y39237D01*
X161015Y39281D01*
X161086Y39349D01*
X161140Y39394D01*
X161193Y39431D01*
X161244Y39461D01*
X161294Y39486D01*
X161343Y39506D01*
X161394Y39521D01*
X161446Y39531D01*
X161502Y39538D01*
X161586Y39542D01*
X161650Y39571D01*
X180090D01*
X180481Y39649D01*
X180812Y39870D01*
X185421Y44479D01*
X185642Y44810D01*
X185720Y45200D01*
Y49553D01*
X185749Y49620D01*
X185753Y49777D01*
X185762Y49895D01*
X185775Y49984D01*
X185777Y49997D01*
X186194Y50169D01*
X186813Y50644D01*
X187287Y51263D01*
X187586Y51983D01*
X187688Y52757D01*
Y55119D01*
X187586Y55892D01*
X187287Y56613D01*
X186813Y57232D01*
X186194Y57706D01*
X185473Y58005D01*
X184700Y58107D01*
D02*
G37*
G36*
X278000Y42958D02*
Y41500D01*
X279458D01*
X279195Y42133D01*
X278633Y42696D01*
X278000Y42958D01*
D02*
G37*
G36*
X277000D02*
X276367Y42696D01*
X275804Y42133D01*
X275542Y41500D01*
X277000D01*
Y42958D01*
D02*
G37*
G36*
X106500Y42174D02*
Y40500D01*
X108174D01*
X107865Y41246D01*
X107246Y41865D01*
X106500Y42174D01*
D02*
G37*
G36*
X105500D02*
X104754Y41865D01*
X104135Y41246D01*
X103826Y40500D01*
X105500D01*
Y42174D01*
D02*
G37*
G36*
X99000D02*
Y40500D01*
X100674D01*
X100365Y41246D01*
X99746Y41865D01*
X99000Y42174D01*
D02*
G37*
G36*
X98000D02*
X97254Y41865D01*
X96635Y41246D01*
X96326Y40500D01*
X98000D01*
Y42174D01*
D02*
G37*
G36*
X72500D02*
Y40500D01*
X74174D01*
X73865Y41246D01*
X73246Y41865D01*
X72500Y42174D01*
D02*
G37*
G36*
X71500D02*
X70754Y41865D01*
X70135Y41246D01*
X69826Y40500D01*
X71500D01*
Y42174D01*
D02*
G37*
G36*
X279458Y40500D02*
X278000D01*
Y39042D01*
X278633Y39305D01*
X279195Y39867D01*
X279458Y40500D01*
D02*
G37*
G36*
X277000D02*
X275542D01*
X275804Y39867D01*
X276367Y39305D01*
X277000Y39042D01*
Y40500D01*
D02*
G37*
G36*
X22338Y41494D02*
X20668D01*
Y38605D01*
X25661D01*
X25611Y38982D01*
X25273Y39800D01*
X24734Y40502D01*
X24032Y41040D01*
X23215Y41379D01*
X22338Y41494D01*
D02*
G37*
G36*
X5413D02*
X4338D01*
Y38605D01*
X8736D01*
X8686Y38982D01*
X8348Y39800D01*
X7809Y40502D01*
X7107Y41040D01*
X6290Y41379D01*
X5413Y41494D01*
D02*
G37*
G36*
X3338D02*
X2263D01*
X1386Y41379D01*
X568Y41040D01*
X-134Y40502D01*
X-672Y39800D01*
X-1011Y38982D01*
X-1060Y38605D01*
X3338D01*
Y41494D01*
D02*
G37*
G36*
X79658Y60000D02*
X78942D01*
X78280Y59726D01*
X77774Y59220D01*
X77500Y58558D01*
Y57842D01*
X77774Y57180D01*
X77946Y57008D01*
X77990Y56895D01*
X78058Y56823D01*
X78103Y56769D01*
X78140Y56717D01*
X78171Y56666D01*
X78196Y56616D01*
X78215Y56566D01*
X78230Y56516D01*
X78241Y56463D01*
X78248Y56408D01*
X78251Y56323D01*
X78280Y56259D01*
Y36100D01*
X78358Y35710D01*
X78579Y35379D01*
X87079Y26879D01*
X87410Y26658D01*
X87800Y26580D01*
X96378D01*
X101280Y21678D01*
Y7553D01*
X94447D01*
Y447D01*
X101553D01*
Y5998D01*
X102053Y6205D01*
X110479Y-2221D01*
X110810Y-2442D01*
X111200Y-2520D01*
X166000D01*
X166390Y-2442D01*
X166721Y-2221D01*
X171021Y2079D01*
X171242Y2410D01*
X171320Y2800D01*
Y14578D01*
X195522Y38780D01*
X199056D01*
X199120Y38751D01*
X199205Y38748D01*
X199260Y38741D01*
X199313Y38730D01*
X199363Y38715D01*
X199413Y38695D01*
X199463Y38671D01*
X199514Y38640D01*
X199566Y38603D01*
X199620Y38558D01*
X199692Y38490D01*
X199805Y38446D01*
X199977Y38274D01*
X200639Y38000D01*
X201355D01*
X202017Y38274D01*
X202523Y38780D01*
X202797Y39442D01*
Y40158D01*
X202523Y40820D01*
X202017Y41326D01*
X201355Y41600D01*
X200639D01*
X199977Y41326D01*
X199805Y41154D01*
X199692Y41110D01*
X199620Y41042D01*
X199566Y40997D01*
X199514Y40960D01*
X199463Y40929D01*
X199413Y40905D01*
X199363Y40885D01*
X199313Y40870D01*
X199260Y40859D01*
X199205Y40852D01*
X199120Y40849D01*
X199056Y40820D01*
X195100D01*
X194710Y40742D01*
X194379Y40521D01*
X169579Y15721D01*
X169358Y15390D01*
X169280Y15000D01*
Y3222D01*
X165578Y-480D01*
X162148D01*
X162082Y20D01*
X162271Y70D01*
X163217Y617D01*
X163990Y1389D01*
X164536Y2335D01*
X164819Y3391D01*
Y3437D01*
X156520D01*
Y3391D01*
X156802Y2335D01*
X157349Y1389D01*
X158121Y617D01*
X159068Y70D01*
X159256Y20D01*
X159191Y-480D01*
X111622D01*
X103320Y7822D01*
Y22100D01*
X103242Y22490D01*
X103021Y22821D01*
X97521Y28321D01*
X97190Y28542D01*
X96800Y28620D01*
X88222D01*
X80320Y36522D01*
Y56259D01*
X80349Y56323D01*
X80352Y56408D01*
X80359Y56463D01*
X80370Y56516D01*
X80385Y56566D01*
X80405Y56616D01*
X80429Y56666D01*
X80460Y56717D01*
X80497Y56769D01*
X80542Y56823D01*
X80610Y56895D01*
X80654Y57008D01*
X80826Y57180D01*
X81100Y57842D01*
Y58558D01*
X80826Y59220D01*
X80320Y59726D01*
X79658Y60000D01*
D02*
G37*
G36*
X108174Y39500D02*
X106500D01*
Y37826D01*
X107246Y38135D01*
X107865Y38754D01*
X108174Y39500D01*
D02*
G37*
G36*
X105500D02*
X103826D01*
X104135Y38754D01*
X104754Y38135D01*
X105500Y37826D01*
Y39500D01*
D02*
G37*
G36*
X100674D02*
X99000D01*
Y37826D01*
X99746Y38135D01*
X100365Y38754D01*
X100674Y39500D01*
D02*
G37*
G36*
X98000D02*
X96326D01*
X96635Y38754D01*
X97254Y38135D01*
X98000Y37826D01*
Y39500D01*
D02*
G37*
G36*
X74174D02*
X72500D01*
Y37826D01*
X73246Y38135D01*
X73865Y38754D01*
X74174Y39500D01*
D02*
G37*
G36*
X71500D02*
X69826D01*
X70135Y38754D01*
X70754Y38135D01*
X71500Y37826D01*
Y39500D01*
D02*
G37*
G36*
X25661Y37605D02*
X20668D01*
Y34716D01*
X22338D01*
X23215Y34832D01*
X24032Y35170D01*
X24734Y35709D01*
X25273Y36411D01*
X25611Y37228D01*
X25661Y37605D01*
D02*
G37*
G36*
X19668D02*
X14674D01*
X14724Y37228D01*
X15063Y36411D01*
X15601Y35709D01*
X16303Y35170D01*
X17120Y34832D01*
X17998Y34716D01*
X19668D01*
Y37605D01*
D02*
G37*
G36*
X8736D02*
X4338D01*
Y34716D01*
X5413D01*
X6290Y34832D01*
X7107Y35170D01*
X7809Y35709D01*
X8348Y36411D01*
X8686Y37228D01*
X8736Y37605D01*
D02*
G37*
G36*
X3338D02*
X-1060D01*
X-1011Y37228D01*
X-672Y36411D01*
X-134Y35709D01*
X568Y35170D01*
X1386Y34832D01*
X2263Y34716D01*
X3338D01*
Y37605D01*
D02*
G37*
G36*
X293000Y31958D02*
Y30500D01*
X294458D01*
X294196Y31133D01*
X293633Y31696D01*
X293000Y31958D01*
D02*
G37*
G36*
X292000D02*
X291367Y31696D01*
X290805Y31133D01*
X290542Y30500D01*
X292000D01*
Y31958D01*
D02*
G37*
G36*
X135000D02*
Y30500D01*
X136458D01*
X136196Y31133D01*
X135633Y31696D01*
X135000Y31958D01*
D02*
G37*
G36*
X134000D02*
X133367Y31696D01*
X132805Y31133D01*
X132542Y30500D01*
X134000D01*
Y31958D01*
D02*
G37*
G36*
X123000D02*
Y30500D01*
X124458D01*
X124196Y31133D01*
X123633Y31696D01*
X123000Y31958D01*
D02*
G37*
G36*
X122000D02*
X121367Y31696D01*
X120805Y31133D01*
X120542Y30500D01*
X122000D01*
Y31958D01*
D02*
G37*
G36*
X72500Y32174D02*
Y30500D01*
X74174D01*
X73865Y31246D01*
X73246Y31865D01*
X72500Y32174D01*
D02*
G37*
G36*
X71500D02*
X70754Y31865D01*
X70135Y31246D01*
X69826Y30500D01*
X71500D01*
Y32174D01*
D02*
G37*
G36*
X47500Y31958D02*
Y30500D01*
X48958D01*
X48695Y31133D01*
X48133Y31696D01*
X47500Y31958D01*
D02*
G37*
G36*
X46500D02*
X45867Y31696D01*
X45305Y31133D01*
X45042Y30500D01*
X46500D01*
Y31958D01*
D02*
G37*
G36*
X294458Y29500D02*
X293000D01*
Y28042D01*
X293633Y28304D01*
X294196Y28867D01*
X294458Y29500D01*
D02*
G37*
G36*
X292000D02*
X290542D01*
X290805Y28867D01*
X291367Y28304D01*
X292000Y28042D01*
Y29500D01*
D02*
G37*
G36*
X136458D02*
X135000D01*
Y28042D01*
X135633Y28304D01*
X136196Y28867D01*
X136458Y29500D01*
D02*
G37*
G36*
X134000D02*
X132542D01*
X132805Y28867D01*
X133367Y28304D01*
X134000Y28042D01*
Y29500D01*
D02*
G37*
G36*
X124458D02*
X123000D01*
Y28042D01*
X123633Y28304D01*
X124196Y28867D01*
X124458Y29500D01*
D02*
G37*
G36*
X122000D02*
X120542D01*
X120805Y28867D01*
X121367Y28304D01*
X122000Y28042D01*
Y29500D01*
D02*
G37*
G36*
X48958D02*
X47500D01*
Y28042D01*
X48133Y28304D01*
X48695Y28867D01*
X48958Y29500D01*
D02*
G37*
G36*
X46500D02*
X45042D01*
X45305Y28867D01*
X45867Y28304D01*
X46500Y28042D01*
Y29500D01*
D02*
G37*
G36*
X74174D02*
X72500D01*
Y27826D01*
X73246Y28135D01*
X73865Y28754D01*
X74174Y29500D01*
D02*
G37*
G36*
X71500D02*
X69826D01*
X70135Y28754D01*
X70754Y28135D01*
X71500Y27826D01*
Y29500D01*
D02*
G37*
G36*
X26500Y28174D02*
Y26500D01*
X28174D01*
X27865Y27246D01*
X27246Y27865D01*
X26500Y28174D01*
D02*
G37*
G36*
X25500D02*
X24754Y27865D01*
X24135Y27246D01*
X23826Y26500D01*
X25500D01*
Y28174D01*
D02*
G37*
G36*
X17500D02*
Y26500D01*
X19174D01*
X18865Y27246D01*
X18246Y27865D01*
X17500Y28174D01*
D02*
G37*
G36*
X16500D02*
X15754Y27865D01*
X15135Y27246D01*
X14826Y26500D01*
X16500D01*
Y28174D01*
D02*
G37*
G36*
X79500Y27174D02*
Y25500D01*
X81174D01*
X80865Y26246D01*
X80246Y26865D01*
X79500Y27174D01*
D02*
G37*
G36*
X78500D02*
X77754Y26865D01*
X77135Y26246D01*
X76826Y25500D01*
X78500D01*
Y27174D01*
D02*
G37*
G36*
X28174Y25500D02*
X26500D01*
Y23826D01*
X27246Y24135D01*
X27865Y24754D01*
X28174Y25500D01*
D02*
G37*
G36*
X25500D02*
X23826D01*
X24135Y24754D01*
X24754Y24135D01*
X25500Y23826D01*
Y25500D01*
D02*
G37*
G36*
X19174D02*
X17500D01*
Y23826D01*
X18246Y24135D01*
X18865Y24754D01*
X19174Y25500D01*
D02*
G37*
G36*
X16500D02*
X14826D01*
X15135Y24754D01*
X15754Y24135D01*
X16500Y23826D01*
Y25500D01*
D02*
G37*
G36*
X81174Y24500D02*
X79500D01*
Y22826D01*
X80246Y23135D01*
X80865Y23754D01*
X81174Y24500D01*
D02*
G37*
G36*
X78500D02*
X76826D01*
X77135Y23754D01*
X77754Y23135D01*
X78500Y22826D01*
Y24500D01*
D02*
G37*
G36*
X125214Y25537D02*
X124577D01*
X123989Y25293D01*
X123539Y24843D01*
X123296Y24255D01*
Y23619D01*
X123539Y23031D01*
X123989Y22581D01*
X124577Y22337D01*
X125214D01*
X125802Y22581D01*
X126252Y23031D01*
X126496Y23619D01*
Y24255D01*
X126252Y24843D01*
X125802Y25293D01*
X125214Y25537D01*
D02*
G37*
G36*
X267837Y20209D02*
X267163D01*
X267082Y20176D01*
X266995Y20187D01*
X266344Y20013D01*
X266274Y19959D01*
X266187Y19948D01*
X265603Y19611D01*
X265550Y19541D01*
X265469Y19508D01*
X264992Y19031D01*
X264959Y18950D01*
X264889Y18897D01*
X264552Y18313D01*
X264541Y18226D01*
X264487Y18156D01*
X264313Y17505D01*
X264324Y17418D01*
X264291Y17337D01*
Y16663D01*
X264324Y16582D01*
X264313Y16495D01*
X264487Y15844D01*
X264541Y15774D01*
X264552Y15687D01*
X264889Y15103D01*
X264959Y15050D01*
X264992Y14969D01*
X265469Y14492D01*
X265550Y14459D01*
X265603Y14389D01*
X266187Y14052D01*
X266274Y14041D01*
X266344Y13987D01*
X266995Y13813D01*
X267082Y13824D01*
X267163Y13791D01*
X267837D01*
X267918Y13824D01*
X268005Y13813D01*
X268656Y13987D01*
X268726Y14041D01*
X268813Y14052D01*
X269397Y14389D01*
X269450Y14459D01*
X269531Y14492D01*
X270008Y14969D01*
X270041Y15050D01*
X270111Y15103D01*
X270448Y15687D01*
X270459Y15774D01*
X270513Y15844D01*
X270687Y16495D01*
X270676Y16582D01*
X270709Y16663D01*
Y17337D01*
X270676Y17418D01*
X270687Y17505D01*
X270513Y18156D01*
X270459Y18226D01*
X270448Y18313D01*
X270111Y18897D01*
X270041Y18950D01*
X270008Y19031D01*
X269531Y19508D01*
X269450Y19541D01*
X269397Y19611D01*
X268813Y19948D01*
X268726Y19959D01*
X268656Y20013D01*
X268005Y20187D01*
X267918Y20176D01*
X267837Y20209D01*
D02*
G37*
G36*
X247837D02*
X247163D01*
X247082Y20176D01*
X246995Y20187D01*
X246344Y20013D01*
X246274Y19959D01*
X246187Y19948D01*
X245603Y19611D01*
X245550Y19541D01*
X245469Y19508D01*
X244992Y19031D01*
X244959Y18950D01*
X244889Y18897D01*
X244552Y18313D01*
X244541Y18226D01*
X244487Y18156D01*
X244313Y17505D01*
X244324Y17418D01*
X244291Y17337D01*
Y16663D01*
X244324Y16582D01*
X244313Y16495D01*
X244487Y15844D01*
X244541Y15774D01*
X244552Y15687D01*
X244889Y15103D01*
X244959Y15050D01*
X244992Y14969D01*
X245469Y14492D01*
X245550Y14459D01*
X245603Y14389D01*
X246187Y14052D01*
X246274Y14041D01*
X246344Y13987D01*
X246995Y13813D01*
X247082Y13824D01*
X247163Y13791D01*
X247837D01*
X247918Y13824D01*
X248005Y13813D01*
X248656Y13987D01*
X248726Y14041D01*
X248813Y14052D01*
X249397Y14389D01*
X249450Y14459D01*
X249531Y14492D01*
X250008Y14969D01*
X250041Y15050D01*
X250111Y15103D01*
X250448Y15687D01*
X250459Y15774D01*
X250513Y15844D01*
X250687Y16495D01*
X250676Y16582D01*
X250709Y16663D01*
Y17337D01*
X250676Y17418D01*
X250687Y17505D01*
X250513Y18156D01*
X250459Y18226D01*
X250448Y18313D01*
X250111Y18897D01*
X250041Y18950D01*
X250008Y19031D01*
X249531Y19508D01*
X249450Y19541D01*
X249397Y19611D01*
X248813Y19948D01*
X248726Y19959D01*
X248656Y20013D01*
X248005Y20187D01*
X247918Y20176D01*
X247837Y20209D01*
D02*
G37*
G36*
X93358Y25800D02*
X92642D01*
X91980Y25526D01*
X91474Y25020D01*
X91200Y24358D01*
Y24114D01*
X91151Y24003D01*
X91149Y23905D01*
X91142Y23835D01*
X91131Y23771D01*
X91117Y23714D01*
X91099Y23661D01*
X91078Y23612D01*
X91053Y23565D01*
X91023Y23521D01*
X90989Y23477D01*
X90931Y23415D01*
X90907Y23349D01*
X87704Y20146D01*
X71941D01*
X71877Y20175D01*
X71792Y20178D01*
X71737Y20185D01*
X71684Y20196D01*
X71634Y20211D01*
X71584Y20231D01*
X71534Y20255D01*
X71483Y20286D01*
X71431Y20323D01*
X71377Y20368D01*
X71305Y20436D01*
X71192Y20480D01*
X71020Y20652D01*
X70358Y20926D01*
X69642D01*
X68980Y20652D01*
X68474Y20146D01*
X68200Y19484D01*
Y18768D01*
X68474Y18106D01*
X68980Y17600D01*
X69642Y17326D01*
X70358D01*
X71020Y17600D01*
X71192Y17772D01*
X71305Y17816D01*
X71377Y17884D01*
X71431Y17929D01*
X71483Y17966D01*
X71534Y17997D01*
X71584Y18022D01*
X71634Y18041D01*
X71684Y18056D01*
X71737Y18067D01*
X71792Y18074D01*
X71877Y18077D01*
X71941Y18106D01*
X88126D01*
X88516Y18184D01*
X88847Y18405D01*
X92349Y21907D01*
X92414Y21931D01*
X92477Y21989D01*
X92521Y22023D01*
X92566Y22052D01*
X92612Y22077D01*
X92661Y22099D01*
X92713Y22117D01*
X92771Y22131D01*
X92835Y22142D01*
X92905Y22149D01*
X93003Y22151D01*
X93115Y22200D01*
X93358D01*
X94020Y22474D01*
X94526Y22980D01*
X94800Y23642D01*
Y24358D01*
X94526Y25020D01*
X94020Y25526D01*
X93358Y25800D01*
D02*
G37*
G36*
X155500Y20958D02*
Y19500D01*
X156958D01*
X156695Y20133D01*
X156133Y20696D01*
X155500Y20958D01*
D02*
G37*
G36*
X154500D02*
X153867Y20696D01*
X153305Y20133D01*
X153042Y19500D01*
X154500D01*
Y20958D01*
D02*
G37*
G36*
X122000Y20674D02*
Y19000D01*
X123674D01*
X123365Y19746D01*
X122746Y20365D01*
X122000Y20674D01*
D02*
G37*
G36*
X121000D02*
X120254Y20365D01*
X119635Y19746D01*
X119326Y19000D01*
X121000D01*
Y20674D01*
D02*
G37*
G36*
X26500Y20174D02*
Y18500D01*
X28174D01*
X27865Y19246D01*
X27246Y19865D01*
X26500Y20174D01*
D02*
G37*
G36*
X25500D02*
X24754Y19865D01*
X24135Y19246D01*
X23826Y18500D01*
X25500D01*
Y20174D01*
D02*
G37*
G36*
X17500D02*
Y18500D01*
X19174D01*
X18865Y19246D01*
X18246Y19865D01*
X17500Y20174D01*
D02*
G37*
G36*
X16500D02*
X15754Y19865D01*
X15135Y19246D01*
X14826Y18500D01*
X16500D01*
Y20174D01*
D02*
G37*
G36*
X156958Y18500D02*
X155500D01*
Y17042D01*
X156133Y17304D01*
X156695Y17867D01*
X156958Y18500D01*
D02*
G37*
G36*
X154500D02*
X153042D01*
X153305Y17867D01*
X153867Y17304D01*
X154500Y17042D01*
Y18500D01*
D02*
G37*
G36*
X123674Y18000D02*
X122000D01*
Y16326D01*
X122746Y16635D01*
X123365Y17254D01*
X123674Y18000D01*
D02*
G37*
G36*
X121000D02*
X119326D01*
X119635Y17254D01*
X120254Y16635D01*
X121000Y16326D01*
Y18000D01*
D02*
G37*
G36*
X28174Y17500D02*
X26500D01*
Y15826D01*
X27246Y16135D01*
X27865Y16754D01*
X28174Y17500D01*
D02*
G37*
G36*
X25500D02*
X23826D01*
X24135Y16754D01*
X24754Y16135D01*
X25500Y15826D01*
Y17500D01*
D02*
G37*
G36*
X19174D02*
X17500D01*
Y15826D01*
X18246Y16135D01*
X18865Y16754D01*
X19174Y17500D01*
D02*
G37*
G36*
X16500D02*
X14826D01*
X15135Y16754D01*
X15754Y16135D01*
X16500Y15826D01*
Y17500D01*
D02*
G37*
G36*
X79500Y14174D02*
Y12500D01*
X81174D01*
X80865Y13246D01*
X80246Y13865D01*
X79500Y14174D01*
D02*
G37*
G36*
X78500D02*
X77754Y13865D01*
X77135Y13246D01*
X76826Y12500D01*
X78500D01*
Y14174D01*
D02*
G37*
G36*
X307000Y12958D02*
Y11500D01*
X308458D01*
X308195Y12133D01*
X307633Y12696D01*
X307000Y12958D01*
D02*
G37*
G36*
X306000D02*
X305367Y12696D01*
X304804Y12133D01*
X304542Y11500D01*
X306000D01*
Y12958D01*
D02*
G37*
G36*
X296500D02*
Y11500D01*
X297958D01*
X297695Y12133D01*
X297133Y12696D01*
X296500Y12958D01*
D02*
G37*
G36*
X295500D02*
X294867Y12696D01*
X294304Y12133D01*
X294042Y11500D01*
X295500D01*
Y12958D01*
D02*
G37*
G36*
X219189Y70370D02*
X218552D01*
X217964Y70127D01*
X217514Y69677D01*
X217270Y69089D01*
Y68890D01*
X217221Y68782D01*
X217219Y68727D01*
X217216Y68703D01*
X217211Y68678D01*
X217203Y68652D01*
X217192Y68625D01*
X217177Y68594D01*
X217156Y68561D01*
X217130Y68524D01*
X217096Y68483D01*
X217042Y68426D01*
X217017Y68359D01*
X163612Y14954D01*
X163544Y14928D01*
X163487Y14874D01*
X163447Y14841D01*
X163410Y14814D01*
X163376Y14794D01*
X163346Y14778D01*
X163318Y14767D01*
X163293Y14759D01*
X163268Y14754D01*
X163243Y14751D01*
X163188Y14749D01*
X163080Y14700D01*
X162882D01*
X162294Y14456D01*
X161844Y14006D01*
X161600Y13418D01*
Y12782D01*
X161844Y12194D01*
X162294Y11744D01*
X162882Y11500D01*
X163518D01*
X164106Y11744D01*
X164556Y12194D01*
X164800Y12782D01*
Y12980D01*
X164849Y13088D01*
X164851Y13143D01*
X164854Y13168D01*
X164859Y13193D01*
X164867Y13218D01*
X164878Y13246D01*
X164894Y13276D01*
X164914Y13310D01*
X164941Y13347D01*
X164974Y13387D01*
X165028Y13444D01*
X165054Y13512D01*
X218459Y66917D01*
X218526Y66942D01*
X218583Y66996D01*
X218624Y67030D01*
X218661Y67056D01*
X218694Y67077D01*
X218725Y67092D01*
X218752Y67103D01*
X218778Y67111D01*
X218802Y67116D01*
X218828Y67119D01*
X218882Y67121D01*
X218990Y67170D01*
X219189D01*
X219777Y67414D01*
X220227Y67864D01*
X220470Y68452D01*
Y69089D01*
X220227Y69677D01*
X219777Y70127D01*
X219189Y70370D01*
D02*
G37*
G36*
X107254Y12039D02*
Y10365D01*
X108928D01*
X108619Y11111D01*
X108000Y11730D01*
X107254Y12039D01*
D02*
G37*
G36*
X106254D02*
X105508Y11730D01*
X104889Y11111D01*
X104580Y10365D01*
X106254D01*
Y12039D01*
D02*
G37*
G36*
X81174Y11500D02*
X79500D01*
Y9826D01*
X80246Y10135D01*
X80865Y10754D01*
X81174Y11500D01*
D02*
G37*
G36*
X78500D02*
X76826D01*
X77135Y10754D01*
X77754Y10135D01*
X78500Y9826D01*
Y11500D01*
D02*
G37*
G36*
X308458Y10500D02*
X307000D01*
Y9042D01*
X307633Y9305D01*
X308195Y9867D01*
X308458Y10500D01*
D02*
G37*
G36*
X306000D02*
X304542D01*
X304804Y9867D01*
X305367Y9305D01*
X306000Y9042D01*
Y10500D01*
D02*
G37*
G36*
X297958D02*
X296500D01*
Y9042D01*
X297133Y9305D01*
X297695Y9867D01*
X297958Y10500D01*
D02*
G37*
G36*
X295500D02*
X294042D01*
X294304Y9867D01*
X294867Y9305D01*
X295500Y9042D01*
Y10500D01*
D02*
G37*
G36*
X108928Y9365D02*
X107254D01*
Y7691D01*
X108000Y8000D01*
X108619Y8619D01*
X108928Y9365D01*
D02*
G37*
G36*
X106254D02*
X104580D01*
X104889Y8619D01*
X105508Y8000D01*
X106254Y7691D01*
Y9365D01*
D02*
G37*
G36*
X214500Y7174D02*
Y5500D01*
X216174D01*
X215865Y6246D01*
X215246Y6865D01*
X214500Y7174D01*
D02*
G37*
G36*
X213500D02*
X212754Y6865D01*
X212135Y6246D01*
X211826Y5500D01*
X213500D01*
Y7174D01*
D02*
G37*
G36*
X202500D02*
Y5500D01*
X204174D01*
X203865Y6246D01*
X203246Y6865D01*
X202500Y7174D01*
D02*
G37*
G36*
X201500D02*
X200754Y6865D01*
X200135Y6246D01*
X199826Y5500D01*
X201500D01*
Y7174D01*
D02*
G37*
G36*
X161216Y8087D02*
X161169D01*
Y4437D01*
X164819D01*
Y4483D01*
X164536Y5539D01*
X163990Y6485D01*
X163217Y7258D01*
X162271Y7804D01*
X161216Y8087D01*
D02*
G37*
G36*
X160169D02*
X160123D01*
X159068Y7804D01*
X158121Y7258D01*
X157349Y6485D01*
X156802Y5539D01*
X156520Y4483D01*
Y4437D01*
X160169D01*
Y8087D01*
D02*
G37*
G36*
X216174Y4500D02*
X214500D01*
Y2826D01*
X215246Y3135D01*
X215865Y3754D01*
X216174Y4500D01*
D02*
G37*
G36*
X213500D02*
X211826D01*
X212135Y3754D01*
X212754Y3135D01*
X213500Y2826D01*
Y4500D01*
D02*
G37*
G36*
X204174D02*
X202500D01*
Y2826D01*
X203246Y3135D01*
X203865Y3754D01*
X204174Y4500D01*
D02*
G37*
G36*
X201500D02*
X199826D01*
X200135Y3754D01*
X200754Y3135D01*
X201500Y2826D01*
Y4500D01*
D02*
G37*
G36*
X307000Y1958D02*
Y500D01*
X308458D01*
X308195Y1133D01*
X307633Y1695D01*
X307000Y1958D01*
D02*
G37*
G36*
X306000D02*
X305367Y1695D01*
X304804Y1133D01*
X304542Y500D01*
X306000D01*
Y1958D01*
D02*
G37*
G36*
X296500D02*
Y500D01*
X297958D01*
X297695Y1133D01*
X297133Y1695D01*
X296500Y1958D01*
D02*
G37*
G36*
X295500D02*
X294867Y1695D01*
X294304Y1133D01*
X294042Y500D01*
X295500D01*
Y1958D01*
D02*
G37*
G36*
X88468Y7553D02*
X87532D01*
X86629Y7311D01*
X85819Y6843D01*
X85157Y6181D01*
X84689Y5371D01*
X84447Y4468D01*
Y3532D01*
X84689Y2629D01*
X85157Y1819D01*
X85819Y1157D01*
X86629Y689D01*
X87532Y447D01*
X88468D01*
X89371Y689D01*
X90181Y1157D01*
X90843Y1819D01*
X91311Y2629D01*
X91553Y3532D01*
Y4468D01*
X91311Y5371D01*
X90843Y6181D01*
X90181Y6843D01*
X89371Y7311D01*
X88468Y7553D01*
D02*
G37*
G36*
X132158Y61000D02*
X131442D01*
X130780Y60726D01*
X130274Y60220D01*
X130000Y59558D01*
Y58842D01*
X130274Y58180D01*
X130780Y57674D01*
X131442Y57400D01*
X131685D01*
X131797Y57351D01*
X131895Y57349D01*
X131965Y57342D01*
X132029Y57331D01*
X132086Y57317D01*
X132139Y57299D01*
X132188Y57278D01*
X132235Y57253D01*
X132279Y57223D01*
X132323Y57189D01*
X132386Y57131D01*
X132451Y57107D01*
X149650Y39908D01*
Y9060D01*
X149622Y9007D01*
X149609Y8850D01*
X149576Y8715D01*
X149511Y8545D01*
X149411Y8344D01*
X149274Y8116D01*
X149106Y7876D01*
X148330Y6973D01*
X148003Y6643D01*
X147955Y6526D01*
X147669Y6239D01*
X147175Y5384D01*
X146920Y4431D01*
Y3443D01*
X147175Y2490D01*
X147669Y1635D01*
X148367Y937D01*
X149222Y443D01*
X150176Y187D01*
X151163D01*
X152117Y443D01*
X152972Y937D01*
X153670Y1635D01*
X154163Y2490D01*
X154419Y3443D01*
Y4431D01*
X154163Y5384D01*
X153670Y6239D01*
X153384Y6526D01*
X153335Y6643D01*
X153004Y6978D01*
X152452Y7595D01*
X152241Y7864D01*
X152065Y8116D01*
X151927Y8344D01*
X151827Y8545D01*
X151763Y8715D01*
X151730Y8850D01*
X151716Y9007D01*
X151689Y9060D01*
Y40331D01*
X151611Y40721D01*
X151390Y41052D01*
X133893Y58549D01*
X133869Y58614D01*
X133811Y58677D01*
X133777Y58721D01*
X133748Y58766D01*
X133722Y58812D01*
X133701Y58861D01*
X133683Y58913D01*
X133669Y58971D01*
X133658Y59035D01*
X133651Y59105D01*
X133649Y59203D01*
X133600Y59315D01*
Y59558D01*
X133326Y60220D01*
X132820Y60726D01*
X132158Y61000D01*
D02*
G37*
G36*
X126958Y59700D02*
X126242D01*
X125580Y59426D01*
X125074Y58920D01*
X124800Y58258D01*
Y57542D01*
X125074Y56880D01*
X125580Y56374D01*
X126242Y56100D01*
X126486D01*
X126597Y56051D01*
X126695Y56049D01*
X126765Y56042D01*
X126829Y56031D01*
X126886Y56017D01*
X126939Y55999D01*
X126988Y55977D01*
X127034Y55953D01*
X127079Y55923D01*
X127123Y55889D01*
X127185Y55831D01*
X127251Y55807D01*
X139650Y43408D01*
Y9060D01*
X139622Y9007D01*
X139609Y8850D01*
X139576Y8715D01*
X139511Y8545D01*
X139411Y8344D01*
X139274Y8116D01*
X139106Y7876D01*
X138330Y6973D01*
X138003Y6643D01*
X137955Y6526D01*
X137669Y6239D01*
X137175Y5384D01*
X136920Y4431D01*
Y3443D01*
X137175Y2490D01*
X137669Y1635D01*
X138367Y937D01*
X139222Y443D01*
X140176Y187D01*
X141163D01*
X142117Y443D01*
X142972Y937D01*
X143670Y1635D01*
X144163Y2490D01*
X144419Y3443D01*
Y4431D01*
X144163Y5384D01*
X143670Y6239D01*
X143384Y6526D01*
X143335Y6643D01*
X143004Y6978D01*
X142452Y7595D01*
X142241Y7864D01*
X142065Y8116D01*
X141928Y8344D01*
X141827Y8545D01*
X141763Y8715D01*
X141730Y8850D01*
X141716Y9007D01*
X141689Y9060D01*
Y43831D01*
X141611Y44221D01*
X141390Y44552D01*
X128693Y57249D01*
X128669Y57314D01*
X128611Y57377D01*
X128577Y57421D01*
X128548Y57465D01*
X128523Y57512D01*
X128501Y57561D01*
X128483Y57613D01*
X128469Y57671D01*
X128458Y57735D01*
X128452Y57805D01*
X128449Y57903D01*
X128400Y58015D01*
Y58258D01*
X128126Y58920D01*
X127620Y59426D01*
X126958Y59700D01*
D02*
G37*
G36*
X134419Y7687D02*
X126920D01*
Y187D01*
X134419D01*
Y7687D01*
D02*
G37*
G36*
X308458Y-500D02*
X307000D01*
Y-1958D01*
X307633Y-1695D01*
X308195Y-1133D01*
X308458Y-500D01*
D02*
G37*
G36*
X306000D02*
X304542D01*
X304804Y-1133D01*
X305367Y-1695D01*
X306000Y-1958D01*
Y-500D01*
D02*
G37*
G36*
X297958D02*
X296500D01*
Y-1958D01*
X297133Y-1695D01*
X297695Y-1133D01*
X297958Y-500D01*
D02*
G37*
G36*
X295500D02*
X294042D01*
X294304Y-1133D01*
X294867Y-1695D01*
X295500Y-1958D01*
Y-500D01*
D02*
G37*
G36*
X701Y5324D02*
X-701D01*
X-2055Y4962D01*
X-3269Y4261D01*
X-4261Y3269D01*
X-4962Y2055D01*
X-5324Y701D01*
Y-701D01*
X-4962Y-2055D01*
X-4261Y-3269D01*
X-3269Y-4261D01*
X-2055Y-4962D01*
X-701Y-5324D01*
X701D01*
X2055Y-4962D01*
X3269Y-4261D01*
X4261Y-3269D01*
X4962Y-2055D01*
X5324Y-701D01*
Y701D01*
X4962Y2055D01*
X4261Y3269D01*
X3269Y4261D01*
X2055Y4962D01*
X701Y5324D01*
D02*
G37*
%LPD*%
G36*
X47080Y73236D02*
X47029Y73171D01*
X46984Y73101D01*
X46945Y73027D01*
X46912Y72949D01*
X46885Y72867D01*
X46864Y72780D01*
X46849Y72689D01*
X46840Y72594D01*
X46837Y72495D01*
X46037D01*
X46034Y72594D01*
X46025Y72689D01*
X46010Y72780D01*
X45989Y72867D01*
X45962Y72949D01*
X45929Y73027D01*
X45890Y73101D01*
X45845Y73171D01*
X45794Y73236D01*
X45737Y73297D01*
X47137D01*
X47080Y73236D01*
D02*
G37*
G36*
X35056Y61914D02*
X34982Y61823D01*
X34916Y61730D01*
X34858Y61635D01*
X34810Y61537D01*
X34770Y61436D01*
X34740Y61333D01*
X34718Y61227D01*
X34704Y61118D01*
X34700Y61007D01*
X33900D01*
X33896Y61118D01*
X33882Y61227D01*
X33860Y61333D01*
X33830Y61436D01*
X33790Y61537D01*
X33742Y61635D01*
X33684Y61730D01*
X33618Y61823D01*
X33544Y61914D01*
X33460Y62001D01*
X35140D01*
X35056Y61914D01*
D02*
G37*
G36*
X33904Y58240D02*
X33918Y58131D01*
X33940Y58025D01*
X33970Y57922D01*
X34010Y57821D01*
X34058Y57723D01*
X34116Y57628D01*
X34182Y57535D01*
X34256Y57445D01*
X34340Y57357D01*
X32660D01*
X32744Y57445D01*
X32818Y57535D01*
X32884Y57628D01*
X32942Y57723D01*
X32990Y57821D01*
X33030Y57922D01*
X33060Y58025D01*
X33082Y58131D01*
X33096Y58240D01*
X33100Y58351D01*
X33900D01*
X33904Y58240D01*
D02*
G37*
G36*
X75143Y34660D02*
X75055Y34744D01*
X74965Y34818D01*
X74872Y34884D01*
X74777Y34942D01*
X74679Y34990D01*
X74578Y35030D01*
X74475Y35060D01*
X74369Y35082D01*
X74260Y35096D01*
X74149Y35100D01*
Y35900D01*
X74260Y35904D01*
X74369Y35918D01*
X74475Y35940D01*
X74578Y35970D01*
X74679Y36010D01*
X74777Y36058D01*
X74872Y36116D01*
X74965Y36182D01*
X75055Y36256D01*
X75143Y36340D01*
Y34660D01*
D02*
G37*
G36*
X82000Y102500D02*
X139454D01*
X139480Y102474D01*
X140142Y102200D01*
X140858D01*
X141520Y102474D01*
X141546Y102500D01*
X261000D01*
X334500Y29000D01*
X319500Y14000D01*
X245500Y88000D01*
X210318D01*
X210111Y88500D01*
X210365Y88754D01*
X210674Y89500D01*
X206326D01*
X206635Y88754D01*
X206889Y88500D01*
X206682Y88000D01*
X57000D01*
X33457Y64457D01*
X33280Y64384D01*
X32774Y63878D01*
X32701Y63701D01*
X26000Y57000D01*
Y46000D01*
X24000Y44000D01*
X20726D01*
X20288Y44278D01*
X20062Y44822D01*
X19971Y44914D01*
X19921Y45033D01*
X19505Y45449D01*
X19386Y45499D01*
X19295Y45590D01*
X18751Y45815D01*
X18621D01*
X18502Y45865D01*
X17913D01*
X17794Y45815D01*
X17665D01*
X17121Y45590D01*
X17029Y45499D01*
X16910Y45449D01*
X16494Y45033D01*
X16444Y44914D01*
X16353Y44822D01*
X16128Y44278D01*
X15689Y44000D01*
X12000D01*
X10000Y46000D01*
Y52368D01*
X11311D01*
Y55118D01*
Y57868D01*
X10000D01*
Y66000D01*
X14866Y70866D01*
X15356Y70768D01*
X15412Y70633D01*
X15887Y70014D01*
X16505Y69540D01*
X17225Y69241D01*
X17998Y69140D01*
X22338D01*
X23110Y69241D01*
X23830Y69540D01*
X24449Y70014D01*
X24923Y70633D01*
X25221Y71353D01*
X25323Y72125D01*
X25221Y72898D01*
X24923Y73618D01*
X24449Y74236D01*
X23830Y74711D01*
X23110Y75009D01*
X22338Y75111D01*
X19764D01*
X19573Y75573D01*
X24000Y80000D01*
X46600Y102600D01*
X82000D01*
Y102500D01*
D02*
G37*
%LPC*%
G36*
X77500Y95174D02*
Y93500D01*
X79174D01*
X78865Y94246D01*
X78246Y94865D01*
X77500Y95174D01*
D02*
G37*
G36*
X76500D02*
X75754Y94865D01*
X75135Y94246D01*
X74826Y93500D01*
X76500D01*
Y95174D01*
D02*
G37*
G36*
X57500Y93958D02*
Y92500D01*
X58958D01*
X58696Y93133D01*
X58133Y93695D01*
X57500Y93958D01*
D02*
G37*
G36*
X56500D02*
X55867Y93695D01*
X55304Y93133D01*
X55042Y92500D01*
X56500D01*
Y93958D01*
D02*
G37*
G36*
X72500Y93174D02*
Y91500D01*
X74174D01*
X73865Y92246D01*
X73500Y92611D01*
D01*
X73246Y92865D01*
X72500Y93174D01*
D02*
G37*
G36*
X71500D02*
X70754Y92865D01*
X70135Y92246D01*
X69826Y91500D01*
X71500D01*
Y93174D01*
D02*
G37*
G36*
X79174Y92500D02*
X77500D01*
Y90826D01*
X78246Y91135D01*
X78865Y91754D01*
X79174Y92500D01*
D02*
G37*
G36*
X76500D02*
X74826D01*
X75135Y91754D01*
X75754Y91135D01*
X76500Y90826D01*
Y92500D01*
D02*
G37*
G36*
X209000Y92174D02*
Y90500D01*
X210674D01*
X210365Y91246D01*
X209746Y91865D01*
X209000Y92174D01*
D02*
G37*
G36*
X208000D02*
X207254Y91865D01*
X206635Y91246D01*
X206326Y90500D01*
X208000D01*
Y92174D01*
D02*
G37*
G36*
X58958Y91500D02*
X57500D01*
Y90042D01*
X58133Y90304D01*
X58696Y90867D01*
X58958Y91500D01*
D02*
G37*
G36*
X56500D02*
X55042D01*
X55304Y90867D01*
X55867Y90304D01*
X56500Y90042D01*
Y91500D01*
D02*
G37*
G36*
X74174Y90500D02*
X72500D01*
Y88826D01*
X73246Y89135D01*
X73500Y89389D01*
X73865Y89754D01*
X74174Y90500D01*
D02*
G37*
G36*
X71500D02*
X69826D01*
X70135Y89754D01*
X70754Y89135D01*
X71500Y88826D01*
Y90500D01*
D02*
G37*
G36*
X18502Y68625D02*
X17913D01*
X17794Y68575D01*
X17665D01*
X17121Y68350D01*
X17029Y68259D01*
X16910Y68209D01*
X16494Y67793D01*
X16444Y67674D01*
X16353Y67582D01*
X16128Y67038D01*
Y66909D01*
X16078Y66790D01*
Y66201D01*
X16128Y66082D01*
Y65952D01*
X16353Y65408D01*
X16444Y65317D01*
X16494Y65198D01*
X16910Y64781D01*
X17029Y64732D01*
X17121Y64641D01*
X17665Y64415D01*
X17794D01*
X17913Y64366D01*
X18502D01*
X18621Y64415D01*
X18751D01*
X19295Y64641D01*
X19386Y64732D01*
X19505Y64781D01*
X19921Y65198D01*
X19971Y65317D01*
X20062Y65408D01*
X20288Y65952D01*
Y66082D01*
X20337Y66201D01*
Y66790D01*
X20288Y66909D01*
Y67038D01*
X20062Y67582D01*
X19971Y67674D01*
X19921Y67793D01*
X19505Y68209D01*
X19386Y68259D01*
X19295Y68350D01*
X18751Y68575D01*
X18621D01*
X18502Y68625D01*
D02*
G37*
G36*
X18990Y63305D02*
Y61631D01*
X20664D01*
X20355Y62377D01*
X19736Y62996D01*
X18990Y63305D01*
D02*
G37*
G36*
X17990D02*
X17244Y62996D01*
X16625Y62377D01*
X16316Y61631D01*
X17990D01*
Y63305D01*
D02*
G37*
G36*
X20664Y60631D02*
X18990D01*
Y58956D01*
X19736Y59266D01*
X20355Y59885D01*
X20664Y60631D01*
D02*
G37*
G36*
X17990D02*
X16316D01*
X16625Y59885D01*
X17244Y59266D01*
X17990Y58956D01*
Y60631D01*
D02*
G37*
G36*
X14711Y57868D02*
X12311D01*
Y55618D01*
X14711D01*
Y57868D01*
D02*
G37*
G36*
Y54618D02*
X12311D01*
Y52368D01*
X14711D01*
Y54618D01*
D02*
G37*
G36*
X19000Y51674D02*
Y50000D01*
X20674D01*
X20365Y50746D01*
X19746Y51365D01*
X19000Y51674D01*
D02*
G37*
G36*
X18000D02*
X17254Y51365D01*
X16635Y50746D01*
X16326Y50000D01*
X18000D01*
Y51674D01*
D02*
G37*
G36*
X20674Y49000D02*
X19000D01*
Y47326D01*
X19746Y47635D01*
X20365Y48254D01*
X20674Y49000D01*
D02*
G37*
G36*
X18000D02*
X16326D01*
X16635Y48254D01*
X17254Y47635D01*
X18000Y47326D01*
Y49000D01*
D02*
G37*
G36*
X326000Y33458D02*
Y32000D01*
X327458D01*
X327196Y32633D01*
X326633Y33195D01*
X326000Y33458D01*
D02*
G37*
G36*
X325000D02*
X324367Y33195D01*
X323804Y32633D01*
X323542Y32000D01*
X325000D01*
Y33458D01*
D02*
G37*
G36*
X319500Y32458D02*
Y31000D01*
X320958D01*
X320695Y31633D01*
X320133Y32195D01*
X319500Y32458D01*
D02*
G37*
G36*
X318500D02*
X317867Y32195D01*
X317304Y31633D01*
X317042Y31000D01*
X318500D01*
Y32458D01*
D02*
G37*
G36*
X327458Y31000D02*
X326000D01*
Y29542D01*
X326633Y29805D01*
X327196Y30367D01*
X327458Y31000D01*
D02*
G37*
G36*
X325000D02*
X323542D01*
X323804Y30367D01*
X324367Y29805D01*
X325000Y29542D01*
Y31000D01*
D02*
G37*
G36*
X320958Y30000D02*
X319500D01*
Y28542D01*
X320133Y28804D01*
X320695Y29367D01*
X320958Y30000D01*
D02*
G37*
G36*
X318500D02*
X317042D01*
X317304Y29367D01*
X317867Y28804D01*
X318500Y28542D01*
Y30000D01*
D02*
G37*
G36*
X329500Y29958D02*
Y28500D01*
X330958D01*
X330696Y29133D01*
X330133Y29695D01*
X329500Y29958D01*
D02*
G37*
G36*
X328500D02*
X327867Y29695D01*
X327305Y29133D01*
X327042Y28500D01*
X328500D01*
Y29958D01*
D02*
G37*
G36*
X315500Y28958D02*
Y27500D01*
X316958D01*
X316695Y28133D01*
X316133Y28695D01*
X315500Y28958D01*
D02*
G37*
G36*
X314500D02*
X313867Y28695D01*
X313304Y28133D01*
X313042Y27500D01*
X314500D01*
Y28958D01*
D02*
G37*
G36*
X330958Y27500D02*
X329500D01*
Y26042D01*
X330133Y26305D01*
X330696Y26867D01*
X330958Y27500D01*
D02*
G37*
G36*
X328500D02*
X327042D01*
X327305Y26867D01*
X327867Y26305D01*
X328500Y26042D01*
Y27500D01*
D02*
G37*
G36*
X316958Y26500D02*
X315500D01*
Y25042D01*
X316133Y25304D01*
X316695Y25867D01*
X316958Y26500D01*
D02*
G37*
G36*
X314500D02*
X313042D01*
X313304Y25867D01*
X313867Y25304D01*
X314500Y25042D01*
Y26500D01*
D02*
G37*
%LPD*%
G36*
X195208Y76034D02*
X195271Y75364D01*
X195327Y75091D01*
X195398Y74861D01*
X195485Y74672D01*
X195588Y74525D01*
X195707Y74421D01*
X195842Y74358D01*
X195992Y74337D01*
X192808D01*
X192958Y74358D01*
X193093Y74421D01*
X193212Y74525D01*
X193315Y74672D01*
X193402Y74861D01*
X193473Y75091D01*
X193529Y75364D01*
X193568Y75678D01*
X193592Y76034D01*
X193600Y76432D01*
X195200D01*
X195208Y76034D01*
D02*
G37*
G36*
X185121Y72770D02*
X185054Y72742D01*
X184994Y72697D01*
X184943Y72632D01*
X184899Y72549D01*
X184863Y72448D01*
X184836Y72328D01*
X184816Y72190D01*
X184804Y72034D01*
X184800Y71859D01*
X184000D01*
X183996Y72034D01*
X183984Y72190D01*
X183964Y72328D01*
X183937Y72448D01*
X183901Y72549D01*
X183857Y72632D01*
X183806Y72697D01*
X183746Y72742D01*
X183679Y72770D01*
X183604Y72779D01*
X185196D01*
X185121Y72770D01*
D02*
G37*
G36*
X195269Y68096D02*
X195202Y68064D01*
X195143Y68015D01*
X195092Y67947D01*
X195049Y67862D01*
X195013Y67759D01*
X194985Y67638D01*
X194966Y67499D01*
X194954Y67342D01*
X194950Y67168D01*
X194150Y67120D01*
X194146Y67293D01*
X194134Y67448D01*
X194114Y67584D01*
X194087Y67701D01*
X194051Y67800D01*
X194007Y67879D01*
X193956Y67940D01*
X193896Y67982D01*
X193829Y68005D01*
X193754Y68009D01*
X195344Y68110D01*
X195269Y68096D01*
D02*
G37*
G36*
X194954Y62807D02*
X194966Y62652D01*
X194986Y62516D01*
X195013Y62399D01*
X195049Y62300D01*
X195093Y62221D01*
X195144Y62160D01*
X195204Y62118D01*
X195271Y62095D01*
X195346Y62091D01*
X193756Y61990D01*
X193831Y62004D01*
X193898Y62036D01*
X193957Y62085D01*
X194008Y62153D01*
X194051Y62238D01*
X194087Y62341D01*
X194114Y62462D01*
X194134Y62601D01*
X194146Y62758D01*
X194150Y62932D01*
X194950Y62980D01*
X194954Y62807D01*
D02*
G37*
G36*
X163245Y45556D02*
X163335Y45482D01*
X163428Y45416D01*
X163523Y45358D01*
X163621Y45310D01*
X163722Y45270D01*
X163825Y45240D01*
X163931Y45218D01*
X164040Y45204D01*
X164151Y45200D01*
Y44400D01*
X164040Y44396D01*
X163931Y44382D01*
X163825Y44360D01*
X163722Y44330D01*
X163621Y44290D01*
X163523Y44242D01*
X163428Y44184D01*
X163335Y44118D01*
X163245Y44044D01*
X163157Y43960D01*
Y45640D01*
X163245Y45556D01*
D02*
G37*
G36*
X334548Y79514D02*
X334499Y79539D01*
X334430Y79561D01*
X334340Y79580D01*
X334231Y79597D01*
X333952Y79623D01*
X333383Y79643D01*
X333153Y79644D01*
Y80844D01*
X333383Y80845D01*
X334340Y80908D01*
X334430Y80927D01*
X334499Y80950D01*
X334548Y80975D01*
Y79514D01*
D02*
G37*
G36*
X328414Y77566D02*
X328335Y77485D01*
X328103Y77219D01*
X328065Y77166D01*
X328037Y77119D01*
X328016Y77077D01*
X328004Y77041D01*
X328000Y77010D01*
X327010Y78000D01*
X327041Y78004D01*
X327077Y78016D01*
X327119Y78037D01*
X327166Y78066D01*
X327219Y78103D01*
X327341Y78202D01*
X327485Y78335D01*
X327566Y78414D01*
X328414Y77566D01*
D02*
G37*
G36*
X332327Y75533D02*
X332458Y75532D01*
Y75401D01*
X332551Y75308D01*
X332458Y75205D01*
Y73932D01*
X331701Y73892D01*
Y75087D01*
X330856Y75932D01*
X330872Y75937D01*
X330897Y75952D01*
X330930Y75978D01*
X331025Y76059D01*
X331323Y76343D01*
X331420Y76439D01*
X332327Y75533D01*
D02*
G37*
G36*
X334548Y65734D02*
X334447Y65797D01*
X334343Y65853D01*
X334236Y65903D01*
X334124Y65946D01*
X334010Y65982D01*
X333892Y66012D01*
X333770Y66035D01*
X333645Y66051D01*
X333517Y66061D01*
X333385Y66065D01*
Y66865D01*
X333517Y66868D01*
X333770Y66894D01*
X333892Y66917D01*
X334010Y66947D01*
X334124Y66983D01*
X334236Y67027D01*
X334343Y67076D01*
X334447Y67132D01*
X334548Y67195D01*
Y65734D01*
D02*
G37*
G36*
X341553Y64376D02*
X341657Y64320D01*
X341764Y64271D01*
X341876Y64228D01*
X341990Y64191D01*
X342108Y64161D01*
X342230Y64138D01*
X342355Y64122D01*
X342483Y64112D01*
X342615Y64109D01*
Y63309D01*
X342483Y63305D01*
X342230Y63279D01*
X342108Y63256D01*
X341990Y63226D01*
X341876Y63190D01*
X341764Y63147D01*
X341657Y63097D01*
X341553Y63041D01*
X341452Y62978D01*
Y64439D01*
X341553Y64376D01*
D02*
G37*
G36*
X329392Y63214D02*
X329316Y63133D01*
X329249Y63046D01*
X329189Y62956D01*
X329138Y62861D01*
X329095Y62762D01*
X329060Y62658D01*
X329033Y62550D01*
X329014Y62438D01*
X329003Y62321D01*
X329000Y62200D01*
X327812Y63388D01*
X327933Y63391D01*
X328050Y63402D01*
X328162Y63421D01*
X328270Y63448D01*
X328374Y63483D01*
X328473Y63526D01*
X328568Y63578D01*
X328658Y63637D01*
X328745Y63705D01*
X328826Y63780D01*
X329392Y63214D01*
D02*
G37*
G36*
X341553Y61620D02*
X341657Y61564D01*
X341764Y61515D01*
X341876Y61472D01*
X341990Y61435D01*
X342108Y61406D01*
X342230Y61383D01*
X342355Y61366D01*
X342483Y61356D01*
X342615Y61353D01*
Y60553D01*
X342483Y60549D01*
X342230Y60523D01*
X342108Y60500D01*
X341990Y60470D01*
X341876Y60434D01*
X341764Y60391D01*
X341657Y60341D01*
X341553Y60285D01*
X341452Y60222D01*
Y61683D01*
X341553Y61620D01*
D02*
G37*
G36*
X344855Y60605D02*
X344942Y60537D01*
X345032Y60478D01*
X345127Y60426D01*
X345226Y60383D01*
X345330Y60348D01*
X345438Y60321D01*
X345550Y60302D01*
X345667Y60291D01*
X345788Y60288D01*
X344600Y59100D01*
X344597Y59221D01*
X344586Y59338D01*
X344567Y59450D01*
X344540Y59558D01*
X344505Y59662D01*
X344462Y59761D01*
X344411Y59856D01*
X344351Y59947D01*
X344284Y60033D01*
X344208Y60114D01*
X344774Y60680D01*
X344855Y60605D01*
D02*
G37*
G36*
X327972Y58840D02*
X328037Y58789D01*
X328107Y58744D01*
X328181Y58705D01*
X328259Y58672D01*
X328341Y58645D01*
X328428Y58624D01*
X328519Y58609D01*
X328614Y58600D01*
X328713Y58597D01*
Y57797D01*
X328614Y57794D01*
X328519Y57785D01*
X328428Y57770D01*
X328341Y57749D01*
X328259Y57722D01*
X328181Y57689D01*
X328107Y57650D01*
X328037Y57605D01*
X327972Y57554D01*
X327911Y57497D01*
Y58897D01*
X327972Y58840D01*
D02*
G37*
G36*
X334548Y57466D02*
X334447Y57529D01*
X334343Y57585D01*
X334236Y57635D01*
X334124Y57678D01*
X334010Y57714D01*
X333892Y57744D01*
X333770Y57767D01*
X333645Y57784D01*
X333517Y57793D01*
X333385Y57797D01*
Y58597D01*
X333517Y58600D01*
X333770Y58627D01*
X333892Y58650D01*
X334010Y58679D01*
X334124Y58716D01*
X334236Y58759D01*
X334343Y58808D01*
X334447Y58864D01*
X334548Y58927D01*
Y57466D01*
D02*
G37*
G36*
X349204Y58228D02*
X349218Y58120D01*
X349240Y58013D01*
X349270Y57910D01*
X349310Y57809D01*
X349358Y57711D01*
X349416Y57616D01*
X349482Y57523D01*
X349556Y57433D01*
X349640Y57345D01*
X347960D01*
X348044Y57433D01*
X348118Y57523D01*
X348184Y57616D01*
X348242Y57711D01*
X348290Y57809D01*
X348330Y57910D01*
X348360Y58013D01*
X348382Y58120D01*
X348396Y58228D01*
X348400Y58340D01*
X349200D01*
X349204Y58228D01*
D02*
G37*
G36*
X334548Y54711D02*
X334447Y54773D01*
X334343Y54830D01*
X334236Y54879D01*
X334124Y54922D01*
X334010Y54958D01*
X333892Y54988D01*
X333770Y55011D01*
X333645Y55028D01*
X333517Y55038D01*
X333385Y55041D01*
Y55841D01*
X333517Y55844D01*
X333770Y55871D01*
X333892Y55894D01*
X334010Y55923D01*
X334124Y55960D01*
X334236Y56003D01*
X334343Y56052D01*
X334447Y56109D01*
X334548Y56171D01*
Y54711D01*
D02*
G37*
G36*
X329892Y54214D02*
X329816Y54133D01*
X329749Y54046D01*
X329689Y53956D01*
X329638Y53861D01*
X329595Y53762D01*
X329560Y53658D01*
X329533Y53550D01*
X329514Y53438D01*
X329503Y53321D01*
X329500Y53200D01*
X328312Y54388D01*
X328433Y54391D01*
X328550Y54402D01*
X328662Y54421D01*
X328770Y54448D01*
X328874Y54483D01*
X328973Y54526D01*
X329068Y54578D01*
X329158Y54637D01*
X329244Y54704D01*
X329326Y54780D01*
X329892Y54214D01*
D02*
G37*
G36*
X38756Y60055D02*
X38682Y59965D01*
X38616Y59872D01*
X38558Y59777D01*
X38510Y59679D01*
X38470Y59578D01*
X38440Y59475D01*
X38418Y59369D01*
X38404Y59260D01*
X38400Y59149D01*
X37600D01*
X37596Y59260D01*
X37582Y59369D01*
X37560Y59475D01*
X37530Y59578D01*
X37490Y59679D01*
X37442Y59777D01*
X37384Y59872D01*
X37318Y59965D01*
X37244Y60055D01*
X37160Y60143D01*
X38840D01*
X38756Y60055D01*
D02*
G37*
G36*
X31945Y53756D02*
X32035Y53682D01*
X32128Y53616D01*
X32223Y53558D01*
X32321Y53510D01*
X32422Y53470D01*
X32525Y53440D01*
X32631Y53418D01*
X32740Y53404D01*
X32851Y53400D01*
Y52600D01*
X32740Y52596D01*
X32631Y52582D01*
X32525Y52560D01*
X32422Y52530D01*
X32321Y52490D01*
X32223Y52442D01*
X32128Y52384D01*
X32035Y52318D01*
X31945Y52244D01*
X31857Y52160D01*
Y53840D01*
X31945Y53756D01*
D02*
G37*
G36*
X185421Y50546D02*
X185354Y50518D01*
X185294Y50472D01*
X185243Y50408D01*
X185199Y50325D01*
X185163Y50224D01*
X185136Y50104D01*
X185116Y49966D01*
X185104Y49809D01*
X185100Y49635D01*
X184300D01*
X184296Y49809D01*
X184284Y49966D01*
X184264Y50104D01*
X184237Y50224D01*
X184201Y50325D01*
X184157Y50408D01*
X184106Y50472D01*
X184046Y50518D01*
X183979Y50546D01*
X183904Y50555D01*
X185496D01*
X185421Y50546D01*
D02*
G37*
G36*
X160654Y41347D02*
X160744Y41272D01*
X160837Y41206D01*
X160933Y41149D01*
X161031Y41100D01*
X161131Y41061D01*
X161235Y41030D01*
X161341Y41008D01*
X161450Y40995D01*
X161561Y40990D01*
Y40191D01*
X161450Y40186D01*
X161341Y40173D01*
X161235Y40151D01*
X161131Y40120D01*
X161031Y40080D01*
X160933Y40032D01*
X160837Y39975D01*
X160744Y39909D01*
X160654Y39834D01*
X160566Y39750D01*
Y41431D01*
X160654Y41347D01*
D02*
G37*
G36*
X80056Y57255D02*
X79982Y57165D01*
X79916Y57072D01*
X79858Y56977D01*
X79810Y56879D01*
X79770Y56778D01*
X79740Y56675D01*
X79718Y56569D01*
X79704Y56460D01*
X79700Y56349D01*
X78900D01*
X78896Y56460D01*
X78882Y56569D01*
X78860Y56675D01*
X78830Y56778D01*
X78790Y56879D01*
X78742Y56977D01*
X78684Y57072D01*
X78618Y57165D01*
X78544Y57255D01*
X78460Y57343D01*
X80140D01*
X80056Y57255D01*
D02*
G37*
G36*
X200140Y38960D02*
X200052Y39044D01*
X199962Y39118D01*
X199869Y39184D01*
X199774Y39242D01*
X199676Y39290D01*
X199575Y39330D01*
X199472Y39360D01*
X199366Y39382D01*
X199257Y39396D01*
X199146Y39400D01*
Y40200D01*
X199257Y40204D01*
X199366Y40218D01*
X199472Y40240D01*
X199575Y40270D01*
X199676Y40310D01*
X199774Y40358D01*
X199869Y40416D01*
X199962Y40482D01*
X200052Y40556D01*
X200140Y40640D01*
Y38960D01*
D02*
G37*
G36*
X92988Y22800D02*
X92867Y22797D01*
X92750Y22786D01*
X92638Y22767D01*
X92530Y22740D01*
X92426Y22705D01*
X92327Y22662D01*
X92232Y22611D01*
X92142Y22551D01*
X92055Y22484D01*
X91974Y22408D01*
X91408Y22974D01*
X91484Y23055D01*
X91551Y23142D01*
X91611Y23232D01*
X91662Y23327D01*
X91705Y23426D01*
X91740Y23530D01*
X91767Y23638D01*
X91786Y23750D01*
X91797Y23867D01*
X91800Y23988D01*
X92988Y22800D01*
D02*
G37*
G36*
X70945Y19882D02*
X71035Y19808D01*
X71128Y19742D01*
X71223Y19684D01*
X71321Y19636D01*
X71422Y19596D01*
X71525Y19566D01*
X71631Y19544D01*
X71740Y19530D01*
X71851Y19526D01*
Y18726D01*
X71740Y18722D01*
X71631Y18708D01*
X71525Y18686D01*
X71422Y18656D01*
X71321Y18616D01*
X71223Y18568D01*
X71128Y18510D01*
X71035Y18444D01*
X70945Y18370D01*
X70857Y18286D01*
Y19966D01*
X70945Y19882D01*
D02*
G37*
G36*
X218860Y67770D02*
X218777Y67768D01*
X218695Y67758D01*
X218614Y67740D01*
X218534Y67716D01*
X218456Y67684D01*
X218378Y67645D01*
X218302Y67598D01*
X218227Y67544D01*
X218153Y67484D01*
X218081Y67415D01*
X217515Y67981D01*
X217583Y68053D01*
X217645Y68127D01*
X217698Y68202D01*
X217745Y68278D01*
X217784Y68356D01*
X217816Y68434D01*
X217840Y68514D01*
X217858Y68595D01*
X217868Y68677D01*
X217870Y68760D01*
X218860Y67770D01*
D02*
G37*
G36*
X164555Y13890D02*
X164487Y13817D01*
X164426Y13743D01*
X164372Y13668D01*
X164326Y13592D01*
X164287Y13515D01*
X164255Y13436D01*
X164230Y13357D01*
X164213Y13276D01*
X164203Y13193D01*
X164200Y13110D01*
X163210Y14100D01*
X163293Y14103D01*
X163376Y14113D01*
X163457Y14130D01*
X163536Y14155D01*
X163615Y14187D01*
X163692Y14226D01*
X163768Y14272D01*
X163843Y14326D01*
X163917Y14387D01*
X163989Y14455D01*
X164555Y13890D01*
D02*
G37*
G36*
X133003Y59067D02*
X133014Y58950D01*
X133033Y58838D01*
X133060Y58730D01*
X133095Y58626D01*
X133138Y58527D01*
X133189Y58432D01*
X133249Y58342D01*
X133316Y58255D01*
X133392Y58174D01*
X132826Y57608D01*
X132745Y57684D01*
X132658Y57751D01*
X132568Y57811D01*
X132473Y57862D01*
X132374Y57905D01*
X132270Y57940D01*
X132162Y57967D01*
X132050Y57986D01*
X131933Y57997D01*
X131812Y58000D01*
X133000Y59188D01*
X133003Y59067D01*
D02*
G37*
G36*
X151087Y8744D02*
X151142Y8522D01*
X151232Y8284D01*
X151358Y8031D01*
X151521Y7762D01*
X151719Y7478D01*
X151954Y7178D01*
X152531Y6532D01*
X152874Y6186D01*
X148465D01*
X148808Y6532D01*
X149620Y7478D01*
X149818Y7762D01*
X149980Y8031D01*
X150107Y8284D01*
X150197Y8522D01*
X150251Y8744D01*
X150269Y8951D01*
X151069D01*
X151087Y8744D01*
D02*
G37*
G36*
X127803Y57767D02*
X127814Y57650D01*
X127833Y57538D01*
X127860Y57430D01*
X127895Y57326D01*
X127938Y57227D01*
X127989Y57132D01*
X128049Y57042D01*
X128116Y56955D01*
X128192Y56874D01*
X127626Y56308D01*
X127544Y56384D01*
X127458Y56451D01*
X127368Y56511D01*
X127273Y56562D01*
X127174Y56605D01*
X127070Y56640D01*
X126962Y56667D01*
X126850Y56686D01*
X126733Y56697D01*
X126612Y56700D01*
X127800Y57888D01*
X127803Y57767D01*
D02*
G37*
G36*
X141087Y8744D02*
X141141Y8522D01*
X141232Y8284D01*
X141358Y8031D01*
X141521Y7762D01*
X141719Y7478D01*
X141954Y7178D01*
X142531Y6532D01*
X142874Y6186D01*
X138465D01*
X138807Y6532D01*
X139620Y7478D01*
X139818Y7762D01*
X139980Y8031D01*
X140107Y8284D01*
X140197Y8522D01*
X140251Y8744D01*
X140269Y8951D01*
X141069D01*
X141087Y8744D01*
D02*
G37*
D19*
X330244Y80244D02*
X338000D01*
X327000Y77000D02*
X330244Y80244D01*
D30*
X4911Y55118D02*
D03*
X11811D02*
D03*
D86*
X343935Y60953D02*
X345800Y59088D01*
X338000Y60953D02*
X343935D01*
X348800Y56488D02*
Y61888D01*
X330553Y55441D02*
X338000D01*
Y63709D02*
X346979D01*
X332076Y66465D02*
X338000D01*
X346979Y63709D02*
X348800Y61888D01*
X327800Y62188D02*
X332076Y66465D01*
X328300Y53188D02*
X330553Y55441D01*
X327197Y58197D02*
X338000D01*
X163200Y13100D02*
X218870Y68770D01*
X195100Y39800D02*
X200997D01*
X170300Y15000D02*
X195100Y39800D01*
X170300Y2800D02*
Y15000D01*
X33500Y56500D02*
Y59126D01*
X34300Y59926D01*
Y62858D01*
X36000Y53000D02*
X38000Y55000D01*
Y61000D01*
X31000Y53000D02*
X36000D01*
X46437Y64563D02*
X51500Y59500D01*
X46437Y64563D02*
Y74011D01*
X56000Y35500D02*
X76000D01*
X51500Y40000D02*
X56000Y35500D01*
X51500Y40000D02*
Y59500D01*
X102300Y7400D02*
X111200Y-1500D01*
X166000D02*
X170300Y2800D01*
X111200Y-1500D02*
X166000D01*
X102300Y7400D02*
Y22100D01*
X96800Y27600D02*
X102300Y22100D01*
X194550Y58812D02*
X194700Y58662D01*
X194400Y71438D02*
X194550Y71288D01*
Y58812D02*
Y71288D01*
X180000Y66800D02*
X184400Y71200D01*
X180000Y51200D02*
Y66800D01*
X184400Y71200D02*
Y76162D01*
X173600Y44800D02*
X180000Y51200D01*
X162300Y44800D02*
X173600D01*
X184700Y45200D02*
Y53938D01*
X180090Y40591D02*
X184700Y45200D01*
X159710Y40591D02*
X180090D01*
X87800Y27600D02*
X96800D01*
X79300Y36100D02*
X87800Y27600D01*
X79300Y36100D02*
Y58200D01*
X150669Y3937D02*
Y40331D01*
X131800Y59200D02*
X150669Y40331D01*
X140669Y3937D02*
Y43831D01*
X126600Y57900D02*
X140669Y43831D01*
X88126Y19126D02*
X93000Y24000D01*
X70000Y19126D02*
X88126D01*
D88*
X333587Y77476D02*
X337987D01*
X330844Y74732D02*
X333587Y77476D01*
X337987D02*
X338000Y77488D01*
X330844Y74732D02*
X338000D01*
X105109Y46691D02*
Y61109D01*
X126000Y82000D02*
X191000D01*
X105109Y61109D02*
X126000Y82000D01*
X191000D02*
X194400Y78600D01*
Y71438D02*
Y78600D01*
D89*
X247500Y17000D02*
D03*
X267500D02*
D03*
D90*
X184700Y53938D02*
D03*
X194700Y58662D02*
D03*
X174700D02*
D03*
X174400Y71438D02*
D03*
X194400D02*
D03*
X184400Y76162D02*
D03*
D91*
X3838Y72125D02*
D03*
Y38105D02*
D03*
D92*
X20168D02*
D03*
Y72125D02*
D03*
D93*
X98000Y4000D02*
D03*
D94*
X88000D02*
D03*
D95*
X150669Y3937D02*
D03*
X140669D02*
D03*
X160669D02*
D03*
D96*
X130669D02*
D03*
D97*
X346457Y110236D02*
D03*
Y0D02*
D03*
D98*
X0D02*
D03*
Y110236D02*
D03*
D99*
X296500Y95500D02*
D03*
Y104500D02*
D03*
X292500Y99500D02*
D03*
X163200Y13100D02*
D03*
X218870Y68770D02*
D03*
X277500Y95000D02*
D03*
X280000Y102500D02*
D03*
X273000D02*
D03*
X305000Y70500D02*
D03*
X308000Y75500D02*
D03*
X302000D02*
D03*
X37000Y102000D02*
D03*
X28500D02*
D03*
X134500Y30000D02*
D03*
X122500D02*
D03*
X149000Y69500D02*
D03*
X141000Y61500D02*
D03*
X234000Y78500D02*
D03*
X227000Y82500D02*
D03*
X213500Y74000D02*
D03*
X203500D02*
D03*
X296000Y0D02*
D03*
X306500D02*
D03*
Y11000D02*
D03*
X296000D02*
D03*
X292500Y30000D02*
D03*
X277500Y41000D02*
D03*
X347500Y69000D02*
D03*
Y77000D02*
D03*
X327000Y77000D02*
D03*
X327197Y58197D02*
D03*
X315000Y27000D02*
D03*
X319000Y30500D02*
D03*
X329000Y28000D02*
D03*
X325500Y31500D02*
D03*
X56000Y112000D02*
D03*
X74000Y110000D02*
D03*
X155000Y19000D02*
D03*
X110000Y57000D02*
D03*
X100000D02*
D03*
X60000Y45000D02*
D03*
X47000Y30000D02*
D03*
X46437Y74011D02*
D03*
X57000Y92000D02*
D03*
X85000Y108000D02*
D03*
X109000Y75000D02*
D03*
X105109Y46691D02*
D03*
X124896Y23937D02*
D03*
D100*
X328300Y53188D02*
D03*
X330844Y74732D02*
D03*
X345800Y59088D02*
D03*
X327800Y62188D02*
D03*
X348800Y56488D02*
D03*
X38000Y61000D02*
D03*
X76000Y35500D02*
D03*
X189000Y112000D02*
D03*
X177500D02*
D03*
X140500Y104000D02*
D03*
Y112500D02*
D03*
X56000Y78000D02*
D03*
X73000Y60500D02*
D03*
Y68000D02*
D03*
Y75000D02*
D03*
X81000Y68000D02*
D03*
X93500Y47500D02*
D03*
X106000Y40000D02*
D03*
X98500D02*
D03*
X106754Y9865D02*
D03*
X121500Y18500D02*
D03*
X208500Y90000D02*
D03*
X213500Y82500D02*
D03*
X225000Y52000D02*
D03*
X216000D02*
D03*
X214000Y5000D02*
D03*
X202000D02*
D03*
X79000Y12000D02*
D03*
Y25000D02*
D03*
X72000Y30000D02*
D03*
Y40000D02*
D03*
X17000Y18000D02*
D03*
X26000D02*
D03*
Y26000D02*
D03*
X17000D02*
D03*
X133000Y69000D02*
D03*
X156000Y77000D02*
D03*
X144000D02*
D03*
X46500Y55500D02*
D03*
X200997Y39800D02*
D03*
X159710Y40591D02*
D03*
X162300Y44800D02*
D03*
X79300Y58200D02*
D03*
X126600Y57900D02*
D03*
X131800Y59200D02*
D03*
X93000Y24000D02*
D03*
X70000Y19126D02*
D03*
X72000Y91000D02*
D03*
X77000Y93000D02*
D03*
X18490Y61131D02*
D03*
X18500Y49500D02*
D03*
X34300Y62858D02*
D03*
X33500Y56500D02*
D03*
X31000Y53000D02*
D03*
D101*
X338000Y66465D02*
D03*
Y58197D02*
D03*
Y74732D02*
D03*
Y83000D02*
D03*
Y55441D02*
D03*
Y52685D02*
D03*
Y63709D02*
D03*
Y60953D02*
D03*
Y71976D02*
D03*
Y69221D02*
D03*
Y77488D02*
D03*
Y80244D02*
D03*
M02*
