G04*
G04 #@! TF.GenerationSoftware,Altium Limited,Altium Designer,21.2.1 (34)*
G04*
G04 Layer_Color=32896*
%FSLAX25Y25*%
%MOIN*%
G70*
G04*
G04 #@! TF.SameCoordinates,937FA343-5D84-449D-BBD7-2FC7B833E5F3*
G04*
G04*
G04 #@! TF.FilePolarity,Positive*
G04*
G01*
G75*
%ADD10C,0.01000*%
%ADD16C,0.00500*%
%ADD86C,0.00800*%
G36*
X344887Y83467D02*
X344892Y83400D01*
X344898Y83345D01*
X344909Y83301D01*
X344926Y83262D01*
X344937Y83228D01*
X344948Y83206D01*
X344953Y83195D01*
X344959Y83189D01*
X344992Y83156D01*
X345031Y83134D01*
X345070Y83117D01*
X345109Y83106D01*
X345142Y83101D01*
X345170Y83095D01*
X345192D01*
X345198D01*
X348739D01*
Y82901D01*
X348666Y82862D01*
X348605Y82818D01*
X348555Y82779D01*
X348517Y82734D01*
X348489Y82701D01*
X348466Y82673D01*
X348455Y82651D01*
X348450Y82646D01*
X348422Y82585D01*
X348406Y82518D01*
X348389Y82446D01*
X348383Y82379D01*
X348378Y82318D01*
X348372Y82274D01*
Y81963D01*
X348117D01*
Y82435D01*
X348111Y82490D01*
X348095Y82535D01*
X348078Y82557D01*
X348073Y82562D01*
X348039Y82590D01*
X348006Y82601D01*
X347978Y82607D01*
X347973D01*
X347967D01*
X345198D01*
X345142Y82601D01*
X345092Y82596D01*
X345053Y82579D01*
X345020Y82562D01*
X344992Y82546D01*
X344976Y82535D01*
X344965Y82524D01*
X344959Y82518D01*
X344937Y82479D01*
X344920Y82440D01*
X344898Y82340D01*
X344892Y82301D01*
X344887Y82263D01*
Y81963D01*
X344632D01*
Y83756D01*
X344887D01*
Y83467D01*
D02*
G37*
D10*
X336984Y89503D02*
G03*
X334032Y86550I0J-2953D01*
G01*
Y48046D02*
G03*
X336984Y45094I2953J0D01*
G01*
X175734Y53928D02*
G03*
X193626Y53635I9010J3802D01*
G01*
X2711Y58018D02*
G03*
X2763Y52162I3545J-2897D01*
G01*
X13911Y52218D02*
G03*
X13859Y58074I-3545J2897D01*
G01*
X176826Y64174D02*
X192574D01*
X10111Y52118D02*
X13811D01*
X10111Y58118D02*
X13811D01*
X2811D02*
X6611D01*
X2911Y52118D02*
X6611D01*
D16*
X7874Y53635D02*
Y56588D01*
X8858Y53635D02*
Y56588D01*
D86*
X351906Y98323D02*
X361906D01*
X350961Y97377D02*
X351906Y98323D01*
X350961Y89503D02*
Y97377D01*
X336000Y89503D02*
X350961D01*
X336000Y45094D02*
X353100D01*
Y3583D02*
Y45094D01*
X361906Y98323D02*
Y106575D01*
M02*
