M48
;Layer_Color=9474304
;FILE_FORMAT=2:5
INCH,LZ
;TYPE=PLATED
T1F00S00C0.01000
T2F00S00C0.01200
T3F00S00C0.02559
T4F00S00C0.02756
T7F00S00C0.03543
T8F00S00C0.04724
T9F00S00C0.07874
%
T01
X0047Y003
X0046437Y0074011
X0037Y0102
X00285
X0056Y0112
X0074Y011
X0085Y0108
X0057Y0092
X006Y0045
X0105109Y0046691
X011Y0057
X01
X0109Y0075
X0149Y00695
X0141Y00615
X01345Y003
X01225
X0124896Y0023937
X0155Y0019
X01632Y00131
X02035Y0074
X02135
X021887Y006877
X0227Y00825
X0234Y00785
X02775Y0095
X028Y01025
X0273
X02925Y00995
X02965Y00955
Y01045
X0302Y00755
X0308
X0305Y00705
X0327Y0077
X0327197Y0058197
X03255Y00315
X0329Y0028
X0319Y00305
X0315Y0027
X03065Y0011
X0296
Y0
X03065
X02925Y003
X02775Y0041
X03475Y0069
Y0077
T02
X0017Y0018
Y0026
X0026
Y0018
X00185Y00495
X001849Y0061131
X00343Y0062858
X0038Y0061
X00335Y00565
X0031Y0053
X00465Y00555
X0056Y0078
X0073Y0075
Y0068
Y00605
X00793Y00582
X0081Y0068
X0077Y0093
X0072Y0091
Y004
X0076Y00355
X0072Y003
X0079Y0025
Y0012
X007Y0019126
X0093Y0024
X00985Y004
X0106
X00935Y00475
X01266Y00579
X01318Y00592
X0133Y0069
X0144Y0077
X0156
X01623Y00448
X015971Y0040591
X0200997Y00398
X0202Y0005
X02085Y009
X0189Y0112
X01775
X01405Y01125
Y0104
X01215Y00185
X0106754Y0009865
X0214Y0005
X0216Y0052
X0225
X02135Y00825
X0330844Y0074732
X03278Y0062188
X03283Y0053188
X03458Y0059088
X03488Y0056488
T03
X001808Y0043736
Y0066492
T04
X01747Y0058662
X01744Y0071438
X01844Y0076162
X01944Y0071438
X01947Y0058662
X01847Y0053938
T07
X0088Y0004
X0098
X0130669Y0003937
X0140669
X0150669
X0160669
T08
X02475Y0017
X02675
T09
X0Y0
Y0110236
X0346457
Y0
M30
