G04*
G04 #@! TF.GenerationSoftware,Altium Limited,Altium Designer,21.2.1 (34)*
G04*
G04 Layer_Color=8421504*
%FSLAX25Y25*%
%MOIN*%
G70*
G04*
G04 #@! TF.SameCoordinates,937FA343-5D84-449D-BBD7-2FC7B833E5F3*
G04*
G04*
G04 #@! TF.FilePolarity,Positive*
G04*
G01*
G75*
%ADD22R,0.03500X0.03800*%
%ADD23R,0.03347X0.03150*%
%ADD24R,0.03150X0.03347*%
%ADD25R,0.15750X0.05910*%
%ADD26R,0.07480X0.07874*%
%ADD27R,0.06300X0.06300*%
G04:AMPARAMS|DCode=28|XSize=38mil|YSize=35mil|CornerRadius=0mil|HoleSize=0mil|Usage=FLASHONLY|Rotation=315.000|XOffset=0mil|YOffset=0mil|HoleType=Round|Shape=Rectangle|*
%AMROTATEDRECTD28*
4,1,4,-0.02581,0.00106,-0.00106,0.02581,0.02581,-0.00106,0.00106,-0.02581,-0.02581,0.00106,0.0*
%
%ADD28ROTATEDRECTD28*%

G04:AMPARAMS|DCode=29|XSize=60mil|YSize=66.93mil|CornerRadius=0mil|HoleSize=0mil|Usage=FLASHONLY|Rotation=135.000|XOffset=0mil|YOffset=0mil|HoleType=Round|Shape=Rectangle|*
%AMROTATEDRECTD29*
4,1,4,0.04488,0.00245,-0.00245,-0.04488,-0.04488,-0.00245,0.00245,0.04488,0.04488,0.00245,0.0*
%
%ADD29ROTATEDRECTD29*%

%ADD30R,0.03800X0.03500*%
%ADD31R,0.04530X0.01180*%
%ADD32R,0.04530X0.02360*%
%ADD33R,0.02953X0.03937*%
%ADD34R,0.03937X0.02953*%
%ADD35R,0.00790X0.05750*%
%ADD36R,0.05750X0.00790*%
%ADD37R,0.03937X0.01772*%
%ADD38R,0.02362X0.05906*%
%ADD39R,0.11024X0.09449*%
%ADD40R,0.06000X0.06000*%
%ADD41R,0.03940X0.07090*%
%ADD42R,0.07874X0.05906*%
%ADD43R,0.03937X0.03347*%
%ADD44R,0.03937X0.02165*%
%ADD45R,0.05512X0.05118*%
%ADD46R,0.09055X0.03937*%
%ADD47R,0.23622X0.23622*%
G36*
X26578Y53535D02*
X22048D01*
Y54715D01*
X26578D01*
Y53535D01*
D02*
G37*
G36*
X26588Y51565D02*
X22058D01*
Y52755D01*
X26588D01*
Y51565D01*
D02*
G37*
G36*
X26578Y49605D02*
X22058D01*
Y50785D01*
X26578D01*
Y49605D01*
D02*
G37*
G36*
X26588Y47635D02*
X22058D01*
Y48815D01*
X26588D01*
Y47635D01*
D02*
G37*
G36*
Y44485D02*
X22058D01*
Y46845D01*
X26588D01*
Y44485D01*
D02*
G37*
G36*
Y41335D02*
X22058D01*
Y43695D01*
X26588D01*
Y41335D01*
D02*
G37*
G36*
X23674Y40106D02*
X24338Y39442D01*
X24698Y38575D01*
Y37636D01*
X24338Y36768D01*
X23674Y36105D01*
X22807Y35745D01*
X17538D01*
X16671Y36105D01*
X16007Y36768D01*
X15648Y37636D01*
Y38575D01*
X16007Y39442D01*
X16671Y40106D01*
X17538Y40465D01*
X22807D01*
X23674Y40106D01*
D02*
G37*
G36*
X6745D02*
X7408Y39442D01*
X7768Y38575D01*
Y37636D01*
X7408Y36768D01*
X6745Y36105D01*
X5877Y35745D01*
X1788D01*
X921Y36105D01*
X257Y36768D01*
X-102Y37636D01*
Y38575D01*
X257Y39442D01*
X921Y40106D01*
X1788Y40465D01*
X5877D01*
X6745Y40106D01*
D02*
G37*
G36*
X5408Y74485D02*
X5878D01*
X6747Y74125D01*
X7413Y73460D01*
X7773Y72591D01*
Y71650D01*
X7413Y70781D01*
X6747Y70115D01*
X5878Y69755D01*
X5408D01*
D01*
X2258D01*
X1787D01*
X918Y70115D01*
X253Y70781D01*
X-107Y71650D01*
Y72591D01*
X253Y73460D01*
X918Y74125D01*
X1787Y74485D01*
X2258D01*
D01*
X5408D01*
D02*
G37*
G36*
X22338D02*
X22808D01*
X23677Y74125D01*
X24343Y73460D01*
X24703Y72591D01*
Y71650D01*
X24343Y70781D01*
X23677Y70115D01*
X22808Y69755D01*
X22338D01*
D01*
X18008D01*
X17537D01*
X16668Y70115D01*
X16003Y70781D01*
X15643Y71650D01*
Y72591D01*
X16003Y73460D01*
X16668Y74125D01*
X17537Y74485D01*
X18008D01*
D01*
X22338D01*
D02*
G37*
G36*
X26568Y65745D02*
Y63385D01*
X22038D01*
Y65745D01*
X26568D01*
D01*
D02*
G37*
G36*
Y68895D02*
Y66525D01*
X22038D01*
Y68895D01*
X26568D01*
D01*
D02*
G37*
G36*
X26578Y58655D02*
Y57475D01*
X22048D01*
Y58655D01*
X26578D01*
D01*
D02*
G37*
G36*
X26588Y56685D02*
Y55505D01*
X22058D01*
Y56685D01*
X26588D01*
D01*
D02*
G37*
G36*
X26578Y62595D02*
Y61415D01*
X22058D01*
Y62595D01*
X26578D01*
D01*
D02*
G37*
G36*
X26588Y60625D02*
Y59445D01*
X22058D01*
Y60625D01*
X26588D01*
D01*
D02*
G37*
D22*
X356866Y17100D02*
D03*
Y24000D02*
D03*
X63000Y52600D02*
D03*
Y59500D02*
D03*
X55500Y105900D02*
D03*
Y99000D02*
D03*
D23*
X347866Y17226D02*
D03*
Y23774D02*
D03*
X339866Y23626D02*
D03*
Y29374D02*
D03*
X77000Y99126D02*
D03*
Y104874D02*
D03*
X63000Y19126D02*
D03*
Y24874D02*
D03*
X212000Y94126D02*
D03*
Y99874D02*
D03*
X63000Y72374D02*
D03*
Y66626D02*
D03*
D24*
X36126Y76000D02*
D03*
X41874D02*
D03*
X36126Y83000D02*
D03*
X41874D02*
D03*
X289378Y75626D02*
D03*
X295126D02*
D03*
X56874Y19000D02*
D03*
X51126D02*
D03*
Y25000D02*
D03*
X56874D02*
D03*
X127826Y13100D02*
D03*
X133574D02*
D03*
X209374Y106000D02*
D03*
X203626D02*
D03*
X320299Y77000D02*
D03*
X314551D02*
D03*
X334174Y45188D02*
D03*
X328426D02*
D03*
X95626Y74900D02*
D03*
X101374D02*
D03*
X65000Y5000D02*
D03*
X70748D02*
D03*
X37874Y110000D02*
D03*
X32126D02*
D03*
X40626Y36000D02*
D03*
X46374D02*
D03*
X98874Y109000D02*
D03*
X93126D02*
D03*
X25274Y110000D02*
D03*
X18726D02*
D03*
X105626Y109000D02*
D03*
X111374D02*
D03*
X181252Y90760D02*
D03*
X187000D02*
D03*
D25*
X121000Y80820D02*
D03*
Y95000D02*
D03*
D26*
X267500Y32747D02*
D03*
X257500D02*
D03*
X247500D02*
D03*
D27*
X235453Y13060D02*
D03*
X279547D02*
D03*
D28*
X319526Y10475D02*
D03*
X314646Y15354D02*
D03*
D29*
X321813Y23187D02*
D03*
X331000Y14000D02*
D03*
D30*
X313925Y70000D02*
D03*
X320825D02*
D03*
X107100Y16500D02*
D03*
X114000D02*
D03*
X94900Y86000D02*
D03*
X88000D02*
D03*
X114100Y4000D02*
D03*
X121000D02*
D03*
X81200Y75000D02*
D03*
X88100D02*
D03*
X107100Y24000D02*
D03*
X114000D02*
D03*
X206500Y84000D02*
D03*
X199600D02*
D03*
X120000Y112000D02*
D03*
X126900D02*
D03*
X321300Y53188D02*
D03*
X314400D02*
D03*
X63100Y12000D02*
D03*
X70000D02*
D03*
D31*
X24318Y62005D02*
D03*
X24328Y60035D02*
D03*
X24318Y58065D02*
D03*
Y56095D02*
D03*
Y54135D02*
D03*
Y52165D02*
D03*
Y50195D02*
D03*
Y48225D02*
D03*
D32*
X24308Y67715D02*
D03*
Y64565D02*
D03*
X24318Y45665D02*
D03*
Y42515D02*
D03*
D33*
X106000Y99173D02*
D03*
Y85000D02*
D03*
D34*
X321473Y45188D02*
D03*
X307300D02*
D03*
D35*
X90250Y65500D02*
D03*
X91820D02*
D03*
X93400D02*
D03*
X94970D02*
D03*
X96550D02*
D03*
X98120D02*
D03*
X99700D02*
D03*
X101270D02*
D03*
X102850D02*
D03*
X104420D02*
D03*
X106000D02*
D03*
X107570D02*
D03*
X109150D02*
D03*
X110720D02*
D03*
X112300D02*
D03*
X113870D02*
D03*
Y32980D02*
D03*
X112300Y32980D02*
D03*
X110720D02*
D03*
X109150Y32980D02*
D03*
X107570D02*
D03*
X106000D02*
D03*
X104420Y32980D02*
D03*
X102850D02*
D03*
X101270Y32980D02*
D03*
X99700D02*
D03*
X98120D02*
D03*
X96550D02*
D03*
X94970Y32980D02*
D03*
X93400D02*
D03*
X91820Y32980D02*
D03*
X90250D02*
D03*
D36*
X118320Y61050D02*
D03*
Y59480D02*
D03*
Y57900D02*
D03*
Y56330D02*
D03*
Y54750D02*
D03*
Y53180D02*
D03*
Y51600D02*
D03*
Y50030D02*
D03*
Y48450D02*
D03*
Y46880D02*
D03*
Y45300D02*
D03*
Y43730D02*
D03*
Y42150D02*
D03*
Y40580D02*
D03*
Y39000D02*
D03*
Y37430D02*
D03*
X85800D02*
D03*
X85800Y39000D02*
D03*
Y40580D02*
D03*
Y42150D02*
D03*
X85800Y43730D02*
D03*
Y45300D02*
D03*
X85800Y46880D02*
D03*
X85800Y48450D02*
D03*
X85800Y50030D02*
D03*
Y51600D02*
D03*
X85800Y53180D02*
D03*
Y54750D02*
D03*
X85800Y56330D02*
D03*
Y57900D02*
D03*
Y59480D02*
D03*
X85800Y61050D02*
D03*
D37*
X97000Y94020D02*
D03*
Y97760D02*
D03*
Y101500D02*
D03*
X86000D02*
D03*
Y97760D02*
D03*
Y94020D02*
D03*
D38*
X54311Y66500D02*
D03*
X50374D02*
D03*
X46437D02*
D03*
X42500D02*
D03*
X38563D02*
D03*
X38563Y44847D02*
D03*
X42500D02*
D03*
X46437D02*
D03*
X50374D02*
D03*
X54311D02*
D03*
D39*
X46437Y55674D02*
D03*
D40*
X65000Y96000D02*
D03*
X65000Y108599D02*
D03*
D41*
X151690Y85720D02*
D03*
X163500D02*
D03*
Y105400D02*
D03*
X151690D02*
D03*
D42*
X54000Y5100D02*
D03*
X22769Y5022D02*
D03*
D43*
X301874Y82500D02*
D03*
X295126D02*
D03*
D44*
X193382Y90760D02*
D03*
Y98240D02*
D03*
X203618D02*
D03*
Y94500D02*
D03*
Y90760D02*
D03*
D45*
X118488Y104000D02*
D03*
X129512D02*
D03*
D46*
X288260Y109055D02*
D03*
Y90945D02*
D03*
D47*
X317000Y100000D02*
D03*
M02*
